<svg xmlns="http://www.w3.org/2000/svg" viewBox="0 0 2300.41 2189.38"><defs><style>.cls-1{opacity:0.5;}.cls-2{fill:#b4cce4;}.cls-3{fill:#304f77;}</style></defs><title>2 opacidade</title><g id="Camada_2" data-name="Camada 2"><g id="Camada_2-2" data-name="Camada 2"><g class="cls-1"><path class="cls-2" d="M2299,795.06c-8-35.93-48.37-57.49-90.12-48.17-34.29,7.66-58.84,33.77-62.08,62.76L1776.65,920.11a648.12,648.12,0,0,0-57.21-134.6l350.22-181.84c19.73,9.17,44.91,9.44,68.26-1.29,38.86-17.88,57.89-59.49,42.5-92.93s-59.36-46.06-98.22-28.18c-35.16,16.17-54.08,51.76-46,83.16L1706.12,763a655.1,655.1,0,0,0-87.31-111.71l71.12-61.86c31.59,6.74,74.11-5.62,98.35-26.72,33.22-28.92,38.54-77.2,11.87-107.83s-75.21-32-108.44-3.09c-28.68,25-50.76,74.72-39.11,107.56l-57.93,68.38A653.9,653.9,0,0,0,1445.4,523.8l131-209.45c26,.94,53.38-14.41,69-41.53,21.39-37,12.88-82-19-100.41s-75.06-3.29-96.45,33.75c-17.28,29.93-15,65,3.27,87.1l-114.06,218A649.49,649.49,0,0,0,1160.31,454L1168,178.36c31.53-14.79,55.74-61.94,55.74-98.6,0-44.05-32.92-79.76-73.54-79.76s-73.53,35.71-73.53,79.76c0,33,17.33,74.5,43.1,93.25l13.73,281.14a650.2,650.2,0,0,0-211.32,41.17L755.45,175.22c12.82-22,12.8-52.44-2.47-78.88-21.39-37.05-64.57-52.16-96.45-33.75s-40.39,63.35-19,100.4c17.39,30.12,49.18,45.73,77.59,40.64L899.9,504.16A652.83,652.83,0,0,0,702.1,633.32l-62.18-69.13C654,530.74,633,476.65,603.19,451.3c-33.55-28.55-82.08-26.62-108.4,4.31s-20.46,79.14,13.09,107.69c23.63,20.11,62.92,33.42,93.29,28.73l78.18,64a654.91,654.91,0,0,0-82.76,107L264.28,553.94l-3.18,5.37c4-29.45-14.31-61.15-46.68-76.38-38.7-18.23-82.78-6-98.47,27.31s3,75.08,41.69,93.3c28.51,13.42,59.93,10.3,80.78-5.58l346.32,185A648.26,648.26,0,0,0,526,920.23L152.93,806.42c-3.83-27.35-26.36-52.3-58.44-61.16-41.23-11.38-82.6,8.16-92.4,43.65S17.79,862.39,59,873.77c30.36,8.38,60.76,0,78.61-19.17l381.52,90.69a652.69,652.69,0,0,0-19.77,144L409.32,1084c-13.37-32.91-62.68-58.25-100.54-57.87-44,.44-79.43,33.71-79,74.32s36.44,73.17,80.49,72.74c34.11-.34,77.11-19.29,94.6-46.68l94.44-8.83a649.54,649.54,0,0,0,53,246.66L242.27,1538.43c-23.85-20.62-63-20.56-93.27,2-34.35,25.5-44.39,70.14-22.44,99.69s67.58,32.84,101.92,7.33c21.46-15.94,33.44-39.36,34-61.89l301.69-195.18a653.46,653.46,0,0,0,113,163.58l-63.5,55.57c-32.94-12.68-84.73,4.81-110.65,31.89-30.46,31.82-31.38,80.38-2,108.46s77.81,25.06,108.27-6.76c22.58-23.58,38.65-64.89,33.53-96.14l58.17-69.1A655.14,655.14,0,0,0,811.75,1663l-205.7,321.81c-26.5-1.63-54.63,13.79-70.61,41.46-21.39,37.05-12.88,82,19,100.41s75.06,3.29,96.45-33.75c16.56-28.68,15.19-62.09-1.06-84.26l184.31-332.59A648.91,648.91,0,0,0,1137,1758.13l-11.53,257.5c-27.44,18.08-48.07,59.31-48.78,92.41-.94,44.05,31.21,80.45,71.81,81.32s74.28-34.13,75.22-78.17c.77-36.06-18.94-82.7-48.39-98.91L1170.77,1758a648.77,648.77,0,0,0,296-80.92l175.59,341.76c-9.83,20.77-9.42,47.68,3.32,71.84,20,37.85,62.52,54.61,95.09,37.44s42.79-61.76,22.84-99.6c-17.41-33-52-50-82.23-42.36l-192-322.21a655,655,0,0,0,116.77-90.42l55.71,66.36c-9,32.5,5.86,79.28,29.87,104.29,30.51,31.77,79,34.73,108.29,6.6s28.31-76.68-2.2-108.46c-23.75-24.73-67.36-43.12-99.33-36.8l-66.63-58.47a652.78,652.78,0,0,0,118.47-182.57L2039.89,1548c-.63,26.69,16.09,54.33,44.62,69.12,38,19.69,82.49,9.15,99.44-23.53s-.11-75.13-38.09-94.82c-29.57-15.33-63.1-12.33-84.49,5.17l-300.58-165.13a650.56,650.56,0,0,0,42.74-229.19l86.92,6.77c15.07,30.59,59.1,55.11,94.41,56.72,44,2,81.17-29.27,83-69.84s-32.33-75.08-76.34-77.07c-33.8-1.54-77.37,14.73-96.58,40.74l-92.2,6.47a651.17,651.17,0,0,0-19.46-129.26l379.32-87.73c17.21,18.32,45.92,27.1,75.34,20.53C2279.7,867.67,2307,831,2299,795.06Z"/><circle class="cls-3" cx="818.1" cy="1471.88" r="43.2"/><circle class="cls-3" cx="1464.6" cy="1160.12" r="220.65"/><circle class="cls-3" cx="1236.29" cy="746.5" r="160.51"/><circle class="cls-3" cx="862.69" cy="883.67" r="73.58"/><circle class="cls-3" cx="1566.2" cy="769.42" r="83.46"/><circle class="cls-3" cx="997.13" cy="1593.72" r="78.64"/></g></g></g></svg>