<svg xmlns="http://www.w3.org/2000/svg" viewBox="0 0 210.78 210.5"><defs><style>.cls-1{fill:#304f77;}.cls-2{fill:#b6cce0;}</style></defs><title>Asset 2</title><g id="Layer_2" data-name="Layer 2"><g id="Layer_1-2" data-name="Layer 1"><circle class="cls-1" cx="105.25" cy="105.25" r="105.25"/><path class="cls-2" d="M162.85,69.55a7.12,7.12,0,0,0-6,5.89c-.12.65-.14,1.33-.22,2l-1.31.3a21.34,21.34,0,0,0-15,11.14c-2.44,4.45-2.49,9.23-2.44,14.09a21.24,21.24,0,0,0,13.88,20.23c1.58.62,3.28,1,4.91,1.42.5,5,2.28,7.06,7,8,8.45,1.6,16.89,3.23,25.36,4.72a101.69,101.69,0,0,0,16.48,1.64c0-.08.29-.86.3-.93.39-1.27.6-1.86,1-3.28l.09-.33a54.47,54.47,0,0,1-8.9-.76c-9.63-1.43-19.21-3.22-28.81-4.86-1.65-.29-3.3-.6-4.94-.93-2.19-.45-2.7-1.08-2.7-3.32V77.42c0-2.23.51-2.9,2.71-3.31,9.73-1.82,19.43-3.85,29.21-5.33a101.88,101.88,0,0,1,10.3-1c-.58-1.62-1.24-3-2-4.71-3.21.2-5.55.48-8.74,1-10.1,1.55-20.13,3.61-30.19,5.47m-6.14,50c-7.54-1.19-13.16-6.73-13.83-14.25a40.78,40.78,0,0,1,.53-11.25c.86-4.56,4-7.77,8-10a16.06,16.06,0,0,1,3.41-1c.6-.17,1.21-.28,1.87-.43Z"/><path class="cls-2" d="M172.91,84.49A2.23,2.23,0,0,0,171,87a2.21,2.21,0,0,0,2.24,2.19c.42,0,.84,0,1.26,0,10.65,0,24.36,0,35,0-.09-.6-.24-1.36-.33-2-.14-1-.39-1.8-.53-2.77l-34.47,0a5.28,5.28,0,0,0-1.26,0"/><path class="cls-2" d="M173.1,112.84a5.23,5.23,0,0,0-2,1.85,1.9,1.9,0,0,0,1.26,2.54,5.52,5.52,0,0,0,2,.28l35.84,0c.13-1.22.19-1.71.3-3.12,0-.35.09-1.28.12-1.62-11.26,0-24.83,0-36.09,0-.47,0-1.06-.17-1.39,0"/><path class="cls-2" d="M173,98.69A2.24,2.24,0,0,0,171,101a2.27,2.27,0,0,0,2,2.31,4.47,4.47,0,0,0,1.1,0l36.68,0c-.05-1.49-.07-3-.22-4.76h-36a6.84,6.84,0,0,0-1.57.06"/><path class="cls-2" d="M48.33,132.3a6.7,6.7,0,0,0,5.57-6.39c.06-1.16.53-1.51,1.55-1.72,8-1.69,13.38-6.39,16.26-14,1.49-4,1.23-8.07,1.11-12.15A20.71,20.71,0,0,0,64,81.41a21.53,21.53,0,0,0-9.87-4c-.52-5.07-2.22-7.2-6.7-8-8.93-1.63-28.06-3.53-39.17-4-.28.44-.05.55-.31,1A19.83,19.83,0,0,0,6.6,69.86a401.06,401.06,0,0,1,40,4.28c2.12.36,2.62,1.06,2.62,3.21v47.27c0,2.11-.48,2.79-2.48,3.16-10.56,1.95-21.1,4.1-31.71,5.69a87.16,87.16,0,0,1-10.81,1c.39,1.62,1,3.38,1.37,4.48,2.13-.06,3.54-.14,5.66-.32,12.53-1,24.74-4,37.06-6.29m5.73-49.87a15.38,15.38,0,0,0,2.18.62c6,.82,11.5,7.91,11.77,14,.21,4.67.72,9.45-1.78,13.69a17.83,17.83,0,0,1-4.54,5.45c-2.21,1.62-4.57,3.42-7.63,3.28Z"/><path class="cls-2" d="M37.38,89.15A2.26,2.26,0,0,0,39.78,87a2.34,2.34,0,0,0-2.25-2.52,7.37,7.37,0,0,0-.94,0c-8.7,0-25.39-.13-34.09-.13-.35,1.72-.59,3.09-.89,4.87H28.55c2.95,0,5.89,0,8.83,0"/><path class="cls-2" d="M37.81,117.44a5.37,5.37,0,0,0,1.89-2c.42-1.11-.34-2-1.4-2.49a4.55,4.55,0,0,0-1.7-.15c-11.23,0-24.82.28-36.05.28,0,.79.09,1.18.17,2.09s.19,2.28.31,3c11.32,0,24.07-.67,35.39-.67.47,0,1.09.16,1.39-.08"/><path class="cls-2" d="M37.85,103.29a2.35,2.35,0,0,0,0-4.63,6,6,0,0,0-1.41,0c-10.23,0-25.65.17-35.87.17-.06.83-.1,1.42-.12,2.34S.35,103,.33,103.55c10.55,0,25.87-.21,36.42-.21a4.44,4.44,0,0,0,1.1,0"/></g></g></svg>