<svg xmlns="http://www.w3.org/2000/svg" viewBox="0 0 500 500"><defs><style>.cls-1,.cls-12{fill:#b4cce4;}.cls-2{fill:#ffc759;}.cls-3,.cls-5{fill:#1c3047;}.cls-4{fill:#fcd6d9;}.cls-5{stroke:#b4cce4;}.cls-5,.cls-6,.cls-9{stroke-miterlimit:10;stroke-width:0.76px;}.cls-6,.cls-9{fill:none;}.cls-6{stroke:#fff;}.cls-13,.cls-7{fill:#fff;}.cls-8{fill:#1c1b20;}.cls-9{stroke:#1c1b20;stroke-linecap:round;}.cls-11,.cls-12,.cls-9{opacity:0.5;}.cls-10,.cls-11{fill:#dd6876;}.cls-13{opacity:0.2;}</style></defs><g id="Espirro"><path class="cls-1" d="M394.31,239.35V435.74a476,476,0,0,1-141.59,25.34A476.19,476.19,0,0,1,99.9,439.86v-13q0-93.74,0-187.47Z"/><path class="cls-2" d="M65,426.75l34.94-.69v13C86.43,434.92,74.73,430.64,65,426.75Z"/><path class="cls-2" d="M434,419.44c-10.91,4.84-24.21,10.27-39.66,15.53V420.22Z"/><path class="cls-3" d="M363.29,184.89c-6.55,3.1-15.58,6.1-21.22,5-.73-9.37-7.45-16.7-15.64-16.7-6.92,0-12.81,5.25-14.89,12.55-5,2-11.14.64-15.31-2-7.47-4.86-7.72-14.68-7.92-20.12-.25-6.94,3.32-11.87,1.83-12.8s-4.61,4.68-10.36,4.87a12.63,12.63,0,0,1-9.76-4.87c-2.79-3.56-1.9-6.78-3.66-7.32-2.45-.74-4.19,5.61-10.19,9.15-6.2,3.65-15.51,3.44-21.34-.61-5-3.5-6.32-8.94-8.53-8.54-1.59.29-.89,3.77-3.66,7.32a12.63,12.63,0,0,1-9.75,4.87c-5.76-.19-8.8-5.85-10.37-4.87s2.08,5.86,1.83,12.8c-.2,5.44-.45,15.26-7.92,20.12a18.88,18.88,0,0,1-11.22,3c-1.83-7.77-7.92-13.47-15.13-13.47a14.22,14.22,0,0,0-9.47,3.71h0a18,18,0,0,0-4.5,6.28,19.5,19.5,0,0,0-1.33,4.25,4.07,4.07,0,0,1-.41.52c-4.24,4.7-16.65.9-25-3.05-17-8-32.4-30.89-23.16-50,6.87-14.21,25.52-22.38,44.5-17.68-10-12.89-10.43-29.43-2.44-39,9.15-11,26.91-9.92,37.19-5.49,10.64,4.59,14.45,13.3,18.89,11.58,5.28-2,.37-14.51,8.54-25,6.94-8.91,18.46-10.13,20.72-10.37,1.85-.19,23.59-.19,25.44,0,2.26.24,13.78,1.46,20.73,10.37,8.16,10.48,3.26,22.95,8.53,25,4.43,1.72,8.25-7,18.9-11.58,10.27-4.43,28-5.5,37.18,5.49,8,9.58,7.55,26.12-2.44,39,19-4.7,37.63,3.47,44.5,17.68C395.69,154,380.25,176.89,363.29,184.89Z"/><path class="cls-4" d="M342.07,189.88c-.73-9.37-7.45-16.7-15.64-16.7-6.92,0-12.81,5.25-14.89,12.55-5,2-11.14.64-15.31-2-7.47-4.86-7.72-14.68-7.92-20.12-.25-6.94,3.32-11.87,1.83-12.8s-4.61,4.68-10.36,4.87a12.63,12.63,0,0,1-9.76-4.87c-2.79-3.56-1.9-6.78-3.66-7.32-2.45-.74-4.19,5.61-10.19,9.15-6.2,3.65-15.51,3.44-21.34-.61-5-3.5-6.32-8.94-8.53-8.54-1.59.29-.89,3.77-3.66,7.32a12.63,12.63,0,0,1-9.75,4.87c-5.76-.19-8.8-5.85-10.37-4.87s2.08,5.86,1.83,12.8c-.2,5.44-.45,15.26-7.92,20.12a18.88,18.88,0,0,1-11.22,3c-1.83-7.77-7.92-13.47-15.13-13.47a14.22,14.22,0,0,0-9.47,3.71h0a18,18,0,0,0-4.5,6.28,19.5,19.5,0,0,0-1.33,4.25,20.44,20.44,0,0,0-.41,4.18c0,10.17,7,18.43,15.71,18.43a14.09,14.09,0,0,0,9-3.36,74.26,74.26,0,0,0,4,11.73l.32.72c.11.26.24.52.36.78A70.06,70.06,0,0,0,191,232c2.91,4,8,8.93,12.07,12.62.32.3.64.59,1,.86l86.75.1h1c1.34-1.13,2.82-2.42,4.33-3.79a75.88,75.88,0,0,0,9.38-9.79,69.36,69.36,0,0,0,6.94-11.59c.07-.13.13-.26.19-.39s.23-.5.34-.75.24-.5.34-.76a75.36,75.36,0,0,0,4.08-11.8,14.1,14.1,0,0,0,9,3.35c8.68,0,15.71-8.26,15.71-18.43C342.14,191,342.12,190.44,342.07,189.88ZM228.39,221l.21-.42c.83-1.77,3.29-7.48,9-10a15.6,15.6,0,0,1,7.62-1.24c1.76-.08,3.61-.08,5.37,0a15.71,15.71,0,0,1,7.24,1.08l.39.16c5.65,2.55,8.11,8.26,8.93,10l.21.42Z"/><path class="cls-4" d="M267.31,221H228.39l.21-.42c.83-1.77,3.29-7.48,9-10a15.6,15.6,0,0,1,7.62-1.24c1.76-.08,3.61-.08,5.37,0a15.71,15.71,0,0,1,7.24,1.08l.39.16c5.65,2.55,8.11,8.26,8.93,10Z"/><path class="cls-5" d="M180,350.57c-1.28,1.08-2.62,2.16-4.06,3.24-1.71,1.3-3.54,2.59-5.5,3.85a91.62,91.62,0,0,1-23.35,10.78,77.86,77.86,0,0,1-2.6-16.13c1.78-.16,3.46-.28,5-.33,2.66-.1,9.14-.19,14.23-4.47,2.22-1.89,2.24-2.93,3.65-3.66,1.58-.82,3.85-.71,6.45.1l.77.83Z"/><path class="cls-5" d="M189.91,361.22c-.44.56-.88,1.12-1.34,1.69a145.32,145.32,0,0,1-12.46,13.65,143.37,143.37,0,0,1-18.33,14.94,75.76,75.76,0,0,1-5.85-10.06,74.93,74.93,0,0,1-4.86-13,91.62,91.62,0,0,0,23.35-10.78c2-1.26,3.79-2.55,5.5-3.85,1.44-1.08,2.78-2.16,4.06-3.24Z"/><path class="cls-5" d="M166.55,402.06a77,77,0,0,1-8.77-10.56,143.37,143.37,0,0,0,18.33-14.94,145.32,145.32,0,0,0,12.46-13.65c.46-.57.9-1.13,1.34-1.69l5.4,5.8c0,.27.07.54.1.81C196.69,380,182.59,388.24,166.55,402.06Z"/><path class="cls-1" d="M203.07,244.59c-.19.18-.38.34-.57.5A133.46,133.46,0,0,1,173.16,262q-2.37.93-4.57,1.65a60.36,60.36,0,0,0-3.25-20.58,58.36,58.36,0,0,0-7.52-14.83c-5.65-7.67-15.83-12.62-28.32-14.6,5.49-.62,9.3,1.81,32.58,4,9,.85,16.4,1.26,21.38,1.46.11.26.24.52.36.78A70.06,70.06,0,0,0,191,232C193.91,235.93,199,240.9,203.07,244.59Z"/><path class="cls-6" d="M183.82,219.14l-.36,0"/><path class="cls-3" d="M168.59,263.64a76.86,76.86,0,0,1-12,2.9,63.35,63.35,0,0,0-27-26.73,64.35,64.35,0,0,0-29.09-6.8c7.14-8.29,15.57-16.07,26-18.8a22,22,0,0,1,3-.58c12.49,2,22.67,6.93,28.32,14.6a58.36,58.36,0,0,1,7.52,14.83A60.36,60.36,0,0,1,168.59,263.64Z"/><path class="cls-1" d="M163.46,285.94c-.26.57-.51,1.11-.77,1.62l-12.42,25.87a112.54,112.54,0,0,0-79.75-30.15c6.57-16.31,12.16-26.22,16.84-33.22.87-1.31,2.68-4,5.23-7.27s5.08-6.51,7.9-9.78a64.35,64.35,0,0,1,29.09,6.8,63.35,63.35,0,0,1,27,26.73c-8.06,1.32-12.67,1-13.22,3.85C142.56,274.53,151.2,280.45,163.46,285.94Z"/><path class="cls-1" d="M133.11,352.45c-1.5.14-3.07.33-4.71.59h0a68.28,68.28,0,0,0-21.18,7.06c-5.36,2.84-17.64,9.56-25.6,24a58.65,58.65,0,0,0-5.49,14.43c-3.7,15.48-.65,29.72,2.7,39.31a76.79,76.79,0,0,1-7.77-.91c-6-1-29.28-4.92-35-19.91-2.19-5.79-1-11.25-.4-13.82,4.9-21.18,9.51-39.44,13.83-55.24a76.89,76.89,0,0,1,83.58,4.51Z"/><path class="cls-1" d="M166.55,402.06c-.27.24-.53.48-.81.71a163.08,163.08,0,0,1-35.93,24,58.06,58.06,0,0,1-11.2-20.93c-7.15-24.57,4.85-45.53,9.79-52.78h0c1.64-.26,3.21-.45,4.71-.59h0a72.13,72.13,0,0,1,7.42-.3c1.5,0,2.82.09,3.94.16a77.86,77.86,0,0,0,2.6,16.13,74.93,74.93,0,0,0,4.86,13,75.76,75.76,0,0,0,5.85,10.06A77,77,0,0,0,166.55,402.06Z"/><path class="cls-3" d="M129.81,426.75c-14.48,7-32.15,12.37-51,11.07-3.35-9.59-6.4-23.83-2.7-39.31a58.65,58.65,0,0,1,5.49-14.43c8-14.42,20.24-21.14,25.6-24A68.28,68.28,0,0,1,128.4,353c-4.94,7.25-16.94,28.21-9.79,52.78A58.06,58.06,0,0,0,129.81,426.75Z"/><path class="cls-3" d="M150.27,313.43s-5.74,28.25-9.74,38.72a72.13,72.13,0,0,0-7.42.3h0a76.89,76.89,0,0,0-83.58-4.51c7.91-28.9,14.87-49.53,21-64.66a112.54,112.54,0,0,1,79.75,30.15Z"/><path class="cls-7" d="M307,295c-1.13.31-7,1.13-8.08,1.42a97,97,0,0,1-22.41,5c-1.14.13-2.29.24-3.45.36-3.48.31-7,.51-10.59.63-1.72.05-3.45.08-5.18.1-2.29,0-4.57,0-6.84-.06-2,0-3.94-.1-5.89-.18q-3.33-.13-6.59-.35l-3.05-.21a0,0,0,0,0,0,0l-2.06-.17-1.67-.14c-3-.26-5.92-.54-8.71-.85l-3.81-.44c-13.47-1.62-23.53-3.55-26.13-4.07l-.66-.14a195,195,0,0,1-27.6-9.64h0c-.25-.1-.49-.21-.73-.33-12.26-5.49-20.9-11.41-20.1-15.55.55-2.86,5.16-2.53,13.22-3.85a76.86,76.86,0,0,0,12-2.9q2.21-.72,4.57-1.65a133.46,133.46,0,0,0,29.34-16.9c.19-.16.38-.32.57-.5A109.15,109.15,0,0,0,219.22,227c4.24-5.78,10.16-15.12,16.8-16.9a44.4,44.4,0,0,1,7.62-1.23l1.89-.06c1.17,0,2.35,0,3.48.06,1.42.06,2.77.18,4,.34h0a16.23,16.23,0,0,1,3.22.72l.39.16a25.8,25.8,0,0,1,7.78,5.64s0,0,0,0a54.34,54.34,0,0,1,7.34,9.33c3.07,5.14,8.41,12.09,18.51,20.05.16.12.32.25.49.36A133.21,133.21,0,0,0,319.5,262c18.25,7.23,30.7,5.47,31.56,9.93C352.38,278.74,331,288.41,307,295Z"/><path class="cls-8" d="M205,195.51a28.61,28.61,0,0,1,12.33,3.25c5.09,2.74,7.42,6.18,8.67,5.42s.53-5.8-2.17-9.21c-3-3.75-8.93-6.47-14-4.2A10.76,10.76,0,0,0,205,195.51Z"/><path class="cls-8" d="M287,195.51a28.61,28.61,0,0,0-12.33,3.25c-5.1,2.74-7.43,6.18-8.67,5.42s-.53-5.8,2.17-9.21c3-3.75,8.93-6.47,14-4.2A10.76,10.76,0,0,1,287,195.51Z"/><path class="cls-8" d="M217.12,178.11c1.39,1.33,2.73,2.65,4.08,3.91a48.73,48.73,0,0,0,4.18,3.5,19.48,19.48,0,0,0,4.61,2.55,15.32,15.32,0,0,0,2.54.68,18.78,18.78,0,0,0,2.74.16l.18.74a9.49,9.49,0,0,1-2.95.81,11.29,11.29,0,0,1-3.12-.17,14.55,14.55,0,0,1-5.62-2.49,19.69,19.69,0,0,1-4.35-4.14,18.54,18.54,0,0,1-2.94-5.15Z"/><path class="cls-8" d="M278.77,177.35c-1.39,1.32-2.73,2.65-4.08,3.91a48.73,48.73,0,0,1-4.18,3.5,19.85,19.85,0,0,1-4.61,2.55,15.32,15.32,0,0,1-2.54.68,18.78,18.78,0,0,1-2.74.16l-.18.74a9.49,9.49,0,0,0,2.95.81,11.29,11.29,0,0,0,3.12-.17,14.55,14.55,0,0,0,5.62-2.49,19.69,19.69,0,0,0,4.35-4.14,18.45,18.45,0,0,0,2.94-5.16Z"/><path class="cls-8" d="M239,182.91a9.12,9.12,0,0,1,1.51,4.69,7.53,7.53,0,0,1-.3,2.49,5.87,5.87,0,0,1-1.21,2.17,12.52,12.52,0,0,0,.63-2.3,11.39,11.39,0,0,0,.12-2.33A24.51,24.51,0,0,0,239,182.91Z"/><path class="cls-8" d="M258.6,182.91a25.31,25.31,0,0,0-.75,4.72A13,13,0,0,0,258,190a12.52,12.52,0,0,0,.63,2.3,5.71,5.71,0,0,1-1.2-2.17,7.81,7.81,0,0,1-.31-2.49A9.21,9.21,0,0,1,258.6,182.91Z"/><line class="cls-9" x1="245.53" y1="208.85" x2="245.53" y2="190.5"/><path class="cls-4" d="M244.53,302.28c-1.93,4.12-7.44,10.26-12.14,19.62-.89,1.79-1.55,3.28-1.95,4.21a99.1,99.1,0,0,1-35,41.72c0-.27-.06-.54-.1-.81l-5.4-5.8L180,350.57l-5.39-5.79q8.94-24.36,17.87-48.73,7.24-19.76,14.48-39.5c.44-.8,2.46-4.36,5-4.2a3.89,3.89,0,0,1,2.31,1.28c3.39,3.58-5.76,32.28-8.94,42a1.83,1.83,0,0,0,1.19.17c1.09-.26,1.59-1.76,1.73-2.14.75-2.08,7.59-17,17.26-38.09.75-1,2.8-3.68,4.68-3.25a2.63,2.63,0,0,1,1.42,1c3.09,4.25-12.25,37.29-13,46.77-.11,1.25,0,2.09.53,2.4a.84.84,0,0,0,.59.13,1.62,1.62,0,0,0,.9.08,2,2,0,0,0,1-.69,7.56,7.56,0,0,0,.75-1.48c2.68-6.14,10.95-28.65,16.4-30.88a2.07,2.07,0,0,1,1.72-.1c1.61.86.84,5.16.55,6.81-1,5.49-4.92,16.4-8.29,25.16-1.81,4.74-3.46,8.85-4.39,11.14,0,0,.28.79.86.88s1.22-.72,1.52-1.15c.81-1.16,4.25-6.4,7.17-10.49,1.24-1.74,2.39-3.28,3.19-4.21.36-.41,1.08-1.19,1.93-1.12,1.11.1,1.81,1.57,1.93,1.83C245.49,299.48,245.26,300.74,244.53,302.28Z"/><path class="cls-4" d="M322.79,351.54q-17.35-47.31-34.69-94.62c-.44-.8-2.46-4.36-5-4.19A3.84,3.84,0,0,0,280.8,254c-3.39,3.58,5.75,32.29,8.94,42a1.9,1.9,0,0,1-1.19.17c-1.09-.26-1.59-1.76-1.73-2.14-.75-2.09-7.58-17-17.27-38.1-.74-1-2.79-3.67-4.67-3.25a2.68,2.68,0,0,0-1.42,1c-3.5,4.8,16.6,46.49,12.46,49.17a1,1,0,0,1-.6.13,1.68,1.68,0,0,1-.89.08,2.08,2.08,0,0,1-1-.69c-1.24-1.48-11-29.84-17.15-32.36a2.11,2.11,0,0,0-1.72-.11c-1.6.86-.84,5.16-.55,6.81,1.51,8.46,10,29.77,12.67,36.31,0,0-.27.79-.85.88s-1.22-.72-1.52-1.16c-1.16-1.64-7.67-11.61-10.36-14.69-.36-.41-1.08-1.19-1.93-1.12-1.11.09-1.81,1.57-1.93,1.83-1.83,3.84,6.15,10.61,12.59,23.47.9,1.79,1.56,3.28,1.95,4.2a99.28,99.28,0,0,0,35,41.72Z"/><path class="cls-6" d="M168.59,263.64c0,1.68-.13,3-.2,3.8A57.5,57.5,0,0,1,163.88,285c-.15.32-.29.64-.42.93"/><path class="cls-5" d="M314.82,351.88q1.9,1.62,4.05,3.24c1.72,1.3,3.54,2.59,5.5,3.86a91.79,91.79,0,0,0,23.36,10.77,79.23,79.23,0,0,0,2.6-16.13c-1.79-.16-3.47-.28-5-.33-2.65-.1-9.14-.19-14.22-4.47-2.23-1.88-2.24-2.93-3.66-3.66-1.58-.82-3.85-.71-6.45.11l-.77.83Z"/><path class="cls-5" d="M304.89,362.53c.43.56.87,1.12,1.33,1.69A144,144,0,0,0,337,392.81a75.14,75.14,0,0,0,5.86-10.06,76.6,76.6,0,0,0,4.86-13A91.79,91.79,0,0,1,324.37,359c-2-1.27-3.78-2.56-5.5-3.86q-2.14-1.62-4.05-3.24Z"/><path class="cls-5" d="M328.24,403.38A75.77,75.77,0,0,0,337,392.81a144,144,0,0,1-30.79-28.59c-.46-.57-.9-1.13-1.33-1.69l-5.4,5.8c-.05.27-.08.54-.11.81C298.11,381.32,312.2,389.55,328.24,403.38Z"/><path class="cls-1" d="M365.29,214.94c-12.48,2-22.67,6.93-28.31,14.6a58,58,0,0,0-7.52,14.83A60.42,60.42,0,0,0,326.2,265q-2.19-.72-4.57-1.65a131.06,131.06,0,0,1-29.22-16.58c-.19-.17-1.45-1-1.63-1.17,1.51-1.11,3.86-2.32,5.36-3.79a75.88,75.88,0,0,0,9.38-9.79,69.36,69.36,0,0,0,6.94-11.59c4.94-.21,11.93-.62,20.25-1.41C356,216.75,359.81,214.32,365.29,214.94Z"/><path class="cls-3" d="M326.2,265a77.28,77.28,0,0,0,12,2.91,63.35,63.35,0,0,1,27-26.74,64.3,64.3,0,0,1,29.09-6.8c-7.14-8.28-15.58-16.07-26.05-18.8a21.44,21.44,0,0,0-3-.58c-12.49,2-22.67,6.94-28.31,14.6a58,58,0,0,0-7.52,14.83A60.17,60.17,0,0,0,326.2,265Z"/><path class="cls-1" d="M331.34,287.26c.26.57.51,1.1.76,1.61l12.42,25.87a112.58,112.58,0,0,1,79.76-30.14c-6.58-16.32-12.16-26.23-16.84-33.23-.88-1.31-2.68-4-5.24-7.27s-5.07-6.5-7.89-9.78a64.3,64.3,0,0,0-29.09,6.8,63.35,63.35,0,0,0-27,26.74c8.06,1.31,12.67,1,13.22,3.84C352.23,275.84,343.6,281.76,331.34,287.26Z"/><path class="cls-1" d="M361.69,353.76c1.49.14,3.06.33,4.7.59h0a68.15,68.15,0,0,1,21.17,7.06c5.36,2.85,17.64,9.57,25.61,24a58.55,58.55,0,0,1,5.48,14.43c3.71,15.48.65,29.72-2.7,39.31a77.32,77.32,0,0,0,7.78-.91c5.95-1,29.27-4.92,34.95-19.91,2.19-5.79,1-11.25.4-13.81-4.9-21.19-9.51-39.45-13.83-55.25a76.88,76.88,0,0,0-83.57,4.51Z"/><path class="cls-1" d="M328.24,403.38l.81.71a163.07,163.07,0,0,0,35.93,24,57.89,57.89,0,0,0,11.21-20.93c7.15-24.57-4.86-45.53-9.79-52.78h0c-1.64-.26-3.21-.45-4.7-.59h0a68.9,68.9,0,0,0-7.41-.29c-1.51,0-2.83.08-3.94.15a79.23,79.23,0,0,1-2.6,16.13,76.6,76.6,0,0,1-4.86,13,76.92,76.92,0,0,1-14.63,20.63Z"/><path class="cls-3" d="M365,428.06c14.49,7,32.16,12.37,51,11.07,3.35-9.59,6.41-23.83,2.7-39.31a58.55,58.55,0,0,0-5.48-14.43c-8-14.41-20.25-21.13-25.61-24a68.15,68.15,0,0,0-21.17-7.06c4.93,7.25,16.94,28.21,9.79,52.78A57.89,57.89,0,0,1,365,428.06Z"/><path class="cls-3" d="M344.52,314.74s5.75,28.26,9.75,38.73a68.9,68.9,0,0,1,7.41.29h0a76.88,76.88,0,0,1,83.57-4.51c-7.91-28.89-14.87-49.53-21-64.65a112.58,112.58,0,0,0-79.76,30.14Z"/><path id="orelha" class="cls-10" d="M332.57,189.74c0,5.26-2.62,9.72-6.22,11.23v.57c6.87,0,12.44-5.28,12.44-11.8s-5.57-11.8-12.44-11.8v.56C330,180,332.57,184.48,332.57,189.74Z"/><path id="orelha-2" data-name="orelha" class="cls-10" d="M165.94,189.74c0,5.26,2.61,9.72,6.21,11.23v.57c-6.87,0-12.44-5.28-12.44-11.8s5.57-11.8,12.44-11.8v.56C168.55,180,165.94,184.48,165.94,189.74Z"/><ellipse class="cls-11" cx="209.63" cy="208.91" rx="12.62" ry="4.62"/><ellipse class="cls-11" cx="282.55" cy="208.84" rx="12.62" ry="4.62"/><path class="cls-12" d="M162.22,270.1c-.16-.54-3.05-.14-4.82.24-2.6.56-4.79,1-5.07,2.24-.05.25-.19,1.2,3.36,4s7.22,4.59,7.4,4.29-6.59-3.58-6.1-6.62C157.39,271.76,162.44,270.82,162.22,270.1Z"/><path class="cls-12" d="M333.45,270.1c.16-.54,3.05-.14,4.82.24,2.6.56,4.79,1,5.07,2.24.05.25.18,1.2-3.36,4s-7.22,4.59-7.4,4.29,6.59-3.58,6.1-6.62C338.28,271.76,333.23,270.82,333.45,270.1Z"/><path class="cls-12" d="M230.71,220.39c-.41-.8,4.93-5.42,12-7.07a23.22,23.22,0,0,1,8.58-.42c7.79,1.18,13.69,6.48,13.24,7.35s-6.83-4-16.75-4S231.16,221.27,230.71,220.39Z"/><path class="cls-13" d="M184.05,79.24c.18-.82-16-10.3-27.3-2.76C147,83,147.38,98,148.2,98.27s1.66-12,10.75-17.93C169.53,73.49,183.89,80,184.05,79.24Z"/><path class="cls-13" d="M305.91,82.06c-.18-.82,16-10.29,27.3-2.75,9.77,6.53,9.37,21.53,8.55,21.78s-1.67-12-10.75-17.92C320.43,76.32,306.07,82.83,305.91,82.06Z"/><path class="cls-13" d="M218.83,65.25c-.28-.54,10.61-10.35,25.62-11.58,19.12-1.58,34.28,11.62,34,12.24S263.52,55,243.77,56.67C229.06,57.9,219.09,65.77,218.83,65.25Z"/><path id="cabelo_branco" data-name="cabelo branco" class="cls-13" d="M215.44,129.82c-1.88,2-3.61,4.13-5.3,6.28-.84,1.08-1.68,2.16-2.46,3.29a36.51,36.51,0,0,0-2.2,3.48l.53.4a39.75,39.75,0,0,0,2.77-3c.88-1,1.71-2.14,2.53-3.24,1.63-2.19,3.22-4.42,4.66-6.76Z"/><path id="cabelo_branco-2" data-name="cabelo branco" class="cls-13" d="M221.84,129.71a39.76,39.76,0,0,0-2.82,3c-.88,1-1.74,2.1-2.55,3.2a40.73,40.73,0,0,0-2.32,3.35,19.14,19.14,0,0,0-1.79,3.73l.54.39a19.35,19.35,0,0,0,2.95-2.91c.87-1,1.65-2.16,2.42-3.28s1.49-2.28,2.19-3.45,1.35-2.38,1.92-3.64Z"/><path id="cabelo_branco-3" data-name="cabelo branco" class="cls-13" d="M284.06,129.82c-1.89,2-3.62,4.13-5.3,6.28-.84,1.08-1.68,2.16-2.46,3.29a38.7,38.7,0,0,0-2.21,3.48l.54.4a39.75,39.75,0,0,0,2.77-3c.88-1,1.71-2.14,2.53-3.24,1.63-2.19,3.22-4.42,4.66-6.76Z"/><path id="cabelo_branco-4" data-name="cabelo branco" class="cls-13" d="M290.46,129.71a37.82,37.82,0,0,0-2.82,3c-.88,1-1.74,2.1-2.55,3.2a38.41,38.41,0,0,0-2.32,3.35A19.14,19.14,0,0,0,281,143l.54.39a19.74,19.74,0,0,0,2.94-2.91c.88-1,1.66-2.16,2.43-3.28s1.49-2.28,2.19-3.45,1.35-2.38,1.92-3.64Z"/><path class="cls-13" d="M124.44,220.48c-1.94-1.16-36.43,39.33-57.23,98.9-18.54,53.12-18.92,100.6-16.8,101S56,379.27,76.55,322C99.28,258.48,126.26,221.57,124.44,220.48Z"/><path class="cls-13" d="M370,220.8c1.94-1.17,36.43,39.32,57.23,98.89,18.54,53.13,18.92,100.6,16.8,101s-5.61-41.07-26.14-98.39C395.2,258.8,368.22,221.88,370,220.8Z"/><path class="cls-7" d="M373.4,149.82c1.48.59,1.47.58,2.09-.88a20.51,20.51,0,0,1,4.43-6.74c.4-.39.5-.63.05-1.08q-3.6-3.63-7.14-7.33a2.17,2.17,0,0,0-1.61-.74,2.82,2.82,0,0,1-2.52-1.58,2.2,2.2,0,0,1,3.78-2.21,3.53,3.53,0,0,1,.71,2.14,1.79,1.79,0,0,0,.5,1.21c2.31,2.62,4.63,5.23,6.92,7.87.38.44.67.49,1.09.08a13.3,13.3,0,0,1,1.21-.92c.24-.23.61-.27.83-.54.89-.36.87-.85.37-1.6a3.42,3.42,0,0,0-1.84-1.68,2.94,2.94,0,0,1-2.11-2.44,2.37,2.37,0,0,1,2.07-2.79,2.49,2.49,0,0,1,2.83,2.19,4.07,4.07,0,0,1-.21,2.41,4.06,4.06,0,0,0,.92,2.57c.26.11.49,0,.72-.15A18.45,18.45,0,0,1,391,136.2c.67-.11.68-.4.54-.92-.51-1.94-1-3.88-1.51-5.82-.38-.57-.24-1.28-.49-1.89s-.28-1.09-.39-1.64a1.41,1.41,0,0,0-.65-.9,3,3,0,0,1-1.62-3.1,2.16,2.16,0,0,1,4.28.25,4.08,4.08,0,0,1-.46,2.29c-.48.88,0,1.75.17,2.62.29.78.22,1.62.49,2.4l1.14,5.89a.55.55,0,0,0,.7.52,19.06,19.06,0,0,1,7.05.55c.44.11.63-.08.73-.46.16-.6.31-1.2.48-1.8a.7.7,0,0,0-.12-.62,4.35,4.35,0,0,1-.53-2.76,2.35,2.35,0,0,1,1.63-2.08,2.24,2.24,0,0,1,2.44.49,2.39,2.39,0,0,1,.69,2.61,3.59,3.59,0,0,1-1.8,2.15,2,2,0,0,0-1.28,1.5,8.59,8.59,0,0,1-.42,1.1c-.27.42.11.46.34.57.73.33,1.47.64,2.21.95a1,1,0,0,1,.16.06c1.44.63,1.45.63,2.29-.77,1.63-2.73,3.24-5.47,4.88-8.19a1.72,1.72,0,0,0,.23-1.43,3,3,0,0,1,1.27-3.31,2.28,2.28,0,0,1,2.7.53,2.25,2.25,0,0,1,0,2.81,2.53,2.53,0,0,1-1.39,1.06,3.07,3.07,0,0,0-2,1.64c-.28.21-.31.58-.55.82-1.57,2.37-3.11,4.76-4.72,7.11-.48.69-.56,1.1.24,1.59a10.45,10.45,0,0,1,2.23,1.92c.32.35.57.33.91,0q3.9-3.81,7.82-7.6a1.65,1.65,0,0,0,.45-1.13,3.06,3.06,0,0,1,1.72-2.79,2.1,2.1,0,0,1,2.76.94,2.23,2.23,0,0,1-.72,2.92,3.24,3.24,0,0,1-1.9.62,1.68,1.68,0,0,0-1.29.47q-4.08,3.62-8.19,7.2c-.4.34-.44.58-.07,1a11.63,11.63,0,0,1,1.8,2.64c.11.2.21.43.49.19h0a2.76,2.76,0,0,0,1-.53,3.76,3.76,0,0,0,1.78-2.07,2.83,2.83,0,0,1,2.81-1.93,2.41,2.41,0,0,1,1.12,4.53,3.29,3.29,0,0,1-2.93.3,2.14,2.14,0,0,0-2,.17c-1.46.74-1.46.72-.87,2.2A17.89,17.89,0,0,1,416,154c.06.59.19.82.9.63,3.07-.84,6.16-1.61,9.25-2.37a1.36,1.36,0,0,0,1-.71,3.06,3.06,0,0,1,3.29-1.53,2.19,2.19,0,0,1-.32,4.25,2.92,2.92,0,0,1-2-.27,2.81,2.81,0,0,0-2.26-.23c-.8.15-1.6.33-2.4.5-2.21.45-4.4,1-6.63,1.33-.49,0-.6.31-.58.73a20,20,0,0,1-.59,5.67c-.12.51.08.64.48.75l2.9.84a7.43,7.43,0,0,1,1.05.3c.34.27.79.21,1.16.38.54.15,1.09.28,1.61.47a2.77,2.77,0,0,0,2.16-.14,3.15,3.15,0,0,1,4,.87,2.79,2.79,0,0,1,0,2.53h0a4.85,4.85,0,0,1-.55.65c-1.81,1.41-4-.08-4.66-1.6a1.5,1.5,0,0,0-1-.92c-2.35-.79-4.7-1.6-7-2.43-.48-.17-.69,0-.83.41a19.4,19.4,0,0,1-3.55,6.29.59.59,0,0,0,.06.94c1.5,1.52,3,3.06,4.49,4.6a1.47,1.47,0,0,0,1,.42,3,3,0,0,1,3,2.1,2.27,2.27,0,0,1-1.13,2.42,2.22,2.22,0,0,1-2.69-.55,3,3,0,0,1-.76-2.1,1.71,1.71,0,0,0-.5-1.3c-1.38-1.56-2.76-3.13-4.12-4.71-.31-.36-.51-.49-.93-.09a19.46,19.46,0,0,1-3.67,2.84c-.39.23-.39.46-.17.81s.55.92.79,1.4a1.49,1.49,0,0,0,1.07.86,3.7,3.7,0,0,1,2,1.45,2.47,2.47,0,1,1-4.4,1.86,4.13,4.13,0,0,1,.22-2.57c.26-.49-.09-.87-.26-1.26-.73-1.65-.74-1.63-2.36-1a17,17,0,0,1-2.07.73c-.55.13-.66.36-.52.89.84,3.24,1.66,6.5,2.47,9.75a2.73,2.73,0,0,0,1.25,2,2.7,2.7,0,0,1,1.24,2,2.18,2.18,0,0,1-1.93,2.6,2.28,2.28,0,0,1-2.44-2.16,2.34,2.34,0,0,1,.26-1.48c.77-1.09.35-2.17.14-3.25-.58-3-1.22-6-1.79-8.95-.13-.67-.38-.93-1.07-.77a13,13,0,0,1-3.11.29c-.49,0-.72.14-.72.67,0,3.68-.05,7.35-.09,11a1.19,1.19,0,0,0,.42.88,3.44,3.44,0,0,1,1,2.45,2.17,2.17,0,1,1-4.34-.06,3.25,3.25,0,0,1,1-2.28,1.67,1.67,0,0,0,.52-1.19c.22-3.57.46-7.15.72-10.72,0-.57-.1-.84-.71-.84a11.17,11.17,0,0,1-2.76-.42c-.54-.15-.87-.08-1,.53a4.55,4.55,0,0,1-.26.89,2.16,2.16,0,0,0,.15,2,3.33,3.33,0,0,1,.27,2.31,2.33,2.33,0,0,1-1.81,2,2.42,2.42,0,0,1-2.8-1.24,2.63,2.63,0,0,1,0-2.38,4,4,0,0,1,2.16-1.92c.59-.21.57-.79.73-1.25.49-1.44.49-1.46-.9-2a19.54,19.54,0,0,1-4.43-2.45c-.42-.29-.68-.36-1.08,0-2.3,2.28-4.63,4.53-7,6.79a1.09,1.09,0,0,0-.31.84,3.71,3.71,0,0,1-.87,2.33,2.21,2.21,0,0,1-3.29.17,2.18,2.18,0,0,1,.18-3.22,3.27,3.27,0,0,1,2.18-.8,1.79,1.79,0,0,0,1.23-.48q3.51-3.09,7-6.17c.47-.4.44-.65,0-1a18.9,18.9,0,0,1-3.66-4.41c-.22-.36-.47-.47-.83-.25-.91.55-1.9.89-2.26,2.17a2.86,2.86,0,0,1-2.45,2.07,2.44,2.44,0,0,1-1.39-4.62,4,4,0,0,1,3.13-.13,4.28,4.28,0,0,0,2.68-.84c.19-.26,0-.43-.1-.61a15.85,15.85,0,0,1-1.09-2.93c-.15-.65-.44-.9-1.1-.65a7,7,0,0,1-.82.21c-1.14.24-2.26.57-3.4.84-2,.51-3.92,1-5.89,1.53a1.2,1.2,0,0,0-.84.61,3.62,3.62,0,0,1-1.93,1.57,2.08,2.08,0,0,1-2.33-.49,2,2,0,0,1-.55-2.18,2.1,2.1,0,0,1,1.83-1.55,2.59,2.59,0,0,1,1.81.25,3,3,0,0,0,2.59.22c3.09-.6,6.19-1.24,9.29-1.86.64-.12.88-.31.73-1.11a19.11,19.11,0,0,1,.3-8.31c.14-.55,0-.75-.49-.9-2.16-.61-4.32-1.25-6.49-1.89a1.53,1.53,0,0,0-1.28.15,3.85,3.85,0,0,1-3,.27,2.39,2.39,0,0,1-1.43-3.3,2.47,2.47,0,0,1,3.43-1.15,3.76,3.76,0,0,1,1.93,2,1.09,1.09,0,0,0,.77.7c1.44.48,2.87,1,4.3,1.51C372.6,149.62,373,149.64,373.4,149.82Z"/><path class="cls-2" d="M378.86,147.56a2.66,2.66,0,1,1,5.31,0,2.66,2.66,0,0,1-5.31,0Z"/><path class="cls-2" d="M397.18,171.3a2.65,2.65,0,1,1,5.3,0,2.65,2.65,0,0,1-5.3,0Z"/><path class="cls-2" d="M399.89,148.75a2.66,2.66,0,1,1,5.31,0,2.66,2.66,0,0,1-5.31,0Z"/><path class="cls-2" d="M382.42,165.08a7.39,7.39,0,1,1,14.77-.07,7.39,7.39,0,0,1-14.77.07Z"/><path class="cls-2" d="M400.57,163.68a4.17,4.17,0,1,1,8.33,0,4.17,4.17,0,0,1-8.33,0Z"/><path class="cls-2" d="M383.78,142.66a1.16,1.16,0,1,1,2.32,0,1.16,1.16,0,0,1-2.32,0Z"/><path class="cls-7" d="M386,299.45c1.49.58,1.47.58,2.09-.89a20.24,20.24,0,0,1,4.44-6.73c.4-.39.5-.63,0-1.08q-3.6-3.63-7.14-7.33a2.17,2.17,0,0,0-1.61-.74,2.84,2.84,0,0,1-2.53-1.58,2.2,2.2,0,0,1,3.79-2.21,3.65,3.65,0,0,1,.71,2.13,1.73,1.73,0,0,0,.5,1.21q3.47,3.93,6.92,7.88c.38.43.66.48,1.09.08a13.3,13.3,0,0,1,1.21-.92c.24-.24.61-.27.82-.54.9-.36.88-.86.38-1.6a3.42,3.42,0,0,0-1.84-1.68,3,3,0,0,1-2.11-2.44,2.36,2.36,0,0,1,2.07-2.79,2.48,2.48,0,0,1,2.82,2.18,4.1,4.1,0,0,1-.2,2.42,4,4,0,0,0,.92,2.57c.26.11.49-.05.72-.16a18.29,18.29,0,0,1,4.51-1.4c.66-.12.68-.4.54-.93-.52-1.93-1-3.87-1.51-5.81-.38-.57-.24-1.28-.49-1.89s-.29-1.09-.4-1.64a1.32,1.32,0,0,0-.65-.9,3,3,0,0,1-1.61-3.1,2.16,2.16,0,0,1,4.28.25,4.28,4.28,0,0,1-.46,2.29c-.48.88,0,1.75.17,2.62s.22,1.62.49,2.4l1.14,5.89a.54.54,0,0,0,.7.51,19.43,19.43,0,0,1,7,.55.53.53,0,0,0,.74-.45c.16-.6.31-1.2.48-1.8a.73.73,0,0,0-.12-.62,4.36,4.36,0,0,1-.53-2.76,2.35,2.35,0,0,1,1.62-2.08,2.22,2.22,0,0,1,2.44.49,2.38,2.38,0,0,1,.7,2.61,3.52,3.52,0,0,1-1.81,2.14,2,2,0,0,0-1.28,1.51,7.7,7.7,0,0,1-.41,1.1c-.27.42.11.46.34.57.73.33,1.47.64,2.21,1l.16,0c1.44.64,1.45.64,2.28-.76,1.64-2.73,3.25-5.47,4.89-8.2a1.75,1.75,0,0,0,.23-1.43,3,3,0,0,1,1.27-3.3,2.2,2.2,0,0,1,2.72,3.34,2.54,2.54,0,0,1-1.39,1.05,3.15,3.15,0,0,0-2,1.65c-.27.21-.3.58-.54.82-1.57,2.37-3.12,4.76-4.73,7.1-.47.69-.55,1.11.24,1.59a10.31,10.31,0,0,1,2.24,1.93c.32.35.57.33.91,0q3.9-3.81,7.82-7.61a1.65,1.65,0,0,0,.45-1.12,3.06,3.06,0,0,1,1.72-2.8,2.09,2.09,0,0,1,2.75.95,2.2,2.2,0,0,1-.71,2.91,3.19,3.19,0,0,1-1.9.63,1.66,1.66,0,0,0-1.29.47q-4.08,3.62-8.19,7.19c-.41.35-.44.59-.07,1a12,12,0,0,1,1.8,2.64c.11.21.21.44.49.19h0a2.6,2.6,0,0,0,1-.52,3.84,3.84,0,0,0,1.78-2.07,2.81,2.81,0,0,1,2.81-1.93A2.41,2.41,0,0,1,433,296a3.32,3.32,0,0,1-2.93.3,2.08,2.08,0,0,0-2,.17c-1.46.73-1.46.71-.87,2.19a17.86,17.86,0,0,1,1.29,4.88c.06.58.19.82.89.62,3.08-.83,6.16-1.6,9.26-2.36a1.41,1.41,0,0,0,1-.71,3,3,0,0,1,3.28-1.53,2.14,2.14,0,0,1,1.53,2.34,2.11,2.11,0,0,1-1.84,1.9,2.86,2.86,0,0,1-2-.26,2.77,2.77,0,0,0-2.26-.23c-.8.15-1.6.33-2.4.5-2.21.44-4.4,1-6.63,1.33-.49,0-.6.3-.59.73a19.68,19.68,0,0,1-.58,5.67c-.13.5.08.64.48.75,1,.27,1.93.56,2.9.84a9.6,9.6,0,0,1,1.05.29c.34.27.79.21,1.16.38.54.16,1.08.29,1.61.47a2.7,2.7,0,0,0,2.15-.14,3.17,3.17,0,0,1,4,.87,2.82,2.82,0,0,1,0,2.53h0a5.62,5.62,0,0,1-.55.64c-1.81,1.41-4-.07-4.66-1.6a1.48,1.48,0,0,0-1-.91c-2.35-.79-4.69-1.61-7-2.44-.47-.17-.68,0-.82.41A19.34,19.34,0,0,1,424,320a.59.59,0,0,0,.05.94q2.26,2.28,4.49,4.6a1.51,1.51,0,0,0,1.06.42,3,3,0,0,1,3,2.09,2.25,2.25,0,0,1-1.14,2.42,2.22,2.22,0,0,1-2.69-.54,3,3,0,0,1-.76-2.1,1.69,1.69,0,0,0-.49-1.3c-1.38-1.57-2.76-3.13-4.12-4.72-.31-.36-.51-.49-.93-.08a19.46,19.46,0,0,1-3.67,2.84c-.4.23-.39.46-.17.81a14.7,14.7,0,0,1,.78,1.4,1.55,1.55,0,0,0,1.07.86,3.64,3.64,0,0,1,2,1.45,2.52,2.52,0,0,1,.14,2.86,2.48,2.48,0,0,1-4.54-1,4,4,0,0,1,.22-2.56c.26-.49-.09-.88-.27-1.27-.72-1.64-.73-1.63-2.35-1a15.87,15.87,0,0,1-2.07.72c-.56.14-.66.37-.52.89.83,3.25,1.66,6.5,2.46,9.76a2.71,2.71,0,0,0,1.26,2,2.73,2.73,0,0,1,1.24,1.95A2.2,2.2,0,0,1,416.1,344a2.28,2.28,0,0,1-2.44-2.16,2.31,2.31,0,0,1,.26-1.49c.76-1.08.35-2.17.14-3.24-.58-3-1.22-6-1.8-9-.12-.66-.38-.93-1.06-.77a12.56,12.56,0,0,1-3.12.29c-.48,0-.71.15-.71.68q0,5.5-.09,11a1.19,1.19,0,0,0,.41.88,3.44,3.44,0,0,1,1,2.46,2.17,2.17,0,1,1-4.34-.06,3.19,3.19,0,0,1,1-2.28,1.67,1.67,0,0,0,.51-1.19c.23-3.58.46-7.15.72-10.72,0-.58-.09-.84-.71-.84a10.73,10.73,0,0,1-2.75-.43c-.55-.14-.87-.07-1,.54a5.65,5.65,0,0,1-.26.89,2.13,2.13,0,0,0,.15,2,3.33,3.33,0,0,1,.27,2.31,2.34,2.34,0,0,1-1.82,2,2.43,2.43,0,0,1-2.79-1.25,2.61,2.61,0,0,1,0-2.37,4.08,4.08,0,0,1,2.16-1.93c.59-.2.58-.78.74-1.25.49-1.43.49-1.45-.91-2a19.72,19.72,0,0,1-4.43-2.44c-.41-.3-.67-.36-1.07,0q-3.45,3.42-7,6.8a1.07,1.07,0,0,0-.3.83,3.72,3.72,0,0,1-.87,2.33,2.19,2.19,0,1,1-3.11-3.05,3.31,3.31,0,0,1,2.18-.79,1.8,1.8,0,0,0,1.22-.48c2.35-2.06,4.68-4.13,7-6.17.46-.4.43-.66,0-1.05a18.94,18.94,0,0,1-3.67-4.41c-.21-.37-.47-.47-.82-.25-.91.54-1.9.89-2.26,2.16a2.9,2.9,0,0,1-2.46,2.08,2.44,2.44,0,0,1-1.38-4.62,4,4,0,0,1,3.13-.14,4.22,4.22,0,0,0,2.67-.83c.2-.26,0-.43-.09-.61a15.71,15.71,0,0,1-1.1-2.93c-.14-.65-.43-.9-1.09-.65a7.58,7.58,0,0,1-.82.21c-1.14.24-2.26.57-3.4.83-2,.52-3.92,1-5.89,1.54a1.16,1.16,0,0,0-.84.6,3.6,3.6,0,0,1-1.93,1.58,2.1,2.1,0,0,1-2.34-.49,2,2,0,0,1-.54-2.18,2.09,2.09,0,0,1,1.82-1.55,2.51,2.51,0,0,1,1.82.25,3,3,0,0,0,2.58.22c3.1-.61,6.2-1.24,9.29-1.86.64-.13.89-.31.74-1.12a19.22,19.22,0,0,1,.29-8.3c.14-.55,0-.75-.48-.9-2.17-.62-4.33-1.26-6.49-1.89a1.52,1.52,0,0,0-1.29.15,3.84,3.84,0,0,1-3,.27,2.39,2.39,0,0,1-1.42-3.3,2.47,2.47,0,0,1,3.42-1.16,3.8,3.8,0,0,1,1.94,2,1.09,1.09,0,0,0,.76.7c1.45.48,2.88,1,4.31,1.5C385.16,299.25,385.58,299.26,386,299.45Z"/><path class="cls-2" d="M391.42,297.19a2.66,2.66,0,1,1,5.31,0,2.66,2.66,0,0,1-5.31,0Z"/><path class="cls-2" d="M409.73,320.93a2.66,2.66,0,1,1,5.31,0,2.66,2.66,0,0,1-5.31,0Z"/><path class="cls-2" d="M412.45,298.38a2.65,2.65,0,1,1,5.3,0,2.65,2.65,0,0,1-5.3,0Z"/><path class="cls-2" d="M395,314.7a7.39,7.39,0,1,1,14.77-.06,7.39,7.39,0,0,1-14.77.06Z"/><path class="cls-2" d="M413.12,313.3a4.17,4.17,0,1,1,8.33,0,4.17,4.17,0,0,1-8.33,0Z"/><path class="cls-2" d="M396.34,292.28a1.16,1.16,0,1,1,2.32,0,1.16,1.16,0,0,1-2.32,0Z"/><path class="cls-7" d="M60.63,197.56c1,.39,1,.39,1.4-.6a13.79,13.79,0,0,1,3-4.52c.26-.26.33-.42,0-.72q-2.42-2.44-4.79-4.92a1.43,1.43,0,0,0-1.08-.49,1.92,1.92,0,0,1-1.7-1.07A1.48,1.48,0,0,1,60,183.76a2.37,2.37,0,0,1,.48,1.43,1.17,1.17,0,0,0,.34.82q2.33,2.63,4.64,5.28c.25.29.45.32.73.05a9.53,9.53,0,0,1,.81-.61c.16-.16.41-.19.56-.37.6-.24.58-.57.25-1.07a2.3,2.3,0,0,0-1.24-1.13,2,2,0,0,1-1.41-1.63,1.59,1.59,0,0,1,1.38-1.88,1.68,1.68,0,0,1,1.9,1.47,2.66,2.66,0,0,1-.14,1.62,2.7,2.7,0,0,0,.62,1.72c.18.08.33,0,.49-.1a12.44,12.44,0,0,1,3-.94c.45-.08.46-.27.37-.62-.35-1.3-.68-2.6-1-3.9-.25-.39-.16-.87-.33-1.27s-.19-.73-.26-1.1a.94.94,0,0,0-.44-.61,2,2,0,0,1-1.08-2.08,1.39,1.39,0,0,1,1.5-1.17A1.41,1.41,0,0,1,72.55,179a2.78,2.78,0,0,1-.31,1.54c-.32.59,0,1.17.11,1.76s.15,1.08.34,1.6c.25,1.32.5,2.64.76,4a.36.36,0,0,0,.47.34,12.94,12.94,0,0,1,4.72.37c.3.08.43-.05.5-.3.11-.41.2-.81.32-1.21a.49.49,0,0,0-.08-.42A2.91,2.91,0,0,1,79,184.8a1.56,1.56,0,0,1,1.08-1.39,1.5,1.5,0,0,1,1.64.32,1.62,1.62,0,0,1,.47,1.76A2.4,2.4,0,0,1,81,186.92a1.37,1.37,0,0,0-.86,1,6.77,6.77,0,0,1-.28.75c-.18.27.07.3.23.37.49.23,1,.44,1.48.64l.11,0c1,.42,1,.43,1.53-.51,1.1-1.84,2.18-3.67,3.28-5.5a1.16,1.16,0,0,0,.15-1,2,2,0,0,1,.86-2.22,1.47,1.47,0,0,1,1.82,2.24,1.69,1.69,0,0,1-.93.71,2.08,2.08,0,0,0-1.35,1.1c-.18.15-.2.39-.36.55-1.06,1.59-2.09,3.2-3.17,4.77-.32.46-.38.74.16,1.07a7.07,7.07,0,0,1,1.5,1.29c.21.24.38.22.61,0q2.61-2.57,5.24-5.1a1.08,1.08,0,0,0,.31-.76,2,2,0,0,1,1.15-1.87,1.4,1.4,0,0,1,1.85.63,1.49,1.49,0,0,1-.48,2,2.1,2.1,0,0,1-1.28.41,1.16,1.16,0,0,0-.86.32q-2.75,2.43-5.5,4.83c-.27.23-.29.39,0,.68a7.4,7.4,0,0,1,1.21,1.77c.08.14.14.29.33.13h0a1.79,1.79,0,0,0,.68-.36,2.49,2.49,0,0,0,1.19-1.39,1.91,1.91,0,0,1,1.89-1.29,1.61,1.61,0,0,1,1.54,1.2,1.63,1.63,0,0,1-.79,1.84,2.22,2.22,0,0,1-2,.2,1.41,1.41,0,0,0-1.31.11c-1,.5-1,.48-.59,1.48a12.25,12.25,0,0,1,.87,3.27c0,.39.12.55.6.42,2.06-.56,4.13-1.08,6.2-1.59a1,1,0,0,0,.65-.47,2,2,0,0,1,2.2-1,1.47,1.47,0,0,1-.21,2.85,2,2,0,0,1-1.33-.18,1.89,1.89,0,0,0-1.52-.16l-1.61.34c-1.48.3-3,.65-4.45.89-.33,0-.4.21-.39.49A13.21,13.21,0,0,1,89,205.7c-.09.34,0,.43.32.5l1.95.56a5.6,5.6,0,0,1,.7.2c.23.18.53.14.78.26s.73.19,1.08.31a1.84,1.84,0,0,0,1.45-.09,2.11,2.11,0,0,1,2.69.58,1.89,1.89,0,0,1,0,1.7h0a3.08,3.08,0,0,1-.37.44c-1.21.94-2.68,0-3.13-1.08a1,1,0,0,0-.66-.61q-2.37-.79-4.71-1.64a.38.38,0,0,0-.56.28,13,13,0,0,1-2.38,4.22.39.39,0,0,0,0,.63q1.52,1.53,3,3.09a1,1,0,0,0,.71.28,2,2,0,0,1,2,1.41,1.5,1.5,0,0,1-.76,1.62,1.48,1.48,0,0,1-1.8-.37,2,2,0,0,1-.51-1.41,1.14,1.14,0,0,0-.34-.87c-.92-1.05-1.85-2.1-2.76-3.16-.21-.24-.34-.33-.62-.06a13,13,0,0,1-2.47,1.91c-.26.15-.26.31-.11.54s.37.62.53.94a1,1,0,0,0,.72.58,2.45,2.45,0,0,1,1.35,1,1.66,1.66,0,1,1-3,1.25,2.68,2.68,0,0,1,.15-1.72c.17-.33-.06-.59-.18-.85-.48-1.11-.49-1.1-1.58-.66a12,12,0,0,1-1.39.48c-.37.09-.44.25-.35.6.56,2.18,1.12,4.36,1.66,6.54a1.81,1.81,0,0,0,.84,1.32,1.84,1.84,0,0,1,.83,1.31,1.47,1.47,0,0,1-1.29,1.75A1.53,1.53,0,0,1,79.22,226a1.58,1.58,0,0,1,.17-1c.52-.72.24-1.45.1-2.18-.39-2-.82-4-1.21-6-.08-.45-.25-.63-.71-.52a8.18,8.18,0,0,1-2.09.19c-.33,0-.48.1-.48.46,0,2.46,0,4.93-.06,7.39a.78.78,0,0,0,.28.59,2.34,2.34,0,0,1,.65,1.65,1.46,1.46,0,1,1-2.91,0,2.09,2.09,0,0,1,.65-1.53,1.16,1.16,0,0,0,.35-.8c.15-2.4.3-4.8.48-7.2,0-.38-.06-.56-.48-.56a7.27,7.27,0,0,1-1.85-.28c-.36-.1-.58,0-.65.36a3.06,3.06,0,0,1-.17.59,1.42,1.42,0,0,0,.1,1.34,2.31,2.31,0,0,1,.18,1.56,1.56,1.56,0,0,1-1.22,1.34,1.63,1.63,0,0,1-1.88-.83,1.78,1.78,0,0,1,0-1.59,2.71,2.71,0,0,1,1.45-1.3c.39-.13.38-.52.49-.84.33-1,.33-1-.61-1.33a13,13,0,0,1-3-1.64c-.27-.2-.45-.24-.72,0-1.54,1.53-3.11,3.05-4.67,4.56a.73.73,0,0,0-.21.56,2.51,2.51,0,0,1-.58,1.57,1.48,1.48,0,0,1-2.21.11,1.47,1.47,0,0,1,.12-2.16,2.26,2.26,0,0,1,1.47-.54,1.19,1.19,0,0,0,.82-.32l4.72-4.14c.31-.26.29-.44,0-.7a12.72,12.72,0,0,1-2.46-3c-.15-.25-.32-.32-.56-.17-.61.37-1.27.6-1.51,1.45a2,2,0,0,1-1.65,1.4,1.64,1.64,0,0,1-.93-3.1,2.65,2.65,0,0,1,2.1-.09,3,3,0,0,0,1.8-.56c.13-.18,0-.29-.07-.42a10.5,10.5,0,0,1-.73-2c-.1-.44-.3-.6-.74-.44a3.16,3.16,0,0,1-.55.14c-.76.17-1.52.39-2.28.57-1.31.34-2.63.69-4,1a.83.83,0,0,0-.57.41,2.38,2.38,0,0,1-1.29,1.06,1.41,1.41,0,0,1-1.57-.33,1.37,1.37,0,0,1-.36-1.46,1.39,1.39,0,0,1,1.22-1,1.69,1.69,0,0,1,1.22.17,2,2,0,0,0,1.73.14c2.08-.4,4.16-.83,6.24-1.24.43-.09.59-.22.49-.75a12.82,12.82,0,0,1,.2-5.58c.09-.37,0-.5-.32-.6-1.46-.41-2.91-.84-4.36-1.27a1,1,0,0,0-.86.1,2.55,2.55,0,0,1-2,.18,1.6,1.6,0,0,1-1-2.21,1.66,1.66,0,0,1,2.3-.78,2.56,2.56,0,0,1,1.3,1.37.73.73,0,0,0,.51.47c1,.32,1.93.67,2.89,1A7.19,7.19,0,0,1,60.63,197.56Z"/><path class="cls-2" d="M64.3,196a1.78,1.78,0,1,1,3.56,0,1.78,1.78,0,0,1-3.56,0Z"/><path class="cls-2" d="M76.58,212a1.8,1.8,0,0,1,1.81-1.8A1.77,1.77,0,0,1,80.14,212a1.73,1.73,0,0,1-1.77,1.76A1.75,1.75,0,0,1,76.58,212Z"/><path class="cls-2" d="M78.4,196.84A1.82,1.82,0,0,1,80.21,195,1.79,1.79,0,0,1,82,196.82a1.79,1.79,0,0,1-3.57,0Z"/><path class="cls-2" d="M66.68,207.79a5,5,0,1,1,9.92,0,5,5,0,0,1-9.92,0Z"/><path class="cls-2" d="M78.86,206.85a2.8,2.8,0,1,1,5.59,0,2.8,2.8,0,0,1-5.59,0Z"/><path class="cls-2" d="M67.59,192.75a.8.8,0,0,1,.79-.79.77.77,0,0,1,.77.78.76.76,0,0,1-.77.77A.77.77,0,0,1,67.59,192.75Z"/><path class="cls-7" d="M257.38,385.44c.69.27.68.26,1-.41a9.36,9.36,0,0,1,2-3.11c.18-.18.22-.29,0-.5q-1.67-1.68-3.3-3.38a1,1,0,0,0-.74-.35,1.31,1.31,0,0,1-1.17-.73,1,1,0,0,1,.38-1.29,1,1,0,0,1,1.37.27,1.75,1.75,0,0,1,.33,1,.83.83,0,0,0,.23.56l3.19,3.63c.18.2.31.23.51,0a5.84,5.84,0,0,1,.56-.42c.11-.11.28-.13.38-.25.41-.17.4-.4.17-.74a1.59,1.59,0,0,0-.85-.78,1.37,1.37,0,0,1-1-1.13,1.09,1.09,0,0,1,1-1.28,1.14,1.14,0,0,1,1.31,1,1.84,1.84,0,0,1-.1,1.11,1.83,1.83,0,0,0,.43,1.19c.12.05.22,0,.33-.07a8.1,8.1,0,0,1,2.08-.65c.31-.06.32-.19.25-.43-.24-.89-.46-1.79-.69-2.69-.18-.26-.12-.59-.23-.87s-.13-.5-.18-.76a.61.61,0,0,0-.31-.41,1.41,1.41,0,0,1-.74-1.43,1,1,0,0,1,2,.11,1.88,1.88,0,0,1-.22,1.06c-.22.4,0,.81.08,1.21s.1.75.23,1.11c.17.9.35,1.81.52,2.72a.26.26,0,0,0,.33.24,8.9,8.9,0,0,1,3.25.25.24.24,0,0,0,.34-.21c.08-.28.14-.56.22-.83a.31.31,0,0,0,0-.29,2,2,0,0,1-.25-1.27,1.09,1.09,0,0,1,.75-1,1,1,0,0,1,1.13.22,1.09,1.09,0,0,1,.32,1.21,1.65,1.65,0,0,1-.83,1,.92.92,0,0,0-.59.69,4.45,4.45,0,0,1-.19.51c-.13.2.05.22.15.26.34.16.68.3,1,.44l.08,0c.66.29.67.29,1.05-.35.76-1.26,1.5-2.53,2.26-3.79a.77.77,0,0,0,.1-.66,1.4,1.4,0,0,1,.59-1.53,1.06,1.06,0,0,1,1.25.25,1.05,1.05,0,0,1,0,1.3,1.1,1.1,0,0,1-.65.48,1.44,1.44,0,0,0-.92.76c-.13.1-.14.27-.25.38-.73,1.1-1.44,2.2-2.18,3.28-.22.32-.26.51.11.74a5.11,5.11,0,0,1,1,.89c.15.16.26.15.42,0q1.8-1.77,3.61-3.51a.78.78,0,0,0,.21-.52,1.4,1.4,0,0,1,.79-1.29,1,1,0,0,1,1.28.43,1,1,0,0,1-.33,1.35,1.57,1.57,0,0,1-.88.29.78.78,0,0,0-.6.21L275,382.09c-.19.16-.2.27,0,.46a5.59,5.59,0,0,1,.83,1.22c.05.1.09.2.22.09h0a1.31,1.31,0,0,0,.47-.24,1.74,1.74,0,0,0,.82-1,1.31,1.31,0,0,1,1.3-.89,1.09,1.09,0,0,1,1.06.83,1.12,1.12,0,0,1-.54,1.26,1.53,1.53,0,0,1-1.36.14,1,1,0,0,0-.9.08c-.68.34-.68.33-.41,1a8.42,8.42,0,0,1,.6,2.25c0,.28.09.38.41.29,1.42-.38,2.85-.74,4.28-1.09a.62.62,0,0,0,.44-.33,1.39,1.39,0,0,1,1.51-.7,1,1,0,0,1-.14,2,1.32,1.32,0,0,1-.92-.13,1.27,1.27,0,0,0-1-.1l-1.11.23c-1,.21-2,.45-3.06.62-.23,0-.28.14-.27.33a9.23,9.23,0,0,1-.27,2.62c-.06.23,0,.3.22.35l1.34.38a3.79,3.79,0,0,1,.48.14c.16.13.37.1.54.18s.5.13.74.21a1.25,1.25,0,0,0,1-.06,1.45,1.45,0,0,1,1.85.4,1.3,1.3,0,0,1,0,1.17h0a3.73,3.73,0,0,1-.26.3,1.46,1.46,0,0,1-2.15-.74.7.7,0,0,0-.45-.42c-1.09-.37-2.17-.74-3.25-1.13-.22-.08-.32,0-.38.19a9.11,9.11,0,0,1-1.64,2.91.27.27,0,0,0,0,.43c.7.71,1.39,1.41,2.08,2.13a.69.69,0,0,0,.49.19,1.38,1.38,0,0,1,1.36,1,1.06,1.06,0,0,1-.52,1.12,1,1,0,0,1-1.24-.26,1.39,1.39,0,0,1-.36-1,.76.76,0,0,0-.22-.6c-.64-.73-1.28-1.45-1.91-2.18-.14-.17-.23-.23-.43,0a9,9,0,0,1-1.69,1.31c-.18.11-.18.21-.08.38a5,5,0,0,1,.36.64.7.7,0,0,0,.5.4,1.7,1.7,0,0,1,.93.67,1.14,1.14,0,0,1-1.12,1.82,1.15,1.15,0,0,1-.91-1,1.84,1.84,0,0,1,.1-1.18c.12-.23,0-.4-.12-.58-.34-.76-.34-.76-1.09-.46a7.8,7.8,0,0,1-1,.34c-.25.06-.3.17-.24.41q.59,2.25,1.14,4.5a1.3,1.3,0,0,0,.58.91,1.28,1.28,0,0,1,.58.9,1,1,0,0,1-.9,1.2,1.05,1.05,0,0,1-1.12-1,1,1,0,0,1,.12-.68c.35-.5.16-1,.06-1.5-.26-1.38-.56-2.75-.83-4.13-.06-.31-.17-.43-.49-.36a5.77,5.77,0,0,1-1.44.13c-.22,0-.33.07-.33.32,0,1.69,0,3.39,0,5.08a.57.57,0,0,0,.19.41,1.59,1.59,0,0,1,.45,1.13,1,1,0,1,1-2,0,1.46,1.46,0,0,1,.45-1.05.75.75,0,0,0,.23-.55c.11-1.65.22-3.3.34-4.95,0-.26-.05-.39-.33-.39a4.94,4.94,0,0,1-1.27-.19c-.26-.07-.41,0-.45.24a2.9,2.9,0,0,1-.12.42,1,1,0,0,0,.07.92,1.56,1.56,0,0,1,.12,1.07,1.06,1.06,0,0,1-.84.92,1.11,1.11,0,0,1-1.29-.57,1.25,1.25,0,0,1,0-1.1,1.9,1.9,0,0,1,1-.89c.27-.09.26-.36.33-.57.23-.67.23-.68-.41-.92a9.3,9.3,0,0,1-2.05-1.13c-.19-.14-.31-.17-.49,0-1.07,1.06-2.14,2.1-3.22,3.14a.48.48,0,0,0-.14.39,1.75,1.75,0,0,1-.4,1.07,1,1,0,0,1-1.52.08,1,1,0,0,1,.08-1.48,1.5,1.5,0,0,1,1-.37.82.82,0,0,0,.56-.22c1.08-.95,2.16-1.91,3.25-2.85.22-.19.2-.31,0-.49a8.66,8.66,0,0,1-1.69-2c-.1-.17-.22-.22-.38-.12-.42.25-.88.41-1,1a1.35,1.35,0,0,1-1.14,1,1.14,1.14,0,0,1-1.23-.75,1.12,1.12,0,0,1,.59-1.38,1.87,1.87,0,0,1,1.45-.07,2,2,0,0,0,1.23-.38c.09-.12,0-.2,0-.29a7.34,7.34,0,0,1-.51-1.35c-.07-.3-.2-.42-.5-.3a2.66,2.66,0,0,1-.38.1c-.53.11-1.05.26-1.57.38l-2.72.71a.57.57,0,0,0-.39.28,1.73,1.73,0,0,1-.89.73,1,1,0,0,1-1.08-.23.92.92,0,0,1-.25-1,1,1,0,0,1,.84-.72,1.15,1.15,0,0,1,.84.12,1.39,1.39,0,0,0,1.19.1l4.29-.86c.3-.06.41-.15.34-.52a8.84,8.84,0,0,1,.14-3.83c.06-.26,0-.35-.22-.42-1-.28-2-.58-3-.87a.71.71,0,0,0-.6.07,1.76,1.76,0,0,1-1.4.12,1.1,1.1,0,0,1-.66-1.52,1.13,1.13,0,0,1,1.58-.53,1.78,1.78,0,0,1,.9.93.49.49,0,0,0,.35.33c.67.22,1.33.46,2,.69C257,385.35,257.21,385.35,257.38,385.44Z"/><path class="cls-2" d="M259.91,384.39a1.23,1.23,0,1,1,2.45,0,1.23,1.23,0,0,1-2.45,0Z"/><path class="cls-2" d="M268.36,395.36a1.23,1.23,0,1,1,2.46,0,1.23,1.23,0,0,1-2.46,0Z"/><path class="cls-2" d="M269.62,384.94a1.23,1.23,0,1,1,2.45,0,1.23,1.23,0,0,1-2.45,0Z"/><path class="cls-2" d="M261.55,392.48a3.41,3.41,0,1,1,6.82,0,3.41,3.41,0,0,1-6.82,0Z"/><path class="cls-2" d="M269.93,391.84a1.93,1.93,0,1,1,3.85,0,1.93,1.93,0,0,1-3.85,0Z"/><path class="cls-2" d="M262.18,382.13a.54.54,0,0,1,1.07,0,.54.54,0,0,1-1.07,0Z"/><path class="cls-7" d="M105.42,297.83c1,.39,1,.39,1.4-.59a13.68,13.68,0,0,1,3-4.52c.26-.26.33-.42,0-.72-1.61-1.63-3.2-3.27-4.79-4.92a1.47,1.47,0,0,0-1.08-.5,1.91,1.91,0,0,1-1.7-1.06A1.48,1.48,0,0,1,104.8,284a2.33,2.33,0,0,1,.48,1.43,1.15,1.15,0,0,0,.34.81l4.64,5.28c.25.3.45.33.73.06a8.39,8.39,0,0,1,.82-.62c.16-.16.4-.18.55-.36.6-.24.58-.57.25-1.08a2.32,2.32,0,0,0-1.24-1.12A2,2,0,0,1,110,286.8a1.59,1.59,0,0,1,1.39-1.87,1.66,1.66,0,0,1,1.89,1.47,2.66,2.66,0,0,1-.14,1.62,2.7,2.7,0,0,0,.62,1.72c.18.07.33,0,.49-.1a12,12,0,0,1,3-.95c.45-.07.46-.27.37-.62-.35-1.3-.68-2.6-1-3.9-.25-.38-.16-.86-.33-1.27s-.19-.73-.26-1.1a.92.92,0,0,0-.44-.6,2,2,0,0,1-1.08-2.08A1.38,1.38,0,0,1,116,278a1.41,1.41,0,0,1,1.37,1.34,2.75,2.75,0,0,1-.31,1.53c-.32.59,0,1.18.11,1.76s.15,1.09.34,1.61c.25,1.32.5,2.64.76,3.95a.37.37,0,0,0,.47.35,13,13,0,0,1,4.73.37c.29.07.42-.05.49-.31s.21-.8.32-1.2a.48.48,0,0,0-.08-.42,2.92,2.92,0,0,1-.35-1.85,1.58,1.58,0,0,1,1.08-1.4,1.5,1.5,0,0,1,1.64.33,1.61,1.61,0,0,1,.47,1.75,2.39,2.39,0,0,1-1.21,1.44,1.33,1.33,0,0,0-.86,1,7.44,7.44,0,0,1-.28.74c-.18.28.07.31.23.38l1.48.64.11,0c1,.42,1,.42,1.53-.52,1.1-1.83,2.18-3.67,3.28-5.5a1.15,1.15,0,0,0,.15-1,2,2,0,0,1,.86-2.22,1.54,1.54,0,0,1,1.8.36,1.5,1.5,0,0,1,0,1.89,1.63,1.63,0,0,1-.93.7,2.1,2.1,0,0,0-1.35,1.11c-.18.14-.2.39-.36.55-1.06,1.59-2.09,3.19-3.17,4.77-.32.46-.38.74.16,1.06a7.37,7.37,0,0,1,1.5,1.29c.21.24.38.23.61,0q2.61-2.57,5.24-5.11a1.06,1.06,0,0,0,.31-.75,2,2,0,0,1,1.15-1.88,1.41,1.41,0,0,1,1.85.64,1.47,1.47,0,0,1-.48,1.95,2.17,2.17,0,0,1-1.27.42,1.13,1.13,0,0,0-.87.32q-2.74,2.42-5.5,4.82c-.27.24-.29.4,0,.68a7.61,7.61,0,0,1,1.21,1.77c.08.14.14.29.33.13h0a1.76,1.76,0,0,0,.68-.35,2.52,2.52,0,0,0,1.19-1.39,1.9,1.9,0,0,1,1.89-1.29,1.59,1.59,0,0,1,1.54,1.2,1.61,1.61,0,0,1-.79,1.83,2.19,2.19,0,0,1-2,.2,1.41,1.41,0,0,0-1.31.12c-1,.49-1,.48-.59,1.47a12.45,12.45,0,0,1,.87,3.27c0,.4.12.55.6.42,2.06-.56,4.13-1.08,6.21-1.59a.91.91,0,0,0,.64-.47,2,2,0,0,1,2.2-1,1.43,1.43,0,0,1,1,1.57,1.41,1.41,0,0,1-1.23,1.28,1.89,1.89,0,0,1-1.33-.18,1.89,1.89,0,0,0-1.52-.15c-.53.1-1.07.22-1.61.34-1.48.29-3,.65-4.45.89-.33,0-.4.2-.39.49a13.14,13.14,0,0,1-.39,3.8c-.09.34.05.43.32.51L136,307a5.6,5.6,0,0,1,.7.2c.23.18.53.14.78.25s.73.19,1.08.32a1.84,1.84,0,0,0,1.45-.1,2.11,2.11,0,0,1,2.69.59,1.86,1.86,0,0,1,0,1.69h0a3,3,0,0,1-.37.43c-1.21.95-2.68-.05-3.13-1.07a1,1,0,0,0-.66-.62c-1.57-.53-3.15-1.07-4.71-1.63a.37.37,0,0,0-.56.27,13,13,0,0,1-2.38,4.23.39.39,0,0,0,0,.63q1.52,1.53,3,3.09a1,1,0,0,0,.71.28,2,2,0,0,1,2,1.4,1.51,1.51,0,0,1-.76,1.63,1.49,1.49,0,0,1-1.8-.37,2,2,0,0,1-.51-1.41,1.16,1.16,0,0,0-.33-.87c-.93-1.05-1.86-2.1-2.77-3.16-.21-.25-.34-.33-.62-.06a13.42,13.42,0,0,1-2.47,1.9c-.26.16-.26.31-.11.55s.37.62.53.94a1,1,0,0,0,.72.57,2.52,2.52,0,0,1,1.36,1,1.66,1.66,0,1,1-3,1.24,2.68,2.68,0,0,1,.15-1.72c.17-.33-.06-.59-.18-.85-.48-1.1-.49-1.09-1.58-.66a10.89,10.89,0,0,1-1.39.49c-.37.09-.44.24-.35.6.56,2.17,1.12,4.36,1.66,6.54a1.83,1.83,0,0,0,.84,1.32,1.82,1.82,0,0,1,.83,1.31,1.46,1.46,0,0,1-1.29,1.74,1.52,1.52,0,0,1-1.64-1.45,1.55,1.55,0,0,1,.17-1c.52-.73.24-1.46.1-2.18-.39-2-.82-4-1.21-6-.08-.44-.25-.62-.71-.51a9.19,9.19,0,0,1-2.09.19c-.33,0-.48.1-.48.46q0,3.69-.06,7.39a.81.81,0,0,0,.28.59,2.31,2.31,0,0,1,.65,1.64,1.46,1.46,0,1,1-2.91,0,2.16,2.16,0,0,1,.65-1.53,1.1,1.1,0,0,0,.35-.8c.15-2.4.3-4.79.48-7.19,0-.39-.06-.56-.48-.56a7.28,7.28,0,0,1-1.85-.29c-.36-.1-.58-.05-.65.36a3,3,0,0,1-.17.6,1.43,1.43,0,0,0,.1,1.34,2.23,2.23,0,0,1,.18,1.55,1.58,1.58,0,0,1-1.22,1.35,1.62,1.62,0,0,1-1.87-.84,1.75,1.75,0,0,1,0-1.59,2.74,2.74,0,0,1,1.45-1.29c.39-.14.38-.53.49-.84.33-1,.33-1-.61-1.34a13.41,13.41,0,0,1-3-1.63c-.27-.2-.45-.25-.72,0-1.54,1.53-3.11,3-4.67,4.55a.72.72,0,0,0-.2.57,2.55,2.55,0,0,1-.59,1.56,1.47,1.47,0,1,1-2.09-2.05,2.25,2.25,0,0,1,1.47-.53,1.19,1.19,0,0,0,.82-.32c1.57-1.38,3.14-2.77,4.72-4.14.31-.27.29-.44,0-.71a12.88,12.88,0,0,1-2.46-2.95c-.15-.25-.32-.32-.56-.17-.61.36-1.27.6-1.51,1.45a1.93,1.93,0,0,1-1.65,1.39,1.64,1.64,0,0,1-.93-3.1,2.73,2.73,0,0,1,2.1-.09,2.83,2.83,0,0,0,1.8-.56c.13-.17,0-.29-.07-.41a10.76,10.76,0,0,1-.73-2c-.1-.44-.29-.61-.74-.44-.17.06-.36.09-.55.14-.76.16-1.51.38-2.28.56-1.31.35-2.63.7-4,1a.8.8,0,0,0-.57.41A2.41,2.41,0,0,1,97,309.41a1.41,1.41,0,0,1-1.57-.32,1.39,1.39,0,0,1-.36-1.47,1.41,1.41,0,0,1,1.22-1,1.74,1.74,0,0,1,1.22.17,2,2,0,0,0,1.74.15l6.23-1.25c.43-.08.59-.21.49-.75a12.93,12.93,0,0,1,.2-5.57c.09-.37,0-.51-.32-.6l-4.36-1.27a1,1,0,0,0-.86.1,2.6,2.6,0,0,1-2,.18,1.61,1.61,0,0,1-1-2.22,1.66,1.66,0,0,1,2.3-.77,2.58,2.58,0,0,1,1.3,1.36.75.75,0,0,0,.51.48c1,.31,1.93.67,2.89,1C104.89,297.7,105.17,297.71,105.42,297.83Z"/><path class="cls-2" d="M109.09,296.32a1.78,1.78,0,1,1,3.56,0,1.78,1.78,0,0,1-3.56,0Z"/><path class="cls-2" d="M121.37,312.25a1.82,1.82,0,0,1,1.81-1.81,1.79,1.79,0,0,1,1.76,1.79,1.79,1.79,0,0,1-3.57,0Z"/><path class="cls-2" d="M123.2,297.11a1.78,1.78,0,1,1,3.56,0,1.78,1.78,0,0,1-3.56,0Z"/><path class="cls-2" d="M111.48,308.07a5,5,0,1,1,9.91-.05,5,5,0,0,1-9.91.05Z"/><path class="cls-2" d="M123.65,307.13a2.8,2.8,0,1,1,5.59,0,2.8,2.8,0,0,1-5.59,0Z"/><path class="cls-2" d="M112.39,293a.78.78,0,1,1,1.55,0,.78.78,0,0,1-1.55,0Z"/><path class="cls-7" d="M199.5,320.8c.7.28.69.28,1-.42a9.59,9.59,0,0,1,2.1-3.17c.18-.18.23-.3,0-.51-1.13-1.14-2.25-2.3-3.37-3.45a1,1,0,0,0-.76-.35,1.36,1.36,0,0,1-1.19-.75,1,1,0,0,1,1.79-1,1.67,1.67,0,0,1,.33,1,.78.78,0,0,0,.24.56c1.09,1.24,2.18,2.47,3.26,3.72.18.2.31.23.51,0s.38-.29.57-.44.29-.13.39-.25c.42-.17.41-.41.18-.76a1.61,1.61,0,0,0-.87-.79,1.36,1.36,0,0,1-1-1.15,1.11,1.11,0,0,1,1-1.32,1.17,1.17,0,0,1,1.33,1,1.83,1.83,0,0,1-.09,1.13,2,2,0,0,0,.43,1.22c.12.05.23,0,.34-.08a8.77,8.77,0,0,1,2.13-.66c.31-.05.32-.19.25-.44-.24-.91-.47-1.82-.71-2.74-.18-.27-.11-.6-.23-.89s-.13-.51-.19-.77a.66.66,0,0,0-.3-.43,1.4,1.4,0,0,1-.76-1.46,1,1,0,0,1,2,.12,2,2,0,0,1-.21,1.08c-.23.41,0,.82.08,1.24s.1.76.23,1.13c.18.92.36,1.85.53,2.77a.27.27,0,0,0,.34.25,9.07,9.07,0,0,1,3.32.26c.2.05.3,0,.34-.22s.15-.57.23-.85a.34.34,0,0,0-.06-.29,2.11,2.11,0,0,1-.25-1.3,1.12,1.12,0,0,1,.77-1,1.06,1.06,0,0,1,1.15.23,1.13,1.13,0,0,1,.33,1.23,1.69,1.69,0,0,1-.85,1,1,1,0,0,0-.61.71,4.6,4.6,0,0,1-.19.52c-.13.2,0,.22.16.27l1,.45.08,0c.67.3.68.3,1.07-.36.77-1.29,1.53-2.58,2.31-3.86a.81.81,0,0,0,.1-.68,1.43,1.43,0,0,1,.6-1.56,1,1,0,0,1,1.29,1.58,1.24,1.24,0,0,1-.66.5,1.45,1.45,0,0,0-.95.77c-.12.1-.14.28-.25.39-.74,1.12-1.47,2.24-2.23,3.35-.22.32-.26.52.11.75a4.82,4.82,0,0,1,1.06.91c.15.16.27.15.43,0l3.68-3.59a.79.79,0,0,0,.22-.53,1.43,1.43,0,0,1,.81-1.32,1,1,0,0,1,1.3.45,1,1,0,0,1-.34,1.37,1.54,1.54,0,0,1-.9.3.79.79,0,0,0-.61.22q-1.92,1.71-3.86,3.39c-.19.17-.2.28,0,.48a5.57,5.57,0,0,1,.85,1.24c0,.1.1.21.23.09h0a1.38,1.38,0,0,0,.48-.25,1.74,1.74,0,0,0,.83-1,1.34,1.34,0,0,1,1.33-.91,1.14,1.14,0,0,1,.53,2.13,1.51,1.51,0,0,1-1.38.14,1,1,0,0,0-.93.09c-.69.34-.69.33-.41,1a8.68,8.68,0,0,1,.61,2.3c0,.28.09.39.42.29,1.45-.39,2.9-.75,4.36-1.11a.65.65,0,0,0,.45-.34,1.45,1.45,0,0,1,1.55-.72,1,1,0,0,1,.72,1.11,1,1,0,0,1-.87.89,1.29,1.29,0,0,1-.93-.12,1.31,1.31,0,0,0-1.07-.11c-.38.07-.75.16-1.13.24-1,.21-2.08.45-3.13.63-.23,0-.28.14-.27.34a9.59,9.59,0,0,1-.28,2.67c-.06.24,0,.3.23.36l1.37.39a4.5,4.5,0,0,1,.49.14c.16.13.37.1.55.18s.51.13.76.22a1.28,1.28,0,0,0,1-.06,1.47,1.47,0,0,1,1.89.4,1.3,1.3,0,0,1,0,1.2h0a3.88,3.88,0,0,1-.26.31,1.5,1.5,0,0,1-2.2-.76.7.7,0,0,0-.46-.43c-1.11-.37-2.21-.76-3.32-1.15-.22-.08-.32,0-.38.19a9.1,9.1,0,0,1-1.68,3,.28.28,0,0,0,0,.44c.71.72,1.41,1.45,2.11,2.17a.74.74,0,0,0,.5.2,1.43,1.43,0,0,1,1.4,1,1,1,0,0,1-1.81.88,1.37,1.37,0,0,1-.35-1,.83.83,0,0,0-.24-.61l-1.94-2.22c-.15-.17-.24-.23-.44,0a9.41,9.41,0,0,1-1.73,1.34c-.19.11-.19.22-.08.38a7,7,0,0,1,.37.66.72.72,0,0,0,.51.4,1.78,1.78,0,0,1,1,.69,1.19,1.19,0,0,1,.07,1.35,1.22,1.22,0,0,1-1.22.51,1.18,1.18,0,0,1-.92-1,1.83,1.83,0,0,1,.1-1.2c.12-.24,0-.42-.13-.6-.34-.78-.34-.77-1.11-.47a7,7,0,0,1-1,.34c-.26.07-.31.18-.25.42.4,1.54.78,3.07,1.16,4.6a1.28,1.28,0,0,0,.6.93,1.29,1.29,0,0,1,.58.92,1,1,0,0,1-.91,1.23,1.08,1.08,0,0,1-1.15-1,1.15,1.15,0,0,1,.12-.7c.36-.51.17-1,.07-1.53-.27-1.41-.58-2.81-.85-4.22-.06-.32-.18-.44-.5-.37a6,6,0,0,1-1.47.14c-.23,0-.34.07-.34.32,0,1.73,0,3.46,0,5.19a.56.56,0,0,0,.2.42,1.61,1.61,0,0,1,.46,1.16,1,1,0,1,1-2.05,0,1.51,1.51,0,0,1,.46-1.08.78.78,0,0,0,.24-.56c.11-1.69.22-3.37.34-5.06,0-.27,0-.39-.33-.39a5.18,5.18,0,0,1-1.3-.2c-.26-.07-.41,0-.46.25a1.86,1.86,0,0,1-.12.42,1,1,0,0,0,.07.94,1.63,1.63,0,0,1,.13,1.09,1.11,1.11,0,0,1-.86.95,1.14,1.14,0,0,1-1.32-.59,1.21,1.21,0,0,1,0-1.11,1.9,1.9,0,0,1,1-.91c.27-.1.27-.37.34-.59.23-.68.23-.69-.42-.94a9.25,9.25,0,0,1-2.09-1.15c-.2-.14-.32-.17-.51,0-1.09,1.08-2.18,2.14-3.28,3.21a.52.52,0,0,0-.15.39,1.72,1.72,0,0,1-.41,1.1,1,1,0,1,1-1.46-1.44,1.59,1.59,0,0,1,1-.38.79.79,0,0,0,.58-.22c1.11-1,2.21-2,3.32-2.91.22-.19.2-.31,0-.5a9,9,0,0,1-1.73-2.07c-.1-.18-.22-.23-.39-.12-.43.26-.89.42-1.06,1a1.37,1.37,0,0,1-1.16,1,1.17,1.17,0,0,1-1.26-.77,1.14,1.14,0,0,1,.61-1.41,1.88,1.88,0,0,1,1.47-.06,2,2,0,0,0,1.26-.4c.09-.12,0-.2,0-.29a7.39,7.39,0,0,1-.52-1.38c-.07-.3-.2-.42-.51-.3l-.39.09c-.54.12-1.07.27-1.6.4-.93.24-1.85.49-2.78.72a.59.59,0,0,0-.4.29,1.76,1.76,0,0,1-.91.74,1,1,0,0,1-1.36-1.26,1,1,0,0,1,.87-.73,1.18,1.18,0,0,1,.85.12,1.42,1.42,0,0,0,1.22.1l4.38-.87c.3-.06.42-.15.35-.53a9,9,0,0,1,.14-3.92c.06-.26,0-.35-.23-.42l-3.06-.89a.74.74,0,0,0-.61.07,1.83,1.83,0,0,1-1.43.13,1.13,1.13,0,0,1-.67-1.56,1.16,1.16,0,0,1,1.61-.54,1.76,1.76,0,0,1,.91.95.53.53,0,0,0,.36.34c.68.22,1.36.47,2,.71C199.12,320.71,199.32,320.72,199.5,320.8Z"/><path class="cls-2" d="M202.07,319.74a1.26,1.26,0,1,1,2.51,0,1.26,1.26,0,0,1-2.51,0Z"/><path class="cls-2" d="M210.71,330.93a1.25,1.25,0,1,1,2.5,0,1.25,1.25,0,0,1-2.5,0Z"/><path class="cls-2" d="M212,320.3a1.25,1.25,0,1,1,2.5,0,1.25,1.25,0,0,1-2.5,0Z"/><path class="cls-2" d="M203.75,328a3.49,3.49,0,1,1,7,0,3.49,3.49,0,0,1-7,0Z"/><path class="cls-2" d="M212.31,327.34a2,2,0,1,1,3.93,0,2,2,0,0,1-3.93,0Z"/><path class="cls-2" d="M204.39,317.42a.56.56,0,0,1,.56-.55.55.55,0,0,1,.54.55.55.55,0,0,1-1.1,0Z"/><path class="cls-7" d="M308,341.14c.7.28.7.27,1-.42a9.72,9.72,0,0,1,2.09-3.17c.19-.18.23-.3,0-.51-1.13-1.14-2.25-2.3-3.36-3.46a1.09,1.09,0,0,0-.76-.35,1.31,1.31,0,0,1-1.19-.74,1,1,0,0,1,.39-1.32,1.05,1.05,0,0,1,1.39.28,1.75,1.75,0,0,1,.34,1,.82.82,0,0,0,.23.57c1.09,1.24,2.18,2.47,3.26,3.72.18.2.32.23.52,0a6.07,6.07,0,0,1,.57-.43c.11-.11.29-.13.39-.25.42-.17.41-.41.17-.76a1.63,1.63,0,0,0-.86-.79,1.39,1.39,0,0,1-1-1.15,1.12,1.12,0,0,1,1-1.32,1.17,1.17,0,0,1,1.33,1,1.91,1.91,0,0,1-.1,1.13,1.87,1.87,0,0,0,.44,1.21c.12.06.23,0,.34-.07a8.84,8.84,0,0,1,2.12-.66c.32-.05.32-.19.26-.44-.25-.91-.48-1.82-.71-2.74-.18-.27-.12-.6-.24-.89s-.13-.51-.18-.77a.64.64,0,0,0-.31-.43,1.43,1.43,0,0,1-.76-1.46,1,1,0,0,1,2,.12,2,2,0,0,1-.22,1.08c-.23.41,0,.82.08,1.23s.11.77.23,1.14l.54,2.77c0,.19.12.27.33.25a9.07,9.07,0,0,1,3.32.25c.21.06.3,0,.35-.21s.14-.57.22-.85a.31.31,0,0,0-.05-.29,2,2,0,0,1-.25-1.3,1.1,1.1,0,0,1,.76-1,1,1,0,0,1,1.15.23,1.11,1.11,0,0,1,.33,1.23,1.65,1.65,0,0,1-.85,1,1,1,0,0,0-.6.71,3.28,3.28,0,0,1-.2.52c-.12.2,0,.22.16.27l1,.45.08,0c.68.3.68.3,1.08-.36.77-1.29,1.53-2.58,2.3-3.86a.85.85,0,0,0,.11-.68,1.41,1.41,0,0,1,.6-1.56,1,1,0,0,1,1.28,1.58,1.2,1.2,0,0,1-.66.5,1.43,1.43,0,0,0-.94.77c-.13.1-.15.28-.26.39-.74,1.12-1.47,2.24-2.23,3.35-.22.32-.26.52.12.75a4.77,4.77,0,0,1,1,.91c.15.16.27.15.43,0,1.23-1.2,2.45-2.4,3.69-3.59a.78.78,0,0,0,.21-.53,1.45,1.45,0,0,1,.81-1.32,1,1,0,0,1,1.3.45,1,1,0,0,1-.34,1.37,1.51,1.51,0,0,1-.89.3.76.76,0,0,0-.61.22c-1.28,1.13-2.57,2.27-3.86,3.39-.19.16-.21.28,0,.48a5.25,5.25,0,0,1,.85,1.24c.05.1.1.21.23.09h0a1.23,1.23,0,0,0,.48-.25,1.79,1.79,0,0,0,.84-1,1.32,1.32,0,0,1,1.32-.91,1.14,1.14,0,0,1,.53,2.13,1.51,1.51,0,0,1-1.38.14,1,1,0,0,0-.93.09c-.69.34-.69.33-.41,1a8.32,8.32,0,0,1,.61,2.3c0,.27.09.38.42.29,1.45-.39,2.91-.75,4.36-1.11a.7.7,0,0,0,.46-.34,1.43,1.43,0,0,1,1.54-.72,1,1,0,0,1-.15,2,1.35,1.35,0,0,1-.93-.12,1.28,1.28,0,0,0-1.06-.11l-1.14.24c-1,.21-2.07.45-3.12.62-.23,0-.29.15-.28.35a9.22,9.22,0,0,1-.27,2.67c-.06.24,0,.3.22.36.46.12.91.26,1.37.39a3.94,3.94,0,0,1,.49.14c.16.13.38.1.55.18s.51.13.76.22a1.26,1.26,0,0,0,1-.07,1.49,1.49,0,0,1,1.89.41,1.33,1.33,0,0,1,0,1.2h0a1.34,1.34,0,0,1-2.45-.45.72.72,0,0,0-.47-.43c-1.11-.37-2.21-.76-3.31-1.15-.23-.08-.33,0-.39.19a9.36,9.36,0,0,1-1.67,3,.27.27,0,0,0,0,.44l2.12,2.17a.7.7,0,0,0,.5.2,1.41,1.41,0,0,1,1.39,1,1,1,0,0,1-1.8.88,1.42,1.42,0,0,1-.36-1,.86.86,0,0,0-.23-.61c-.66-.74-1.3-1.48-2-2.22-.14-.17-.24-.23-.43,0a9.48,9.48,0,0,1-1.74,1.34c-.18.11-.18.21-.08.38a4.28,4.28,0,0,1,.37.66.72.72,0,0,0,.51.4,1.8,1.8,0,0,1,1,.69,1.17,1.17,0,1,1-2.08.87,1.93,1.93,0,0,1,.1-1.21c.12-.23,0-.41-.12-.59-.34-.78-.35-.77-1.11-.47a7.11,7.11,0,0,1-1,.34c-.26.07-.31.18-.24.42.39,1.53.78,3.07,1.16,4.6a1.27,1.27,0,0,0,.59.93,1.3,1.3,0,0,1,.59.92,1,1,0,0,1-.91,1.23,1.17,1.17,0,0,1-1-1.72c.36-.51.16-1,.06-1.53-.27-1.41-.57-2.81-.84-4.22-.06-.32-.18-.44-.51-.37a6,6,0,0,1-1.46.14c-.23,0-.34.07-.34.32,0,1.73,0,3.46,0,5.19a.59.59,0,0,0,.19.42,1.6,1.6,0,0,1,.46,1.15,1,1,0,0,1-1.08,1,1,1,0,0,1-1-1.05,1.53,1.53,0,0,1,.45-1.07.81.81,0,0,0,.25-.56c.1-1.69.21-3.37.33-5.06,0-.27,0-.39-.33-.39a5.25,5.25,0,0,1-1.3-.2c-.26-.07-.41,0-.46.25a2,2,0,0,1-.12.42,1,1,0,0,0,.07.94,1.57,1.57,0,0,1,.13,1.09,1.09,1.09,0,0,1-.86.95,1.13,1.13,0,0,1-1.31-.59,1.23,1.23,0,0,1,0-1.12,2,2,0,0,1,1-.9c.28-.1.27-.37.35-.59.23-.68.23-.69-.43-.94a9.25,9.25,0,0,1-2.09-1.15c-.19-.14-.32-.17-.5,0-1.09,1.08-2.19,2.14-3.29,3.2a.51.51,0,0,0-.14.4,1.78,1.78,0,0,1-.41,1.1,1,1,0,0,1-1.55.08,1,1,0,0,1,.08-1.52,1.64,1.64,0,0,1,1-.38.82.82,0,0,0,.58-.22c1.1-1,2.2-1.95,3.31-2.91.22-.19.21-.31,0-.5a9,9,0,0,1-1.72-2.07c-.11-.18-.23-.23-.39-.12-.43.26-.9.42-1.07,1a1.37,1.37,0,0,1-1.16,1,1.16,1.16,0,0,1-1.25-.77,1.14,1.14,0,0,1,.6-1.41,1.86,1.86,0,0,1,1.48-.06,2,2,0,0,0,1.26-.4c.09-.12,0-.2-.05-.29a6.94,6.94,0,0,1-.51-1.38c-.07-.3-.21-.42-.52-.31a2.48,2.48,0,0,1-.39.1c-.54.12-1.06.27-1.6.4-.93.24-1.85.49-2.78.72a.55.55,0,0,0-.39.29,1.76,1.76,0,0,1-.91.74,1,1,0,0,1-1.1-.23,1,1,0,0,1-.26-1,1,1,0,0,1,.86-.73,1.18,1.18,0,0,1,.85.12,1.42,1.42,0,0,0,1.22.1c1.46-.28,2.92-.58,4.38-.87.31-.06.42-.15.35-.53a9.1,9.1,0,0,1,.14-3.92c.07-.26,0-.35-.23-.42l-3.06-.89a.71.71,0,0,0-.6.07,1.85,1.85,0,0,1-1.44.13,1.13,1.13,0,0,1-.67-1.56,1.16,1.16,0,0,1,1.61-.54,1.78,1.78,0,0,1,.92.95.51.51,0,0,0,.36.34c.68.22,1.35.47,2,.7C307.65,341.05,307.85,341.05,308,341.14Z"/><path class="cls-2" d="M310.6,340.08a1.25,1.25,0,1,1,2.5,0,1.25,1.25,0,0,1-2.5,0Z"/><path class="cls-2" d="M319.23,351.27A1.28,1.28,0,0,1,320.5,350a1.26,1.26,0,0,1,1.24,1.26,1.26,1.26,0,0,1-2.51,0Z"/><path class="cls-2" d="M320.51,340.64a1.26,1.26,0,1,1,2.51,0,1.26,1.26,0,0,1-2.51,0Z"/><path class="cls-2" d="M312.28,348.33a3.48,3.48,0,1,1,7,0,3.48,3.48,0,0,1-7,0Z"/><path class="cls-2" d="M320.83,347.67a2,2,0,1,1,3.93,0,2,2,0,0,1-3.93,0Z"/><path class="cls-2" d="M312.92,337.76a.55.55,0,0,1,.55-.55.54.54,0,0,1,.54.55.53.53,0,0,1-.54.54A.54.54,0,0,1,312.92,337.76Z"/></g></svg>