<svg xmlns="http://www.w3.org/2000/svg" viewBox="0 0 500 500"><defs><style>.cls-1{fill:#1f3142;}.cls-2{fill:#c7d6fe;}</style></defs><g id="Camada_16" data-name="Camada 16"><path class="cls-1" d="M419.5,164.71v9a10,10,0,0,0-1.15,2.64q-3.84,34.17-7.6,68.36-9,81-18.05,162c-2.12,18.67-17.22,32.11-36.16,32.14q-105.55.15-211.12,0c-19,0-33.9-13.4-36.14-32.13-2.27-19.06-4.31-38.14-6.43-57.22q-7.25-65-14.52-130C86.6,204.18,84.46,189,82.5,173.7v-9c3.51-1,7.61-3.65,10.35-2.63,2.35.88,4.11,5.81,4.49,9.13,4.35,37.64,8.31,75.32,12.54,113,1.52,13.44,5.79,18.15,19,21.46,10.16,2.55,20.52,2.67,30-2,4.55-2.22,7.65-7.24,11.74-10.59,2.54-2.08,6-5.07,8.53-4.67,4.86.75,6.51,5.2,4.76,9.91-5.36,14.44-17.61,19.49-31.29,22.21-13.07,2.6-25.73.59-39-4.85,1.34,12.89,2.55,25,3.87,37,1.79,16.35,3.85,32.67,5.47,49,1.43,14.5,9.76,22.56,24.5,22.58q103.34.09,206.65,0c15.51,0,23.42-8,25-23.7,2.5-24.8,5.52-49.54,8.29-74.31.35-3.2.49-6.41.78-10.35-22.83,8.46-44.27,8.38-63.91-6.58-18.16,13.48-37.87,15.39-58.83,8.25-4.83-1.65-9.26-4.28-7.27-10.15,2.13-6.31,7.11-5.55,12.35-3.5a46.53,46.53,0,0,0,33.6.29c6.57-2.35,11.94-5.75,13.61-13.5.45-2.1,4-4.81,6.24-4.9s6.44,2.38,6.75,4.25c1.78,10.45,9.56,13.83,18,15.26a68.11,68.11,0,0,0,22.87.38c14.73-2.59,19.12-8.4,20.7-23.11,4.05-37.67,8.1-75.34,12.47-113,.34-2.93,2.75-7.3,5-7.91C412.59,161.06,416.23,163.59,419.5,164.71Z"/><path class="cls-1" d="M306.86,220.33q-27.56-27.51-55.1-55c-1.6-1.61-3-3.39-5.21-5.83,9.35-.69,17.27-1.07,25.16-1.89,16.09-1.68,27.92-13.09,30.53-29.14,1.33-8.15-1.6-11.7-9.95-11.7-27.2,0-54.4-.14-81.6.19a88.63,88.63,0,0,0-57.62,21.62c-23.68,20.07-41.32,55.61-9.19,90.24,23.4,25.23,48,49.35,72.55,73.49,7.93,7.79,20.61,6.16,28.16-2.14,1.45-1.59,2.71-3.34,4-4.94,12.51,5,21.64.76,28.64-9.6,9.26,3.93,17.58,2.85,24.35-4.21,6.31-6.59,7.31-14.46,3.38-23.25C320.44,245.67,320.89,234.33,306.86,220.33Zm-6.64,22.82c-5,4.85-8.49,0-11.8-3.3-9.61-9.44-19.16-18.95-28.74-28.43-1.06-1-2.11-2.12-3.19-3.16-3.51-3.38-7.37-4.63-11.09-.66s-2.44,7.69,1,11.14q20.44,20.31,40.85,40.66c1.41,1.41,3.52,2.67,4,4.35.63,2.32.94,6.09-.37,7.23-1.7,1.48-5.26,1.66-7.75,1.12-1.9-.4-3.43-2.72-5-4.3-14.16-14.07-28.19-28.28-42.56-42.13a11.49,11.49,0,0,0-8.41-2.73c-1.92.25-4.91,3.72-4.79,5.58.19,2.82,2.15,6,4.25,8.15,10.25,10.56,20.79,20.84,31.24,31.22,1.23,1.23,3.17,2.28,3.55,3.74.77,3,2,7.05.7,9.14-2.51,4-6.46,2.56-9.51-.47-11.52-11.42-23-22.89-34.55-34.27-4-3.9-8.16-10.14-14.18-4.06-5.78,5.84-.17,10.25,3.91,14.3,8.14,8.09,16.57,15.92,24.24,24.43,1.87,2.07,2.85,7.4,1.51,9.41-2.77,4.17-7,2.41-10.15-.79-22-22.13-44.71-43.56-65.66-66.62-25-27.52-20.57-56.18,10.41-77.41,12.81-8.78,26.88-13.79,42.7-13.69,23,.13,45.91-.18,68.87-.27,1.91,0,3.82.19,6.44.33-3.95,8.47-10.42,11.55-18.62,12-11.7.67-23.44,1.06-35.08,2.3-3.43.37-8.44,2.54-9.37,5.11s1.54,7.45,3.95,9.9c21.36,21.69,43,43.07,64.63,64.53,1.77,1.76,3.6,3.46,5.29,5.29C300.2,234.35,305.67,237.85,300.22,243.15Z"/><path class="cls-2" d="M300.22,243.15c-5,4.85-8.49,0-11.8-3.3-9.61-9.44-19.16-18.95-28.74-28.43-1.06-1-2.11-2.12-3.19-3.16-3.51-3.38-7.37-4.63-11.09-.66s-2.44,7.69,1,11.14q20.44,20.31,40.85,40.66c1.41,1.41,3.52,2.67,4,4.35.63,2.32.94,6.09-.37,7.23-1.7,1.48-5.26,1.66-7.75,1.12-1.9-.4-3.43-2.72-5-4.3-14.16-14.07-28.19-28.28-42.56-42.13a11.49,11.49,0,0,0-8.41-2.73c-1.92.25-4.91,3.72-4.79,5.58.19,2.82,2.15,6,4.25,8.15,10.25,10.56,20.79,20.84,31.24,31.22,1.23,1.23,3.17,2.28,3.55,3.74.77,3,2,7.05.7,9.14-2.51,4-6.46,2.56-9.51-.47-11.52-11.42-23-22.89-34.55-34.27-4-3.9-8.16-10.14-14.18-4.06-5.78,5.84-.17,10.25,3.91,14.3,8.14,8.09,16.57,15.92,24.24,24.43,1.87,2.07,2.85,7.4,1.51,9.41-2.77,4.17-7,2.41-10.15-.79-22-22.13-44.71-43.56-65.66-66.62-25-27.52-20.57-56.18,10.41-77.41,12.81-8.78,26.88-13.79,42.7-13.69,23,.13,45.91-.18,68.87-.27,1.91,0,3.82.19,6.44.33-3.95,8.47-10.42,11.55-18.62,12-11.7.67-23.44,1.06-35.08,2.3-3.43.37-8.44,2.54-9.37,5.11s1.54,7.45,3.95,9.9c21.36,21.69,43,43.07,64.63,64.53,1.77,1.76,3.6,3.46,5.29,5.29C300.2,234.35,305.67,237.85,300.22,243.15Z"/></g></svg>