<svg xmlns="http://www.w3.org/2000/svg" viewBox="0 0 500 500"><defs><style>.cls-1{fill:#dd6876;}.cls-2{fill:#fcd6d9;}.cls-3{fill:#1c3047;stroke:#b4cce4;stroke-miterlimit:10;stroke-width:1.14px;}.cls-4,.cls-5{fill:#fff;}.cls-4{opacity:0.2;}.cls-6{fill:#ffc759;}</style></defs><g id="Camada_14" data-name="Camada 14"><rect class="cls-1" x="37.91" y="146.61" width="424.18" height="167.1" rx="33.3"/><path class="cls-2" d="M381.56,342.47,324.68,187.32c-.72-1.31-4-7.14-8.17-6.87a6.4,6.4,0,0,0-3.81,2.09c-5.54,5.87,9.45,52.94,14.67,68.86a3.11,3.11,0,0,1-1.95.28c-1.79-.43-2.61-2.89-2.83-3.5-1.24-3.43-12.44-28-28.32-62.48-1.22-1.69-4.58-6-7.67-5.33a4.39,4.39,0,0,0-2.33,1.72c-5.73,7.87,27.23,76.23,20.44,80.63a1.66,1.66,0,0,1-1,.21,2.72,2.72,0,0,1-1.46.12,3.34,3.34,0,0,1-1.71-1.12c-2-2.42-18.05-48.94-28.12-53.07a3.46,3.46,0,0,0-2.83-.17c-2.62,1.41-1.37,8.46-.89,11.16,2.47,13.88,16.44,48.82,20.78,59.54,0,0-.45,1.3-1.4,1.44s-2-1.18-2.5-1.89c-1.89-2.7-12.57-19-17-24.1-.59-.67-1.77-2-3.16-1.83-1.82.15-3,2.57-3.17,3-3,6.3,10.09,17.39,20.66,38.48,1.47,2.93,2.55,5.38,3.2,6.9a162.7,162.7,0,0,0,57.44,68.41Z"/><path class="cls-2" d="M107.6,342.47l56.88-155.15c.72-1.31,4-7.14,8.17-6.87a6.37,6.37,0,0,1,3.8,2.09c5.55,5.87-9.44,52.94-14.66,68.86a3.11,3.11,0,0,0,2,.28c1.79-.43,2.61-2.89,2.83-3.5,1.24-3.43,12.44-28,28.32-62.48,1.22-1.69,4.58-6,7.67-5.33a4.43,4.43,0,0,1,2.33,1.72c5.73,7.87-27.23,76.23-20.44,80.63a1.66,1.66,0,0,0,1,.21,2.72,2.72,0,0,0,1.46.12,3.34,3.34,0,0,0,1.71-1.12c2-2.42,18.05-48.94,28.12-53.07a3.46,3.46,0,0,1,2.83-.17c2.62,1.41,1.37,8.46.89,11.16C218,233.73,204,268.67,199.66,279.39c0,0,.45,1.3,1.4,1.44s2-1.18,2.5-1.89c1.89-2.7,12.57-19,17-24.1.59-.67,1.77-2,3.16-1.83,1.82.15,3,2.57,3.17,3,3,6.3-10.09,17.39-20.66,38.48-1.47,2.93-2.55,5.38-3.2,6.9a163.55,163.55,0,0,1-28.79,43.75,162.77,162.77,0,0,1-28.65,24.66Z"/><path class="cls-3" d="M119.68,347.35q-2.45,2.85-5.25,5.74c-2.24,2.33-4.65,4.66-7.26,7a137.26,137.26,0,0,1-32.12,21.37,117.77,117.77,0,0,1-7.59-23.3c2.61-.65,5.08-1.21,7.37-1.65,3.92-.76,13.51-2.4,20-9.92,2.86-3.31,2.64-4.86,4.57-6.27,2.15-1.57,5.54-1.94,9.58-1.34l1.33,1.06Z"/><path class="cls-3" d="M136.86,360.84c-.51.92-1,1.86-1.58,2.8A214.91,214.91,0,0,1,120,386.76a213.15,213.15,0,0,1-23.7,26.38,113.49,113.49,0,0,1-21.22-31.69,137.26,137.26,0,0,0,32.12-21.37c2.61-2.33,5-4.66,7.26-7q2.8-2.89,5.25-5.74Z"/><path class="cls-3" d="M111.72,426.77a113.68,113.68,0,0,1-15.45-13.63A213.15,213.15,0,0,0,120,386.76a214.91,214.91,0,0,0,15.31-23.12c.55-.94,1.07-1.88,1.58-2.8l9.35,7.34c.13.38.24.78.35,1.17C151.27,387.11,132.28,402.57,111.72,426.77Z"/><path class="cls-3" d="M369.25,346.07q2.46,2.85,5.26,5.74c2.24,2.32,4.65,4.66,7.26,7a137.58,137.58,0,0,0,32.12,21.37,117,117,0,0,0,7.58-23.3c-2.6-.65-5.07-1.21-7.36-1.65-3.92-.76-13.51-2.4-20.05-9.92-2.86-3.31-2.64-4.86-4.57-6.27-2.15-1.58-5.54-1.94-9.58-1.34l-1.33,1.06Z"/><path class="cls-3" d="M352.07,359.55c.52.93,1,1.87,1.59,2.81a215.09,215.09,0,0,0,39,49.5,113.49,113.49,0,0,0,21.22-31.69,137.58,137.58,0,0,1-32.12-21.37c-2.61-2.33-5-4.67-7.26-7q-2.81-2.9-5.26-5.74Z"/><path class="cls-3" d="M377.22,425.49a114.28,114.28,0,0,0,15.45-13.63,215.09,215.09,0,0,1-39-49.5c-.55-.94-1.07-1.88-1.59-2.81l-9.35,7.35c-.13.38-.24.78-.34,1.17C337.67,385.83,356.65,401.29,377.22,425.49Z"/><path class="cls-4" d="M75.05,157.56S49.89,148.8,43.9,176.84V277.63s2.63,20.16,7.45,3.94S53.54,176,53.54,176,52.74,163.7,75.05,157.56Z"/><path class="cls-4" d="M418.56,301.78s25.16,8.76,31.15-19.28V181.71s-2.63-20.16-7.45-3.94-2.19,105.6-2.19,105.6S440.87,295.64,418.56,301.78Z"/><path class="cls-5" d="M242.65,143.61c1.2.47,1.19.46,1.69-.72a16.47,16.47,0,0,1,3.59-5.44c.31-.31.39-.51,0-.87-1.94-2-3.86-3.94-5.76-5.92a1.74,1.74,0,0,0-1.3-.6,2.3,2.3,0,0,1-2.05-1.28,1.78,1.78,0,0,1,3.06-1.78,2.92,2.92,0,0,1,.58,1.72,1.4,1.4,0,0,0,.4,1c1.87,2.11,3.74,4.23,5.59,6.36.31.35.54.39.88.06a12,12,0,0,1,1-.74c.19-.19.49-.22.67-.44.72-.28.7-.68.3-1.29a2.81,2.81,0,0,0-1.49-1.36,2.39,2.39,0,0,1-1.71-2,1.91,1.91,0,0,1,1.68-2.25,2,2,0,0,1,2.28,1.77,3.2,3.2,0,0,1-.17,1.95,3.28,3.28,0,0,0,.75,2.07c.21.09.4,0,.58-.12a14.73,14.73,0,0,1,3.65-1.14c.53-.09.55-.32.43-.74-.41-1.57-.81-3.14-1.22-4.7-.3-.46-.19-1-.4-1.53s-.22-.88-.31-1.32a1.11,1.11,0,0,0-.53-.73,2.44,2.44,0,0,1-1.3-2.51,1.74,1.74,0,0,1,3.45.21,3.3,3.3,0,0,1-.37,1.84c-.39.72,0,1.42.14,2.12s.18,1.31.4,1.94c.3,1.59.61,3.17.92,4.76a.44.44,0,0,0,.56.42,15.58,15.58,0,0,1,5.69.44c.36.09.52-.06.6-.37.13-.48.25-1,.39-1.45a.6.6,0,0,0-.1-.5,3.48,3.48,0,0,1-.43-2.23,1.89,1.89,0,0,1,1.31-1.68,1.8,1.8,0,0,1,2,.39,1.94,1.94,0,0,1,.57,2.11,2.88,2.88,0,0,1-1.46,1.73,1.66,1.66,0,0,0-1,1.22,6.76,6.76,0,0,1-.33.89c-.22.34.09.37.27.46.59.27,1.19.52,1.79.77l.13,0c1.16.51,1.17.52,1.84-.62,1.32-2.2,2.63-4.41,3.95-6.62a1.37,1.37,0,0,0,.19-1.15,2.4,2.4,0,0,1,1-2.67,1.78,1.78,0,0,1,2.2,2.7,2.06,2.06,0,0,1-1.12.85,2.5,2.5,0,0,0-1.62,1.33c-.22.17-.25.47-.44.66-1.27,1.92-2.52,3.85-3.82,5.74-.38.56-.45.89.19,1.28a8.69,8.69,0,0,1,1.81,1.56c.26.29.46.27.73,0l6.32-6.14a1.35,1.35,0,0,0,.37-.91,2.44,2.44,0,0,1,1.39-2.26,1.68,1.68,0,0,1,2.22.77,1.78,1.78,0,0,1-.58,2.35,2.57,2.57,0,0,1-1.53.5,1.38,1.38,0,0,0-1,.38q-3.3,2.92-6.62,5.81c-.33.29-.35.48-.06.82a9.47,9.47,0,0,1,1.46,2.13c.08.17.16.35.39.16h0a2.23,2.23,0,0,0,.82-.43,3,3,0,0,0,1.43-1.67,2.31,2.31,0,0,1,2.28-1.56,1.95,1.95,0,0,1,.9,3.66,2.63,2.63,0,0,1-2.37.24,1.69,1.69,0,0,0-1.58.14c-1.19.6-1.19.58-.71,1.77a14.25,14.25,0,0,1,1,3.94c.05.48.16.66.73.51,2.48-.68,5-1.3,7.47-1.91A1.1,1.1,0,0,0,286,145a2.46,2.46,0,0,1,2.65-1.24,1.76,1.76,0,0,1-.25,3.43,2.31,2.31,0,0,1-1.6-.22,2.24,2.24,0,0,0-1.82-.18c-.65.12-1.3.27-1.94.4-1.79.36-3.56.78-5.36,1.08-.4,0-.49.24-.47.59a16.08,16.08,0,0,1-.47,4.58c-.11.41.06.51.38.6l2.35.68a8.06,8.06,0,0,1,.84.24c.28.22.64.17.94.31s.88.23,1.3.38a2.21,2.21,0,0,0,1.74-.12,2.55,2.55,0,0,1,3.24.7,2.28,2.28,0,0,1,0,2.05h0a4.58,4.58,0,0,1-.44.53c-1.47,1.13-3.24-.06-3.77-1.3a1.23,1.23,0,0,0-.8-.74c-1.89-.64-3.79-1.29-5.67-2-.39-.14-.56,0-.67.33a15.69,15.69,0,0,1-2.87,5.08.48.48,0,0,0,0,.76q1.83,1.85,3.63,3.72a1.24,1.24,0,0,0,.86.34,2.41,2.41,0,0,1,2.38,1.69,1.82,1.82,0,0,1-.91,2,1.8,1.8,0,0,1-2.17-.45,2.41,2.41,0,0,1-.62-1.69,1.36,1.36,0,0,0-.4-1.05c-1.11-1.26-2.23-2.53-3.33-3.81-.25-.29-.41-.4-.75-.07a15.62,15.62,0,0,1-3,2.29c-.32.19-.32.38-.14.66a10.46,10.46,0,0,1,.63,1.13,1.22,1.22,0,0,0,.87.69,3,3,0,0,1,1.64,1.18,2,2,0,0,1,.11,2.31,2,2,0,0,1-3.67-.81,3.2,3.2,0,0,1,.18-2.07c.2-.4-.08-.71-.22-1-.58-1.33-.59-1.32-1.9-.79a12.7,12.7,0,0,1-1.67.58c-.45.11-.53.3-.42.72.67,2.62,1.34,5.25,2,7.88a2.2,2.2,0,0,0,1,1.59,2.19,2.19,0,0,1,1,1.57A1.78,1.78,0,0,1,267,179.6a1.85,1.85,0,0,1-2-1.75,1.93,1.93,0,0,1,.22-1.2c.61-.87.28-1.75.11-2.62-.47-2.41-1-4.82-1.45-7.23-.11-.54-.31-.75-.86-.62a10.16,10.16,0,0,1-2.52.23c-.39,0-.58.12-.58.55q0,4.44-.07,8.9a.94.94,0,0,0,.34.7,2.79,2.79,0,0,1,.78,2,1.75,1.75,0,1,1-3.5-.05,2.58,2.58,0,0,1,.78-1.84,1.39,1.39,0,0,0,.42-1q.27-4.33.58-8.67c0-.46-.08-.67-.57-.67a8.87,8.87,0,0,1-2.23-.35c-.44-.11-.7-.06-.79.44a3.91,3.91,0,0,1-.21.72,1.72,1.72,0,0,0,.13,1.61,2.78,2.78,0,0,1,.22,1.87,1.91,1.91,0,0,1-1.47,1.62,2,2,0,0,1-2.26-1,2.08,2.08,0,0,1,0-1.91,3.32,3.32,0,0,1,1.74-1.56c.48-.16.47-.63.6-1,.39-1.16.39-1.17-.73-1.61a15.6,15.6,0,0,1-3.58-2c-.34-.24-.55-.29-.87,0-1.86,1.84-3.74,3.66-5.63,5.48a.87.87,0,0,0-.24.68,3,3,0,0,1-.71,1.88,1.77,1.77,0,1,1-2.51-2.46,2.67,2.67,0,0,1,1.76-.64,1.46,1.46,0,0,0,1-.39c1.89-1.66,3.78-3.33,5.69-5,.37-.33.35-.53,0-.86a15.38,15.38,0,0,1-3-3.56c-.17-.29-.38-.38-.66-.2-.74.44-1.54.72-1.83,1.75a2.31,2.31,0,0,1-2,1.68,2,2,0,0,1-2.15-1.32,2,2,0,0,1,1-2.41,3.22,3.22,0,0,1,2.53-.11,3.47,3.47,0,0,0,2.16-.68c.15-.21,0-.35-.08-.49a12.5,12.5,0,0,1-.88-2.37c-.12-.52-.36-.73-.89-.53a4.91,4.91,0,0,1-.66.17c-.92.2-1.83.46-2.75.68-1.58.42-3.17.84-4.76,1.24a1,1,0,0,0-.68.49,2.91,2.91,0,0,1-1.55,1.27,1.76,1.76,0,0,1-2.33-2.16,1.71,1.71,0,0,1,1.48-1.25,2,2,0,0,1,1.46.21,2.41,2.41,0,0,0,2.09.17l7.5-1.5c.52-.1.72-.25.6-.9a15.36,15.36,0,0,1,.24-6.71c.11-.45,0-.61-.39-.73l-5.25-1.52a1.24,1.24,0,0,0-1,.11,3.09,3.09,0,0,1-2.45.23,1.93,1.93,0,0,1-1.15-2.67,2,2,0,0,1,2.76-.93,3,3,0,0,1,1.57,1.64.89.89,0,0,0,.62.57c1.16.38,2.32.8,3.47,1.21C242,143.45,242.35,143.46,242.65,143.61Z"/><path class="cls-6" d="M247.07,141.78a2.14,2.14,0,1,1,4.28,0,2.14,2.14,0,0,1-4.28,0Z"/><path class="cls-6" d="M261.86,161a2.18,2.18,0,0,1,2.17-2.17,2.15,2.15,0,0,1,2.12,2.15,2.15,2.15,0,0,1-4.29,0Z"/><path class="cls-6" d="M264.05,142.74a2.18,2.18,0,0,1,2.18-2.17,2.14,2.14,0,0,1,2.11,2.15,2.09,2.09,0,0,1-2.13,2.12A2.12,2.12,0,0,1,264.05,142.74Z"/><path class="cls-6" d="M249.94,155.93a6,6,0,1,1,11.94-.05,6,6,0,0,1-11.94.05Z"/><path class="cls-6" d="M264.6,154.8a3.41,3.41,0,0,1,3.41-3.41,3.38,3.38,0,0,1,3.32,3.38,3.37,3.37,0,0,1-6.73,0Z"/><path class="cls-6" d="M251,137.82a.94.94,0,1,1,1.88,0,.94.94,0,0,1-1.88,0Z"/><path class="cls-5" d="M364.2,195.4c1.19.47,1.18.47,1.68-.71a16.42,16.42,0,0,1,3.59-5.44c.32-.32.4-.51,0-.88-1.94-2-3.86-3.93-5.77-5.92a1.76,1.76,0,0,0-1.3-.6,2.26,2.26,0,0,1-2-1.28,1.78,1.78,0,0,1,.67-2.25,1.81,1.81,0,0,1,2.39.47,2.92,2.92,0,0,1,.57,1.73,1.39,1.39,0,0,0,.41,1c1.86,2.12,3.73,4.24,5.58,6.37.31.35.54.39.89.06a9,9,0,0,1,1-.74c.19-.19.49-.22.66-.44.72-.29.71-.69.3-1.29a2.73,2.73,0,0,0-1.49-1.36,2.37,2.37,0,0,1-1.7-2,1.92,1.92,0,0,1,1.67-2.26,2,2,0,0,1,2.29,1.77,3.35,3.35,0,0,1-.17,2,3.23,3.23,0,0,0,.75,2.08c.2.09.39,0,.58-.13a14.51,14.51,0,0,1,3.64-1.13c.54-.09.55-.33.44-.75-.42-1.56-.82-3.13-1.22-4.7-.31-.46-.2-1-.4-1.52s-.23-.88-.32-1.33a1.11,1.11,0,0,0-.53-.73,2.45,2.45,0,0,1-1.3-2.5,1.75,1.75,0,0,1,3.46.2,3.33,3.33,0,0,1-.38,1.85c-.38.71,0,1.42.14,2.12s.18,1.31.4,1.94c.31,1.58.61,3.17.92,4.76a.44.44,0,0,0,.57.41,15.61,15.61,0,0,1,5.69.45c.35.09.51-.07.59-.37.13-.49.25-1,.39-1.45a.58.58,0,0,0-.1-.51,3.46,3.46,0,0,1-.42-2.23,1.88,1.88,0,0,1,1.31-1.67,1.77,1.77,0,0,1,2,.39,1.92,1.92,0,0,1,.56,2.11,2.9,2.9,0,0,1-1.46,1.73,1.63,1.63,0,0,0-1,1.21,6.14,6.14,0,0,1-.34.9c-.21.33.09.37.28.45.59.27,1.18.52,1.78.77l.13,0c1.17.51,1.17.51,1.85-.62,1.32-2.21,2.62-4.42,4-6.62a1.43,1.43,0,0,0,.18-1.16,2.41,2.41,0,0,1,1-2.67,1.84,1.84,0,0,1,2.17.43,1.81,1.81,0,0,1,0,2.27,2,2,0,0,1-1.12.85,2.55,2.55,0,0,0-1.62,1.33c-.22.17-.25.47-.44.67-1.27,1.91-2.52,3.84-3.82,5.74-.38.55-.44.89.2,1.28a8.35,8.35,0,0,1,1.8,1.56c.26.28.47.26.74,0q3.15-3.09,6.31-6.15a1.33,1.33,0,0,0,.37-.91,2.47,2.47,0,0,1,1.39-2.25,1.7,1.7,0,0,1,2.23.76,1.79,1.79,0,0,1-.58,2.35,2.59,2.59,0,0,1-1.54.51,1.39,1.39,0,0,0-1,.38q-3.3,2.93-6.62,5.81c-.32.28-.35.47-.06.82a9.47,9.47,0,0,1,1.46,2.13c.09.17.17.35.4.15h0a2.07,2.07,0,0,0,.82-.42,3,3,0,0,0,1.44-1.67,2.27,2.27,0,0,1,2.27-1.56,1.92,1.92,0,0,1,1.85,1.45,1.94,1.94,0,0,1-.95,2.21,2.68,2.68,0,0,1-2.36.24,1.68,1.68,0,0,0-1.59.14c-1.18.59-1.18.57-.71,1.77a14.53,14.53,0,0,1,1.05,3.94c.05.47.15.66.72.5,2.48-.67,5-1.29,7.47-1.91a1.12,1.12,0,0,0,.78-.57,2.43,2.43,0,0,1,2.65-1.23A1.76,1.76,0,0,1,410,199a2.33,2.33,0,0,1-1.59-.21,2.27,2.27,0,0,0-1.83-.19l-1.94.41c-1.79.36-3.56.78-5.36,1.07-.39,0-.48.25-.47.59a16,16,0,0,1-.47,4.58c-.1.41.06.52.38.61l2.35.68a6.28,6.28,0,0,1,.85.23c.27.22.63.18.93.31s.88.23,1.31.38a2.21,2.21,0,0,0,1.74-.11,2.55,2.55,0,0,1,3.24.7,2.28,2.28,0,0,1,0,2.05h0a3.57,3.57,0,0,1-.44.52c-1.46,1.14-3.23-.06-3.76-1.29a1.21,1.21,0,0,0-.8-.74q-2.85-1-5.68-2c-.38-.14-.56,0-.67.33a15.8,15.8,0,0,1-2.86,5.09c-.25.29-.22.49,0,.76q1.83,1.84,3.63,3.71a1.18,1.18,0,0,0,.85.34,2.44,2.44,0,0,1,2.39,1.7,1.81,1.81,0,0,1-.92,1.95,1.79,1.79,0,0,1-2.17-.44,2.41,2.41,0,0,1-.61-1.7,1.41,1.41,0,0,0-.4-1.05q-1.68-1.89-3.33-3.8c-.25-.3-.42-.4-.75-.08a15.42,15.42,0,0,1-3,2.3c-.32.19-.32.37-.14.66a11.35,11.35,0,0,1,.64,1.13,1.23,1.23,0,0,0,.86.69,3,3,0,0,1,1.64,1.17,2,2,0,0,1-2,3.19,2,2,0,0,1-1.58-1.69,3.21,3.21,0,0,1,.17-2.07c.21-.4-.07-.71-.21-1-.59-1.33-.59-1.32-1.91-.8a12.26,12.26,0,0,1-1.67.59c-.45.11-.53.29-.42.72q1,3.93,2,7.88a2.2,2.2,0,0,0,1,1.59,2.18,2.18,0,0,1,1,1.57,1.76,1.76,0,0,1-1.56,2.1,1.83,1.83,0,0,1-2-1.74,1.85,1.85,0,0,1,.21-1.2c.62-.88.28-1.75.11-2.62-.46-2.42-1-4.82-1.45-7.24-.1-.53-.3-.75-.86-.62a10.08,10.08,0,0,1-2.51.23c-.4,0-.58.12-.58.55,0,3,0,5.93-.07,8.9a.92.92,0,0,0,.33.71,2.76,2.76,0,0,1,.79,2,1.76,1.76,0,1,1-3.51-.05,2.53,2.53,0,0,1,.79-1.83,1.36,1.36,0,0,0,.41-1c.18-2.89.37-5.77.58-8.66,0-.46-.07-.67-.57-.68a8.85,8.85,0,0,1-2.23-.34c-.44-.12-.7-.06-.78.43a3.51,3.51,0,0,1-.21.72,1.71,1.71,0,0,0,.12,1.61,2.72,2.72,0,0,1,.22,1.87,1.88,1.88,0,0,1-1.47,1.63,2,2,0,0,1-2.26-1,2.13,2.13,0,0,1,0-1.92,3.25,3.25,0,0,1,1.75-1.55c.47-.17.46-.64.59-1,.4-1.16.4-1.18-.73-1.61a16,16,0,0,1-3.58-2c-.33-.25-.54-.29-.86,0-1.87,1.85-3.75,3.67-5.63,5.49a.88.88,0,0,0-.25.68,3,3,0,0,1-.7,1.88,1.79,1.79,0,0,1-2.66.14,1.76,1.76,0,0,1,.15-2.6,2.59,2.59,0,0,1,1.76-.65,1.41,1.41,0,0,0,1-.39c1.9-1.66,3.79-3.33,5.69-5,.37-.32.35-.53,0-.85a15.09,15.09,0,0,1-3-3.56c-.18-.3-.38-.38-.67-.21-.73.45-1.53.73-1.82,1.76a2.33,2.33,0,0,1-2,1.67,2,2,0,0,1-1.11-3.73,3.24,3.24,0,0,1,2.52-.11,3.45,3.45,0,0,0,2.16-.67c.16-.21,0-.35-.08-.5a13.41,13.41,0,0,1-.88-2.36c-.12-.53-.35-.73-.88-.53-.21.08-.44.11-.66.17-.93.19-1.83.46-2.75.68-1.59.41-3.17.84-4.76,1.23a1,1,0,0,0-.68.49,3,3,0,0,1-1.56,1.28,1.7,1.7,0,0,1-1.89-.4,1.65,1.65,0,0,1-.44-1.76,1.7,1.7,0,0,1,1.48-1.25,2,2,0,0,1,1.46.2,2.45,2.45,0,0,0,2.09.18c2.51-.49,5-1,7.51-1.5.52-.11.72-.26.59-.91a15.36,15.36,0,0,1,.24-6.71c.11-.44,0-.6-.39-.72-1.75-.5-3.5-1-5.24-1.53a1.24,1.24,0,0,0-1,.12,3.11,3.11,0,0,1-2.46.22,1.93,1.93,0,0,1-1.15-2.67,2,2,0,0,1,2.77-.93,3.09,3.09,0,0,1,1.56,1.64.87.87,0,0,0,.62.57c1.17.38,2.32.81,3.48,1.22C363.56,195.24,363.9,195.25,364.2,195.4Z"/><path class="cls-6" d="M368.61,193.58a2.15,2.15,0,1,1,4.29,0,2.15,2.15,0,0,1-4.29,0Z"/><path class="cls-6" d="M383.41,212.76a2.14,2.14,0,1,1,4.28,0,2.14,2.14,0,0,1-4.28,0Z"/><path class="cls-6" d="M385.6,194.54a2.15,2.15,0,1,1,4.29,0,2.15,2.15,0,0,1-4.29,0Z"/><path class="cls-6" d="M371.49,207.73a6,6,0,1,1,11.93-.06,6,6,0,0,1-11.93.06Z"/><path class="cls-6" d="M386.15,206.6a3.37,3.37,0,1,1,6.73,0,3.37,3.37,0,0,1-6.73,0Z"/><path class="cls-6" d="M372.58,189.61a1,1,0,0,1,.95-1,1,1,0,0,1,.93,1,.91.91,0,0,1-.93.92A.92.92,0,0,1,372.58,189.61Z"/><path class="cls-5" d="M92.75,203.1c.78.3.78.3,1.1-.47a10.7,10.7,0,0,1,2.33-3.53c.21-.21.26-.34,0-.57-1.26-1.27-2.51-2.56-3.75-3.85a1.14,1.14,0,0,0-.85-.39,1.5,1.5,0,0,1-1.33-.83,1.16,1.16,0,0,1,2-1.16,1.91,1.91,0,0,1,.38,1.12.94.94,0,0,0,.26.64c1.21,1.37,2.43,2.75,3.63,4.13.2.23.35.26.58,0a7.47,7.47,0,0,1,.63-.48c.13-.12.32-.14.43-.28.47-.19.46-.45.2-.84a1.81,1.81,0,0,0-1-.89,1.55,1.55,0,0,1-1.11-1.28A1.25,1.25,0,0,1,97.39,193a1.31,1.31,0,0,1,1.49,1.15,2.18,2.18,0,0,1-.11,1.26,2.16,2.16,0,0,0,.48,1.35c.14.06.26,0,.38-.08a9.88,9.88,0,0,1,2.37-.74c.35-.06.36-.21.28-.48-.27-1-.53-2-.79-3.05-.2-.31-.12-.68-.26-1s-.15-.57-.21-.86a.7.7,0,0,0-.34-.47,1.59,1.59,0,0,1-.84-1.63,1.13,1.13,0,0,1,2.24.13,2.1,2.1,0,0,1-.24,1.2c-.25.47,0,.92.09,1.38s.12.85.26,1.26l.6,3.09a.29.29,0,0,0,.37.27,10.19,10.19,0,0,1,3.69.29c.24.06.34,0,.39-.24s.16-.63.25-.94a.36.36,0,0,0-.06-.33,2.28,2.28,0,0,1-.28-1.45A1.24,1.24,0,0,1,108,192a1.18,1.18,0,0,1,1.29.26,1.25,1.25,0,0,1,.36,1.37,1.88,1.88,0,0,1-1,1.13,1.05,1.05,0,0,0-.67.79,3.79,3.79,0,0,1-.22.58c-.14.21.06.24.18.29.38.18.77.34,1.16.5l.09,0c.75.33.76.34,1.2-.4.85-1.43,1.7-2.87,2.56-4.3a.91.91,0,0,0,.12-.75,1.58,1.58,0,0,1,.67-1.74,1.15,1.15,0,0,1,1.43,1.75,1.37,1.37,0,0,1-.73.56,1.62,1.62,0,0,0-1.06.86c-.14.11-.16.31-.28.43-.83,1.25-1.64,2.5-2.48,3.73-.25.36-.29.58.12.84a5.4,5.4,0,0,1,1.18,1c.17.18.3.17.48,0q2-2,4.1-4a.87.87,0,0,0,.24-.6,1.59,1.59,0,0,1,.9-1.46,1.11,1.11,0,0,1,1.45.49,1.16,1.16,0,0,1-.38,1.53,1.64,1.64,0,0,1-1,.33.89.89,0,0,0-.68.25l-4.31,3.78c-.21.18-.22.3,0,.53a5.91,5.91,0,0,1,.94,1.38c.06.11.11.23.26.1h0a1.27,1.27,0,0,0,.53-.27,2,2,0,0,0,.94-1.09,1.47,1.47,0,0,1,1.47-1,1.25,1.25,0,0,1,1.21.94,1.27,1.27,0,0,1-.62,1.44,1.72,1.72,0,0,1-1.54.15,1.1,1.1,0,0,0-1,.09c-.77.39-.77.38-.46,1.16a9.4,9.4,0,0,1,.68,2.56c0,.3.1.43.47.33,1.61-.44,3.23-.85,4.86-1.25a.71.71,0,0,0,.5-.37,1.58,1.58,0,0,1,1.72-.8,1.15,1.15,0,0,1-.16,2.23,1.54,1.54,0,0,1-1-.14,1.43,1.43,0,0,0-1.19-.12l-1.26.26c-1.16.23-2.31.51-3.48.7-.26,0-.32.16-.31.38a10.67,10.67,0,0,1-.3,3c-.07.26,0,.33.24.39l1.53.44a5,5,0,0,1,.55.16c.18.14.41.11.61.2s.57.15.85.25a1.44,1.44,0,0,0,1.13-.08,1.65,1.65,0,0,1,2.1.46,1.45,1.45,0,0,1,0,1.33h0a2.28,2.28,0,0,1-.29.34,1.65,1.65,0,0,1-2.44-.84.76.76,0,0,0-.52-.48c-1.24-.42-2.47-.85-3.69-1.28a.29.29,0,0,0-.44.21,10.31,10.31,0,0,1-1.86,3.31.3.3,0,0,0,0,.49c.79.8,1.58,1.61,2.36,2.42a.75.75,0,0,0,.55.22,1.57,1.57,0,0,1,1.55,1.1,1.14,1.14,0,0,1-2,1,1.55,1.55,0,0,1-.4-1.1,1,1,0,0,0-.26-.68c-.73-.82-1.45-1.65-2.17-2.48-.16-.19-.27-.25-.48,0a11.16,11.16,0,0,1-1.93,1.49c-.21.12-.21.24-.09.43a6.51,6.51,0,0,1,.41.73.8.8,0,0,0,.56.45,2,2,0,0,1,1.07.76,1.35,1.35,0,0,1,.07,1.51,1.3,1.3,0,0,1-2.38-.53,2.09,2.09,0,0,1,.11-1.35c.13-.26,0-.46-.14-.66-.38-.87-.38-.86-1.24-.52a8.13,8.13,0,0,1-1.08.38c-.29.07-.35.19-.28.47q.66,2.55,1.3,5.12a1.38,1.38,0,0,0,.66,1,1.43,1.43,0,0,1,.65,1,1.14,1.14,0,0,1-1,1.36,1.2,1.2,0,0,1-1.29-1.13,1.26,1.26,0,0,1,.14-.78c.4-.57.18-1.14.07-1.71-.3-1.56-.64-3.13-.94-4.7-.07-.35-.2-.48-.56-.4a6.88,6.88,0,0,1-1.63.15c-.26,0-.38.08-.38.36,0,1.92,0,3.85,0,5.78a.62.62,0,0,0,.22.46,1.83,1.83,0,0,1,.51,1.29,1.14,1.14,0,1,1-2.28,0,1.75,1.75,0,0,1,.51-1.2.81.81,0,0,0,.27-.62c.12-1.88.25-3.76.38-5.63,0-.3,0-.44-.37-.44a5.49,5.49,0,0,1-1.45-.23c-.29-.07-.45,0-.51.29a2,2,0,0,1-.14.46,1.15,1.15,0,0,0,.08,1.05,1.82,1.82,0,0,1,.15,1.22,1.22,1.22,0,0,1-1,1,1.28,1.28,0,0,1-1.47-.65,1.41,1.41,0,0,1,0-1.25,2.17,2.17,0,0,1,1.14-1c.31-.11.3-.41.38-.66.26-.75.26-.76-.47-1a9.82,9.82,0,0,1-2.33-1.29c-.21-.15-.35-.18-.56,0-1.21,1.2-2.44,2.38-3.66,3.57a.56.56,0,0,0-.16.44,1.94,1.94,0,0,1-.46,1.22,1.15,1.15,0,1,1-1.63-1.6,1.73,1.73,0,0,1,1.14-.42,1,1,0,0,0,.65-.25c1.23-1.08,2.46-2.17,3.69-3.24.25-.21.23-.34,0-.55a9.73,9.73,0,0,1-1.92-2.32c-.12-.19-.25-.24-.44-.13-.47.29-1,.47-1.18,1.14a1.52,1.52,0,0,1-1.29,1.09,1.28,1.28,0,0,1-.73-2.43,2.15,2.15,0,0,1,1.65-.07,2.2,2.2,0,0,0,1.4-.44c.1-.13,0-.22,0-.32A8.59,8.59,0,0,1,93.5,210c-.07-.35-.23-.48-.57-.35a3.39,3.39,0,0,1-.43.11c-.6.13-1.19.3-1.79.44l-3.09.81a.61.61,0,0,0-.44.32,1.91,1.91,0,0,1-1,.82,1.1,1.1,0,0,1-1.23-.25,1.15,1.15,0,0,1,.67-2,1.28,1.28,0,0,1,1,.13,1.59,1.59,0,0,0,1.36.11l4.88-1c.34-.07.47-.17.39-.59a10,10,0,0,1,.15-4.36c.07-.29,0-.4-.25-.47l-3.41-1a.86.86,0,0,0-.68.08,2,2,0,0,1-1.59.15,1.26,1.26,0,0,1-.75-1.74,1.29,1.29,0,0,1,1.8-.6,1.91,1.91,0,0,1,1,1.06.59.59,0,0,0,.41.37c.75.25,1.5.53,2.26.79A6.17,6.17,0,0,1,92.75,203.1Z"/><path class="cls-6" d="M95.62,201.91a1.4,1.4,0,1,1,2.79,0,1.4,1.4,0,0,1-2.79,0Z"/><path class="cls-6" d="M105.24,214.38a1.4,1.4,0,1,1,2.79,0,1.4,1.4,0,0,1-2.79,0Z"/><path class="cls-6" d="M106.67,202.53a1.39,1.39,0,1,1,2.78,0,1.39,1.39,0,0,1-2.78,0Z"/><path class="cls-6" d="M97.49,211.11a3.88,3.88,0,1,1,7.76,0,3.88,3.88,0,0,1-7.76,0Z"/><path class="cls-6" d="M107,210.37a2.22,2.22,0,0,1,2.22-2.21,2.2,2.2,0,0,1,2.16,2.19,2.19,2.19,0,0,1-4.38,0Z"/><path class="cls-6" d="M98.21,199.34a.61.61,0,1,1,.61.59A.6.6,0,0,1,98.21,199.34Z"/></g><g id="Camada_16" data-name="Camada 16"><path class="cls-4" d="M28.1,237.32c-.48-.38-9.44,5.11-7.52,10.67,1.86,5.4,11.78,4.56,11.9,4.1s-6.81-.86-8.26-4.82C22.65,243,28.52,237.66,28.1,237.32Z"/><path class="cls-4" d="M30.87,261.79c-.66-.35-6.33,4.94-5.74,11.37.5,5.35,5.14,9.23,5.88,8.8s-2.53-4.58-2.32-11.15C28.87,265.29,31.36,262.05,30.87,261.79Z"/></g></svg>