<svg xmlns="http://www.w3.org/2000/svg" viewBox="0 0 500 500"><defs><style>.cls-1{fill:#8fa8e2;}.cls-2{fill:#c7d6fe;}.cls-3{fill:#6088d8;}</style></defs><g id="FADIGA"><path class="cls-1" d="M404.34,330.75c-56.75,71.45-100.6,98.87-100.6,98.87,13.07-24.15,54.19-124,34.56-222.58-15.43-77.45-59.68-140.9-80-162l140.1,97.4S453.32,269.08,404.34,330.75Z"/><path class="cls-2" d="M303.74,429.62c-187.36-40.15-212.55-130-212.55-130s-24,6-41,3.9-10.12-38.57-10.12-38.57l47.38-4.51L87,242l-48.67,4.63,1.4-39.6,41.45-12.58C89.12,155.48,258.27,45,258.27,45c20.35,21.15,64.6,84.6,80,162C357.93,305.59,316.81,405.47,303.74,429.62Z"/><path class="cls-3" d="M268.91,275.08c2.64,27.74-18.8,52.46-47.86,55.22a51.73,51.73,0,0,1-5.4.25c26.29-5.1,45-28.45,42.48-54.44s-25.2-45.42-52-45.48c1.75-.34,3.54-.6,5.35-.77C240.56,227.09,266.27,247.34,268.91,275.08Z"/><path class="cls-1" d="M261.6,275.78c2.47,26-16.18,49.34-42.48,54.44h0c-1.75.34-3.54.61-5.36.78-29.07,2.76-54.77-17.48-57.4-45.21s18.78-52.47,47.85-55.24c1.82-.17,3.63-.25,5.41-.25h0C236.41,230.36,259.13,249.77,261.6,275.78Z"/><path class="cls-3" d="M248.74,275.91c1.87,19.69-12.26,37.38-32.18,41.25h0c-1.33.26-2.68.46-4.06.59-22,2.09-41.49-13.25-43.49-34.26s14.23-39.74,36.26-41.84c1.37-.13,2.74-.19,4.09-.19h0C229.65,241.5,246.86,256.21,248.74,275.91Z"/></g></svg>