<svg xmlns="http://www.w3.org/2000/svg" xmlns:xlink="http://www.w3.org/1999/xlink" viewBox="0 0 500 500"><defs><style>.cls-1{fill:none;}.cls-2{fill:#fff;}.cls-3{fill:#8fa8e2;}.cls-4{stroke:#8fa8e2;stroke-miterlimit:10;stroke-width:7px;fill:url(#Novo_padrão_3);}</style><pattern id="Novo_padrão_3" data-name="Novo padrão 3" width="117.06" height="162.55" patternUnits="userSpaceOnUse" viewBox="0 0 117.06 162.55"><rect class="cls-1" width="117.06" height="162.55"/><path class="cls-2" d="M71.07,153.91c-3.22.07-4.4,2.37-5.09,5.07-3.34-.85-5.63-.35-6.75,1.63a5,5,0,0,0-.61,2.44,6,6,0,0,0,2.47,4.45c-2.42,2.47-3.18,4.66-2,6.63,1.64,2.83,4.24,2.69,6.94,1.93.63,2.58,1.73,4.87,4.67,5,3.29.16,4.48-2.3,5.2-5,3.23.9,5.57.34,6.78-1.62s.67-4.06-1.86-6.91c2.55-2.85,3.1-5,1.83-7S79,158.07,75.84,159C74.88,155.64,73.33,153.87,71.07,153.91ZM71,166.27c1,0,.87.88,1.4,1.17-.27.46-.41,1-.76,1.23s-.86,0-1.37,0l-.72-1.22C70,167.08,69.91,166.26,71,166.27Z"/><path class="cls-2" d="M90.43,121.91C87.62,122,86.6,124,86,126.33c-2.91-.75-4.9-.31-5.88,1.41a4.29,4.29,0,0,0-.53,2.13,5.22,5.22,0,0,0,2.15,3.88c-2.11,2.15-2.77,4.06-1.78,5.78,1.43,2.46,3.69,2.34,6.05,1.68.55,2.24,1.5,4.25,4.06,4.37,2.88.14,3.91-2,4.53-4.38,2.82.79,4.86.3,5.92-1.41s.58-3.54-1.62-6c2.21-2.49,2.7-4.33,1.59-6.07s-3.15-2.16-5.9-1.36C93.76,123.42,92.4,121.87,90.43,121.91Zm-.1,10.77c.89,0,.75.77,1.22,1-.23.4-.36.88-.66,1.07s-.75,0-1.2,0l-.63-1.07C89.48,133.38,89.42,132.67,90.33,132.68Z"/><path class="cls-2" d="M106.43,149.29c-2.81.06-3.83,2.07-4.43,4.42-2.91-.75-4.9-.31-5.88,1.41a4.29,4.29,0,0,0-.53,2.13,5.22,5.22,0,0,0,2.15,3.88c-2.11,2.15-2.77,4.06-1.78,5.77,1.43,2.47,3.69,2.35,6.05,1.69.55,2.24,1.5,4.24,4.06,4.37,2.88.14,3.91-2,4.53-4.38,2.82.79,4.86.29,5.92-1.41s.58-3.54-1.62-6c2.21-2.49,2.7-4.34,1.59-6.07s-3.15-2.16-5.9-1.36C109.76,150.8,108.4,149.25,106.43,149.29Zm-.1,10.77c.89,0,.75.76,1.22,1-.23.4-.36.88-.66,1.07s-.75,0-1.2,0l-.63-1.06C105.48,160.76,105.42,160.05,106.33,160.06Z"/><path class="cls-2" d="M12.54,153.91c-3.23.07-4.4,2.37-5.09,5.07-3.34-.85-5.63-.35-6.75,1.63a5,5,0,0,0-.61,2.44,6,6,0,0,0,2.47,4.45c-2.42,2.47-3.18,4.66-2,6.63,1.64,2.83,4.24,2.69,6.94,1.93.63,2.58,1.72,4.87,4.66,5,3.3.16,4.49-2.3,5.21-5,3.23.9,5.57.34,6.78-1.62s.67-4.06-1.86-6.91c2.54-2.85,3.1-5,1.83-7s-3.62-2.48-6.77-1.55C16.35,155.64,14.79,153.87,12.54,153.91Zm-.13,12.36c1,0,.87.88,1.41,1.17-.27.46-.41,1-.76,1.23s-.86,0-1.37,0L11,167.49C11.44,167.08,11.38,166.26,12.41,166.27Z"/><path class="cls-2" d="M31.9,121.91c-2.81.06-3.83,2.07-4.43,4.42-2.91-.75-4.91-.31-5.88,1.41a4.29,4.29,0,0,0-.53,2.13,5.22,5.22,0,0,0,2.15,3.88c-2.11,2.15-2.77,4.06-1.78,5.78,1.43,2.46,3.69,2.34,6.05,1.68.55,2.24,1.5,4.25,4.06,4.37,2.88.14,3.91-2,4.53-4.38,2.82.79,4.86.3,5.92-1.41s.58-3.54-1.63-6c2.22-2.49,2.7-4.33,1.6-6.07s-3.16-2.16-5.9-1.36C35.22,123.42,33.87,121.87,31.9,121.91Zm-.11,10.77c.9,0,.76.77,1.23,1-.23.4-.36.88-.66,1.07s-.75,0-1.2,0l-.63-1.07C31,133.38,30.89,132.67,31.79,132.68Z"/><path class="cls-2" d="M47.9,149.29c-2.81.06-3.83,2.07-4.43,4.42-2.91-.75-4.91-.31-5.88,1.41a4.29,4.29,0,0,0-.53,2.13,5.22,5.22,0,0,0,2.15,3.88c-2.11,2.15-2.77,4.06-1.78,5.77,1.43,2.47,3.69,2.35,6,1.69.55,2.24,1.5,4.24,4.06,4.37,2.88.14,3.91-2,4.53-4.38,2.82.79,4.86.29,5.92-1.41s.58-3.54-1.63-6c2.22-2.49,2.7-4.34,1.6-6.07s-3.16-2.16-5.9-1.36C51.22,150.8,49.87,149.25,47.9,149.29Zm-.11,10.77c.9,0,.76.76,1.23,1-.23.4-.36.88-.66,1.07s-.75,0-1.2,0l-.63-1.06C47,160.76,46.89,160.05,47.79,160.06Z"/><path class="cls-2" d="M100.33,72.64c-3.22.06-4.4,2.37-5.08,5.07-3.34-.86-5.63-.36-6.75,1.62a4.86,4.86,0,0,0-.61,2.44,6,6,0,0,0,2.47,4.45c-2.43,2.47-3.18,4.67-2,6.63,1.64,2.83,4.25,2.69,7,1.94.63,2.57,1.72,4.87,4.66,5,3.3.17,4.48-2.3,5.2-5,3.23.91,5.57.34,6.79-1.62s.66-4.06-1.86-6.91c2.54-2.85,3.1-5,1.82-7s-3.61-2.48-6.76-1.56C104.15,74.37,102.59,72.59,100.33,72.64ZM100.21,85c1,0,.87.88,1.4,1.18-.26.46-.4,1-.75,1.22s-.87,0-1.38,0l-.72-1.23C99.24,85.8,99.17,85,100.21,85Z"/><path class="cls-2" d="M119.7,40.64c-2.81.06-3.84,2.06-4.43,4.41-2.91-.74-4.91-.31-5.89,1.42a4.36,4.36,0,0,0-.53,2.12A5.27,5.27,0,0,0,111,52.48c-2.12,2.15-2.77,4.06-1.78,5.77,1.42,2.47,3.69,2.34,6,1.69.54,2.24,1.5,4.24,4.06,4.37,2.87.14,3.9-2,4.53-4.39,2.82.79,4.86.3,5.91-1.41s.58-3.54-1.62-6c2.22-2.48,2.7-4.33,1.59-6.07s-3.15-2.16-5.89-1.35C123,42.14,121.66,40.6,119.7,40.64Zm-.11,10.76c.89,0,.76.77,1.22,1-.23.4-.35.87-.66,1.06s-.75,0-1.19,0l-.63-1.07C118.74,52.11,118.69,51.4,119.59,51.4Z"/><path class="cls-2" d="M124.92,98.24c-2.81.06-3.83,2.06-4.43,4.41-2.91-.74-4.91-.31-5.88,1.42a4.25,4.25,0,0,0-.53,2.12,5.26,5.26,0,0,0,2.15,3.89c-2.11,2.15-2.77,4.06-1.78,5.77,1.43,2.47,3.69,2.34,6,1.69.55,2.24,1.5,4.24,4.06,4.37,2.88.14,3.91-2,4.53-4.39,2.82.79,4.86.3,5.92-1.41s.58-3.54-1.63-6c2.22-2.48,2.7-4.33,1.6-6.07s-3.16-2.16-5.9-1.35C128.24,99.74,126.89,98.2,124.92,98.24ZM124.81,109c.9,0,.76.77,1.23,1-.23.4-.36.87-.66,1.06s-.76,0-1.2,0l-.63-1.07C124,109.71,123.91,109,124.81,109Z"/><path class="cls-2" d="M41.8,72.64c-3.22.06-4.4,2.37-5.08,5.07-3.34-.86-5.63-.36-6.76,1.62a5,5,0,0,0-.6,2.44,6,6,0,0,0,2.47,4.45c-2.43,2.47-3.18,4.67-2,6.63,1.64,2.83,4.24,2.69,6.95,1.94.63,2.57,1.72,4.87,4.66,5,3.3.17,4.48-2.3,5.2-5,3.23.91,5.57.34,6.79-1.62s.66-4.06-1.86-6.91c2.54-2.85,3.1-5,1.82-7s-3.61-2.48-6.76-1.56C45.62,74.37,44.06,72.59,41.8,72.64ZM41.68,85c1,0,.87.88,1.4,1.18-.26.46-.4,1-.75,1.22s-.87,0-1.38,0l-.72-1.23C40.71,85.8,40.64,85,41.68,85Z"/><path class="cls-2" d="M61.17,40.64c-2.81.06-3.84,2.06-4.43,4.41-2.91-.74-4.91-.31-5.89,1.42a4.36,4.36,0,0,0-.53,2.12,5.27,5.27,0,0,0,2.16,3.89c-2.12,2.15-2.78,4.06-1.79,5.77,1.43,2.47,3.7,2.34,6.06,1.69.54,2.24,1.5,4.24,4.06,4.37,2.87.14,3.9-2,4.53-4.39,2.81.79,4.85.3,5.91-1.41s.58-3.54-1.62-6c2.22-2.48,2.7-4.33,1.59-6.07s-3.15-2.16-5.89-1.35C64.49,42.14,63.13,40.6,61.17,40.64ZM61.06,51.4c.89,0,.76.77,1.22,1-.23.4-.35.87-.66,1.06s-.75,0-1.19,0l-.63-1.07C60.21,52.11,60.16,51.4,61.06,51.4Z"/><path class="cls-2" d="M77.17,68c-2.81,0-3.84,2.06-4.43,4.41-2.91-.74-4.91-.31-5.89,1.42A4.33,4.33,0,0,0,66.32,76a5.23,5.23,0,0,0,2.16,3.88c-2.12,2.15-2.78,4.07-1.79,5.78,1.43,2.46,3.7,2.34,6.06,1.69.54,2.24,1.5,4.24,4.06,4.36,2.87.15,3.9-2,4.53-4.38,2.81.79,4.85.3,5.91-1.41s.58-3.54-1.62-6c2.22-2.48,2.7-4.33,1.59-6.07s-3.15-2.16-5.89-1.35C80.49,69.52,79.13,68,77.17,68Zm-.11,10.76c.89,0,.76.77,1.22,1-.23.4-.35.88-.66,1.07s-.75,0-1.19,0l-.63-1.07C76.21,79.48,76.16,78.78,77.06,78.78Z"/><path class="cls-2" d="M66.39,98.24c-2.81.06-3.83,2.06-4.43,4.41-2.91-.74-4.91-.31-5.88,1.42a4.25,4.25,0,0,0-.53,2.12,5.26,5.26,0,0,0,2.15,3.89c-2.12,2.15-2.77,4.06-1.78,5.77,1.42,2.47,3.69,2.34,6,1.69.55,2.24,1.5,4.24,4.06,4.37,2.88.14,3.91-2,4.53-4.39,2.82.79,4.86.3,5.92-1.41s.57-3.54-1.63-6c2.22-2.48,2.7-4.33,1.59-6.07s-3.15-2.16-5.89-1.35C69.71,99.74,68.36,98.2,66.39,98.24ZM66.28,109c.9,0,.76.77,1.22,1-.22.4-.35.87-.65,1.06s-.76,0-1.2,0L65,110.06C65.43,109.71,65.38,109,66.28,109Z"/><path class="cls-2" d="M2.63,40.64c-2.8.06-3.83,2.06-4.43,4.41-2.9-.74-4.9-.31-5.88,1.42a4.36,4.36,0,0,0-.53,2.12A5.27,5.27,0,0,0-6,52.48c-2.12,2.15-2.78,4.06-1.79,5.77,1.43,2.47,3.7,2.34,6.05,1.69.55,2.24,1.5,4.24,4.07,4.37,2.87.14,3.9-2,4.53-4.39,2.81.79,4.85.3,5.91-1.41s.58-3.54-1.62-6c2.22-2.48,2.7-4.33,1.59-6.07S9.54,44.26,6.8,45.07C6,42.14,4.6,40.6,2.63,40.64ZM2.53,51.4c.89,0,.76.77,1.22,1-.23.4-.35.87-.66,1.06s-.75,0-1.19,0l-.63-1.07C1.68,52.11,1.62,51.4,2.53,51.4Z"/><path class="cls-2" d="M18.63,68c-2.8,0-3.83,2.06-4.43,4.41-2.9-.74-4.9-.31-5.88,1.42A4.33,4.33,0,0,0,7.79,76,5.23,5.23,0,0,0,10,79.85C7.83,82,7.17,83.92,8.16,85.63c1.43,2.46,3.7,2.34,6.05,1.69.55,2.24,1.5,4.24,4.07,4.36,2.87.15,3.9-2,4.53-4.38,2.81.79,4.85.3,5.91-1.41s.58-3.54-1.62-6c2.22-2.48,2.7-4.33,1.59-6.07s-3.15-2.16-5.89-1.35C22,69.52,20.6,68,18.63,68Zm-.1,10.76c.89,0,.76.77,1.22,1-.23.4-.35.88-.66,1.07s-.75,0-1.19,0l-.63-1.07C17.68,79.48,17.62,78.78,18.53,78.78Z"/><path class="cls-2" d="M7.86,98.24c-2.81.06-3.84,2.06-4.43,4.41-2.91-.74-4.91-.31-5.89,1.42A4.35,4.35,0,0,0-3,106.19a5.26,5.26,0,0,0,2.15,3.89c-2.12,2.15-2.77,4.06-1.78,5.77,1.42,2.47,3.69,2.34,6.05,1.69.54,2.24,1.5,4.24,4.06,4.37,2.87.14,3.91-2,4.53-4.39,2.82.79,4.86.3,5.92-1.41s.57-3.54-1.63-6c2.22-2.48,2.7-4.33,1.59-6.07s-3.15-2.16-5.89-1.35C11.18,99.74,9.83,98.2,7.86,98.24ZM7.75,109c.9,0,.76.77,1.22,1-.23.4-.35.87-.66,1.06s-.75,0-1.19,0l-.63-1.07C6.9,109.71,6.85,109,7.75,109Z"/><path class="cls-2" d="M71.07-8.64c-3.22.07-4.4,2.37-5.09,5.07-3.34-.85-5.63-.36-6.75,1.62A5.08,5.08,0,0,0,58.62.49,6,6,0,0,0,61.09,5c-2.42,2.47-3.18,4.66-2,6.63,1.64,2.83,4.24,2.68,6.94,1.93.63,2.57,1.73,4.87,4.67,5,3.29.16,4.48-2.31,5.2-5,3.23.9,5.57.34,6.78-1.62S83.31,7.81,80.78,5c2.55-2.85,3.1-5,1.83-7S79-4.48,75.84-3.55C74.88-6.91,73.33-8.68,71.07-8.64ZM71,3.72c1,0,.87.88,1.4,1.17-.27.46-.41,1-.76,1.23s-.86,0-1.37,0L69.5,4.93C70,4.52,69.91,3.71,71,3.72Z"/><path class="cls-2" d="M106.43-13.26c-2.81.06-3.83,2.06-4.43,4.42-2.91-.75-4.9-.31-5.88,1.41a4.29,4.29,0,0,0-.53,2.13,5.24,5.24,0,0,0,2.15,3.88C95.63.73,95,2.64,96,4.35,97.39,6.82,99.65,6.69,102,6c.55,2.24,1.5,4.24,4.06,4.37,2.88.14,3.91-2,4.53-4.38,2.82.78,4.86.29,5.92-1.42s.58-3.54-1.62-6c2.21-2.48,2.7-4.33,1.59-6.06s-3.15-2.16-5.9-1.36C109.76-11.76,108.4-13.3,106.43-13.26Zm-.1,10.76c.89,0,.75.77,1.22,1-.23.4-.36.88-.66,1.07s-.75,0-1.2,0l-.63-1.07C105.48-1.79,105.42-2.5,106.33-2.5Z"/><path class="cls-2" d="M95.65,17c-2.8.06-3.83,2.07-4.43,4.42-2.9-.75-4.9-.31-5.88,1.41a4.4,4.4,0,0,0-.53,2.13A5.2,5.2,0,0,0,87,28.8c-2.12,2.15-2.78,4.06-1.79,5.77,1.43,2.47,3.7,2.35,6,1.69.55,2.24,1.5,4.24,4.07,4.37,2.87.14,3.9-2,4.53-4.38,2.81.79,4.85.3,5.91-1.41s.58-3.54-1.62-6c2.22-2.49,2.7-4.33,1.59-6.07s-3.15-2.16-5.89-1.36C99,18.47,97.62,16.92,95.65,17Zm-.1,10.77c.89,0,.76.76,1.22,1-.23.4-.35.88-.66,1.07s-.75,0-1.19,0l-.64-1.07C94.7,28.43,94.64,27.72,95.55,27.73Z"/><path class="cls-2" d="M12.54-8.64c-3.23.07-4.4,2.37-5.09,5.07C4.11-4.42,1.82-3.93.7-1.95A5.08,5.08,0,0,0,.09.49,6,6,0,0,0,2.56,5C.14,7.42-.62,9.61.52,11.58c1.64,2.83,4.24,2.68,6.94,1.93.63,2.57,1.72,4.87,4.66,5,3.3.16,4.49-2.31,5.21-5,3.23.9,5.57.34,6.78-1.62S24.78,7.81,22.25,5c2.54-2.85,3.1-5,1.83-7s-3.62-2.48-6.77-1.55C16.35-6.91,14.79-8.68,12.54-8.64ZM12.41,3.72c1,0,.87.88,1.41,1.17-.27.46-.41,1-.76,1.23s-.86,0-1.37,0L11,4.93C11.44,4.52,11.38,3.71,12.41,3.72Z"/><path class="cls-2" d="M47.9-13.26c-2.81.06-3.83,2.06-4.43,4.42-2.91-.75-4.91-.31-5.88,1.41a4.29,4.29,0,0,0-.53,2.13,5.24,5.24,0,0,0,2.15,3.88C37.1.73,36.44,2.64,37.43,4.35c1.43,2.47,3.69,2.34,6,1.69.55,2.24,1.5,4.24,4.06,4.37,2.88.14,3.91-2,4.53-4.38,2.82.78,4.86.29,5.92-1.42s.58-3.54-1.63-6c2.22-2.48,2.7-4.33,1.6-6.06s-3.16-2.16-5.9-1.36C51.22-11.76,49.87-13.3,47.9-13.26ZM47.79-2.5c.9,0,.76.77,1.23,1-.23.4-.36.88-.66,1.07s-.75,0-1.2,0l-.63-1.07C47-1.79,46.89-2.5,47.79-2.5Z"/><path class="cls-2" d="M37.12,17c-2.8.06-3.83,2.07-4.43,4.42-2.91-.75-4.9-.31-5.88,1.41a4.4,4.4,0,0,0-.53,2.13,5.22,5.22,0,0,0,2.15,3.88c-2.11,2.15-2.77,4.06-1.78,5.77,1.43,2.47,3.7,2.35,6.05,1.69.55,2.24,1.5,4.24,4.06,4.37,2.88.14,3.91-2,4.54-4.38,2.81.79,4.85.3,5.91-1.41s.58-3.54-1.62-6c2.21-2.49,2.7-4.33,1.59-6.07S44,20.59,41.29,21.39C40.45,18.47,39.09,16.92,37.12,17ZM37,27.73c.89,0,.76.76,1.22,1-.23.4-.36.88-.66,1.07s-.75,0-1.2,0l-.63-1.07C36.17,28.43,36.11,27.72,37,27.73Z"/></pattern></defs><g id="Camada_16" data-name="Camada 16"><path class="cls-3" d="M471.07,235.94c-5.8,1.92-10.23,3.73-11.88,11.49-15.1,71.32-58.13,119.77-124,149.08-35,18.59-73,20.57-111,17.64a199.16,199.16,0,0,1-67-16.82c-5.75-2.61-11-5.22-14.92-10.16C83.44,358.86,49,311.55,33.78,248.86c-2.09-8.63.58-19.89-10.81-24.64-4.08-17.68-1.6-35.51-.64-53.2,1-19.08,4.62-21.16,24.73-18.35,49.16,11.33,98.18,19.39,145.59-6.88a227,227,0,0,1,46.12-9,129.41,129.41,0,0,1,17,.41c9.35.72,18.12,3.7,26.86,6.84,34.13,17.88,68.63,33.56,108.94,29.75q21.45-2,42.69-5.1c30.92-4.44,36.45.12,35.91,31.57-.05,3.42-.13,6.85-.23,10.25A186.2,186.2,0,0,0,471.07,235.94Z"/><path class="cls-4" d="M471.07,235.94c-5.8,1.92-10.23,3.73-11.88,11.49-15.1,71.32-58.13,119.77-124,149.08-35,18.59-73,20.57-111,17.64a199.16,199.16,0,0,1-67-16.82c-5.75-2.61-11-5.22-14.92-10.16C83.44,358.86,49,311.55,33.78,248.86c-2.09-8.63.58-19.89-10.81-24.64-4.08-17.68-1.6-35.51-.64-53.2,1-19.08,4.62-21.16,24.73-18.35,49.16,11.33,98.18,19.39,145.59-6.88a227,227,0,0,1,46.12-9,129.41,129.41,0,0,1,17,.41c9.35.72,18.12,3.7,26.86,6.84,34.13,17.88,68.63,33.56,108.94,29.75q21.45-2,42.69-5.1c30.92-4.44,36.45.12,35.91,31.57-.05,3.42-.13,6.85-.23,10.25A186.2,186.2,0,0,0,471.07,235.94Z"/></g></svg>