<svg xmlns="http://www.w3.org/2000/svg" viewBox="0 0 500 500"><defs><style>.cls-1{fill:#8fa8e2;}.cls-2{fill:#c7d6fe;}</style></defs><g id="FADIGA"><path class="cls-1" d="M26.2,271.93c.63-8.92,4-45.26,25.54-60.87,3.08-2.22,27.35-16.64,38.39-19.08,7.69-1.69,7.72-1.58,7.83-9.89.08-5.46,2.83-8.84,8.08-9.57,8.24-1.15,16.48-2.29,24.74-3.19,27.94-3,55.85-6.39,83.91-8.21,1.09-.07,81.5,0,83.23.11,33.85,2.5,67.56,6.25,101.2,10.65,13.07,1.7,13.09,2,13.5,15.21.07,2.53.56,3.78,3.44,4.25,4.32.71,30.19,10.74,41.15,18.19,11.43,7.76,16.29,19,20.41,28.53a84.72,84.72,0,0,1,6.66,39.51c-2.33,12.89-8.48,34.5-25.56,47.53-6.56,5-28.48,16.83-38.56,19-7.42,1.61-7.49,1.32-7.5,8.64,0,.67,0,1.34,0,2,.32,4.45-1.78,7.06-5.88,8.71-40.51,16.32-81.69,30.3-125.09,36.81-1,.15-52,.11-53.26-.09-43.4-6.7-84.74-20.38-125.21-37-3.71-1.52-5.46-4.11-5.28-8.1.08-1.82-.19-3.68,0-5.48a26.24,26.24,0,0,0-.49-3.3c-1.05-4.72-20.17-8.66-28.11-11.2C49.85,328.9,39,312.37,36.6,308.73,28,295.59,26.19,281.61,26.2,271.93Zm373.43-3.14v-74.9c0-8.71-.06-8.38-8.35-10-4.78-.91-5.52.58-5.51,4.92.16,35.46.09,70.91.09,106.37,0,13.32,0,26.63,0,40,0,4.7-2.41,7.25-6.37,7.27s-6.38-2.56-6.58-7.18a71.4,71.4,0,0,1,0-9.48c.37-4-.89-4.67-4.72-3.61q-31,8.55-62.66,14.64c-28,5.45-55.93,7.63-84.32,2.77-26.6-4.56-52.86-10.46-78.9-17.44-3.44-.92-4.64-.61-4.56,3.32.23,11,.21,22,0,33-.07,3.31,1.26,4.62,4.16,5.63,18.56,6.42,37.28,12.31,56.37,16.95,28.5,6.93,57.12,10.79,86.51,5.65,37.9-6.64,74.15-18.55,109.94-32.27,4-1.55,5-3.65,5-7.67C399.55,320.73,399.63,294.76,399.63,268.79Zm-144.2-51.57H365.86c1.34,0,2.67-.07,4,0,2.13.11,3-.86,3-3q-.07-14.73,0-29.47c0-2.3-.88-3.25-3.17-3.44-4.48-.36-8.94-1-13.41-1.47-31.78-3.44-63.58-7-95.58-7.38-40-.45-79.74,4.54-119.47,8.81-3,.32-3.46,1.72-3.44,4.22.08,8.66.28,17.33-.07,26-.19,4.59,1.21,5.85,5.81,5.83C180.81,217.13,218.12,217.22,255.43,217.22Zm.17,13c-37.62,0-75.25.06-112.87-.08-3.95,0-5.17,1.11-5,5,.29,7.64.22,15.31,0,23-.08,3.08.9,4.42,4,4.82,28.72,3.68,57.47,7,86.34,9.34,26.68,2.12,53.24.54,79.75-2.21,20.18-2.1,40.31-4.75,60.48-7,3.48-.39,4.76-1.7,4.61-5.35-.31-7.14-.38-14.32,0-21.46.26-4.7-1-6.18-6-6.15C329.85,230.35,292.73,230.24,255.6,230.24Zm117.23,61.6c0-4-.17-8,.05-12,.18-3.31-.8-4.23-4.25-3.79-18.81,2.39-37.65,4.55-56.48,6.72-35,4-70,4.7-105.1.86-21-2.29-42-4.57-63-7.24-6.45-.83-6.28-2.34-6.3,5.81,0,6.82.2,13.65-.08,20.46-.16,3.68,1.11,5.14,4.69,6.09,23.47,6.21,47.05,11.94,71,16.26,22.2,4,44.43,5.94,67,2.64,28.2-4.12,55.89-10.47,83.36-17.81,11.13-3,8.83-.27,9.1-12C372.87,295.83,372.83,293.83,372.83,291.84ZM98,268.18c0-19.82-.1-39.63.08-59.44,0-3.86-1-4.88-4.82-4.25-30.35,5-53.43,32.68-53.27,64,.16,31,23.45,58.25,53.67,63.07,3.85.62,4.42-.47,4.4-3.9C97.89,307.81,98,288,98,268.18Zm314.7-.44c0,20,.08,40-.06,59.94,0,3.56.75,4.42,4.47,3.82,30.23-4.85,53.46-32.07,53.6-63.11.14-31.27-23.05-59-53.33-63.92-4-.64-4.78.61-4.75,4.33C412.75,228.45,412.66,248.1,412.66,267.74Zm-287.9,2.91q0-41.22,0-82.42c0-1.53.79-4.26-1-4.34a32.5,32.5,0,0,0-11.28,1.37c-2.73.88-1.34,4.12-1.35,6.26q-.1,75.67-.06,151.34c0,9.62.1,9.39,8.79,13,4.68,2,5.07.27,5-3.84C124.7,324.92,124.76,297.78,124.76,270.65Z"/><path class="cls-2" d="M399.63,268.79c0,26-.08,51.94.08,77.91,0,4-1,6.12-5,7.67-35.79,13.72-72,25.63-109.94,32.27-29.39,5.14-58,1.28-86.51-5.65-19.09-4.64-37.81-10.53-56.37-16.95-2.9-1-4.23-2.32-4.16-5.63.21-11,.23-22,0-33-.08-3.93,1.12-4.24,4.56-3.32,26,7,52.3,12.88,78.9,17.44,28.39,4.86,56.35,2.68,84.32-2.77q31.61-6.15,62.66-14.64c3.83-1.06,5.09-.41,4.72,3.61a71.4,71.4,0,0,0,0,9.48c.2,4.62,2.65,7.2,6.58,7.18s6.34-2.57,6.37-7.27c.08-13.32,0-26.63,0-40,0-35.46.07-70.91-.09-106.37,0-4.34.73-5.83,5.51-4.92,8.29,1.59,8.35,1.26,8.35,10Z"/><path class="cls-2" d="M255.43,217.22c-37.31,0-74.62-.09-111.92.1-4.6,0-6-1.24-5.81-5.83.35-8.64.15-17.31.07-26,0-2.5.46-3.9,3.44-4.22,39.73-4.27,79.43-9.26,119.47-8.81,32,.36,63.8,3.94,95.58,7.38,4.47.48,8.93,1.11,13.41,1.47,2.29.19,3.19,1.14,3.17,3.44q-.1,14.73,0,29.47c0,2.1-.84,3.07-3,3-1.33-.07-2.66,0-4,0Z"/><path class="cls-2" d="M255.6,230.24c37.13,0,74.25.11,111.37-.12,5,0,6.22,1.45,6,6.15-.39,7.14-.32,14.32,0,21.46.15,3.65-1.13,5-4.61,5.35-20.17,2.28-40.3,4.93-60.48,7-26.51,2.75-53.07,4.33-79.75,2.21-28.87-2.3-57.62-5.66-86.34-9.34-3.11-.4-4.09-1.74-4-4.82.2-7.65.27-15.32,0-23-.15-3.93,1.07-5.06,5-5C180.35,230.3,218,230.24,255.6,230.24Z"/><path class="cls-2" d="M372.83,291.84c0,2,0,4,0,6-.27,11.76,2,9.06-9.1,12-27.47,7.34-55.16,13.69-83.36,17.81-22.56,3.3-44.79,1.38-67-2.64-23.91-4.32-47.49-10-71-16.26-3.58-.95-4.85-2.41-4.69-6.09.28-6.81.06-13.64.08-20.46,0-8.15-.15-6.64,6.3-5.81,21,2.67,42,4.95,63,7.24,35.09,3.84,70.1,3.15,105.1-.86,18.83-2.17,37.67-4.33,56.48-6.72,3.45-.44,4.43.48,4.25,3.79C372.66,283.84,372.83,287.84,372.83,291.84Z"/><path class="cls-2" d="M124.76,270.65c0,27.13-.06,54.27.07,81.41,0,4.11-.37,5.8-5,3.84-8.69-3.65-8.79-3.42-8.79-13q0-75.67.06-151.34c0-2.14-1.38-5.38,1.35-6.26a32.5,32.5,0,0,1,11.28-1.37c1.84.08,1,2.81,1,4.34Q124.81,229.44,124.76,270.65Z"/></g></svg>