<?xml version="1.0" encoding="utf-8"?>
<!-- Generator: Adobe Illustrator 24.0.0, SVG Export Plug-In . SVG Version: 6.00 Build 0)  -->
<svg version="1.1" xmlns="http://www.w3.org/2000/svg" xmlns:xlink="http://www.w3.org/1999/xlink" x="0px" y="0px"
	 viewBox="0 0 500 500" style="enable-background:new 0 0 500 500;" xml:space="preserve">
<style type="text/css">
	.st0{display:none;}
	.st1{fill:#1C3047;}
	.st2{fill:#FCD6D9;}
	.st3{fill:#DD6876;}
	.st4{fill:#1C3047;stroke:#B4CCE4;stroke-width:1.143;stroke-miterlimit:10;}
	.st5{opacity:0.2;fill:#FFFFFF;}
	.st6{fill:#FFFFFF;}
	.st7{fill:#FFC759;}
	.st8{fill:#C7D6FE;}
	.st9{fill:#FED5D9;}
	.st10{fill:#FDD5D9;}
	.st11{opacity:0.5;fill:#DD6876;}
	.st12{fill:#1C1B20;}
	.st13{fill:#3D5174;stroke:#C7D6FE;stroke-miterlimit:10;}
	.st14{fill:#C6D6FD;}
	.st15{fill:#C3D5FE;}
	.st16{fill:#8FA8E2;}
	.st17{fill:none;}
	.st18{fill:#FFC759;stroke:#C7D6FE;stroke-width:0.9099;stroke-miterlimit:10;}
	.st19{fill:url(#);}
	.st20{fill:none;stroke:#FCD6D9;stroke-width:0.9099;stroke-miterlimit:10;}
	.st21{fill:none;stroke:#DD6876;stroke-width:1.6561;stroke-linecap:round;stroke-miterlimit:10;}
	.st22{fill:url(#);stroke:#FFFFFF;stroke-width:0.5389;stroke-miterlimit:10;}
	.st23{fill:#1F3142;}
	.st24{fill:none;stroke:#283D4F;stroke-width:0.9099;stroke-miterlimit:10;}
	.st25{fill:url(#);stroke:url(#);stroke-width:0.8933;stroke-miterlimit:10;}
	.st26{opacity:0.3;fill:#97F8FF;}
	.st27{opacity:0.3;fill:#FFFFFF;}
	.st28{fill:#80C6FF;}
	.st29{fill:#5A96BF;}
	.st30{fill:#B4CCE4;}
	.st31{fill:none;stroke:#FFFFFF;stroke-width:0.9099;stroke-miterlimit:10;}
	.st32{fill:url(#);stroke:#FFFFFF;stroke-width:0.5658;stroke-miterlimit:10;}
	.st33{fill:url(#);stroke:#8FA8E2;stroke-width:7;stroke-miterlimit:10;}
	.st34{fill:#1C3047;stroke:#B4CCE4;stroke-width:0.762;stroke-miterlimit:10;}
	.st35{fill:none;stroke:#FFFFFF;stroke-width:0.762;stroke-miterlimit:10;}
	.st36{opacity:0.5;fill:none;stroke:#1C1B20;stroke-width:0.762;stroke-linecap:round;stroke-miterlimit:10;}
	.st37{opacity:0.5;fill:#B4CCE4;}
	.st38{fill:#DD6876;stroke:#DD6876;stroke-width:1.4539;stroke-linecap:round;stroke-miterlimit:10;}
	.st39{fill:#FFCBA6;}
	.st40{fill:none;stroke:#DD6876;stroke-width:1.4539;stroke-linecap:round;stroke-miterlimit:10;}
	.st41{fill:#FFCBA6;stroke:#DD6876;stroke-width:0.7269;stroke-miterlimit:10;}
	.st42{opacity:0.6;fill:url(#);stroke:#DD6876;stroke-width:1.4539;stroke-linecap:round;stroke-miterlimit:10;}
	.st43{fill:#FCD6D9;stroke:#DD6876;stroke-width:0.7269;stroke-miterlimit:10;}
	.st44{fill:none;stroke:#DD6876;stroke-width:1.5876;stroke-linecap:round;stroke-miterlimit:10;}
	.st45{fill:none;stroke:#1C3047;stroke-width:2.1808;stroke-linecap:round;stroke-miterlimit:10;}
	.st46{fill:none;stroke:#1C3047;stroke-width:2.097;stroke-linecap:round;stroke-miterlimit:10;}
	.st47{fill:#FFCCE4;}
	.st48{fill:#EAD0CE;}
	.st49{fill:none;stroke:#DD6876;stroke-width:1.8201;stroke-linecap:round;stroke-miterlimit:10;}
	.st50{fill:#57738D;}
	.st51{fill:#3D5174;}
	.st52{fill:#D10D41;}
	.st53{opacity:0.3;fill:#9CCBE5;}
	.st54{opacity:0.5;fill:#F5F5F5;}
	.st55{fill:none;stroke:#DD6876;stroke-width:3.3569;stroke-linecap:round;stroke-miterlimit:10;}
	.st56{opacity:0.5;fill:#628C58;}
	.st57{fill:none;stroke:#DD6876;stroke-width:2.6472;stroke-linecap:round;stroke-miterlimit:10;}
	.st58{fill:#EAD0CE;stroke:#D3A1A9;stroke-width:2.6472;stroke-linecap:round;stroke-miterlimit:10;}
	.st59{fill:#DDAA50;}
	.st60{fill:#DDB3B1;stroke:#D3A1A9;stroke-width:2.6472;stroke-linecap:round;stroke-miterlimit:10;}
	.st61{opacity:0.5;}
	.st62{fill:#F5F5F5;}
	.st63{fill:none;stroke:#DD6876;stroke-width:2.7665;stroke-linecap:round;stroke-miterlimit:10;}
	.st64{fill:#8BA5C2;}
	.st65{fill:#3D5174;stroke:#3D5174;stroke-width:15.4375;stroke-miterlimit:10;}
	.st66{fill:none;stroke:#1C3047;stroke-width:0.8707;stroke-linecap:round;stroke-linejoin:bevel;stroke-miterlimit:10;}
	.st67{opacity:0.6;}
	.st68{fill:#A0BAD4;}
	.st69{fill:none;stroke:#DD6876;stroke-width:3.2072;stroke-linecap:round;stroke-miterlimit:10;}
	.st70{fill:#2D2D2D;}
	.st71{opacity:0.65;fill:#A0BAD4;}
	.st72{fill:none;stroke:#DD6876;stroke-width:3.0588;stroke-linecap:round;stroke-miterlimit:10;}
	.st73{fill:#6088D8;}
</style>
<g id="Camada_11" class="st0">
</g>
<g id="Camada_14">
	<path class="st1" d="M417.13,150.2c-0.12-2.09-0.76-10.25-6.71-20.02c-8.45-13.91-40.94-48.42-76.45-78.71
		c-0.51-0.46-1.04-0.89-1.56-1.32c-13.67-11.34-31.52-18.09-47.4-18.66c-9.91-0.35-20.55,1.64-30.46,5.94
		c-2.83-2.07-6.21-3.15-9.54-0.94c-8.16,5.41-57.85,44.19-60.16,69.85v0.01c-7.08,6.3-9.66,8.26-13.99,13.82
		c-12.83,16.47-27.89,47.69-17.64,63.41c8.48,12.98,28.1,5.98,36.7,21.87c4.73,8.77,0.56,14.21,4.93,21.88
		c7.25,12.7,27.18,12.62,44.46,12.97c75.17,1.55,76.28,10.86,107.26,2.59c9.39-2.5,48.81-13.01,50.45-31.89
		c1.04-12.02-13.83-20.61-10.59-30.03c2.62-7.59,17.91-0.79,26.12-10.75C417.91,163.69,417.36,154.21,417.13,150.2z M342.11,134.76
		c-0.6,0-0.72,2.81-1.29,2.7c-3.95,24.31-19.16,43.97-39.06,51.38v36.85c-11.69,12.87-30.9,10.57-38.98,0.15
		c-0.37-0.49-0.76-0.96-1.15-1.44c-0.08-12.62-0.16-25.23-0.24-37.85c-18.01-9.05-27.91-30.57-30.85-53.93
		c-1.16,0.46-4.51-1.36-5.79-1.36c-6.69,0-13.32-2.73-13.32-11.23s5.41-15.38,12.1-15.38c1.9,0,3.69,0.56,5.29,1.55
		c6.94-28.03,29.1-48.51,55.38-48.51c26.61,0,49,21,55.64,49.57c0.87-0.27,1.79-0.41,2.73-0.41c6.68,0,12.1,6.88,12.1,15.38
		S348.79,134.76,342.11,134.76z"/>
	<path class="st2" d="M359.06,121.5c0,8.66-5.73,15.68-12.77,15.68c-0.63,0-1.24-0.05-1.84-0.17
		c-4.18,24.78-20.23,44.83-41.24,52.39v37.58c-12.34,13.13-32.63,10.78-41.16,0.16c-0.39-0.5-0.81-0.98-1.22-1.47
		c-0.08-12.87-0.17-25.72-0.25-38.59c-19.02-9.23-33.01-29.05-36.12-52.87c-1.22,0.47-2.51,0.72-3.86,0.72
		c-7.06,0-12.77-7.02-12.77-15.68s5.72-15.68,12.77-15.68c2,0,3.9,0.57,5.58,1.58c7.33-28.58,30.73-49.46,58.47-49.46
		c28.09,0,51.74,21.41,58.75,50.54c0.92-0.28,1.89-0.41,2.88-0.41C353.33,105.82,359.06,112.84,359.06,121.5z"/>
	<path class="st2" d="M176.56,141.6c-4.83,0.78-9.04,3.11-13.4,5.35c-0.2-0.68-0.42-1.13-0.45-1.58
		c-1.21-20.24-2.85-36.42-4.66-50.12c-0.53-3.98-1.41-7.81-1.41-7.81c-0.7-3-1.44-5.47-2.03-7.25c-0.24-0.88-0.68-2.22-1.53-3.69
		c-1.04-1.81-2.25-3.93-4.18-4.31c-2.08-0.41-3.99,1.42-5.32,2.69c-0.65,0.62-3.25,3.23-4.6,8.69c-0.03,0.13-0.06,0.26-0.09,0.4
		l-0.05-0.07c-0.02-0.13-0.05-0.26-0.07-0.39c-0.79-4.2-2.48-11.23-5.88-16.69c-1.03-1.65-2.27-3.23-4.18-3.6
		c-1.56-0.3-3.29,0.29-5.19,1.78c-3.34,2.61-3.66,6.5-4.57,10.16c-0.53,0.89-0.94,1.81-1.27,2.74c-0.24,0.67-0.43,1.36-0.58,2.05
		c-0.03-0.63-0.08-1.26-0.15-1.9c-0.06-0.11-0.11-0.23-0.17-0.34c-0.59-1.2-1.12-2.45-1.82-3.58c-1.64-2.6-2.84-5.29-6.97-5.27
		c-4.25,0.02-6.16,2.52-7.45,5.47c-2.18,4.99-3.69,10.26-3.48,15.84c-0.15,2.85-0.15,5.68-0.04,8.5l-1.38,1.23
		c-1.41-0.57-7.42-2.76-11.6,0.36c-0.61,0.45-3.87,2.39-3.93,9.87c-0.05,5.42,0.94,10.85,1.5,16.27c0.86,8.38,4.4,16.53,1.33,25.24
		c-4.61,13.08-3.35,26.32-0.45,39.59c1.36,6.24,4.37,11.78,6.46,17.7c1.84,2.59,4.72,6.56,8.42,11.34c1.65,2.13,3.2,4.08,3.51,4.46
		c1.79,2.15,8.72,7.5,43.38,1.34c10.1-3.31,23.73-9.99,23.1-15.85c-0.27-2.48-2.96-3.58-3.33-7.45c-0.36-3.73,1.74-6.76,3.32-8.96
		c6.05-8.44,13.29-18.1,17.9-25.26c3.19-4.96,4.31-8.26,5.22-12.34C192.53,146.86,186.04,140.08,176.56,141.6z M97.23,102.39
		c0.14,0.61,0.17,1.23,0.17,1.87C97.33,103.64,97.28,103.01,97.23,102.39z"/>
	<path class="st8" d="M434.23,465.39h-47.31c-2.77-4.23-1.95-9.11-2.52-13.67c-3.81-30.11-9.06-59.97-17.77-89.2
		c-3.46-11.6-7.47-23.15-14.83-33.3c-0.64-0.9-1.15-1.9-1.95-2.68c-1.51-1.47-2.98-4.37-5.35-2.86c-2.44,1.55-1.85,4.52-0.32,6.88
		c16.65,25.74,21.68,54.78,27.14,83.72c2.61,13.85,4.32,27.81,6.33,41.74c0.46,3.18,1.3,6.46-1.12,9.37H211.51
		c-1.43-1.53-1.04-3.32-0.99-5.13c0.49-16.55,2.02-33.04,2.95-49.56c0.81-14.17,1.7-28.36,2.96-42.52
		c0.72-8.06,0.93-15.99-3.06-23.76c-2.26-4.39-4.74-6.13-9.85-6.44c-12.44-0.77-24.87-1.72-37.04-4.64
		c-21.54-5.16-39.93-14.76-52.91-32.2c-12.46-16.73-17.72-35.36-16.03-55.63c0.32-3.92-0.45-7.91,0.8-11.77
		c-0.05-1.62-0.16-3.26,0.13-4.8c0,0-3.97-6.32,5.28-7.1c9.24-0.77,34.84,8.11,64-16.06c0,0,16.25,17.53,21.33,31.48
		c1.01,1.5,1.86,3.08,2.56,4.72c1.72,3.95,2.59,8.26,2.87,12.83c0.16,2.51-0.05,5.03,0.1,7.54c0.1,1.65,0.36,3.52,2.56,3.62
		c2.54,0.12,2.32-1.97,2.39-3.51c0.13-3.23-0.06-6.46-0.01-9.69c0.06-3.52,2.02-4.49,5.1-2.53c3.1,1.98,4.76,5.07,6.48,8.09
		c0.94,1.65,1.67,4.55,4.18,3.43c2.76-1.24,0.84-3.79,0.01-5.65c-1.89-4.26-5.32-7.38-9.02-10.29c-1.24-0.97-3.27-1.42-3-3.53
		c2.52-1.45,5.05-2.89,7.6-4.28c11.83-6.47,24.06-12.1,37.65-14.9c3.09-0.63,6.18-2.28,9.41-0.37c4.57,12.08,10.53,15.8,24.58,16.13
		c8.23,0.2,15.97-0.93,23.12-4.88c1.75-0.97,3.57-1.2,5.5-0.62c10.47,3.36,19.56,9.13,28.63,14.82
		c22.16,13.91,40.04,31.56,50.15,54.98c6.77,15.67,11.54,32.04,16.11,48.41c9.64,34.46,18.74,69.05,27.35,103.75
		C434.22,458.63,435.51,461.92,434.23,465.39z"/>
	<path class="st9" d="M97.4,104.26c-0.07-0.62-0.12-1.25-0.17-1.87C97.37,103,97.4,103.62,97.4,104.26z"/>
	<path class="st10" d="M97.4,104.26c-0.07-0.62-0.12-1.25-0.17-1.87C97.37,103,97.4,103.62,97.4,104.26z"/>
	<path class="st3" d="M97.24,85.75c0.76,8.32,1.26,14.7,1.55,18.56c0.56,7.57,2.59,14.97,4.21,22.39c0.83,3.82,2.23,5.44,6.71,4.47
		c6.69-1.45,6.74-1.01,5.38-7.41c-2.62-12.33-2.05-24.66,0.12-36.97c0.51-2.92,1.16-5.82,1.74-8.73l3.29-8.11
		c-1.1,5.1-2.31,12.15-2.86,20.65c-0.29,4.48-0.28,7.7-0.27,10.73c0.05,15.26,0.17,22.96,4.42,26.4c3.25,2.64,8.74,3.5,10.66,1.53
		c0.96-0.99,0.87-2.53,0.83-3.13c-0.63-11.33,2.87-30.66,3.75-34.93c0.6-2.92,1.76-7.41,4.18-12.79
		c-0.37,5.59-0.85,10.05-1.18,12.86c-0.29,2.47-2.5,20.73-1.9,34.23c0.07,1.57,0.17,3.02,1.19,4.26c3.29,4.01,12.82,1.9,13.63,4.15
		c0.29,0.8,0.1,1.58,0.1,1.58c-0.53,2.1-2.24,1.69-3.66,1.41c-7.31-1.42-14.57-2.95-22.1-2.92c-10.57,0.04-20.82,1.33-30.37,6.17
		c-0.46,0.23-2.07,1.2-3.07,0.58c-0.75-0.47-1.05-1.76-0.68-2.69c0.39-1,1.38-1.17,2.98-2.14c0.87-0.52,2.02-1.35,3.23-2.65
		c0,0,0.14-0.25,0.25-0.56c0.91-2.46-2.28-24.6-3.47-32.68c-0.07-1.55-0.07-3.21,0.02-4.99C96.09,91.52,96.61,88.4,97.24,85.75z"/>
	<path class="st3" d="M120.86,167.03c0.41-1.74,4.13-17.4,6.32-17.59c0.88-0.08,1.63,0.26,1.63,0.26c2,1.01,1.85,2.31,0.8,4.44
		c-6.17,12.49-6.98,24.79,2.37,36.32c0.55,0.68,0.74,1.25,0.69,1.75c-0.08,0.84-0.68,1.72-1.46,1.96c-0.56,0.17-1.44,0.09-3-1.34
		c-4.03-3.69-5.72-9.68-5.72-9.68C121.51,179.72,120.4,174.2,120.86,167.03z"/>
	<path class="st3" d="M281.53,121.17c-0.01-5.27-0.03-10.55-0.02-15.82c0-1.32-0.06-2.81,1.8-2.95c2.18-0.16,2.27,1.42,2.27,2.98
		c0.01,5.27,0.01,10.55,0.01,15.82C284.23,121.19,282.88,121.18,281.53,121.17z"/>
	<path class="st2" d="M138.98,83.57c-0.03,0.13-0.06,0.26-0.09,0.4l-0.05-0.07c-0.02-0.13-0.05-0.26-0.07-0.39L138.98,83.57z"/>
	<path class="st1" d="M215.31,261.76c-2.51,1.12-3.24-1.78-4.18-3.43c-1.72-3.02-3.38-6.11-6.48-8.09c-3.08-1.96-5.04-0.99-5.1,2.53
		c-0.05,3.23,0.14,6.46,0.01,9.69c-0.07,1.54,0.15,3.63-2.39,3.51c-2.2-0.1-2.46-1.97-2.56-3.62c-0.15-2.51,0.06-5.03-0.1-7.54
		c-0.28-4.57-1.15-8.88-2.87-12.83l19.26-3.97c-2.55,1.39-5.08,2.83-7.6,4.28c-0.27,2.11,1.76,2.56,3,3.53
		c3.7,2.91,7.13,6.03,9.02,10.29C216.15,257.97,218.07,260.52,215.31,261.76z"/>
	<path class="st1" d="M376.53,465.39c2.42-2.91,1.58-6.19,1.12-9.37c-2.01-13.93-3.72-27.89-6.33-41.74
		c-5.46-28.94-10.49-57.98-27.14-83.72c-1.53-2.36-2.12-5.33,0.32-6.88c2.37-1.51,3.84,1.39,5.35,2.86c0.8,0.78,1.31,1.78,1.95,2.68
		c7.36,10.15,11.37,21.7,14.83,33.3c8.71,29.23,13.96,59.09,17.77,89.2c0.57,4.56-0.25,9.44,2.52,13.67H376.53z"/>
	<path class="st1" d="M311.16,233.37c0,0-19.32,9.77-29.28,8.39h-0.01c-5.91,0.04-11.84-1.45-17.75-4.53
		c-4.77-2.49-6.54-6.77-6-12.05c-1.18-1.66-1.26-3.24,0.38-4.68c0.88,1.03,1.78,2.04,2.65,3.07c0.4,0.47,0.8,0.94,1.18,1.42
		c8.25,10.28,27.88,12.55,39.82-0.15c0.86-0.92,1.68-1.91,2.46-2.99c0.45,0.6,0.42,1.39,0.48,2.11c0.06,0.71,0.21,1.36,0.99,1.67
		C310.01,226.43,311.16,233.37,311.16,233.37z"/>
	<ellipse class="st11" cx="256.3" cy="128.47" rx="21.71" ry="12.11"/>
	<ellipse class="st11" cx="311.76" cy="129.54" rx="21.71" ry="12.11"/>
	<path class="st1" d="M265.09,109.43c0.35,6.58-3.01,12.1-7.53,12.35c-4.08,0.22-7.7-3.96-8.61-9.63c0,0,0-0.01,0-0.02
		c-0.11-0.42-0.2-0.85-0.27-1.29c-0.32-2.11-0.21-4.14,0.25-5.96c-4.95,0.01-8.27-5.82-9.27-7.93c1.68,2.93,14.1,1.29,14.1,1.29
		s1.12-0.27,2.49-0.34c0.96-0.05,2.03-0.01,2.9,0.28c2.49,0.84,4.89,4.17,5.63,8.12c0.16,0.85,0.24,1.68,0.27,2.49l0,0.04
		C265.07,109.02,265.08,109.23,265.09,109.43z"/>
	<path class="st12" d="M244.59,89.54c1.54-0.68,3.05-1.38,4.54-2.01c1.5-0.62,2.99-1.21,4.5-1.64c1.51-0.44,3.04-0.7,4.57-0.73
		c0.77,0.01,1.53,0.06,2.3,0.21c0.77,0.15,1.52,0.4,2.31,0.68l0.37-0.56c-0.63-0.63-1.38-1.14-2.2-1.55
		c-0.83-0.38-1.72-0.66-2.62-0.79c-1.82-0.29-3.68-0.09-5.4,0.37c-1.73,0.46-3.35,1.19-4.83,2.12c-1.48,0.93-2.84,2.01-3.97,3.38
		L244.59,89.54z"/>
	<path class="st1" d="M302.81,109.43c-0.35,6.58,3.01,12.1,7.53,12.35c4.08,0.22,7.7-3.96,8.61-9.63c0,0,0-0.01,0-0.02
		c0.11-0.42,0.2-0.85,0.27-1.29c0.32-2.11,0.21-4.14-0.25-5.96c4.95,0.01,8.27-5.82,9.27-7.93c-1.68,2.93-14.1,1.29-14.1,1.29
		s-1.12-0.27-2.49-0.34c-0.96-0.05-2.03-0.01-2.9,0.28c-2.49,0.84-4.89,4.17-5.63,8.12c-0.16,0.85-0.24,1.68-0.27,2.49l0,0.04
		C302.83,109.02,302.82,109.23,302.81,109.43z"/>
	<path class="st12" d="M323.3,89.54c-1.54-0.68-3.05-1.38-4.54-2.01c-1.5-0.62-2.99-1.21-4.5-1.64c-1.51-0.44-3.04-0.7-4.57-0.73
		c-0.77,0.01-1.53,0.06-2.3,0.21c-0.77,0.15-1.52,0.4-2.31,0.68l-0.37-0.56c0.63-0.63,1.38-1.14,2.2-1.55
		c0.83-0.38,1.72-0.66,2.62-0.79c1.82-0.29,3.68-0.09,5.4,0.37c1.73,0.46,3.35,1.19,4.83,2.12c1.48,0.93,2.84,2.01,3.97,3.38
		L323.3,89.54z"/>
	<path id="orelha_30_" class="st3" d="M218.07,121.62c0.56,3.88,2.75,6.92,5.27,7.69l0.06,0.42c-4.5,0.65-8.72-2.71-9.41-7.52
		c-0.69-4.8,2.39-9.23,6.9-9.88l0.06,0.42C218.74,114.2,217.51,117.74,218.07,121.62z"/>
	<path id="orelha_32_" class="st3" d="M348.41,122.34c-0.56,3.88-2.75,6.92-5.27,7.69l-0.06,0.42c4.5,0.65,8.72-2.71,9.41-7.52
		c0.69-4.8-2.39-9.23-6.9-9.88l-0.06,0.42C347.73,114.92,348.97,118.46,348.41,122.34z"/>
	<path class="st1" d="M333.47,80.05c-44.4,2.4-72.37-15.64-72.37-15.64s-30.64,39.52-33.47,42.56c-2.83,3.04-8.47-49.59,28.67-58.83
		s58.61-7.11,67.43,2.49S333.47,80.05,333.47,80.05z"/>
	<path class="st13" d="M343.08,145.33c-1.5,0.54-2.64,1.04-3.02,3.08c-3.45,18.71-14.34,31.65-31.32,39.75
		c-8.99,5.09-18.89,5.87-28.83,5.37c-5.98-0.3-11.96-1.54-17.61-3.93c-1.52-0.64-2.9-1.29-3.96-2.55
		c-15.55-6.98-24.87-19.09-29.26-35.34c-0.6-2.24,0.01-5.19-2.99-6.35c-1.19-4.58-0.66-9.25-0.53-13.88
		c0.14-4.99,1.06-5.55,6.33-4.96c12.91,2.62,25.75,4.38,37.94-2.8c3.9-1.31,7.89-2.18,11.97-2.67c1.48-0.09,2.97-0.12,4.45-0.01
		c2.44,0.12,4.75,0.84,7.06,1.6c9.03,4.43,18.14,8.28,28.63,7.01c3.72-0.45,7.42-1,11.1-1.62c8.04-1.37,9.51-0.22,9.59,7.99
		c0.01,0.89,0.01,1.79,0.01,2.68C342.58,140.93,342.82,143.13,343.08,145.33z"/>
	<path class="st8" d="M288.73,150.63c-13.16-0.6-25.28-2.19-37.03-6c-1.37-0.44-3.99-0.34-3.15-2.75c0.68-1.95,2.74-1.27,4.36-0.73
		c20.33,6.79,40.98,7.06,61.83,2.98c1.39-0.27,3.22-1.4,3.82,0.61c0.69,2.31-1.39,2.44-3.06,2.84
		C306.42,149.75,297.1,149.68,288.73,150.63z"/>
	<path class="st14" d="M291.38,159.57c-8.95,0.09-17.97,0.71-26.53-2.84c-1.59-0.66-4.32-0.76-3.64-3.14
		c0.86-3.04,2.99-0.68,4.42-0.18c12.25,4.26,24.82,3.47,37.42,2.64c2.3-0.15,6-1.84,6.41,1.14c0.57,4.15-3.63,2.06-5.62,2.26
		C299.72,159.85,295.53,159.57,291.38,159.57z"/>
	<path class="st15" d="M286.58,170.76c-6.67-0.98-13.44-1.58-19.73-4.35c-1.15-0.51-2.74-1.16-2.23-2.78
		c0.45-1.44,1.74-1.85,3.24-1.07c6,3.13,12.63,3.6,19.15,4.66c1.54,0.25,4.6-0.67,4.48,1.79
		C291.33,171.93,288.29,170.02,286.58,170.76z"/>
	<g>
		<path class="st1" d="M311.69,40.78L311.69,40.78c0.09,0.01,0.21-0.04,0.28-0.1c0.32-0.17,0.08-0.84,0.11-0.65
			c-0.02-0.03-0.04-0.05-0.06-0.07l0.01,0l0.03,0.02l0.23,0.12l0.52,0.24l1.07,0.48l2.17,0.94c1.45,0.62,2.89,1.27,4.34,1.91
			c2.89,1.29,5.76,2.61,8.63,3.97c5.73,2.69,11.34,5.64,16.92,8.66c11.14,6.05,21.95,12.77,32.19,20.33
			c5.11,3.79,10.11,7.74,14.85,12.01c2.37,2.13,4.7,4.32,6.95,6.58c2.24,2.28,4.41,4.62,6.51,7.04c4.16,4.85,7.99,10.02,11.21,15.56
			c1.63,2.76,3.05,5.63,4.32,8.57c1.28,2.93,2.35,5.95,3.16,9.03l-0.95,0.31c-1.17-2.91-2.46-5.76-3.93-8.52
			c-1.46-2.76-3.12-5.4-4.83-8c-3.48-5.17-7.39-10.03-11.61-14.62c-8.45-9.17-17.95-17.38-27.96-24.9
			c-10.04-7.51-20.58-14.36-31.38-20.8c-5.4-3.22-10.92-6.24-16.45-9.27c-2.77-1.51-5.55-2.99-8.35-4.44l-4.2-2.18l-2.1-1.11
			l-1.05-0.57l-0.53-0.3l-0.28-0.18l-0.09-0.07l-0.05-0.04c-0.04-0.04-0.08-0.08-0.11-0.12c0,0.17-0.24-0.53,0.09-0.72
			c0.09-0.07,0.23-0.12,0.34-0.12l0.16,0.01L311.69,40.78z"/>
	</g>
	<g>
		<path class="st1" d="M371.41,176.9c4.32,2.07,8.4,4.56,12.3,7.35c1.94,1.4,3.83,2.89,5.63,4.48c1.81,1.58,3.57,3.25,5.18,5.06
			c3.26,3.57,6.13,7.66,7.82,12.35c1.72,4.65,1.8,10.06-0.22,14.53l-0.95-0.32c1.01-4.54,0.52-9.12-1.29-13.26
			c-0.87-2.08-2.01-4.05-3.26-5.95c-1.28-1.89-2.72-3.69-4.24-5.42c-3.07-3.45-6.52-6.6-10.13-9.57c-3.62-2.95-7.41-5.77-11.32-8.36
			L371.41,176.9z"/>
	</g>
</g>
<g id="Camada_16">
</g>
<g id="Camada_15">
</g>
<g id="Espirro">
</g>
<g id="Camada_13">
</g>
<g id="Camada_2">
</g>
<g id="lingua">
</g>
<g id="dor_pescoço">
</g>
<g id="NAUSEA">
</g>
<g id="NARIZ">
</g>
<g id="DOR_CABE">
</g>
<g id="FEBRE">
</g>
<g id="TOSSE">
</g>
<g id="FADIGA">
</g>
</svg>
