<svg xmlns="http://www.w3.org/2000/svg" xmlns:xlink="http://www.w3.org/1999/xlink" viewBox="0 0 500 500"><defs><style>.cls-1,.cls-12,.cls-13,.cls-14,.cls-8{fill:none;}.cls-17,.cls-2{fill:#fff;}.cls-15,.cls-16,.cls-3{fill:#dd6876;}.cls-10,.cls-11,.cls-12,.cls-3,.cls-8{stroke:#dd6876;}.cls-10,.cls-12,.cls-13,.cls-14,.cls-3,.cls-8{stroke-linecap:round;}.cls-10,.cls-11,.cls-12,.cls-13,.cls-14,.cls-19,.cls-3,.cls-8{stroke-miterlimit:10;}.cls-10,.cls-3,.cls-8{stroke-width:1.45px;}.cls-4{fill:#ffcba6;}.cls-19,.cls-5{fill:#1c3047;}.cls-6{fill:#b4cce4;}.cls-11,.cls-7{fill:#fcd6d9;}.cls-9{fill:#1c1b20;}.cls-10{opacity:0.6;fill:url(#Novo_padrão_2);}.cls-11{stroke-width:0.73px;}.cls-12{stroke-width:1.59px;}.cls-13,.cls-14{stroke:#1c3047;}.cls-13{stroke-width:2.18px;}.cls-14{stroke-width:2.1px;}.cls-15{opacity:0.5;}.cls-17{opacity:0.2;}.cls-18{fill:#ffc759;}.cls-19{stroke:#b4cce4;stroke-width:0.76px;}</style><pattern id="Novo_padrão_2" data-name="Novo padrão 2" width="117.06" height="121.91" patternTransform="translate(88.31 137.75) scale(0.73)" patternUnits="userSpaceOnUse" viewBox="0 0 117.06 121.91"><rect class="cls-1" width="117.06" height="121.91"/><path class="cls-2" d="M71.07,113.28c-3.22.06-4.4,2.36-5.09,5.06-3.34-.85-5.63-.35-6.75,1.63a5,5,0,0,0-.61,2.44,6,6,0,0,0,2.48,4.45c-2.43,2.47-3.19,4.66-2.05,6.63,1.64,2.83,4.24,2.69,6.94,1.94.63,2.57,1.73,4.87,4.67,5,3.3.16,4.48-2.3,5.2-5,3.23.91,5.57.34,6.78-1.62s.67-4.06-1.86-6.91c2.55-2.85,3.1-5,1.83-7s-3.62-2.48-6.76-1.56C74.88,115,73.33,113.23,71.07,113.28ZM71,125.63c1,0,.87.88,1.4,1.18-.27.45-.41,1-.76,1.22s-.86,0-1.37,0l-.72-1.22C70,126.44,69.91,125.62,71,125.63Z"/><path class="cls-2" d="M90.43,81.28c-2.81,0-3.83,2.06-4.43,4.41-2.91-.74-4.9-.31-5.88,1.42a4.23,4.23,0,0,0-.53,2.12,5.22,5.22,0,0,0,2.15,3.88C79.63,95.26,79,97.18,80,98.89c1.43,2.46,3.7,2.34,6.05,1.69.55,2.24,1.5,4.24,4.06,4.36,2.88.15,3.91-2,4.54-4.38,2.81.79,4.85.3,5.91-1.41s.58-3.54-1.62-6c2.21-2.48,2.7-4.33,1.59-6.07s-3.15-2.16-5.9-1.35C93.76,82.78,92.4,81.24,90.43,81.28ZM90.33,92c.89,0,.75.77,1.22,1-.23.4-.36.88-.66,1.07s-.75,0-1.2,0l-.63-1.07C89.48,92.74,89.42,92,90.33,92Z"/><path class="cls-2" d="M106.43,108.65c-2.81.06-3.83,2.07-4.43,4.42-2.91-.75-4.9-.31-5.88,1.41a4.29,4.29,0,0,0-.53,2.13,5.22,5.22,0,0,0,2.15,3.88c-2.11,2.15-2.77,4.06-1.78,5.78,1.43,2.46,3.7,2.34,6.05,1.68.55,2.24,1.5,4.25,4.06,4.37,2.88.14,3.91-2,4.54-4.38,2.81.79,4.85.3,5.91-1.41s.58-3.54-1.62-6c2.21-2.49,2.7-4.33,1.59-6.07s-3.15-2.16-5.9-1.36C109.76,110.16,108.4,108.61,106.43,108.65Zm-.1,10.77c.89,0,.75.76,1.22,1-.23.4-.36.88-.66,1.07s-.75,0-1.2,0l-.63-1.07C105.48,120.12,105.42,119.41,106.33,119.42Z"/><path class="cls-2" d="M12.54,113.28c-3.22.06-4.4,2.36-5.09,5.06C4.11,117.49,1.82,118,.7,120a5,5,0,0,0-.61,2.44,6,6,0,0,0,2.47,4.45c-2.42,2.47-3.18,4.66-2,6.63,1.64,2.83,4.24,2.69,6.94,1.94.63,2.57,1.73,4.87,4.66,5,3.3.16,4.49-2.3,5.21-5,3.23.91,5.57.34,6.78-1.62s.67-4.06-1.86-6.91c2.54-2.85,3.1-5,1.83-7s-3.62-2.48-6.77-1.56C16.35,115,14.79,113.23,12.54,113.28Zm-.12,12.35c1,0,.87.88,1.4,1.18-.27.45-.41,1-.76,1.22s-.86,0-1.37,0L11,126.85C11.44,126.44,11.38,125.62,12.42,125.63Z"/><path class="cls-2" d="M31.9,81.28c-2.81,0-3.83,2.06-4.43,4.41-2.91-.74-4.9-.31-5.88,1.42a4.23,4.23,0,0,0-.53,2.12,5.22,5.22,0,0,0,2.15,3.88c-2.11,2.15-2.77,4.07-1.78,5.78,1.43,2.46,3.69,2.34,6.05,1.69.55,2.24,1.5,4.24,4.06,4.36,2.88.15,3.91-2,4.53-4.38,2.82.79,4.86.3,5.92-1.41s.58-3.54-1.62-6c2.21-2.48,2.7-4.33,1.59-6.07s-3.16-2.16-5.9-1.35C35.23,82.78,33.87,81.24,31.9,81.28ZM31.79,92c.9,0,.76.77,1.23,1-.23.4-.36.88-.66,1.07s-.75,0-1.2,0l-.63-1.07C31,92.74,30.89,92,31.79,92Z"/><path class="cls-2" d="M47.9,108.65c-2.81.06-3.83,2.07-4.43,4.42-2.91-.75-4.9-.31-5.88,1.41a4.29,4.29,0,0,0-.53,2.13,5.22,5.22,0,0,0,2.15,3.88c-2.11,2.15-2.77,4.06-1.78,5.78,1.43,2.46,3.69,2.34,6,1.68.55,2.24,1.5,4.25,4.06,4.37,2.88.14,3.91-2,4.53-4.38,2.82.79,4.86.3,5.92-1.41s.58-3.54-1.62-6c2.21-2.49,2.7-4.33,1.59-6.07s-3.16-2.16-5.9-1.36C51.23,110.16,49.87,108.61,47.9,108.65Zm-.11,10.77c.9,0,.76.76,1.23,1-.23.4-.36.88-.66,1.07s-.75,0-1.2,0l-.63-1.07C47,120.12,46.89,119.41,47.79,119.42Z"/><path class="cls-2" d="M100.33,52.32c-3.22.06-4.4,2.37-5.08,5.07C91.91,56.53,89.62,57,88.5,59a4.86,4.86,0,0,0-.61,2.44,6,6,0,0,0,2.47,4.46c-2.43,2.46-3.18,4.66-2,6.62,1.63,2.83,4.24,2.69,6.94,1.94.63,2.57,1.72,4.87,4.66,5,3.3.17,4.48-2.3,5.2-5,3.23.91,5.58.34,6.79-1.62s.66-4.06-1.86-6.91c2.54-2.85,3.1-5,1.82-7s-3.61-2.48-6.76-1.56C104.15,54.05,102.59,52.27,100.33,52.32Zm-.12,12.35c1,0,.87.88,1.4,1.18-.26.46-.4,1-.75,1.22s-.87.05-1.38.05l-.72-1.23C99.24,65.48,99.17,64.67,100.21,64.67Z"/><path class="cls-2" d="M119.7,20.32c-2.81.06-3.84,2.06-4.43,4.42-2.91-.75-4.91-.31-5.89,1.41a4.4,4.4,0,0,0-.53,2.13A5.25,5.25,0,0,0,111,32.16c-2.12,2.15-2.77,4.06-1.78,5.77,1.42,2.47,3.69,2.34,6,1.69.54,2.24,1.5,4.24,4.06,4.37,2.87.14,3.9-2,4.53-4.39,2.82.79,4.86.3,5.91-1.41s.58-3.54-1.62-6c2.22-2.48,2.7-4.33,1.59-6.06s-3.15-2.17-5.89-1.36C123,21.82,121.66,20.28,119.7,20.32Zm-.11,10.76c.89,0,.76.77,1.22,1-.23.4-.35.87-.66,1.07s-.75,0-1.19,0l-.63-1.07C118.74,31.79,118.69,31.08,119.59,31.08Z"/><path class="cls-2" d="M124.92,77.92c-2.81.06-3.83,2.06-4.43,4.42-2.91-.75-4.9-.31-5.88,1.41a4.29,4.29,0,0,0-.53,2.13,5.24,5.24,0,0,0,2.15,3.88c-2.11,2.15-2.77,4.06-1.78,5.77,1.43,2.47,3.69,2.34,6,1.69.55,2.24,1.5,4.24,4.06,4.37,2.88.14,3.91-2,4.53-4.39,2.82.79,4.86.3,5.92-1.41s.58-3.54-1.62-6c2.21-2.48,2.7-4.33,1.59-6.06s-3.16-2.17-5.9-1.36C128.25,79.42,126.89,77.88,124.92,77.92Zm-.11,10.76c.9,0,.76.77,1.23,1-.23.4-.36.87-.66,1.07s-.75,0-1.2,0l-.63-1.07C124,89.39,123.91,88.68,124.81,88.68Z"/><path class="cls-2" d="M41.8,52.32c-3.22.06-4.4,2.37-5.08,5.07C33.38,56.53,31.09,57,30,59a5,5,0,0,0-.6,2.44,6,6,0,0,0,2.47,4.46c-2.43,2.46-3.18,4.66-2,6.62,1.64,2.83,4.24,2.69,6.95,1.94.63,2.57,1.72,4.87,4.66,5,3.3.17,4.48-2.3,5.2-5,3.23.91,5.57.34,6.79-1.62s.66-4.06-1.86-6.91c2.54-2.85,3.1-5,1.82-7s-3.61-2.48-6.76-1.56C45.62,54.05,44.06,52.27,41.8,52.32Zm-.12,12.35c1,0,.87.88,1.4,1.18-.26.46-.4,1-.75,1.22s-.87.05-1.38.05l-.72-1.23C40.71,65.48,40.64,64.67,41.68,64.67Z"/><path class="cls-2" d="M61.17,20.32c-2.81.06-3.84,2.06-4.43,4.42-2.91-.75-4.91-.31-5.89,1.41a4.4,4.4,0,0,0-.53,2.13,5.25,5.25,0,0,0,2.16,3.88c-2.12,2.15-2.78,4.06-1.78,5.77,1.42,2.47,3.69,2.34,6,1.69.54,2.24,1.5,4.24,4.06,4.37,2.87.14,3.9-2,4.53-4.39,2.81.79,4.85.3,5.91-1.41s.58-3.54-1.62-6c2.22-2.48,2.7-4.33,1.59-6.06s-3.15-2.17-5.89-1.36C64.49,21.82,63.13,20.28,61.17,20.32Zm-.11,10.76c.89,0,.76.77,1.22,1-.23.4-.35.87-.66,1.07s-.75,0-1.19,0l-.63-1.07C60.21,31.79,60.16,31.08,61.06,31.08Z"/><path class="cls-2" d="M77.17,47.7c-2.81,0-3.84,2.06-4.43,4.41-2.91-.74-4.91-.31-5.89,1.42a4.33,4.33,0,0,0-.53,2.12,5.23,5.23,0,0,0,2.16,3.88c-2.12,2.15-2.78,4.07-1.78,5.78,1.42,2.46,3.69,2.34,6,1.69.54,2.24,1.5,4.24,4.06,4.37,2.87.14,3.9-2,4.53-4.39,2.81.79,4.85.3,5.91-1.41s.58-3.54-1.62-6c2.22-2.48,2.7-4.33,1.59-6.07s-3.15-2.16-5.89-1.35C80.49,49.2,79.13,47.66,77.17,47.7Zm-.11,10.76c.89,0,.76.77,1.22,1-.23.39-.35.87-.66,1.06s-.75,0-1.19,0l-.63-1.07C76.21,59.16,76.16,58.46,77.06,58.46Z"/><path class="cls-2" d="M66.39,77.92C63.58,78,62.56,80,62,82.34c-2.91-.75-4.91-.31-5.88,1.41a4.29,4.29,0,0,0-.53,2.13,5.24,5.24,0,0,0,2.15,3.88c-2.11,2.15-2.77,4.06-1.78,5.77,1.43,2.47,3.69,2.34,6,1.69.55,2.24,1.5,4.24,4.06,4.37,2.88.14,3.91-2,4.53-4.39,2.82.79,4.86.3,5.92-1.41s.58-3.54-1.63-6c2.22-2.48,2.7-4.33,1.6-6.06s-3.16-2.17-5.9-1.36C69.71,79.42,68.36,77.88,66.39,77.92Zm-.11,10.76c.9,0,.76.77,1.23,1-.23.4-.36.87-.66,1.07s-.76,0-1.2,0L65,89.74C65.44,89.39,65.38,88.68,66.28,88.68Z"/><path class="cls-2" d="M2.63,20.32c-2.8.06-3.83,2.06-4.42,4.42C-4.7,24-6.7,24.43-7.68,26.15a4.4,4.4,0,0,0-.53,2.13A5.25,5.25,0,0,0-6,32.16c-2.12,2.15-2.78,4.06-1.79,5.77,1.43,2.47,3.7,2.34,6.05,1.69.55,2.24,1.51,4.24,4.07,4.37,2.87.14,3.9-2,4.53-4.39,2.81.79,4.85.3,5.91-1.41s.58-3.54-1.62-6c2.22-2.48,2.7-4.33,1.59-6.06S9.54,23.94,6.8,24.75C6,21.82,4.6,20.28,2.63,20.32Zm-.1,10.76c.89,0,.76.77,1.22,1-.23.4-.35.87-.66,1.07s-.75,0-1.19,0l-.63-1.07C1.68,31.79,1.63,31.08,2.53,31.08Z"/><path class="cls-2" d="M18.63,47.7c-2.8,0-3.83,2.06-4.42,4.41-2.91-.74-4.91-.31-5.89,1.42a4.33,4.33,0,0,0-.53,2.12A5.23,5.23,0,0,0,10,59.53c-2.12,2.15-2.78,4.07-1.79,5.78,1.43,2.46,3.7,2.34,6.05,1.69.55,2.24,1.51,4.24,4.07,4.37,2.87.14,3.9-2,4.53-4.39,2.81.79,4.85.3,5.91-1.41s.58-3.54-1.62-6c2.22-2.48,2.7-4.33,1.59-6.07s-3.15-2.16-5.89-1.35C22,49.2,20.6,47.66,18.63,47.7Zm-.1,10.76c.89,0,.76.77,1.22,1-.23.39-.35.87-.66,1.06s-.75,0-1.19,0l-.63-1.07C17.68,59.16,17.63,58.46,18.53,58.46Z"/><path class="cls-2" d="M7.86,77.92C5.05,78,4,80,3.43,82.34.52,81.59-1.48,82-2.45,83.75A4.29,4.29,0,0,0-3,85.88,5.24,5.24,0,0,0-.83,89.76c-2.12,2.15-2.77,4.06-1.78,5.77,1.42,2.47,3.69,2.34,6.05,1.69.55,2.24,1.5,4.24,4.06,4.37,2.87.14,3.91-2,4.53-4.39,2.82.79,4.86.3,5.92-1.41s.57-3.54-1.63-6c2.22-2.48,2.7-4.33,1.59-6.06S14.76,81.54,12,82.35C11.18,79.42,9.83,77.88,7.86,77.92ZM7.75,88.68c.9,0,.76.77,1.22,1-.23.4-.35.87-.66,1.07s-.75,0-1.19,0l-.63-1.07C6.9,89.39,6.85,88.68,7.75,88.68Z"/><path class="cls-2" d="M71.07-8.64c-3.22.07-4.4,2.37-5.09,5.07-3.34-.85-5.63-.36-6.75,1.62A5.08,5.08,0,0,0,58.62.49,6,6,0,0,0,61.1,5c-2.43,2.47-3.19,4.66-2.05,6.63,1.64,2.83,4.24,2.68,6.94,1.93.63,2.57,1.73,4.87,4.67,5,3.3.16,4.48-2.31,5.2-5,3.23.9,5.57.34,6.78-1.62S83.31,7.81,80.78,5c2.55-2.85,3.1-5,1.83-7S79-4.48,75.85-3.55C74.88-6.91,73.33-8.68,71.07-8.64ZM71,3.72c1,0,.87.88,1.4,1.17-.27.46-.41,1-.76,1.23s-.86,0-1.37,0L69.5,4.93C70,4.52,69.91,3.71,71,3.72Z"/><path class="cls-2" d="M106.43-13.26c-2.81.06-3.83,2.06-4.43,4.42-2.91-.75-4.9-.31-5.88,1.41a4.29,4.29,0,0,0-.53,2.13,5.24,5.24,0,0,0,2.15,3.88C95.63.73,95,2.64,96,4.35,97.39,6.82,99.66,6.69,102,6c.55,2.24,1.5,4.24,4.06,4.37,2.88.14,3.91-2,4.54-4.38,2.81.78,4.85.29,5.91-1.42s.58-3.54-1.62-6c2.21-2.48,2.7-4.33,1.59-6.06s-3.15-2.16-5.9-1.36C109.76-11.76,108.4-13.3,106.43-13.26Zm-.1,10.76c.89,0,.75.77,1.22,1-.23.4-.36.88-.66,1.07s-.75,0-1.2,0l-.63-1.07C105.48-1.79,105.42-2.5,106.33-2.5Z"/><path class="cls-2" d="M95.65,17c-2.8.06-3.83,2.07-4.42,4.42-2.91-.75-4.91-.31-5.89,1.41a4.4,4.4,0,0,0-.53,2.13A5.23,5.23,0,0,0,87,28.8c-2.12,2.15-2.78,4.06-1.79,5.77,1.43,2.47,3.7,2.35,6,1.69.55,2.24,1.5,4.24,4.07,4.37,2.87.14,3.9-2,4.53-4.38,2.81.79,4.85.3,5.91-1.41s.58-3.54-1.62-6c2.22-2.49,2.7-4.33,1.59-6.07s-3.15-2.16-5.89-1.36C99,18.47,97.62,16.92,95.65,17Zm-.1,10.77c.89,0,.76.76,1.22,1-.23.4-.35.88-.66,1.07s-.75,0-1.19,0l-.63-1.07C94.7,28.43,94.65,27.72,95.55,27.73Z"/><path class="cls-2" d="M12.54-8.64c-3.22.07-4.4,2.37-5.09,5.07C4.11-4.42,1.82-3.93.7-1.95A5.08,5.08,0,0,0,.09.49,6,6,0,0,0,2.56,5C.14,7.42-.62,9.61.52,11.58c1.64,2.83,4.24,2.68,6.94,1.93.63,2.57,1.73,4.87,4.66,5,3.3.16,4.49-2.31,5.21-5,3.23.9,5.57.34,6.78-1.62S24.78,7.81,22.25,5c2.54-2.85,3.1-5,1.83-7s-3.62-2.48-6.77-1.55C16.35-6.91,14.79-8.68,12.54-8.64ZM12.42,3.72c1,0,.87.88,1.4,1.17-.27.46-.41,1-.76,1.23s-.86,0-1.37,0L11,4.93C11.44,4.52,11.38,3.71,12.42,3.72Z"/><path class="cls-2" d="M47.9-13.26c-2.81.06-3.83,2.06-4.43,4.42-2.91-.75-4.9-.31-5.88,1.41a4.29,4.29,0,0,0-.53,2.13,5.24,5.24,0,0,0,2.15,3.88C37.1.73,36.44,2.64,37.43,4.35c1.43,2.47,3.69,2.34,6,1.69.55,2.24,1.5,4.24,4.06,4.37,2.88.14,3.91-2,4.53-4.38,2.82.78,4.86.29,5.92-1.42s.58-3.54-1.62-6c2.21-2.48,2.7-4.33,1.59-6.06s-3.16-2.16-5.9-1.36C51.23-11.76,49.87-13.3,47.9-13.26ZM47.79-2.5c.9,0,.76.77,1.23,1-.23.4-.36.88-.66,1.07s-.75,0-1.2,0l-.63-1.07C47-1.79,46.89-2.5,47.79-2.5Z"/><path class="cls-2" d="M37.12,17c-2.8.06-3.83,2.07-4.43,4.42-2.9-.75-4.9-.31-5.88,1.41a4.4,4.4,0,0,0-.53,2.13,5.2,5.2,0,0,0,2.16,3.88c-2.12,2.15-2.78,4.06-1.79,5.77,1.43,2.47,3.7,2.35,6.05,1.69.55,2.24,1.5,4.24,4.07,4.37,2.87.14,3.9-2,4.53-4.38,2.81.79,4.85.3,5.91-1.41s.58-3.54-1.62-6c2.21-2.49,2.7-4.33,1.59-6.07S44,20.59,41.29,21.39C40.45,18.47,39.09,16.92,37.12,17ZM37,27.73c.89,0,.76.76,1.22,1-.23.4-.35.88-.66,1.07s-.75,0-1.19,0l-.64-1.07C36.17,28.43,36.11,27.72,37,27.73Z"/></pattern></defs><g id="Camada_13" data-name="Camada 13"><path class="cls-3" d="M314.34,198.59a63.56,63.56,0,0,1-9.75,21.55A66.18,66.18,0,0,1,285.84,238c-1.06.67-2.13,1.31-3.23,1.92v.1a73.38,73.38,0,0,1-21.43,7.36,71.48,71.48,0,0,1-19.89.73V248a67.2,67.2,0,0,1-35.91-15.79A65.2,65.2,0,0,1,188,208.59c27.51-19,49.88-23.05,62.68-24,2.8-.21,5.14-.25,6-.26A117.28,117.28,0,0,1,314.34,198.59Z"/><path class="cls-4" d="M305.63,148a20.44,20.44,0,0,0-2.88,9.9c-4,2.94-9.68,2.56-13.89.48-7.55-3.75-9.74-13.89-11-19.49-1.62-7.14.54-12.87-1-13.58s-3.12,5.65-8.15,6.83c-3.26.76-7.09-.89-9.56-3.4-3.16-3.21-3-6.69-4.68-7-2.32-.36-2.58,6.53-7.14,11.21a16.51,16.51,0,0,1-18.9,3c-5.14-2.76-7.37-8.19-9.23-7.39-1.34.57,0,4.06-1.75,8.2-1.35,3.25-4.29,6.21-7.6,6.72-5.11.79-8.92-4.56-10.1-3.28s3,5.72,4.18,13c.92,5.67,2.67,15.89-2.94,22.19a15,15,0,0,1-9.27,5c-3.18-7.73-9.68-12.61-16-11.38a10.73,10.73,0,0,0-4.28,1.89,18.12,18.12,0,0,1,11.49-4.15,17.66,17.66,0,0,1,2.06.12c7.34-28,33.45-48.76,64.52-48.76A67,67,0,0,1,305.63,148Z"/><path class="cls-5" d="M466.73,356.93a78.63,78.63,0,0,1-72.94,32.9q-1.89-1.17-3.67-2.39-2.88-4.29-5.77-8.57L370,352.46a119.3,119.3,0,0,0,88.3-32A172.27,172.27,0,0,1,466.73,356.93Z"/><path class="cls-5" d="M370.79,370.86c-5.44-5.15-9.36-8.39-12.61-6.73-1.49.76-2.46,2.35-3.06,4.41a93.06,93.06,0,0,1-26.6-30.78c-20.57-38.77-5.44-79.53,1.86-95,6.81-1.95,15.14-1.44,27.22,5a72.72,72.72,0,0,1,3.21,7.16,204.37,204.37,0,0,0,10,115.93Z"/><path class="cls-5" d="M210.79,308c-3.34,7.58-6.69,15.71-9.91,24.38a46.28,46.28,0,0,1-24.14.95,47.73,47.73,0,0,1-18.37-8.76c3.83-7.74,7.78-15.78,11.84-24.26,1.22-2.54,2.43-5,3.68-7.32A66,66,0,0,0,194,304.43,65.28,65.28,0,0,0,210.79,308Z"/><path class="cls-6" d="M373.3,423.45c-.25,17.72-51.71,33.9-103.52,41.29-26.92,3.84-64.52,6.81-95.89,5.06.35-12.07,1.24-24.81,2.84-38.13h0s0,0,0-.07A428.26,428.26,0,0,1,185,384.77a436.16,436.16,0,0,1,15.86-52.41c3.22-8.67,6.57-16.8,9.91-24.38a65.28,65.28,0,0,1-16.8-3.55A66,66,0,0,1,173.89,293c5.24-9.75,11.05-17.39,19.89-21.29,13.41-5.91,27.09-.8,34.84-1.11.49,0,1-.05,1.41-.09,4.75,6.67,12.64,14.55,24.05,16.3,17,2.61,36-9.25,43.5-29.54a35.6,35.6,0,0,0,9.84-2.44c8.2-3.24,14.37-9.6,23-12-7.3,15.47-22.43,56.23-1.86,95a93.06,93.06,0,0,0,26.6,30.78c-1.69,5.86-.36,15.49.73,20.6C360.29,409.77,373.43,414.45,373.3,423.45Z"/><path class="cls-6" d="M357.6,316.06a204.81,204.81,0,0,1,3.21-61.13c.66,1.66,1.35,3.58,2,5.68.34,1.07.66,2.15.93,3.23,3.8,14.58,2,29.71,1.06,44.85-.77,11.76-1.07,23.54,2.08,35.09a64.14,64.14,0,0,0,3.06,8.68l14.39,26.41q2.89,4.28,5.77,8.57c-8.14-5.62-14.36-11.9-19.33-16.58A204.15,204.15,0,0,1,357.6,316.06Z"/><path class="cls-6" d="M458.26,320.46a119.3,119.3,0,0,1-88.3,32,64.14,64.14,0,0,1-3.06-8.68c-3.15-11.55-2.85-23.33-2.08-35.09a84.36,84.36,0,0,0,34.07-5c2.43-.89,4.74-1.87,7-2.92a87.7,87.7,0,0,0,31.83-25.83A259,259,0,0,1,458.26,320.46Z"/><path class="cls-6" d="M457,396.12c-15.71,13-47.39,1.22-50.59,0a75.45,75.45,0,0,1-12.66-6.29,78.63,78.63,0,0,0,72.94-32.9C468.54,374.34,466,388.73,457,396.12Z"/><path class="cls-6" d="M200.88,332.36A436.16,436.16,0,0,0,185,384.77a48.73,48.73,0,0,1-49.41-12.61c6.57-15,14.33-30.52,22.76-47.61a47.73,47.73,0,0,0,18.37,8.76A46.28,46.28,0,0,0,200.88,332.36Z"/><path class="cls-5" d="M185,384.77a428.26,428.26,0,0,0-8.28,46.82s0,0,0,.07h0a70.32,70.32,0,0,1-37.8,3.41,68.45,68.45,0,0,1-21.29-8c3.6-18.84,9.9-36.5,18-54.92A48.73,48.73,0,0,0,185,384.77Z"/><path class="cls-6" d="M176.73,431.67c-1.6,13.32-2.49,26.06-2.84,38.13-30.06-1.67-54.4-7.66-58.22-21.34a15.94,15.94,0,0,1-.26-6.53c.55-5.05,1.3-10,2.23-14.85a68.45,68.45,0,0,0,21.29,8A70.32,70.32,0,0,0,176.73,431.67Z"/><path class="cls-7" d="M297.58,258c-7.54,20.29-26.52,32.14-43.5,29.54-11.41-1.75-19.3-9.63-24.05-16.3,11.26-.88,11.26-6.38,11.26-6.38v-16.7a71.48,71.48,0,0,0,19.89-.73A73.38,73.38,0,0,0,282.61,240c-.32,3-.34,7.88.81,15.49C283.42,255.53,288.69,258.83,297.58,258Z"/><path class="cls-7" d="M316.11,183.67a63.34,63.34,0,0,1-1.77,14.92,117.28,117.28,0,0,0-57.67-14.22c-.81,0-3.15,0-6,.26-12.8.91-35.17,5-62.68,24a17.63,17.63,0,0,1-5.1.75c-10.36,0-18.8-9-19.18-20.15,0-.26,0-.52,0-.78a21.93,21.93,0,0,1,5.12-14.24.41.41,0,0,1,.09-.1,19.77,19.77,0,0,1,2.49-2.44,10.59,10.59,0,0,1,4.28-1.89c6.34-1.23,12.84,3.65,16,11.38l.2,0L177.7,122.5l32.38-19,58.61-2.85,36.94,48-20,8.14a13.25,13.25,0,0,0,3.21,2.23c4.21,2.09,9.87,2.46,13.89-.47a20.44,20.44,0,0,1,2.88-9.9A63.29,63.29,0,0,1,316.11,183.67Z"/><path class="cls-6" d="M417,245a106.5,106.5,0,0,1-29.69,14.46,107.91,107.91,0,0,1-23.5,4.39c-.27-1.08-.59-2.16-.93-3.23a84.37,84.37,0,0,0-5.23-12.84c-2-3.77-3.83-6.83-5.46-9.38a69.69,69.69,0,0,0,39.57-19A214.82,214.82,0,0,1,417,245Z"/><path class="cls-5" d="M437.68,274.9a87.7,87.7,0,0,1-31.83,25.83c-2.22,1-4.53,2-7,2.92a84.36,84.36,0,0,1-34.07,5c1-15.14,2.74-30.27-1.06-44.85a107.91,107.91,0,0,0,23.5-4.39A106.5,106.5,0,0,0,417,245a206.33,206.33,0,0,1,14.5,19.7Q434.65,269.59,437.68,274.9Z"/><path class="cls-5" d="M235.51,173.84c.35,6.58-3,12.1-7.53,12.34-4.08.22-7.7-4-8.61-9.63v0q-.17-.63-.27-1.29a15.31,15.31,0,0,1,.25-6c-4.94,0-8.27-5.82-9.27-7.93,1.68,2.92,14.1,1.29,14.1,1.29a16.83,16.83,0,0,1,2.49-.34,8.22,8.22,0,0,1,2.9.28c2.49.84,4.89,4.17,5.62,8.13a14.25,14.25,0,0,1,.27,2.48v0C235.48,173.43,235.49,173.63,235.51,173.84Z"/><path class="cls-5" d="M210.9,158.81a2,2,0,0,1-.14-.41S210.82,158.56,210.9,158.81Z"/><path class="cls-8" d="M254.08,173.77,255.63,193s-10.34-4.65-11.89,1,1.3,8,5.95,10.21,11-3,11-3"/><path class="cls-5" d="M348.12,148.21c-5.14,4.32-12.49,9-17.67,8.78-2.53-9.58-9.92-16-17.12-14.64a11.84,11.84,0,0,0-7.7,5.65,20.44,20.44,0,0,0-2.88,9.9c-4,2.94-9.68,2.56-13.89.48-7.55-3.75-9.74-13.89-11-19.49-1.62-7.14.54-12.87-1-13.58s-3.12,5.65-8.15,6.83c-3.26.76-7.09-.89-9.56-3.4-3.16-3.21-3-6.69-4.68-7-2.32-.36-2.58,6.53-7.14,11.21a16.51,16.51,0,0,1-18.9,3c-5.14-2.76-7.37-8.19-9.23-7.39-1.34.57,0,4.06-1.75,8.2-1.35,3.25-4.29,6.21-7.6,6.72-5.11.79-8.92-4.56-10.1-3.28s3,5.72,4.18,13c.92,5.67,2.67,15.89-2.94,22.19a15,15,0,0,1-9.27,5c-3.18-7.73-9.68-12.61-16-11.38a10.73,10.73,0,0,0-4.28,1.89,12.55,12.55,0,0,0-2.49,2.45.22.22,0,0,0-.09.1,21.9,21.9,0,0,0-5.12,14.23c0,.26,0,.52,0,.78-4,3.75-14.19,2-21.51-.36-16.54-5.41-34.72-26.49-30.42-47.84,3.2-15.9,18-27.54,35.62-25.91-11.39-11.65-15.09-28.71-10-40,5.84-12.95,21.69-14.86,31.62-12,10.29,2.93,15.39,11.31,19,8.77,4.23-3-2.6-15.1,2.49-27.35,4.32-10.41,14.22-13.64,16.16-14.27,1.58-.52,20.72-4.23,22.38-4.34,2-.14,12.43-.85,20.33,7.2,9.29,9.47,7.48,23.23,12.53,24.44,4.25,1,5.85-8.65,14.31-15.22,8.15-6.34,23.56-10.48,33.82-.66,9,8.57,11.89,25.77,5.69,40.84,15.76-8.11,33.81-2.82,42.71,10.73C370.44,110.67,361.44,137,348.12,148.21Z"/><path class="cls-5" d="M269.11,174.74c.3,1.87,4.15,2.8,8.62,2.1,4-.64,7.18-2.41,7.52-4.12h0a1.74,1.74,0,0,0,.14-.4,1.56,1.56,0,0,0-.83-1.59A16.21,16.21,0,0,0,292.9,167c-1.36,1.09-13.74,2.77-13.74,2.77s-1.13.12-2.49.34a25.09,25.09,0,0,0-2.82.57c-2.37.65-4.4,2-4.74,3.19a1.51,1.51,0,0,0,0,.73h0A1,1,0,0,0,269.11,174.74Z"/><path class="cls-9" d="M215,153.94c1.54-.68,3-1.37,4.54-2a42.06,42.06,0,0,1,4.5-1.64,17.57,17.57,0,0,1,4.57-.73,13.86,13.86,0,0,1,2.31.2,16.32,16.32,0,0,1,2.31.69l.37-.56a8.4,8.4,0,0,0-2.2-1.55,9.94,9.94,0,0,0-2.62-.8,12.91,12.91,0,0,0-5.4.38,17.57,17.57,0,0,0-4.83,2.12,16,16,0,0,0-4,3.38Z"/><path class="cls-9" d="M267.87,161.43c1.55.68,3.05,1.37,4.54,2a42.06,42.06,0,0,0,4.5,1.64,17.58,17.58,0,0,0,4.58.73,12.86,12.86,0,0,0,2.3-.21,14.72,14.72,0,0,0,2.31-.68l.37.56a8.41,8.41,0,0,1-2.19,1.55,9.63,9.63,0,0,1-2.63.79,12.86,12.86,0,0,1-5.39-.37,17.63,17.63,0,0,1-4.84-2.12,16.23,16.23,0,0,1-4-3.38Z"/><path class="cls-9" d="M264.55,158.4a22.29,22.29,0,0,0-.54,3.2,7.32,7.32,0,0,0,.06,1.55,6.81,6.81,0,0,0,.48,1.54,3.07,3.07,0,0,1-1-1.39,4.53,4.53,0,0,1-.24-1.75A5.54,5.54,0,0,1,264.55,158.4Z"/><path class="cls-10" d="M314.34,198.59a63.56,63.56,0,0,1-9.75,21.55A66.18,66.18,0,0,1,285.84,238c-1.06.67-2.13,1.31-3.23,1.92v.1a73.38,73.38,0,0,1-21.43,7.36,71.48,71.48,0,0,1-19.89.73V248a67.2,67.2,0,0,1-35.91-15.79A65.2,65.2,0,0,1,188,208.59c27.51-19,49.88-23.05,62.68-24,2.8-.21,5.14-.25,6-.26A117.28,117.28,0,0,1,314.34,198.59Z"/><path class="cls-11" d="M280.56,187.44c-.59,0-1.19.05-1.82.12a20.28,20.28,0,0,0-3.67.8c-.29.08-.57.18-.84.28-4.33,1.54-8.13,4.35-8.14,7.07,0,6.63,22.68,3.81,45.53,18.26,3.15,2,11.8,7.82,19.95,5.06a14.29,14.29,0,0,0,4.49-2.53l12.09,8.43c14.61-5.62,18-17.7,18-17.7S327.07,149.06,322,143.44s-16,0-16,0l-34.29,14.33s2.53,22.2-1.4,26.7c-2.45,2.8.44,5.06,3.92,4.17a5.52,5.52,0,0,0,.84-.28,9.59,9.59,0,0,0,5.07-5.42,41,41,0,0,0,1.61-4.46"/><path class="cls-11" d="M302.61,190.31a15,15,0,0,1,.58,4.34c0,2.43-.68,4.71-2.11,5.55-3.09,1.83-7.17-2-9.84-5.33s-10.68-7.43-10.68-7.43l1.19-9,2.18-16.35,15.46-9.41"/><path class="cls-11" d="M308.8,155.8l-12.92,11.25v15.89l6.73,7.37h0l3.89,4.27,2.3,2.52s9.56,4.08,10-3.09c.09-1.45.14-2.64.17-3.62,0-.2,0-.4,0-.58"/><path class="cls-11" d="M317.94,161.43l-8,9.41,2,12.1s8.65,8.38,9.69,9.54c.85.94,9.27,1.68,6.89-7s-6.05-9.41-6.05-9.41l6.44-7.59"/><path class="cls-12" d="M191.75,180.39s9.46,3.15,4.42,24.42"/><path class="cls-13" d="M174.67,469.84a413,413,0,0,1,35.74-161q2.09-4.71,4.18-9.11"/><path class="cls-14" d="M297.58,258c-.65,2.75-2.27,5.84-5.53,11h0a40,40,0,0,1-5.84,7.29c-2.46,2.42-13.69,13.48-30,11.45-14.77-1.84-23-13-25.26-16.55"/><path class="cls-13" d="M381,371.14c-17.07-27.92-16.65-41.76-13.71-70.26s-7.77-48.34-7.77-48.34-6.34-12.79-7.4-14.15"/><ellipse class="cls-15" cx="220.48" cy="190.65" rx="9.17" ry="3.36"/><path id="orelha" class="cls-16" d="M175.53,189.3c.75,5.16,3.94,9.16,7.68,10.13l.08.55c-6.73,1-12.94-3.4-13.86-9.8s3.78-12.35,10.52-13.33l.08.56C176.71,179.4,174.78,184.14,175.53,189.3Z"/><path class="cls-17" d="M169.76,69.57c.05-.69-14.33-6.49-22.63,1-7.19,6.5-5.07,18.71-4.37,18.81s-.08-10,6.64-15.92C157.21,66.62,169.72,70.22,169.76,69.57Z"/><path class="cls-17" d="M282,44.76c-.14-.68,13.24-8.5,22.54-2.28,8.06,5.4,7.73,17.78,7.05,18s-1.37-9.94-8.87-14.8C294,40,282.14,45.39,282,44.76Z"/><path class="cls-17" d="M198.67,44.17c-.28-.42,7.77-9.45,20-11.83,15.54-3,29.17,6.41,29,6.95s-13.22-7.57-29.28-4.42C206.4,37.21,198.93,44.57,198.67,44.17Z"/><path id="cabelo_branco" data-name="cabelo branco" class="cls-17" d="M209.54,122.35c-1.36,1.46-2.62,3-3.85,4.56-.61.79-1.22,1.58-1.79,2.39s-1.12,1.65-1.6,2.53l.39.3c.72-.7,1.38-1.45,2-2.21s1.23-1.56,1.83-2.36c1.19-1.59,2.34-3.21,3.39-4.92Z"/><path id="cabelo_branco-2" data-name="cabelo branco" class="cls-17" d="M214.19,122.27c-.73.69-1.39,1.43-2,2.18s-1.27,1.53-1.86,2.32-1.17,1.59-1.68,2.44a14.22,14.22,0,0,0-1.31,2.72l.4.28a13.85,13.85,0,0,0,2.14-2.12c.64-.76,1.2-1.57,1.76-2.38s1.08-1.66,1.59-2.51a27.85,27.85,0,0,0,1.4-2.65Z"/><path id="cabelo_branco-3" data-name="cabelo branco" class="cls-17" d="M269.26,112.49c-1.36,1.46-2.62,3-3.85,4.57-.61.78-1.22,1.57-1.79,2.39A28.46,28.46,0,0,0,262,122l.39.29c.72-.7,1.38-1.45,2-2.21s1.23-1.56,1.83-2.35c1.19-1.6,2.34-3.22,3.39-4.92Z"/><path id="cabelo_branco-4" data-name="cabelo branco" class="cls-17" d="M273.91,112.41c-.73.69-1.39,1.43-2,2.18s-1.27,1.53-1.86,2.33a29.3,29.3,0,0,0-1.68,2.44,13.85,13.85,0,0,0-1.31,2.71l.4.28a14.25,14.25,0,0,0,2.14-2.11c.64-.76,1.2-1.58,1.76-2.39s1.08-1.66,1.59-2.51a27.85,27.85,0,0,0,1.4-2.65Z"/><path class="cls-2" d="M280.6,258.06c.72.29.72.28,1-.43a9.9,9.9,0,0,1,2.16-3.29c.19-.18.24-.3,0-.52-1.18-1.18-2.33-2.38-3.49-3.58a1,1,0,0,0-.78-.36,1.37,1.37,0,0,1-1.23-.77,1.08,1.08,0,0,1,.4-1.36,1.09,1.09,0,0,1,1.44.28,1.74,1.74,0,0,1,.35,1,.83.83,0,0,0,.24.59l3.38,3.84c.18.22.32.24.53,0a5,5,0,0,1,.59-.44c.12-.12.3-.14.4-.27.44-.17.43-.41.18-.78a1.63,1.63,0,0,0-.89-.82,1.43,1.43,0,0,1-1-1.19,1.15,1.15,0,0,1,1-1.36,1.21,1.21,0,0,1,1.37,1.07,1.89,1.89,0,0,1-.1,1.17,2,2,0,0,0,.46,1.26c.12,0,.23,0,.35-.08a8.91,8.91,0,0,1,2.2-.68c.32-.06.33-.2.26-.45l-.74-2.84c-.18-.28-.11-.63-.24-.92s-.14-.53-.19-.8A.65.65,0,0,0,288,246a1.47,1.47,0,0,1-.78-1.51,1.05,1.05,0,0,1,2.08.12,2,2,0,0,1-.22,1.11c-.24.43,0,.86.08,1.28s.11.8.24,1.17c.19,1,.37,1.92.56,2.88,0,.19.13.27.34.25a9.43,9.43,0,0,1,3.43.27c.22.05.31,0,.36-.23s.15-.58.24-.87a.39.39,0,0,0-.06-.31,2.09,2.09,0,0,1-.26-1.34,1.13,1.13,0,0,1,.79-1A1.08,1.08,0,0,1,296,248a1.15,1.15,0,0,1,.34,1.28,1.76,1.76,0,0,1-.88,1,1,1,0,0,0-.62.74,4.87,4.87,0,0,1-.21.53c-.13.21.06.23.17.28l1.08.46.08,0c.7.31.7.31,1.11-.37.8-1.33,1.58-2.67,2.39-4a.9.9,0,0,0,.11-.7,1.44,1.44,0,0,1,.62-1.61,1.07,1.07,0,0,1,1.32,1.63,1.22,1.22,0,0,1-.68.51,1.52,1.52,0,0,0-1,.81c-.14.1-.15.28-.27.4-.76,1.15-1.52,2.32-2.3,3.46-.24.34-.27.54.11.78a4.89,4.89,0,0,1,1.09.94c.16.17.28.16.45,0q1.89-1.86,3.81-3.71a.82.82,0,0,0,.22-.55,1.48,1.48,0,0,1,.84-1.36,1,1,0,0,1,1.34.46,1.08,1.08,0,0,1-.34,1.42,1.56,1.56,0,0,1-.93.3.87.87,0,0,0-.63.23q-2,1.77-4,3.51c-.19.17-.21.29,0,.49a5.66,5.66,0,0,1,.88,1.29c.05.1.1.21.24.1h0a1.33,1.33,0,0,0,.5-.26,1.85,1.85,0,0,0,.87-1,1.36,1.36,0,0,1,1.37-.94,1.17,1.17,0,0,1,.54,2.21,1.58,1.58,0,0,1-1.43.14,1,1,0,0,0-.95.09c-.72.36-.72.35-.43,1.07a8.45,8.45,0,0,1,.63,2.38c0,.28.09.39.44.3,1.49-.41,3-.78,4.51-1.15a.73.73,0,0,0,.47-.35,1.47,1.47,0,0,1,1.6-.74,1,1,0,0,1,.74,1.13,1,1,0,0,1-.9.94,1.38,1.38,0,0,1-1-.14,1.38,1.38,0,0,0-1.1-.11l-1.18.25c-1.07.21-2.14.47-3.23.65-.24,0-.29.15-.29.35a9.56,9.56,0,0,1-.28,2.77c-.06.24,0,.31.23.36l1.42.41a4.28,4.28,0,0,1,.51.15c.17.13.38.1.57.18s.52.14.78.23a1.33,1.33,0,0,0,1.05-.07,1.54,1.54,0,0,1,2,.43,1.34,1.34,0,0,1,0,1.23h0a2,2,0,0,1-.26.32,1.55,1.55,0,0,1-2.28-.78.72.72,0,0,0-.48-.45c-1.14-.38-2.29-.78-3.42-1.19a.28.28,0,0,0-.41.2,9.56,9.56,0,0,1-1.73,3.08c-.15.17-.13.29,0,.45l2.19,2.25a.74.74,0,0,0,.51.2,1.46,1.46,0,0,1,1.44,1,1.07,1.07,0,0,1-1.86.92,1.46,1.46,0,0,1-.37-1,.86.86,0,0,0-.24-.63c-.68-.76-1.35-1.53-2-2.3-.15-.18-.25-.24-.45,0a9.26,9.26,0,0,1-1.8,1.38c-.19.12-.19.23-.08.4a6.52,6.52,0,0,1,.38.68.76.76,0,0,0,.53.42,1.85,1.85,0,0,1,1,.71,1.2,1.2,0,0,1-1.19,1.92,1.21,1.21,0,0,1-1-1,1.93,1.93,0,0,1,.11-1.25c.12-.24-.05-.42-.13-.62-.36-.8-.36-.79-1.15-.47a9.28,9.28,0,0,1-1,.35c-.27.07-.32.18-.26.43.41,1.59.81,3.17,1.21,4.76a1.29,1.29,0,0,0,.61,1,1.29,1.29,0,0,1,.6.95,1.06,1.06,0,0,1-.94,1.27,1.1,1.1,0,0,1-1.19-1.05,1.17,1.17,0,0,1,.13-.73,1.86,1.86,0,0,0,.07-1.58c-.28-1.46-.6-2.91-.88-4.37-.06-.32-.18-.45-.52-.37a6.47,6.47,0,0,1-1.52.14c-.23,0-.35.07-.35.33,0,1.79,0,3.58,0,5.37a.58.58,0,0,0,.2.43,1.68,1.68,0,0,1,.48,1.2,1.06,1.06,0,1,1-2.12,0A1.58,1.58,0,0,1,290,278a.83.83,0,0,0,.26-.59c.1-1.74.22-3.48.35-5.23,0-.27-.05-.4-.35-.4a5.51,5.51,0,0,1-1.34-.21c-.27-.07-.43,0-.48.26a1.84,1.84,0,0,1-.13.44,1.05,1.05,0,0,0,.08,1,1.68,1.68,0,0,1,.13,1.13,1.14,1.14,0,0,1-.88,1,1.19,1.19,0,0,1-1.37-.61,1.28,1.28,0,0,1,0-1.16,2,2,0,0,1,1.05-.94c.29-.1.28-.38.36-.61.24-.7.24-.71-.44-1a9.28,9.28,0,0,1-2.16-1.19c-.2-.15-.33-.17-.52,0l-3.4,3.31a.53.53,0,0,0-.15.41,1.85,1.85,0,0,1-.42,1.13,1.08,1.08,0,0,1-1.61.09,1.06,1.06,0,0,1,.09-1.57,1.6,1.6,0,0,1,1.06-.39.86.86,0,0,0,.6-.23c1.14-1,2.28-2,3.43-3,.23-.2.21-.32,0-.52a9,9,0,0,1-1.79-2.15c-.1-.18-.23-.23-.4-.12-.44.27-.93.44-1.1,1.06a1.41,1.41,0,0,1-1.2,1,1.19,1.19,0,0,1-1.3-.79,1.17,1.17,0,0,1,.63-1.46,1.91,1.91,0,0,1,1.52-.07,2.06,2.06,0,0,0,1.31-.41c.09-.12,0-.21-.05-.3a7.37,7.37,0,0,1-.53-1.42c-.08-.32-.22-.44-.54-.32a2.6,2.6,0,0,1-.4.1c-.56.12-1.1.28-1.66.41-.95.25-1.91.51-2.87.75a.56.56,0,0,0-.41.29,1.75,1.75,0,0,1-.94.77,1.07,1.07,0,0,1-1.41-1.3,1,1,0,0,1,.9-.76,1.26,1.26,0,0,1,.88.12,1.44,1.44,0,0,0,1.26.11c1.51-.29,3-.6,4.53-.9.31-.07.43-.16.36-.55a9.39,9.39,0,0,1,.14-4.05c.07-.27,0-.37-.23-.44l-3.17-.92a.72.72,0,0,0-.62.07,1.89,1.89,0,0,1-1.49.13,1.16,1.16,0,0,1-.69-1.61,1.2,1.2,0,0,1,1.67-.56,1.86,1.86,0,0,1,.94,1,.56.56,0,0,0,.38.35c.7.23,1.4.48,2.1.73C280.21,258,280.42,258,280.6,258.06Z"/><path class="cls-18" d="M283.26,257a1.31,1.31,0,0,1,1.31-1.31,1.29,1.29,0,0,1,1.28,1.3,1.3,1.3,0,0,1-2.59,0Z"/><path class="cls-18" d="M292.2,268.54a1.3,1.3,0,1,1,2.59,0,1.3,1.3,0,0,1-2.59,0Z"/><path class="cls-18" d="M293.52,257.54a1.3,1.3,0,1,1,2.59,0,1.26,1.26,0,0,1-1.29,1.27A1.27,1.27,0,0,1,293.52,257.54Z"/><path class="cls-18" d="M285,265.5a3.61,3.61,0,1,1,7.21,0,3.61,3.61,0,0,1-7.21,0Z"/><path class="cls-18" d="M293.85,264.82a2.06,2.06,0,0,1,2.06-2.06,2,2,0,0,1,2,2,2,2,0,0,1-2,2A2,2,0,0,1,293.85,264.82Z"/><path class="cls-18" d="M285.66,254.57a.58.58,0,0,1,.58-.58.59.59,0,0,1,.56.57.56.56,0,0,1-.57.56A.55.55,0,0,1,285.66,254.57Z"/><path class="cls-2" d="M247.93,150.5c.47.19.46.19.66-.28a6.19,6.19,0,0,1,1.41-2.13c.12-.13.15-.2,0-.34-.76-.77-1.51-1.55-2.26-2.33a.68.68,0,0,0-.51-.23.92.92,0,0,1-.81-.51.7.7,0,0,1,.27-.88.71.71,0,0,1,.94.19,1.17,1.17,0,0,1,.22.67.53.53,0,0,0,.16.38l2.19,2.5c.12.14.21.16.35,0a3.47,3.47,0,0,1,.38-.29c.08-.08.2-.09.26-.18.29-.11.28-.27.12-.5a1.1,1.1,0,0,0-.58-.54.93.93,0,0,1-.67-.77.75.75,0,0,1,.66-.88.78.78,0,0,1,.89.69,1.32,1.32,0,0,1-.06.76,1.24,1.24,0,0,0,.29.82c.08,0,.15,0,.23-.05a6,6,0,0,1,1.43-.45c.21,0,.21-.12.17-.29l-.48-1.84c-.12-.18-.08-.41-.16-.6s-.09-.35-.12-.52a.44.44,0,0,0-.21-.29,1,1,0,0,1-.51-1,.69.69,0,0,1,1.36.08,1.3,1.3,0,0,1-.15.72c-.15.28,0,.56.06.84s.07.51.15.76l.36,1.87a.19.19,0,0,0,.23.16,6,6,0,0,1,2.23.17c.14,0,.2,0,.23-.14l.15-.57a.21.21,0,0,0,0-.2,1.33,1.33,0,0,1-.17-.87.74.74,0,0,1,.51-.66.7.7,0,0,1,.78.15.76.76,0,0,1,.22.83,1.12,1.12,0,0,1-.58.68.63.63,0,0,0-.4.48c0,.12-.09.23-.13.35s0,.14.11.18l.7.3.05,0c.45.2.46.2.72-.25.52-.86,1-1.73,1.55-2.6a.51.51,0,0,0,.07-.45,1,1,0,0,1,.41-1,.72.72,0,0,1,.85.17.71.71,0,0,1,0,.89.86.86,0,0,1-.44.34.94.94,0,0,0-.64.52c-.08.06-.1.18-.17.26-.5.75-1,1.51-1.5,2.25-.15.22-.17.35.08.5a3.75,3.75,0,0,1,.71.61c.1.12.18.11.28,0l2.48-2.42a.51.51,0,0,0,.15-.35,1,1,0,0,1,.54-.89.67.67,0,0,1,.88.3.71.71,0,0,1-.23.93,1.07,1.07,0,0,1-.6.19.51.51,0,0,0-.41.15c-.87.77-1.73,1.53-2.6,2.28-.13.11-.14.19,0,.32a4,4,0,0,1,.57.84c0,.07.06.14.15.06h0a.75.75,0,0,0,.33-.17,1.2,1.2,0,0,0,.56-.65.89.89,0,0,1,.89-.61.75.75,0,0,1,.73.56.76.76,0,0,1-.38.87,1,1,0,0,1-.92.1.67.67,0,0,0-.63,0c-.46.24-.46.23-.27.7a6.37,6.37,0,0,1,.41,1.54c0,.19.05.26.28.2,1-.26,1.95-.51,2.93-.75A.44.44,0,0,0,265,151a1,1,0,0,1,1-.49.7.7,0,0,1-.1,1.35,1,1,0,0,1-.63-.09.87.87,0,0,0-.72-.07l-.76.16c-.7.14-1.4.31-2.1.42-.16,0-.19.1-.19.23a6.06,6.06,0,0,1-.18,1.8c0,.16,0,.2.15.24l.92.26a3.18,3.18,0,0,1,.33.1c.11.08.25.06.37.12l.51.15a.85.85,0,0,0,.68-.05,1,1,0,0,1,1.28.28.93.93,0,0,1,0,.8h0a1.81,1.81,0,0,1-.18.21,1,1,0,0,1-1.48-.51.45.45,0,0,0-.31-.29l-2.23-.77c-.15-.06-.22,0-.26.13a6.31,6.31,0,0,1-1.12,2,.19.19,0,0,0,0,.3c.48.48,1,1,1.43,1.46a.44.44,0,0,0,.33.13,1,1,0,0,1,.94.67.71.71,0,0,1-.36.76.69.69,0,0,1-.85-.17.9.9,0,0,1-.24-.66.54.54,0,0,0-.16-.42c-.44-.49-.88-1-1.31-1.49-.1-.12-.16-.16-.29,0a6.39,6.39,0,0,1-1.17.9c-.12.08-.12.15-.05.26a3.83,3.83,0,0,1,.25.44.51.51,0,0,0,.34.28,1.1,1.1,0,0,1,.64.46.77.77,0,0,1-.77,1.24.75.75,0,0,1-.62-.66,1.19,1.19,0,0,1,.07-.81c.08-.16,0-.28-.09-.4-.23-.52-.23-.52-.75-.31-.21.08-.43.17-.65.23s-.21.11-.17.28q.41,1.54.78,3.09a.92.92,0,0,0,.4.63.87.87,0,0,1,.4.61.7.7,0,0,1-.62.83.72.72,0,0,1-.77-.69.83.83,0,0,1,.08-.47c.24-.34.11-.68,0-1-.19-.94-.39-1.89-.57-2.83,0-.21-.12-.3-.34-.25a3.66,3.66,0,0,1-1,.09c-.15,0-.22.05-.22.22l0,3.49a.37.37,0,0,0,.13.28,1.09,1.09,0,0,1,.31.78.69.69,0,1,1-1.38,0,1,1,0,0,1,.31-.72.55.55,0,0,0,.16-.38c.07-1.14.15-2.27.23-3.4,0-.18,0-.27-.22-.27a3.74,3.74,0,0,1-.88-.13c-.17-.05-.27,0-.31.17a1,1,0,0,1-.08.28.67.67,0,0,0,0,.63,1.1,1.1,0,0,1,.09.74.74.74,0,0,1-.58.63.77.77,0,0,1-.89-.39.86.86,0,0,1,0-.75,1.25,1.25,0,0,1,.69-.61c.19-.07.18-.25.23-.4.16-.46.16-.46-.28-.63a6.26,6.26,0,0,1-1.41-.78c-.13-.09-.21-.11-.34,0-.73.73-1.47,1.44-2.21,2.16a.31.31,0,0,0-.09.26,1.23,1.23,0,0,1-.28.74.7.7,0,0,1-1,.06.69.69,0,0,1,.05-1,1.06,1.06,0,0,1,.69-.26A.54.54,0,0,0,248,160l2.23-2c.15-.13.14-.21,0-.34a6,6,0,0,1-1.16-1.4c-.07-.11-.15-.15-.26-.08-.29.18-.6.29-.72.69a.9.9,0,0,1-.78.66.77.77,0,0,1-.43-1.47,1.3,1.3,0,0,1,1,0,1.36,1.36,0,0,0,.85-.26c.06-.09,0-.14,0-.2a4.34,4.34,0,0,1-.35-.93c0-.2-.14-.28-.35-.2a2,2,0,0,1-.26.06l-1.08.27-1.86.48a.4.4,0,0,0-.27.2,1.16,1.16,0,0,1-.61.5.67.67,0,0,1-.74-.16.66.66,0,0,1-.18-.69.67.67,0,0,1,.58-.49.82.82,0,0,1,.58.08,1,1,0,0,0,.82.07l2.94-.59c.21,0,.29-.1.24-.36a6,6,0,0,1,.09-2.63c0-.17,0-.24-.15-.28l-2.06-.6a.5.5,0,0,0-.41,0,1.2,1.2,0,0,1-1,.09.75.75,0,0,1-.45-1.05.77.77,0,0,1,1.08-.36,1.21,1.21,0,0,1,.62.64.32.32,0,0,0,.24.22l1.36.48C247.67,150.44,247.81,150.45,247.93,150.5Z"/><path class="cls-18" d="M249.66,149.79a.84.84,0,1,1,1.68,0,.83.83,0,0,1-.84.83A.82.82,0,0,1,249.66,149.79Z"/><path class="cls-18" d="M255.47,157.31a.84.84,0,1,1,1.68,0,.84.84,0,0,1-1.68,0Z"/><path class="cls-18" d="M256.33,150.16a.84.84,0,1,1,1.68,0,.84.84,0,0,1-1.68,0Z"/><path class="cls-18" d="M250.79,155.34a2.34,2.34,0,1,1,4.68,0,2.34,2.34,0,0,1-4.68,0Z"/><path class="cls-18" d="M256.54,154.9a1.34,1.34,0,0,1,1.34-1.34,1.32,1.32,0,0,1,1.3,1.32,1.32,1.32,0,0,1-2.64,0Z"/><path class="cls-18" d="M251.22,148.23a.38.38,0,0,1,.37-.37.36.36,0,0,1,.36.37.35.35,0,0,1-.36.36A.36.36,0,0,1,251.22,148.23Z"/><path class="cls-2" d="M274.9,182.2c.58.22.57.22.81-.35a7.92,7.92,0,0,1,1.73-2.62c.15-.15.19-.25,0-.42-.94-.94-1.86-1.89-2.78-2.85a.83.83,0,0,0-.63-.29,1.09,1.09,0,0,1-1-.62.85.85,0,0,1,1.47-.86,1.41,1.41,0,0,1,.28.84.68.68,0,0,0,.19.47c.9,1,1.8,2,2.7,3.06.14.17.25.19.42,0a5.82,5.82,0,0,1,.47-.36c.09-.09.24-.1.32-.21.35-.14.34-.33.15-.62a1.32,1.32,0,0,0-.72-.65,1.15,1.15,0,0,1-.82-.95.92.92,0,0,1,.81-1.09,1,1,0,0,1,1.1.85,1.59,1.59,0,0,1-.08.94,1.5,1.5,0,0,0,.36,1c.1,0,.18,0,.28-.06a7.12,7.12,0,0,1,1.75-.55c.26,0,.27-.15.21-.36-.2-.75-.39-1.5-.59-2.26-.14-.22-.09-.5-.19-.73s-.11-.43-.15-.64a.54.54,0,0,0-.26-.35,1.18,1.18,0,0,1-.62-1.21.84.84,0,0,1,1.66.1,1.56,1.56,0,0,1-.18.89c-.18.34,0,.68.07,1s.08.63.19.93c.15.77.3,1.53.44,2.3a.22.22,0,0,0,.28.2,7.46,7.46,0,0,1,2.74.21c.17,0,.24,0,.28-.18s.12-.46.19-.7a.26.26,0,0,0-.05-.24,1.67,1.67,0,0,1-.2-1.07.89.89,0,0,1,.63-.81.86.86,0,0,1,.95.19.91.91,0,0,1,.27,1,1.4,1.4,0,0,1-.7.84.79.79,0,0,0-.5.58,3.16,3.16,0,0,1-.16.43c-.11.17,0,.18.13.22l.86.37.06,0c.56.24.57.24.89-.3.64-1.06,1.27-2.13,1.9-3.19a.69.69,0,0,0,.09-.56,1.18,1.18,0,0,1,.5-1.29.86.86,0,0,1,1.06,1.31,1,1,0,0,1-.55.41,1.22,1.22,0,0,0-.78.64c-.1.08-.12.22-.21.32-.61.92-1.21,1.85-1.84,2.76-.18.27-.21.43.1.62a4.12,4.12,0,0,1,.87.75c.12.14.22.13.35,0l3-3a.67.67,0,0,0,.18-.44,1.21,1.21,0,0,1,.67-1.09.82.82,0,0,1,1.07.37.87.87,0,0,1-.28,1.14,1.28,1.28,0,0,1-.74.24.66.66,0,0,0-.5.18l-3.19,2.8c-.15.14-.17.23,0,.39a4.84,4.84,0,0,1,.71,1c0,.08.08.17.19.08h0a1.18,1.18,0,0,0,.4-.21,1.44,1.44,0,0,0,.69-.8,1.09,1.09,0,0,1,1.1-.75.92.92,0,0,1,.89.69.94.94,0,0,1-.46,1.07,1.25,1.25,0,0,1-1.14.11.82.82,0,0,0-.76.07c-.57.29-.57.28-.34.86a7.23,7.23,0,0,1,.5,1.89c0,.23.07.32.35.25,1.19-.33,2.4-.63,3.6-.93a.54.54,0,0,0,.37-.27,1.19,1.19,0,0,1,1.28-.6.86.86,0,0,1-.13,1.66,1.14,1.14,0,0,1-.77-.11,1.11,1.11,0,0,0-.87-.09l-.94.2c-.86.17-1.71.38-2.58.52-.19,0-.23.11-.23.28a7.83,7.83,0,0,1-.22,2.21c0,.19,0,.25.18.29l1.13.32c.14.05.28.06.41.12s.31.08.45.15.42.11.63.18a1.07,1.07,0,0,0,.84,0,1.22,1.22,0,0,1,1.56.33,1.11,1.11,0,0,1,0,1h0a2.52,2.52,0,0,1-.21.25,1.24,1.24,0,0,1-1.82-.62.59.59,0,0,0-.38-.36c-.92-.3-1.83-.62-2.74-.94-.18-.07-.26,0-.32.16a7.63,7.63,0,0,1-1.38,2.45c-.12.14-.1.23,0,.36.59.59,1.17,1.19,1.75,1.79a.57.57,0,0,0,.41.16,1.18,1.18,0,0,1,1.15.82.86.86,0,0,1-.44.94.87.87,0,0,1-1-.21,1.18,1.18,0,0,1-.29-.82.63.63,0,0,0-.2-.5c-.53-.61-1.07-1.22-1.6-1.84-.12-.14-.2-.19-.36,0a7.26,7.26,0,0,1-1.43,1.1c-.15.09-.15.18-.07.32a5,5,0,0,1,.31.54.58.58,0,0,0,.42.34,1.45,1.45,0,0,1,.79.56,1,1,0,0,1,.05,1.12,1,1,0,0,1-1.77-.39,1.56,1.56,0,0,1,.09-1c.1-.19,0-.34-.1-.5-.29-.64-.29-.63-.92-.38a4.86,4.86,0,0,1-.81.28c-.21.06-.25.15-.2.35.33,1.26.65,2.53,1,3.8a1.05,1.05,0,0,0,.49.76,1,1,0,0,1,.48.76.84.84,0,0,1-.75,1,.89.89,0,0,1-.95-.84.9.9,0,0,1,.1-.57,1.49,1.49,0,0,0,.06-1.27c-.23-1.16-.48-2.32-.7-3.48-.05-.26-.15-.36-.42-.3a4.92,4.92,0,0,1-1.21.11c-.19,0-.28.06-.28.26,0,1.43,0,2.86,0,4.29a.44.44,0,0,0,.16.34,1.37,1.37,0,0,1,.38,1,.85.85,0,1,1-1.69,0,1.23,1.23,0,0,1,.38-.88.67.67,0,0,0,.2-.47c.08-1.39.18-2.78.28-4.17,0-.22,0-.32-.28-.32a4.34,4.34,0,0,1-1.07-.17c-.21-.06-.34,0-.38.21a1.91,1.91,0,0,1-.1.34.84.84,0,0,0,.06.78,1.32,1.32,0,0,1,.1.9.9.9,0,0,1-.7.78.94.94,0,0,1-1.09-.48,1,1,0,0,1,0-.92,1.58,1.58,0,0,1,.84-.75c.23-.08.23-.31.29-.49.19-.56.19-.57-.35-.78a7.3,7.3,0,0,1-1.73-1c-.16-.11-.26-.14-.41,0l-2.72,2.64a.44.44,0,0,0-.11.33,1.47,1.47,0,0,1-.34.9.86.86,0,0,1-1.28.07.84.84,0,0,1,.07-1.25,1.26,1.26,0,0,1,.85-.31.68.68,0,0,0,.47-.19c.91-.8,1.82-1.61,2.74-2.4.18-.16.17-.26,0-.41a7.4,7.4,0,0,1-1.43-1.72c-.08-.14-.18-.18-.32-.09-.35.21-.74.34-.88.84a1.13,1.13,0,0,1-.95.81,1,1,0,0,1-1-.64.94.94,0,0,1,.5-1.16,1.57,1.57,0,0,1,1.22,0,1.7,1.7,0,0,0,1-.33c.07-.1,0-.17,0-.24a6.52,6.52,0,0,1-.43-1.14c-.05-.25-.17-.35-.42-.25a3,3,0,0,1-.32.08c-.44.09-.88.22-1.32.33l-2.3.59a.46.46,0,0,0-.32.24,1.42,1.42,0,0,1-.75.61.85.85,0,0,1-1.12-1,.8.8,0,0,1,.71-.6,1,1,0,0,1,.7.1,1.16,1.16,0,0,0,1,.08l3.61-.72c.25,0,.35-.12.29-.43a7.54,7.54,0,0,1,.11-3.24c.06-.21,0-.29-.18-.35l-2.53-.73a.59.59,0,0,0-.5.06,1.52,1.52,0,0,1-1.18.1.92.92,0,0,1-.56-1.28,1,1,0,0,1,1.33-.45,1.47,1.47,0,0,1,.76.79.41.41,0,0,0,.3.27l1.67.59A4,4,0,0,1,274.9,182.2Z"/><path class="cls-18" d="M277,181.32a1.06,1.06,0,0,1,1.05-1,1,1,0,0,1,1,1,1,1,0,0,1-2.07,0Z"/><path class="cls-18" d="M284.15,190.56a1,1,0,1,1,2.07,0,1,1,0,0,1-1,1A1,1,0,0,1,284.15,190.56Z"/><path class="cls-18" d="M285.21,181.78a1,1,0,1,1,2.06,0,1,1,0,0,1-2.06,0Z"/><path class="cls-18" d="M278.41,188.13a2.88,2.88,0,1,1,5.75,0,2.88,2.88,0,0,1-5.75,0Z"/><path class="cls-18" d="M285.47,187.59a1.64,1.64,0,0,1,1.64-1.64,1.61,1.61,0,0,1,1.6,1.62,1.58,1.58,0,0,1-1.61,1.6A1.59,1.59,0,0,1,285.47,187.59Z"/><path class="cls-18" d="M278.94,179.41a.46.46,0,0,1,.46-.46.45.45,0,0,1,.44.45.44.44,0,0,1-.45.45A.45.45,0,0,1,278.94,179.41Z"/><path class="cls-2" d="M325.46,161.62c.58.23.57.23.81-.34a8.08,8.08,0,0,1,1.73-2.62c.15-.15.19-.25,0-.42l-2.78-2.85a.83.83,0,0,0-.63-.29,1.11,1.11,0,0,1-1-.62.86.86,0,0,1,1.47-.86,1.34,1.34,0,0,1,.28.83.66.66,0,0,0,.2.47c.9,1,1.8,2,2.69,3.07.15.17.26.19.42,0s.32-.24.47-.36.24-.1.32-.21c.35-.14.34-.33.15-.62a1.3,1.3,0,0,0-.72-.66,1.14,1.14,0,0,1-.82-.95.92.92,0,0,1,.81-1.08,1,1,0,0,1,1.1.85,1.6,1.6,0,0,1-.08.94,1.52,1.52,0,0,0,.36,1c.1,0,.19,0,.28-.06a7.26,7.26,0,0,1,1.75-.55c.26,0,.27-.15.21-.36-.2-.75-.39-1.51-.58-2.26-.15-.22-.1-.5-.2-.74s-.11-.42-.15-.63a.5.5,0,0,0-.25-.35,1.19,1.19,0,0,1-.63-1.21.84.84,0,0,1,1.66.1,1.56,1.56,0,0,1-.18.89c-.18.34,0,.68.07,1s.09.63.19.93l.45,2.29c0,.15.1.22.27.2a7.66,7.66,0,0,1,2.74.22.21.21,0,0,0,.29-.18l.18-.7a.26.26,0,0,0,0-.24,1.68,1.68,0,0,1-.21-1.07.9.9,0,0,1,.63-.81.85.85,0,0,1,.95.19.91.91,0,0,1,.27,1,1.4,1.4,0,0,1-.7.84.77.77,0,0,0-.5.58,2.23,2.23,0,0,1-.16.43c-.1.16,0,.18.13.22l.86.37.06,0c.57.25.57.25.89-.29l1.91-3.19a.65.65,0,0,0,.08-.56,1.17,1.17,0,0,1,.5-1.29.9.9,0,0,1,1.05.21.89.89,0,0,1,0,1.09,1,1,0,0,1-.54.41,1.2,1.2,0,0,0-.78.64c-.11.09-.12.23-.22.32-.61.93-1.21,1.86-1.83,2.77-.19.27-.22.43.09.62a3.88,3.88,0,0,1,.87.75c.12.13.22.13.35,0l3.05-3a.66.66,0,0,0,.17-.44,1.19,1.19,0,0,1,.67-1.09.82.82,0,0,1,1.07.37.85.85,0,0,1-.27,1.13,1.27,1.27,0,0,1-.74.25.67.67,0,0,0-.51.18l-3.19,2.8c-.15.13-.16.23,0,.39a4.8,4.8,0,0,1,.7,1c0,.08.08.17.19.07h0a1,1,0,0,0,.39-.2,1.46,1.46,0,0,0,.69-.81,1.12,1.12,0,0,1,1.1-.75.93.93,0,0,1,.89.7.94.94,0,0,1-.46,1.07,1.28,1.28,0,0,1-1.14.11.82.82,0,0,0-.76.07c-.57.29-.57.28-.34.85a6.92,6.92,0,0,1,.5,1.9c0,.23.08.32.35.24,1.2-.32,2.4-.62,3.6-.92a.52.52,0,0,0,.37-.27,1.19,1.19,0,0,1,1.28-.6.85.85,0,0,1-.12,1.65,1.07,1.07,0,0,1-.77-.1,1.09,1.09,0,0,0-.88-.09l-.94.2c-.86.17-1.71.37-2.58.51-.19,0-.23.12-.22.29a7.77,7.77,0,0,1-.23,2.2c0,.2,0,.25.18.3l1.13.32a2.77,2.77,0,0,1,.41.12c.13.1.31.08.45.15s.43.11.63.18a1.08,1.08,0,0,0,.84-.06,1.23,1.23,0,0,1,1.56.34,1.08,1.08,0,0,1,0,1h0a2.52,2.52,0,0,1-.21.25,1.22,1.22,0,0,1-1.81-.62.63.63,0,0,0-.39-.36c-.91-.31-1.83-.62-2.73-.95-.19-.06-.27,0-.32.16a7.63,7.63,0,0,1-1.39,2.45.24.24,0,0,0,0,.37c.59.59,1.17,1.19,1.75,1.79a.57.57,0,0,0,.41.16,1.16,1.16,0,0,1,1.15.82.85.85,0,0,1-1.48.73,1.14,1.14,0,0,1-.3-.82.69.69,0,0,0-.19-.51c-.54-.6-1.08-1.21-1.61-1.83-.12-.14-.2-.19-.36,0a7.35,7.35,0,0,1-1.43,1.1c-.15.09-.15.18-.06.32a4.68,4.68,0,0,1,.3.54.6.6,0,0,0,.42.34,1.4,1.4,0,0,1,.79.56,1,1,0,0,1,.05,1.12,1,1,0,0,1-1,.41,1,1,0,0,1-.76-.81,1.47,1.47,0,0,1,.08-1c.1-.2,0-.35-.1-.5-.28-.64-.29-.63-.92-.38a7.58,7.58,0,0,1-.8.28c-.22.05-.26.14-.21.35.33,1.26.65,2.53,1,3.79a1.08,1.08,0,0,0,.49.77,1,1,0,0,1,.48.76.84.84,0,0,1-.75,1,.89.89,0,0,1-.95-.84,1,1,0,0,1,.1-.58c.3-.42.14-.84.06-1.26-.23-1.16-.48-2.32-.7-3.49-.05-.25-.15-.36-.41-.3a4.56,4.56,0,0,1-1.22.12c-.19,0-.28,0-.28.26q0,2.15,0,4.29a.48.48,0,0,0,.16.34,1.37,1.37,0,0,1,.38,1,.85.85,0,1,1-1.69,0,1.21,1.21,0,0,1,.38-.88.65.65,0,0,0,.2-.47c.09-1.39.18-2.78.28-4.17,0-.23,0-.33-.28-.33a4.33,4.33,0,0,1-1.07-.16c-.21-.06-.34,0-.38.21a2.19,2.19,0,0,1-.1.34.84.84,0,0,0,.06.78,1.32,1.32,0,0,1,.11.9.92.92,0,0,1-.71.78A1,1,0,0,1,330,175a1,1,0,0,1,0-.93,1.58,1.58,0,0,1,.84-.75c.23-.08.22-.3.28-.48.19-.56.19-.57-.35-.78a7.39,7.39,0,0,1-1.72-.95c-.16-.11-.27-.14-.42,0L326,173.72a.39.39,0,0,0-.12.32,1.5,1.5,0,0,1-.34.91.85.85,0,1,1-1.21-1.19,1.31,1.31,0,0,1,.85-.31.66.66,0,0,0,.47-.18l2.74-2.4c.18-.16.17-.26,0-.41a7.57,7.57,0,0,1-1.42-1.72c-.09-.14-.19-.18-.33-.1-.35.22-.73.35-.87.85a1.11,1.11,0,0,1-1,.8.95.95,0,0,1-.54-1.79,1.57,1.57,0,0,1,1.22-.06,1.67,1.67,0,0,0,1-.32c.08-.1,0-.17,0-.24a6.48,6.48,0,0,1-.42-1.14c-.06-.25-.17-.35-.43-.25a3,3,0,0,1-.32.08c-.44.09-.88.22-1.32.32l-2.29.6a.48.48,0,0,0-.33.24,1.42,1.42,0,0,1-.75.61.81.81,0,0,1-.91-.19.79.79,0,0,1-.21-.85.81.81,0,0,1,.71-.6.93.93,0,0,1,.7.1,1.16,1.16,0,0,0,1,.08l3.62-.72c.25,0,.34-.12.28-.44a7.34,7.34,0,0,1,.12-3.23c.05-.21,0-.29-.19-.35l-2.53-.73a.56.56,0,0,0-.5.05,1.48,1.48,0,0,1-1.18.11.93.93,0,0,1-.55-1.29,1,1,0,0,1,1.33-.44,1.45,1.45,0,0,1,.75.79.43.43,0,0,0,.3.27c.56.18,1.12.39,1.67.59C325.15,161.55,325.32,161.55,325.46,161.62Z"/><path class="cls-18" d="M327.59,160.74a1,1,0,1,1,2.06,0,1,1,0,0,1-2.06,0Z"/><path class="cls-18" d="M334.71,170a1,1,0,0,1,1.05-1,1,1,0,0,1,1,1,1,1,0,0,1-2.07,0Z"/><path class="cls-18" d="M335.77,161.21a1,1,0,1,1,2.07,0,1,1,0,0,1-1,1A1,1,0,0,1,335.77,161.21Z"/><path class="cls-18" d="M329,167.56a2.91,2.91,0,0,1,2.91-2.91,2.88,2.88,0,0,1,2.84,2.88,2.88,2.88,0,0,1-5.75,0Z"/><path class="cls-18" d="M336,167a1.65,1.65,0,0,1,1.65-1.65,1.63,1.63,0,0,1,1.6,1.63,1.63,1.63,0,0,1-3.25,0Z"/><path class="cls-18" d="M329.5,158.84a.46.46,0,1,1,.45.44A.45.45,0,0,1,329.5,158.84Z"/><path class="cls-2" d="M313.75,195.2c.57.23.57.22.81-.35a7.77,7.77,0,0,1,1.73-2.62c.15-.15.19-.24,0-.42-.93-.94-1.85-1.89-2.77-2.85a.87.87,0,0,0-.63-.29,1.08,1.08,0,0,1-1-.62.85.85,0,0,1,.32-1.08.87.87,0,0,1,1.15.23,1.45,1.45,0,0,1,.28.83.68.68,0,0,0,.19.47l2.69,3.06c.15.17.26.19.43,0a4.1,4.1,0,0,1,.47-.35c.09-.1.24-.11.32-.22.35-.13.34-.33.14-.62a1.3,1.3,0,0,0-.71-.65,1.15,1.15,0,0,1-.82-.95.93.93,0,0,1,.8-1.09,1,1,0,0,1,1.1.85,1.59,1.59,0,0,1-.08.94,1.59,1.59,0,0,0,.36,1c.1.05.19,0,.28-.06a7.18,7.18,0,0,1,1.76-.54c.26-.05.26-.16.21-.36l-.59-2.27c-.15-.22-.09-.5-.19-.73s-.11-.43-.16-.64a.52.52,0,0,0-.25-.35,1.2,1.2,0,0,1-.63-1.21.84.84,0,0,1,1.67.1,1.62,1.62,0,0,1-.18.89c-.19.34,0,.68.07,1s.08.63.19.94c.15.76.29,1.52.44,2.29a.21.21,0,0,0,.27.2,7.51,7.51,0,0,1,2.75.21c.17,0,.24,0,.28-.18s.12-.46.19-.69a.28.28,0,0,0-.05-.25,1.66,1.66,0,0,1-.2-1.07.91.91,0,0,1,.63-.81.87.87,0,0,1,.95.19.94.94,0,0,1,.27,1,1.43,1.43,0,0,1-.71.83.77.77,0,0,0-.49.59c0,.14-.11.28-.16.43s0,.18.13.22l.86.37.06,0c.56.24.56.25.89-.3.63-1.06,1.26-2.13,1.9-3.19a.69.69,0,0,0,.09-.56,1.15,1.15,0,0,1,.49-1.28.86.86,0,0,1,1.06,1.3,1,1,0,0,1-.54.41,1.2,1.2,0,0,0-.78.64c-.1.08-.12.23-.21.32-.61.92-1.21,1.85-1.84,2.76-.18.27-.21.43.09.62a3.68,3.68,0,0,1,.87.75c.13.14.23.13.36,0q1.52-1.49,3-3a.63.63,0,0,0,.18-.44,1.17,1.17,0,0,1,.67-1.08.8.8,0,0,1,1.07.36.87.87,0,0,1-.28,1.14,1.31,1.31,0,0,1-.74.24.66.66,0,0,0-.5.18c-1.06.94-2.12,1.88-3.19,2.8-.16.14-.17.23,0,.4a4.2,4.2,0,0,1,.7,1c.05.09.09.17.19.08h0a1,1,0,0,0,.4-.21,1.44,1.44,0,0,0,.69-.8,1.09,1.09,0,0,1,1.09-.75.93.93,0,0,1,.9.69,1,1,0,0,1-.46,1.07,1.28,1.28,0,0,1-1.14.12.84.84,0,0,0-.77.06c-.57.29-.56.28-.34.86a7,7,0,0,1,.51,1.89c0,.23.07.32.35.25,1.19-.33,2.39-.63,3.6-.92a.55.55,0,0,0,.37-.28,1.17,1.17,0,0,1,1.27-.59.83.83,0,0,1,.6.91.82.82,0,0,1-.72.74,1.13,1.13,0,0,1-.77-.11,1.09,1.09,0,0,0-.88-.08c-.31.05-.62.12-.93.19-.86.17-1.72.38-2.58.52-.19,0-.24.12-.23.28a7.46,7.46,0,0,1-.23,2.21c-.05.2,0,.25.19.29l1.13.33a3.11,3.11,0,0,1,.41.11c.13.11.3.08.45.15l.63.18a1,1,0,0,0,.83,0,1.24,1.24,0,0,1,1.57.34,1.12,1.12,0,0,1,0,1h0a1.31,1.31,0,0,1-.22.25,1.22,1.22,0,0,1-1.81-.62.55.55,0,0,0-.38-.35l-2.74-.95c-.18-.07-.27,0-.32.16a7.71,7.71,0,0,1-1.38,2.45.23.23,0,0,0,0,.36l1.75,1.79a.58.58,0,0,0,.41.17,1.16,1.16,0,0,1,1.15.81.87.87,0,0,1-.44.94.85.85,0,0,1-1.05-.21,1.22,1.22,0,0,1-.3-.82.63.63,0,0,0-.19-.5c-.54-.61-1.07-1.22-1.6-1.84-.12-.14-.2-.19-.36,0a8.06,8.06,0,0,1-1.43,1.11c-.15.09-.15.18-.07.31a6,6,0,0,1,.31.55.59.59,0,0,0,.42.33,1.43,1.43,0,0,1,.78.57,1,1,0,1,1-1.71.72,1.56,1.56,0,0,1,.09-1c.1-.19,0-.34-.11-.49-.28-.64-.28-.64-.91-.39a6,6,0,0,1-.81.29c-.22,0-.26.14-.2.34l1,3.8a1.05,1.05,0,0,0,.49.76,1.09,1.09,0,0,1,.48.76.85.85,0,0,1-.75,1,.88.88,0,0,1-1-.84.84.84,0,0,1,.1-.57c.3-.42.13-.85.05-1.27-.22-1.16-.47-2.32-.69-3.48-.05-.26-.15-.36-.42-.3a4.92,4.92,0,0,1-1.21.11c-.19,0-.28.06-.28.27l0,4.28a.41.41,0,0,0,.16.34,1.37,1.37,0,0,1,.38,1,.82.82,0,0,1-.89.84.8.8,0,0,1-.8-.86,1.23,1.23,0,0,1,.38-.89.72.72,0,0,0,.2-.46c.08-1.4.17-2.79.27-4.18,0-.22,0-.32-.27-.32a4.27,4.27,0,0,1-1.07-.17c-.22-.06-.34,0-.38.21a2.3,2.3,0,0,1-.1.35.82.82,0,0,0,.06.77,1.32,1.32,0,0,1,.1.9.91.91,0,0,1-.7.79,1,1,0,0,1-1.09-.49,1,1,0,0,1,0-.92,1.55,1.55,0,0,1,.84-.75c.23-.08.23-.31.29-.49.19-.56.19-.57-.35-.77a8.08,8.08,0,0,1-1.73-1c-.16-.12-.26-.14-.42,0-.89.89-1.8,1.76-2.71,2.64a.45.45,0,0,0-.12.33,1.45,1.45,0,0,1-.33.91.87.87,0,0,1-1.29.06.85.85,0,0,1,.08-1.25,1.25,1.25,0,0,1,.84-.31.71.71,0,0,0,.48-.19l2.74-2.4c.18-.15.17-.25,0-.41a7.31,7.31,0,0,1-1.43-1.71c-.08-.15-.18-.19-.32-.1-.35.21-.74.35-.88.84a1.13,1.13,0,0,1-1,.81.95.95,0,0,1-.53-1.8,1.56,1.56,0,0,1,1.22,0,1.63,1.63,0,0,0,1-.33c.07-.1,0-.16,0-.24a6,6,0,0,1-.43-1.13c-.05-.26-.17-.36-.42-.26a2.14,2.14,0,0,1-.32.08c-.45.1-.88.23-1.33.33l-2.29.6a.44.44,0,0,0-.33.23,1.4,1.4,0,0,1-.75.62.82.82,0,0,1-.91-.2.8.8,0,0,1-.21-.84.82.82,0,0,1,.71-.61,1,1,0,0,1,.71.1,1.2,1.2,0,0,0,1,.09l3.61-.73c.25,0,.35-.12.29-.43a7.34,7.34,0,0,1,.11-3.23c.06-.22,0-.3-.19-.35l-2.52-.74a.59.59,0,0,0-.5.06,1.5,1.5,0,0,1-1.19.1.92.92,0,0,1-.55-1.28,1,1,0,0,1,1.33-.45,1.5,1.5,0,0,1,.76.79.42.42,0,0,0,.29.27c.57.19,1.12.39,1.68.59C313.44,195.12,313.6,195.13,313.75,195.2Z"/><path class="cls-18" d="M315.87,194.32a1.06,1.06,0,0,1,1.05-1,1,1,0,0,1,1,1,1,1,0,0,1-2.07,0Z"/><path class="cls-18" d="M323,203.56a1,1,0,1,1,2.07,0,1,1,0,0,1-2.07,0Z"/><path class="cls-18" d="M324.06,194.78a1,1,0,1,1,2.06,0,1,1,0,0,1-2.06,0Z"/><path class="cls-18" d="M317.26,201.13a2.88,2.88,0,1,1,5.75,0,2.88,2.88,0,0,1-5.75,0Z"/><path class="cls-18" d="M324.32,200.59a1.62,1.62,0,1,1,3.24,0,1.57,1.57,0,0,1-1.61,1.59A1.59,1.59,0,0,1,324.32,200.59Z"/><path class="cls-18" d="M317.79,192.41a.45.45,0,1,1,.9,0,.45.45,0,0,1-.9,0Z"/><path class="cls-19" d="M368.14,234.37l-1,.35c-5.26,1.93-10.33,4.06-15,4.67a93.2,93.2,0,0,0-10.83-14.46c-1.19-1.26,1.5-4.43,5.55-8.05l.81-.71C353.9,220.21,363.86,227.37,368.14,234.37Z"/><path class="cls-19" d="M384.89,225.16l-.91.67a70,70,0,0,1-11.84,6.87c-1.34.61-2.68,1.17-4,1.67-4.28-7-14.24-14.16-20.47-18.2,3.81-3.31,8.59-6.92,12.5-9.74l.55-.4C367.2,210.09,379.6,218.34,384.89,225.16Z"/><path class="cls-19" d="M391.71,219.38a73.16,73.16,0,0,1-6.82,5.78c-5.29-6.82-17.69-15.07-24.17-19.13,3.87-2.79,6.76-4.73,6.76-4.73A225,225,0,0,1,391.71,219.38Z"/></g></svg>