<svg xmlns="http://www.w3.org/2000/svg" viewBox="0 0 500 500"><defs><style>.cls-1{opacity:0.6;}.cls-2{fill:#fff;}.cls-3{fill:#ead0ce;}.cls-4{fill:none;stroke:#dd6876;stroke-linecap:round;stroke-miterlimit:10;stroke-width:3.21px;}.cls-5{fill:#1c3047;}.cls-6{fill:#2d2d2d;}.cls-10,.cls-7{fill:#dd6876;}.cls-8{fill:#57738d;}.cls-9{fill:#a0bad4;opacity:0.65;}.cls-10{opacity:0.5;}</style></defs><g id="FEBRE"><g class="cls-1"><path class="cls-2" d="M488.93,245.72,486.17,243a4,4,0,0,0-1.67-1.07,4.74,4.74,0,0,0-4,0,4,4,0,0,0-1.67,1.07l-.8,1a5.12,5.12,0,0,0-.71,2.61l.18,1.38a5.16,5.16,0,0,0,1.33,2.28l2.77,2.76a3.8,3.8,0,0,0,1.66,1.08,5.31,5.31,0,0,0,5.66-1.08l.81-1a5.22,5.22,0,0,0,.7-2.62l-.18-1.37a5.25,5.25,0,0,0-1.33-2.29Z"/></g></g><g id="TOSSE"><path id="face" class="cls-3" d="M422.3,263.62c0,23.3-19.66,42.2-44.11,42.61v3.52A128.08,128.08,0,0,1,250.11,437.84H236.26A120.68,120.68,0,0,1,115.57,317.15V306.23c-24.37-.5-43.92-19.37-43.92-42.61S91.2,221.51,115.57,221V131.88a23.7,23.7,0,0,1,23.69-23.7H354.51a23.69,23.69,0,0,1,23.68,23.7V221C402.64,221.42,422.3,240.32,422.3,263.62Z"/><path id="nariz-2" data-name="nariz" class="cls-4" d="M241.52,246.05v44.12s-18.69,8.32-14.74,18.36,14.74,12.29,14.74,12.29"/><path id="boca" class="cls-5" d="M225.05,378.57c2.37-14.38,11.51-24.91,22-24.89s19.52,10.63,21.89,24.89"/><path class="cls-6" d="M204.1,259.06a1.68,1.68,0,0,1-.71.64A3.9,3.9,0,0,0,204.1,259.06Z"/><path id="orelha" class="cls-7" d="M104.43,263.66c0,9.51,4.73,17.57,11.23,20.29v1c-12.42,0-22.48-9.52-22.48-21.31s10.06-21.32,22.48-21.32v1C109.16,246.09,104.43,254.15,104.43,263.66Z"/><path id="orelha-2" data-name="orelha" class="cls-7" d="M389.52,263.66c0,9.51-4.73,17.57-11.23,20.29v1c12.41,0,22.48-9.52,22.48-21.31s-10.07-21.32-22.48-21.32v1C384.79,246.09,389.52,254.15,389.52,263.66Z"/><path class="cls-3" d="M298.19,485.19a249.07,249.07,0,0,1-106.18-1c3.15-6.76,9-12.69,16.7-17.22h0l1.77-.16.59-.05.43,0,1.44-.1.28,0h.15l1.33-.07h0l1,0,.16,0,1.65-.06h.07v-30l54.25-.43h.34v30.36h1.62c1,0,2.09,0,3.13,0l1.6,0,1.66.05,1.05.6C289.21,471.8,295.21,478.06,298.19,485.19Z"/><path class="cls-5" d="M482.51,319.92A247.94,247.94,0,0,1,333.05,475.18a192,192,0,0,0-47.3-8c-1.2-.07-2.41-.11-3.63-.13-.3,0-.6,0-.89,0h-.12c-.33-.2-.66-.4-1-.58-.52,0-1.05-.06-1.59-.07l-1.6,0c-1.06,0-2.13,0-3.2,0h-1.61V436h-.27A128.06,128.06,0,0,0,378.12,309.76v-3.54c24.45-.39,44.11-19.29,44.11-42.59S402.57,221.41,378.12,221V131.87a20.3,20.3,0,0,0-.19-2.81c-1.34,12.92-7.63,23.38-17.78,27.22-13.3,5.06-29.14-2.72-39.56-18-1.11,15.53-9.59,29-23.26,34.21C277.41,180.1,254,167.16,245,143.63c-.35-.94-.68-1.9-1-2.84-5.95,16.38-19.87,27.89-36.12,27.89-17.83,0-32.86-13.81-37.6-32.73-7.27,19.19-22.73,31.43-37.61,28.4-7.19-1.47-13.1-6.29-17.2-13.16V221c-24.37.48-43.93,19.37-43.93,42.61s19.56,42.09,43.93,42.59v10.94A120.72,120.72,0,0,0,217.58,436.42h-.07v30l-1.65.05-.16,0-1,0h0l-1.33.07h-.15l-.28,0-1.44.1-.43,0-.59.05-1.78.17h-.05a.7.7,0,0,1-.17.09c-1.3,0-2.57.06-3.87.11l-2.34.09-3.32.21c-1.44.1-2.87.21-4.3.33a190.49,190.49,0,0,0-35.21,6.53c-1.15-.43-2.31-.89-3.45-1.35-.86-.34-1.72-.68-2.57-1s-1.83-.75-2.73-1.14c-3.07-1.3-6.1-2.65-9.09-4.08-.93-.44-1.84-.87-2.76-1.33q-4.44-2.17-8.78-4.51c-.94-.5-1.85-1-2.77-1.52s-1.74-1-2.6-1.47l-1.86-1.07-1.32-.77c-.85-.51-1.69-1-2.53-1.53s-1.82-1.11-2.72-1.68-1.81-1.13-2.71-1.72l-2.68-1.75-2.65-1.78-1.75-1.21c-.38-.25-.75-.52-1.12-.78L103,443.93c-.83-.6-1.65-1.19-2.47-1.8l-.25-.18c-1.67-1.24-3.32-2.49-5-3.77l-.17-.13-2.33-1.84q-2.49-2-4.93-4.06c-1.43-1.21-2.83-2.42-4.23-3.66-1-.91-2-1.82-3.06-2.75-.75-.68-1.49-1.37-2.23-2.07s-1.37-1.28-2-1.93l-.52-.5-2-2c-1.51-1.49-3-3-4.48-4.53-.71-.74-1.42-1.48-2.12-2.23a246,246,0,0,1-18-21.44c-.43-.58-.86-1.17-1.3-1.74q-3.11-4.24-6-8.63l-1.41-2.13c-.46-.7-.93-1.41-1.38-2.13s-.91-1.43-1.36-2.15-.91-1.43-1.35-2.16c-.59-1-1.18-1.94-1.76-2.92s-1.15-1.95-1.72-2.93c-.73-1.27-1.45-2.56-2.15-3.84s-1.39-2.53-2.07-3.81l0-.1c-.69-1.28-1.36-2.58-2-3.88-.58-1.13-1.14-2.26-1.69-3.4-.16-.3-.31-.62-.45-.93-.59-1.2-1.15-2.41-1.71-3.62s-1.23-2.69-1.82-4-1.19-2.71-1.75-4.07-1.14-2.74-1.69-4.11q5.88-7.65,11.42-16c28.6-43.25,36.5-82,38.55-93.4A236.29,236.29,0,0,0,71.21,187c.07-1.43.18-3.26.36-5.33,6.05-66.08,66.67-172,175.34-172,107.79,0,174.27,104.18,175.32,172.05,0,1.82,0,3.45,0,4.9,9.37,49.86,26.68,84.71,40.84,107.37C467.55,301.13,471.06,306,482.51,319.92Z"/><path id="cabelo_branco" data-name="cabelo branco" class="cls-8" d="M209.06,128.31c2.43,2.59,4.66,5.32,6.83,8.09,1.08,1.39,2.16,2.79,3.16,4.23a47.23,47.23,0,0,1,2.84,4.49l-.68.52a50.69,50.69,0,0,1-3.57-3.92c-1.14-1.35-2.2-2.76-3.26-4.17-2.1-2.83-4.15-5.7-6-8.71Z"/><path id="cabelo_branco-2" data-name="cabelo branco" class="cls-8" d="M200.82,128.17a48.93,48.93,0,0,1,3.63,3.87c1.14,1.34,2.24,2.7,3.29,4.11s2.08,2.82,3,4.32a24.8,24.8,0,0,1,2.31,4.81l-.7.5a24.91,24.91,0,0,1-3.79-3.75,51.78,51.78,0,0,1-3.12-4.23c-1-1.44-1.92-2.93-2.82-4.44a51,51,0,0,1-2.48-4.69Z"/><path id="cabelo_branco-3" data-name="cabelo branco" class="cls-8" d="M267,128.31c2.42,2.59,4.65,5.32,6.82,8.09,1.08,1.39,2.16,2.79,3.17,4.23a51.6,51.6,0,0,1,2.84,4.49l-.69.52a50.69,50.69,0,0,1-3.57-3.92c-1.14-1.35-2.2-2.76-3.25-4.17-2.11-2.83-4.15-5.7-6-8.71Z"/><path id="cabelo_branco-4" data-name="cabelo branco" class="cls-8" d="M258.72,128.17a52.94,52.94,0,0,1,3.63,3.87c1.13,1.34,2.23,2.7,3.28,4.11a51,51,0,0,1,3,4.32,24.8,24.8,0,0,1,2.31,4.81l-.69.5a25.45,25.45,0,0,1-3.8-3.75,51.78,51.78,0,0,1-3.12-4.23c-1-1.44-1.92-2.93-2.82-4.44a50.94,50.94,0,0,1-2.47-4.69Z"/><path id="sobra" class="cls-5" d="M159.82,235.8A55.88,55.88,0,0,0,175.24,243a47.92,47.92,0,0,0,16.89,1.89,41.75,41.75,0,0,0,16.32-4.77,53,53,0,0,0,13.37-10.47.93.93,0,0,0,0-1.3.92.92,0,0,0-1-.15l-.3.16A118.23,118.23,0,0,1,205.74,235c-1.2.36-2.35.81-3.56,1.05s-2.34.63-3.52.87-2.36.39-3.54.51-2.36.27-3.54.36a93.33,93.33,0,0,1-14.56-.91c-5.07-.61-10.26-1.7-16.08-2.6l-.49-.07a.88.88,0,0,0-1,.74A.91.91,0,0,0,159.82,235.8Z"/><path id="sobra-2" data-name="sobra" class="cls-5" d="M261,231.46a55.85,55.85,0,0,0,14.28,9.22,48.29,48.29,0,0,0,16.46,4.21,42.1,42.1,0,0,0,16.83-2.47,52.91,52.91,0,0,0,14.69-8.53.92.92,0,0,0-.88-1.58l-.32.11A118.2,118.2,0,0,1,306.6,237a36.09,36.09,0,0,1-3.67.54c-1.21.18-2.41.31-3.61.38s-2.39.07-3.58,0-2.37-.06-3.55-.13a93.59,93.59,0,0,1-14.3-2.92c-4.93-1.3-9.92-3.1-15.57-4.8l-.46-.14a.89.89,0,0,0-.85,1.51Z"/><path class="cls-5" d="M204.16,259.69s0,0,0,0a.42.42,0,0,1,0,.15l0,0a3.9,3.9,0,0,1-.71.64c-7.17,5.27-21.89,8.28-25.94,9.08l-1.61.32a1.75,1.75,0,0,1,0-.94c.39-1.36,2.53-1.85,3.29-2,5.5-1.29,10.76-3.38,16.15-5H177.67c-3.26-.46-5.54-1.15-6.11-1.92-.43-.56,0-1.09,1.12-1.56-11.67-.08-17.91-2.31-18.09-2.42l.42.14c2.18.86,27.94.6,27.94.6s2.26-.05,5-.05c1.9,0,4,0,5.72.11,4.84.26,9.23,1.17,10.27,2.21A.75.75,0,0,1,204.16,259.69Z"/><path class="cls-6" d="M204.12,259a.42.42,0,0,0,0-.15S204.16,259,204.12,259Z"/><path class="cls-5" d="M285.82,259.69s0,0,0,0a.42.42,0,0,0,0,.15l0,0a4.4,4.4,0,0,0,.72.64c7.16,5.27,21.89,8.28,25.94,9.08l1.6.32a1.75,1.75,0,0,0,0-.94c-.38-1.36-2.53-1.85-3.28-2-5.5-1.29-10.77-3.38-16.15-5h17.61c3.26-.46,5.53-1.15,6.11-1.92.42-.56,0-1.09-1.12-1.56,11.67-.08,17.9-2.31,18.08-2.42a3.16,3.16,0,0,0-.41.14c-2.19.86-28,.6-28,.6s-2.26-.05-5-.05c-1.89,0-4,0-5.72.11-4.84.26-9.23,1.17-10.26,2.21A.74.74,0,0,0,285.82,259.69Z"/><path class="cls-5" d="M227.21,221.23s7.26,10.39,0,15.28"/><path class="cls-5" d="M257.26,221.23s-7.26,10.39,0,15.28"/><path class="cls-9" d="M137.75,389.62c-9.13,4-18.31,13.27-20.57,20.74s2.67,12.29,11,10.8c5.26-.94,11.24-4,17-6.91L203,384.67c-22-4.49-31.54-9-65.29,4.95"/><path class="cls-9" d="M234.13,460.45c1.57,8.38,9.32,15.69,17.39,16.39a15.71,15.71,0,0,0,16.66-13.44c.73-5.12-.76-10.52-2.24-15.72l-14.85-52.14c-13,23.18-21.74,33.78-17,64.91"/><path class="cls-9" d="M355.41,385.38c7.59,4.32,13.48,13.85,13.2,21.36s-6.7,12.11-14.39,10.33c-4.83-1.12-9.67-4.35-14.32-7.49l-46.66-31.49c23-3.67,33.84-7.84,62.17,7.29"/><ellipse class="cls-10" cx="247.91" cy="292.72" rx="105.65" ry="14.24"/></g></svg>