<svg xmlns="http://www.w3.org/2000/svg" viewBox="0 0 500 500"><defs><style>.cls-1{fill:#ead0ce;}.cls-2{fill:#ffc759;}.cls-3{fill:none;stroke:#dd6876;stroke-linecap:round;stroke-miterlimit:10;stroke-width:3.36px;}.cls-4{fill:#1c3047;}.cls-5,.cls-6{fill:#dd6876;}.cls-6{opacity:0.5;}.cls-7{fill:#3d5174;}</style></defs><g id="dor_pescoço" data-name="dor pescoço"><path class="cls-1" d="M115,59.65S90.1,80.07,79.39,92.06a42.71,42.71,0,0,0-1.5,11.21c0,24.31,20.47,44.07,46,44.59v11.43A126.34,126.34,0,0,0,230.7,284.12l56.8-.45h0A134.09,134.09,0,0,0,398.75,151.55v-3.69c21.65-.36,39.71-14.59,44.76-33.73h0A232.5,232.5,0,0,0,123.87,53.43Z"/><path class="cls-2" d="M442.1,381.61a233.53,233.53,0,0,1-67.32,63.06l0,0a232.57,232.57,0,0,1-248.55-2.83l0,0a234,234,0,0,1-56.85-52.21A202,202,0,0,1,206.73,317c4.77-.43,9.61-.7,14.47-.79,1.24,0,2.47,0,3.72,0h68.6c1.25,0,2.49,0,3.74,0,1.6,0,3.2.07,4.79.15A201.48,201.48,0,0,1,442.1,381.61Z"/><path id="nariz" class="cls-3" d="M255.69,84.87v46.18s-19.56,8.7-15.42,19.22,15.42,12.87,15.42,12.87"/><g id="boca"><path class="cls-4" d="M238.45,223.57a31.07,31.07,0,0,1,4.72-19,25.09,25.09,0,0,1,7.44-7.58c.39-.25.78-.5,1.18-.74s.84-.41,1.26-.62.85-.42,1.3-.57l1.35-.47a17.64,17.64,0,0,1,2.81-.65c.95-.17,1.92-.17,2.89-.25s1.94.1,2.89.24l1.42.29.71.14.68.22a18,18,0,0,1,2.65,1.05l1.26.62c.4.24.79.48,1.18.74a25,25,0,0,1,7.45,7.58,30.93,30.93,0,0,1,4.71,19c-2.65-5.87-5.64-11.18-9.55-15.32s-8.65-6.83-13.4-6.84-9.55,2.68-13.41,6.83S241.1,217.7,238.45,223.57Z"/></g><path class="cls-4" d="M337.15,77.76a31.37,31.37,0,0,1,1.16,12.31,26.82,26.82,0,0,1-4.88,13.23H309.24c-3.81-5.14-5.86-12.68-4.79-20.82S310.14,67,315.2,65a17.06,17.06,0,0,1,6-.92,32.64,32.64,0,0,1,5.16.42s27,2.08,29.25-4.65a9.64,9.64,0,0,1,.44-1.17C355.87,59.58,349.35,77.12,337.15,77.76Z"/><path class="cls-4" d="M210,103.3H188.86a26,26,0,0,1-6.4-15.06,31.37,31.37,0,0,1,1.17-12.31c-12.21-.65-18.73-18.18-18.92-19.05a11.3,11.3,0,0,1,.44,1.16c2.28,6.73,29.24,4.65,29.24,4.65a33.28,33.28,0,0,1,5.19-.42,16.82,16.82,0,0,1,6,.92c5.07,2,9.67,9.18,10.75,17.46C217.53,89.82,214.78,98.24,210,103.3Z"/><path id="orelha" class="cls-5" d="M112.21,103.3c0,10,4.94,18.39,11.75,21.24v1.07c-13,0-23.53-10-23.53-22.31S111,81,124,81v1.07C117.15,84.91,112.21,93.35,112.21,103.3Z"/><path id="orelha-2" data-name="orelha" class="cls-5" d="M410.6,103.3c0,10-5,18.39-11.75,21.24v1.07c13,0,23.53-10,23.53-22.31S411.84,81,398.85,81v1.07C405.65,84.91,410.6,93.35,410.6,103.3Z"/><path id="pescoço" class="cls-1" d="M287.79,283.67v31.78h1.68c2.23,0,4.48,0,6.7.13,12.86,7.24,21.06,18.2,21.06,30.48,0,21.78-26,39.49-58,39.49s-58-17.71-58-39.49c0-12,7.84-22.72,20.19-29.95,3.07-.31,6.15-.51,9.26-.59v-31.4Z"/><path id="sobra" class="cls-4" d="M171.76,43a58.53,58.53,0,0,0,16.14,7.49,50.2,50.2,0,0,0,17.67,2,44,44,0,0,0,17.09-5,55.39,55.39,0,0,0,14-11A1,1,0,0,0,235.51,35l-.31.16a123.29,123.29,0,0,1-15.38,7,38.7,38.7,0,0,1-3.73,1.1c-1.22.36-2.45.66-3.68.91s-2.47.41-3.71.54-2.46.28-3.7.37a96,96,0,0,1-15.24-1c-5.3-.64-10.74-1.77-16.84-2.72l-.5-.08a.93.93,0,0,0-.66,1.69Z"/><path id="sobra-2" data-name="sobra" class="cls-4" d="M277.67,38.43a58.49,58.49,0,0,0,14.95,9.65,50.23,50.23,0,0,0,17.23,4.4,43.79,43.79,0,0,0,17.61-2.58A55.32,55.32,0,0,0,342.83,41a1,1,0,0,0-.92-1.66l-.33.12a124.36,124.36,0,0,1-16.19,4.79c-1.3.2-2.56.5-3.85.57s-2.51.31-3.77.39-2.5.07-3.74,0-2.49-.06-3.72-.14a96.38,96.38,0,0,1-15-3.06c-5.16-1.36-10.38-3.23-16.29-5l-.49-.15a.93.93,0,0,0-1.16.62A.92.92,0,0,0,277.67,38.43Z"/><path id="cabelo_branco" data-name="cabelo branco" class="cls-6" d="M303.56,106.54c6.29-.68,12.84-1.07,19.47-1.37,3.31-.15,6.64-.29,10.06-.31s6.87,0,10.49.18l.9,1c-3.05.45-6.27.71-9.52.93s-6.59.34-9.94.44c-6.72.2-13.51.31-20.56.13Z"/><path id="cabelo_branco-2" data-name="cabelo branco" class="cls-6" d="M300.67,114.67c3-.48,6.21-.76,9.42-1s6.5-.41,9.84-.51,6.69-.18,10.2-.07a91.35,91.35,0,0,1,11,.93l.85,1a56.79,56.79,0,0,1-9.22,1.27c-3.23.22-6.63.25-10,.26s-6.88,0-10.4-.17-7.1-.32-10.82-.68Z"/><path id="cabelo_branco-3" data-name="cabelo branco" class="cls-6" d="M179.4,106.54c6.29-.68,12.84-1.07,19.47-1.37,3.32-.15,6.64-.29,10.06-.31s6.87,0,10.49.18l.91,1c-3.06.45-6.27.71-9.52.93s-6.6.34-9.95.44c-6.72.2-13.51.31-20.56.13Z"/><path id="cabelo_branco-4" data-name="cabelo branco" class="cls-6" d="M176.51,114.67c3-.48,6.21-.76,9.42-1s6.5-.41,9.84-.51,6.69-.18,10.2-.07a91.18,91.18,0,0,1,11,.93l.85,1a56.64,56.64,0,0,1-9.22,1.27c-3.23.22-6.63.25-10,.26s-6.88,0-10.4-.17-7.1-.32-10.82-.68Z"/><ellipse class="cls-6" cx="257.41" cy="147.52" rx="24.2" ry="17.47"/><path class="cls-7" d="M419,296.54l8,6.6,2.81,2.3A3.28,3.28,0,0,1,431,309a3.39,3.39,0,0,1-2.88,2.7l-28.51,5q-10,1.75-20,3.55c-1.8.33-3.12-.21-3.83-1.64a3.79,3.79,0,0,1,.93-4.61c3.86-3.08,7.72-6.16,11.61-9.2,2-1.57,4.06-3.05,6.25-4.68l-5.28-4.16c-.84-.66-1.67-1.32-2.52-2a3.68,3.68,0,0,1-1.4-3.83,3.16,3.16,0,0,1,2.61-2.52L429.41,276a4.12,4.12,0,0,1,4.66,2.08,3.33,3.33,0,0,1-.69,3.66c-2.37,2.37-4.73,4.73-7.06,7.13S421.5,293.89,419,296.54Zm-27,14,.2.37,27.36-4.78c-.38-.33-.59-.52-.81-.7-2.31-1.93-4.66-3.82-6.94-5.78-1.89-1.62-1.91-3.67-.2-5.44s3.29-3.47,4.94-5.21c.86-.9,1.74-1.79,2.6-2.69l-.15-.2-22.74,6.42,2.83,2.24,2.7,2.1c2.09,1.65,2.23,4.3.29,5.86s-4.14,3.3-6.23,4.93C394.58,308.64,393.28,309.57,392,310.53Z"/><path class="cls-7" d="M395.72,348.84c1.44,2.12,2.81,4.13,4.18,6.12,1.19,1.73,2.37,3.46,3.6,5.16a3.56,3.56,0,0,1,.29,4.14,3.4,3.4,0,0,1-3.6,1.62L371.71,363l-20.33-2.07c-1.91-.19-3-1.1-3.25-2.74a3.61,3.61,0,0,1,2.22-4q9.73-4.14,19.5-8.25c.33-.14.65-.31,1.11-.53-.3-.48-.55-.91-.84-1.31-1.57-2.15-3.14-4.28-4.72-6.42a3.85,3.85,0,0,1-.26-4.27,2.66,2.66,0,0,1,2.5-1.54l22.1,0q10.77,0,21.53,0a4.07,4.07,0,0,1,3.78,2.6,3.18,3.18,0,0,1-1.44,4q-6,3.43-12.05,6.93C399.65,346.46,397.77,347.62,395.72,348.84Zm-2.07,9.39c-.33-.53-.52-.87-.74-1.19-1.67-2.43-3.33-4.86-5-7.28a3.48,3.48,0,0,1,1.11-5c1.8-.9,3.49-2,5.23-3.08,1.46-.87,2.91-1.76,4.37-2.64l-.07-.21-23.73,0,4.1,5.5c1.92,2.58,1.28,4.89-1.71,6.14-2.54,1.07-5.09,2.11-7.63,3.18-1.23.51-2.44,1.05-3.65,1.57l0,.2Z"/><path class="cls-7" d="M339.9,310.2c-3.23-.53-6.31-1.07-9.39-1.55a3.9,3.9,0,0,1-2.9-2,2.79,2.79,0,0,1,.32-3.63c3.22-3.23,6.48-6.43,9.73-9.64Q348.22,283,358.8,272.53a4.26,4.26,0,0,1,3.7-1.3,3.24,3.24,0,0,1,2.62,4.65,60.19,60.19,0,0,0-1.7,5.94c-1.19,4.44-2.36,8.89-3.59,13.5l5.66,1.08c2.75.52,5.51,1,8.25,1.56a3.37,3.37,0,0,1,2.63,2.43,3.06,3.06,0,0,1-.87,3.44c-2.34,2-4.73,3.88-7.11,5.8l-28.95,23.28c-.89.72-1.77,1.45-2.66,2.16a3.24,3.24,0,0,1-4.25.3,3.49,3.49,0,0,1-1.26-4.39q3.3-8,6.62-15.91C338.54,313.51,339.18,312,339.9,310.2Zm3.21,10.52.18.17L365,303.44l-1.55-.33c-2.82-.53-5.65-1-8.46-1.62-2-.4-3.34-2.25-2.92-3.89.62-2.43,1.31-4.83,1.94-7.25.36-1.35.66-2.71,1-4.07l-.2-.1L338,302.76c2.13.37,4,.83,5.8,1,4,.29,5.61,2.71,3.72,6.63C345.85,313.73,344.55,317.26,343.11,320.72Z"/><path class="cls-7" d="M93,312.78c-.57-3.47-1.13-6.85-1.69-10.22-.2-1.19-.4-2.39-.61-3.58a3.29,3.29,0,0,1,1.41-3.47,3.39,3.39,0,0,1,4-.15q12.38,7.47,24.77,14.94,8.7,5.24,17.43,10.43c1.58.94,2.22,2.21,1.82,3.75a3.78,3.78,0,0,1-3.72,2.88c-4.94-.21-9.87-.41-14.81-.67-2.53-.13-5.06-.36-7.78-.56.46,2.42.86,4.51,1.26,6.6.2,1,.4,2.09.61,3.14a3.68,3.68,0,0,1-1.45,3.81,3.14,3.14,0,0,1-3.62.19L71.59,321.48a4.13,4.13,0,0,1-2.16-4.62,3.33,3.33,0,0,1,2.93-2.32c3.33-.23,6.67-.47,10-.76C85.84,313.49,89.32,313.13,93,312.78Zm29.55,7.12.1-.4L98.8,305.17c.07.49.1.77.15,1.05.49,3,1,5.94,1.46,8.92.36,2.46-1,4-3.43,4.24s-4.75.46-7.13.69l-3.74.33v.24l21.38,10.07c-.26-1.38-.46-2.47-.67-3.55s-.44-2.24-.66-3.35c-.5-2.62,1.13-4.71,3.62-4.62q4,.15,7.94.36C119.31,319.64,120.91,319.78,122.5,319.9Z"/><path class="cls-7" d="M144.82,288.53c.29-2.54.58-4.95.85-7.36.23-2.09.48-4.17.66-6.26a3.55,3.55,0,0,1,2.5-3.31,3.4,3.4,0,0,1,3.78,1.13l19.61,20.85,14,14.89c1.31,1.39,1.52,2.78.65,4.2a3.61,3.61,0,0,1-4.31,1.58c-6.71-2.17-13.42-4.37-20.13-6.55-.35-.11-.7-.2-1.19-.34-.08.57-.18,1.06-.22,1.55-.23,2.64-.44,5.29-.65,7.93a3.84,3.84,0,0,1-2.6,3.4,2.66,2.66,0,0,1-2.9-.48c-5.56-4.82-11.11-9.67-16.67-14.49s-10.85-9.41-16.28-14.11a4.05,4.05,0,0,1-1.15-4.43,3.18,3.18,0,0,1,3.69-2.06c4.54.92,9.09,1.8,13.65,2.67C140.29,287.76,142.46,288.12,144.82,288.53Zm7.71-5.73c-.1.62-.18,1-.23,1.39-.33,2.92-.66,5.85-1,8.78a3.48,3.48,0,0,1-4.14,3.08c-2-.5-4-.75-6-1.1l-5-.87-.08.2L154,309.82c.18-2.52.34-4.67.5-6.83.25-3.21,2.24-4.54,5.32-3.53,2.62.86,5.23,1.75,7.85,2.61,1.25.42,2.52.8,3.78,1.2l.09-.18Z"/><path class="cls-7" d="M161.63,354.3c2.09,2.53,4.06,4.95,6.08,7.34a4,4,0,0,1,.89,3.39,2.8,2.8,0,0,1-2.63,2.53c-4.55.33-9.11.61-13.66.9l-29.65,1.9a4.26,4.26,0,0,1-3.65-1.45,3.23,3.23,0,0,1,1.08-5.22c1.8-1,3.46-2.22,5.17-3.37,3.81-2.57,7.61-5.16,11.56-7.84L133.25,348c-1.73-2.19-3.49-4.37-5.2-6.58a3.35,3.35,0,0,1-.39-3.56,3.05,3.05,0,0,1,2.91-2c3.06,0,6.12.17,9.17.28l37.13,1.4c1.14,0,2.28.06,3.42.11a3.26,3.26,0,0,1,3.41,2.56,3.51,3.51,0,0,1-1.93,4.14q-7.71,3.86-15.43,7.68Zm4.47-10,0-.25L138.24,343c.44.58.7.93,1,1.26,1.78,2.26,3.58,4.49,5.33,6.77,1.22,1.6,1,3.89-.35,4.86-2.06,1.42-4.16,2.78-6.23,4.2-1.15.78-2.27,1.61-3.4,2.43l.09.2,23.58-1.48c-1.37-1.67-2.45-3.22-3.76-4.53-2.8-2.82-2.46-5.72,1.55-7.45C159.45,347.74,162.74,345.92,166.1,344.26Z"/></g></svg>