<svg xmlns="http://www.w3.org/2000/svg" viewBox="0 0 500 500"><defs><style>.cls-1{fill:#3d5174;}.cls-2{fill:#b4cce4;}.cls-3{fill:#d10d41;}.cls-4{fill:#9ccbe5;opacity:0.3;}.cls-5,.cls-7{opacity:0.5;}.cls-6,.cls-7{fill:#f5f5f5;}</style></defs><g id="NARIZ"><path class="cls-1" d="M226.68,56.58A9.15,9.15,0,0,0,216.89,65c0,.25-2.43,29.48-6.7,60.12-3.44,24.79-3.52,39.7-10.39,54-.83,1.76-1.67,3.35-2.34,4.6-.5.92-.92,1.59-1.26,2.26-.84.84-6.7,6.87-5.27,14a9.34,9.34,0,0,0,3.35,6.2,9.07,9.07,0,0,0,10.71.33c4.28-2.93,9-9.21,14.07-29.06h.09c2.84-11.14,5.78-26.46,8.87-48,4.44-31.82,7-62.72,7-63.06A9.11,9.11,0,0,0,226.68,56.58Z"/><path class="cls-1" d="M399.11,263.59a12.4,12.4,0,0,1-.84,1.84C388.64,286,367,298.34,344.42,298.34a62.69,62.69,0,0,1-17.92-2.67,53,53,0,0,0-3.35,7.11c-2.42,5.78-5.1,12.4-11.3,18.43-1,.92-2.1,1.92-3.35,2.93-9.38,7.79-25.71,16.33-42.79,16.33a53.83,53.83,0,0,1-7.37-.59,45.62,45.62,0,0,1-12.06-3.68c-1.84-.84-5.86-3-12.06-9.63A113.16,113.16,0,0,1,224.17,314c-5.86-8.2-9.71-15.24-13.15-19.93a8,8,0,0,1-2.09,1,57.93,57.93,0,0,1-18.67,3.1,58.5,58.5,0,0,1-57.78-68.84,57.33,57.33,0,0,1,7.2-19.76,8.9,8.9,0,0,1,12.14-3.27.46.46,0,0,1,.33.09,9,9,0,0,1,3.19,12.47,40.43,40.43,0,0,0,38.52,60.88v-.41a7.41,7.41,0,0,1,8.29-9.72c9.71,1.84,24.12,9.63,38.1,35.84,5.19,9.72,12,15.08,20.85,16.42,14.24,2.17,31.07-6.87,38-13.65,3.52-3.52,5.19-7.62,7.2-12.48,3.77-9.13,8.54-20.43,26.13-26.13a9.44,9.44,0,0,1,11.22,4.44,9.29,9.29,0,0,1,.75,6.11c16.25.09,31.66-8.87,37.94-23.7,8.79-20.85-4.69-44.38-18-50.07-5.86-2.43-10.21-1.09-17.41,1.5s-16.08,5.7-26.3,1.26c-4.1-1.84-11.05-8.62-16.41-32.57-5-22.36-8.79-59.88-7.71-122.27a9.13,9.13,0,0,1,18.26.34c-1.34,75.53,4.52,110.54,9.29,126.36,2.18,7.46,4.11,10.64,5,11.81,3,.84,6.28-.17,11.64-2.09,1.76-.67,3.6-1.34,5.61-1.93,6.87-2.09,15.32-3.35,25.21.84C394.58,199.53,411.67,234,399.11,263.59Z"/><path class="cls-1" d="M217.05,321.37v30.32l-.08.84A21.49,21.49,0,0,1,196,370.19H196A21.13,21.13,0,0,1,177.44,359h-.08v-.08a21.32,21.32,0,0,1-1.34-3.1l-.5-1.25-1.59-43.22a9.16,9.16,0,0,1,8.79-9.46,9,9,0,0,1,9,6.37,5.9,5.9,0,0,1,.5,2.42l1.43,40a3,3,0,0,0,2.42,1.34,3.27,3.27,0,0,0,2.85-2.18V321.37a8.87,8.87,0,0,1,5-8,7.53,7.53,0,0,1,4.1-1.08A9.07,9.07,0,0,1,217.05,321.37Z"/><path class="cls-1" d="M339.65,388.2V389a2.46,2.46,0,0,1-.08.76c-1.68,9.71-9,17.08-18.09,18.5a8.81,8.81,0,0,1-1.51.25,9.91,9.91,0,0,1-1.59.09A21.69,21.69,0,0,1,304.14,403a23.16,23.16,0,0,1-7.78-16.41v-40a9.07,9.07,0,0,1,9.12-9,8.57,8.57,0,0,1,2.94.5,8.94,8.94,0,0,1,6.19,8.54V386a4.7,4.7,0,0,0,1.59,3.35,2.94,2.94,0,0,0,2.26.92c1.26-.08,2.77-1.5,3.1-3.6a.46.46,0,0,1,.09-.33,12.41,12.41,0,0,1,.58-1.93c.25-.42.42-.84.67-1.17a8.8,8.8,0,0,1,4.94-3.69,5.09,5.09,0,0,1,1.18-.33,7.1,7.1,0,0,1,3.09,0,6.26,6.26,0,0,1,1.34.33,3,3,0,0,1,.92.34,9.32,9.32,0,0,1,5.11,6.45A12.59,12.59,0,0,1,339.65,388.2Z"/><path class="cls-1" d="M373.31,315.26V434.68c.34,15.4-10.8,29.14-24.36,29.89h-1.26c-6.53,0-13.06-3-18.17-8.37a30.73,30.73,0,0,1-8-24.2V388.2a12.59,12.59,0,0,1,.17-1.84,12.41,12.41,0,0,1,.58-1.93c.25-.42.42-.84.67-1.17a8.8,8.8,0,0,1,4.94-3.69,5.09,5.09,0,0,1,1.18-.33,7.1,7.1,0,0,1,3.09,0,6.26,6.26,0,0,1,1.34.33,3,3,0,0,1,.92.34,9.32,9.32,0,0,1,5.11,6.45,12.59,12.59,0,0,1,.17,1.84v45.39a12.51,12.51,0,0,0,3.18,10.13,7.61,7.61,0,0,0,5,2.68c2.51-.17,7.37-4.36,7.2-11.39V315.26a9.13,9.13,0,1,1,18.25,0Z"/><path class="cls-2" d="M355.23,313.51,355.06,435c.17,7-4.69,11.22-7.2,11.39a7.61,7.61,0,0,1-5-2.68,12.51,12.51,0,0,1-3.18-10.13V389a9.19,9.19,0,0,0-4.1-8.37c-.34-.25-.76-.42-1.18-.67a3,3,0,0,0-.92-.34,3.57,3.57,0,0,0-1.34-.33,7.1,7.1,0,0,0-3.09,0,5.09,5.09,0,0,0-1.18.33,8.8,8.8,0,0,0-4.94,3.69c-.25.33-.42.75-.67,1.17a12.41,12.41,0,0,0-.58,1.93.46.46,0,0,0-.09.33c-.33,2.1-1.84,3.52-3.1,3.6a2.94,2.94,0,0,1-2.26-.92,4.7,4.7,0,0,1-1.59-3.35V346.58a8.94,8.94,0,0,0-6.19-8.54c2.78.45,24.78,3.63,38.85-11.22A36.57,36.57,0,0,0,355.23,313.51Z"/><path class="cls-2" d="M208,312.25c-.57,0-5.26.4-7.75,4.32a9.19,9.19,0,0,0-1.38,4.8v28.39a3.27,3.27,0,0,1-2.85,2.18,3,3,0,0,1-2.42-1.34l-1.43-40a8.1,8.1,0,0,0-.12-1.24,9.08,9.08,0,0,0-2.33-4.51A19.21,19.21,0,0,0,208,312.25Z"/><path class="cls-3" d="M382.36,256.47c-6.28,14.83-21.69,23.79-37.94,23.7a9.29,9.29,0,0,0-.75-6.11,9.44,9.44,0,0,0-11.22-4.44c-17.59,5.7-22.36,17-26.13,26.13-2,4.86-3.68,9-7.2,12.48-6.95,6.78-23.78,15.82-38,13.65-8.88-1.34-15.66-6.7-20.85-16.42-14-26.21-28.39-34-38.1-35.84a7.41,7.41,0,0,0-8.29,9.72v.41a40.43,40.43,0,0,1-38.52-60.88,9,9,0,0,0-3.19-12.47l-.16-.08c-2-.85-5.19-1.34-10,.58a107.59,107.59,0,0,1,49.63-14.25,12.81,12.81,0,0,0-.74,7.3,10.23,10.23,0,0,0,3.35,6.2,9.07,9.07,0,0,0,10.71.33c4.28-2.93,9-9.21,14.07-29.06h.09a202.36,202.36,0,0,1,85.08-.83c5.36,23.95,12.31,30.73,16.41,32.57,10.22,4.44,19.09,1.26,26.3-1.26s11.55-3.93,17.41-1.5C377.67,212.09,391.15,235.62,382.36,256.47Z"/><path class="cls-4" d="M382.36,256.47c-6.28,14.83-21.69,23.79-37.94,23.7a9.29,9.29,0,0,0-.75-6.11,9.44,9.44,0,0,0-11.22-4.44c-17.59,5.7-22.36,17-26.13,26.13-2,4.86-3.68,9-7.2,12.48-6.95,6.78-23.78,15.82-38,13.65-8.88-1.34-15.66-6.7-20.85-16.42-14-26.21-28.39-34-38.1-35.84a7.41,7.41,0,0,0-8.29,9.72v.41a40.43,40.43,0,0,1-38.52-60.88,9,9,0,0,0-3.19-12.47l-.16-.08c-2-.85-5.19-1.34-10,.58a107.59,107.59,0,0,1,49.63-14.25,12.81,12.81,0,0,0-.74,7.3,10.23,10.23,0,0,0,3.35,6.2,9.07,9.07,0,0,0,10.71.33c4.28-2.93,9-9.21,14.07-29.06h.09a202.36,202.36,0,0,1,85.08-.83c5.36,23.95,12.31,30.73,16.41,32.57,10.22,4.44,19.09,1.26,26.3-1.26s11.55-3.93,17.41-1.5C377.67,212.09,391.15,235.62,382.36,256.47Z"/><g class="cls-5"><path class="cls-6" d="M270.23,207.07c-1.42,1-3.92,3.52-4.76,9.69.5,3,1.64,6.64,4.56,8.23,4.3,2.32,9.25-1.61,17.4-3.54a46.43,46.43,0,0,1,19.52-.22C292.7,206.63,277.33,201.84,270.23,207.07Z"/></g><circle class="cls-7" cx="246.64" cy="215.36" r="7.54"/></g></svg>