<svg xmlns="http://www.w3.org/2000/svg" viewBox="0 0 500 500"><defs><style>.cls-1,.cls-9{fill:#ead0ce;}.cls-2{fill:#628c58;}.cls-2,.cls-8{opacity:0.5;}.cls-3{fill:#ffc759;}.cls-4{fill:none;stroke:#dd6876;}.cls-11,.cls-4,.cls-9{stroke-linecap:round;stroke-miterlimit:10;stroke-width:2.65px;}.cls-5{fill:#1c3047;}.cls-6,.cls-8{fill:#dd6876;}.cls-7{fill:#57738d;}.cls-11,.cls-9{stroke:#d3a1a9;}.cls-10{fill:#ddaa50;}.cls-11{fill:#ddb3b1;}</style></defs><g id="NAUSEA"><path id="face" class="cls-1" d="M399.05,216.51c0,19.23-16.23,34.83-36.41,35.17v2.9A105.72,105.72,0,0,1,256.92,360.3H245.49a99.61,99.61,0,0,1-99.62-99.61v-9c-20.11-.42-36.25-16-36.25-35.17s16.14-34.76,36.25-35.17V107.77a19.55,19.55,0,0,1,19.55-19.56H343.09a19.55,19.55,0,0,1,19.55,19.56v73.57C382.82,181.67,399.05,197.28,399.05,216.51Z"/><path class="cls-2" d="M420.66,219.81c-14.17,15.66-34.93,27.84-58.1,36.82-33.46,13-71.95,19.28-102.95,19.77-30.81.48-76.36-4.42-113.79-19.81-20.42-8.39-38.42-19.89-50.3-35.34a192.2,192.2,0,0,0,10.65-36.59,194.61,194.61,0,0,0,3.08-31.43c.06-1.19.15-2.69.31-4.41,1.53-16.72,7.29-36.53,17.14-56a3.29,3.29,0,0,0,.3-.26c62.3-53.84,177.39-56.53,248.5-14.53,15,23.65,23.16,49.41,23.49,70.77,0,1.5,0,2.85,0,4A263.86,263.86,0,0,0,420.66,219.81Z"/><path class="cls-3" d="M407.15,448.37l0,0c-3.19,2.3-6.42,4.53-9.72,6.69l0,0c-1.77,1.15-3.56,2.29-5.35,3.4l0,0a251.65,251.65,0,0,1-190,30.55c.73-7.26,1.41-14.51,2.1-21.72-26.55-3.79-55.14-14.44-80.85-22-.52,2.91-1.14,5.81-1.82,8.7-1.2-13.59,2.75-20.32,5.54-23.6,13.58-16,52.48-12.3,95.29,14q-10.14,22.31-20.26,44.6c-28.81-7.23-60.06-19.77-89.66-41.39q-4.41-3.21-8.53-6.52a159.26,159.26,0,0,1,107.38-56.11c1.16-.11,2.32-.2,3.49-.29h.06l1.76-.11,1.77-.09,1.09,0,2.44-.08h.79c1,0,2,0,2.95,0h54.09c1,0,1.91,0,2.86,0h.5l1.69,0,1.68.07,1.2.05,2.06.13c.85,0,1.69.1,2.53.17s1.45.12,2.17.19c1.3.11,2.59.24,3.88.4,2.63.31,5.25.68,7.84,1.12q2.88.48,5.71,1.07c1.38.27,2.74.58,4.11.9,1.15.27,2.3.54,3.45.85.7.18,1.41.36,2.12.56,1.07.29,2.12.59,3.18.91l2.18.66c.61.18,1.22.38,1.83.58l1.78.59c.6.2,1.21.41,1.81.63h.05c1.19.42,2.38.85,3.55,1.3q2.69,1,5.32,2.14c1.33.55,2.63,1.13,3.93,1.71,1,.44,2,.9,2.91,1.36,1.93.92,3.84,1.89,5.72,2.89.95.49,1.88,1,2.82,1.52l0,0c1.23.68,2.45,1.38,3.67,2.1l1.7,1A161.59,161.59,0,0,1,407.15,448.37Z"/><path id="nariz" class="cls-4" d="M249.83,202v36.42s-15.42,6.86-12.16,15.16,12.16,10.14,12.16,10.14"/><path class="cls-5" d="M314.06,196.4a24.48,24.48,0,0,1,.92,9.71,21.1,21.1,0,0,1-3.85,10.42H292.06a22.77,22.77,0,0,1-3.78-16.41c.86-6.53,4.49-12.19,8.48-13.76a13.37,13.37,0,0,1,4.74-.73,25.91,25.91,0,0,1,4.07.33s21.26,1.64,23.07-3.67c.19-.55.3-.84.34-.91C328.83,182.06,323.69,195.89,314.06,196.4Z"/><path class="cls-5" d="M213.8,216.53H197.13a20.47,20.47,0,0,1-5-11.87A24.68,24.68,0,0,1,193,195c-9.63-.51-14.77-14.34-14.93-15a6.34,6.34,0,0,1,.35.92c1.8,5.3,23.06,3.66,23.06,3.66a26.18,26.18,0,0,1,4.09-.33,13.54,13.54,0,0,1,4.73.72c4,1.59,7.62,7.24,8.47,13.78C219.74,205.91,217.57,212.54,213.8,216.53Z"/><path id="orelha" class="cls-6" d="M136.68,212.54c0,7.85,3.9,14.5,9.27,16.75v.84c-10.25,0-18.56-7.86-18.56-17.59S135.7,195,146,195v.84C140.58,198,136.68,204.69,136.68,212.54Z"/><path id="orelha-2" data-name="orelha" class="cls-6" d="M372,216.54c0,7.85-3.9,14.5-9.27,16.75v.84c10.25,0,18.55-7.86,18.55-17.59S373,199,362.72,199v.84C368.09,202,372,208.69,372,216.54Z"/><path id="pescoço" class="cls-1" d="M275.14,358.77v25.06h1.33c1.76,0,3.53,0,5.28.11,10.14,5.7,16.61,14.35,16.61,24,0,17.18-20.48,31.15-45.74,31.15s-45.77-14-45.77-31.15c0-9.45,6.18-17.91,15.92-23.62,2.42-.24,4.85-.4,7.3-.46V359.13Z"/><path class="cls-5" d="M407.15,448.37a251.73,251.73,0,0,0,57.54-57.94A248.81,248.81,0,0,0,484,358.6l1.28-2.54q2.64-5.34,5-10.82l.83-1.93c.29-.66.57-1.32.84-2s.53-1.25.77-1.88C495,334,497,328.51,498.8,322.91l0-.12C444,257.36,439.9,253.08,432.66,241.5,421,222.79,406.68,194,399,152.86c0-1.19.06-2.54,0-4-.87-56-55.74-142-144.71-142-89.69,0-139.73,87.48-144.72,142-.16,1.72-.25,3.22-.31,4.41a194.61,194.61,0,0,1-3.08,31.43c-1.71,9.4-8.22,41.4-31.82,77.1-17.1,25.88-37.86,45.69-53.49,58.61q1.76,5.6,3.77,11.08l.52,1.41A251.75,251.75,0,0,0,103.8,441.14a159.25,159.25,0,0,1,107.37-56.09c1.17-.11,2.35-.2,3.54-.28h.06l1.76-.11q.47,0,.93-.06c.27,0,.55,0,.84,0l1.09,0c.82,0,1.63-.06,2.44-.08h.75l.13-.08h.06l.49-.05.16,0,1.11-.1.73-.05c.11,0,.24,0,.35,0,1.46-.11,2.93-.17,4.41-.21V359.13h0a99.64,99.64,0,0,1-84.25-98.44v-9l-1.41,0-1.4-.1-.86-.09-.54-.07-.78-.11c-.39-.05-.78-.12-1.16-.19l-.24,0-.91-.19c-.59-.12-1.17-.25-1.74-.41l-.86-.23c-.29-.08-.58-.16-.87-.26H135c-.26-.08-.53-.17-.79-.27s-.49-.16-.74-.26l-.93-.34c-.28-.11-.55-.21-.81-.33q-.82-.33-1.62-.72c-.26-.13-.52-.25-.78-.39l-.78-.4c-.51-.28-1-.56-1.52-.86a34.24,34.24,0,0,1,.75-60.11,35.76,35.76,0,0,1,4.76-2.25l.82-.32.85-.29a5.36,5.36,0,0,1,.77-.26h0c.88-.28,1.76-.52,2.66-.73.28-.07.57-.13.86-.18a7.88,7.88,0,0,1,.87-.19l.11,0h0l.1,0,1.42-.24.52-.07.61-.07.86-.09,1.4-.11,1.41,0h0V123.71l.05.08c3.38,5.63,8.24,9.57,14.14,10.77,12.29,2.51,25.05-7.6,31-23.43,3.92,15.62,16.32,27,31,27,13.41,0,24.91-9.5,29.82-23,.24.78.51,1.58.81,2.34,7.39,19.43,26.74,30.11,43.18,23.85,11.27-4.28,18.28-15.41,19.2-28.23,8.6,12.58,21.67,19,32.64,14.83,8.39-3.17,13.57-11.8,14.69-22.47a16.29,16.29,0,0,1,.15,2.33v73.57l.93,0c.32,0,.64,0,.95.06,0,0,0,0,.06,0l1.8.15.67.08.82.11.39.07.81.14.81.15C386.5,185.57,399,199.65,399,216.51c0,14-8.55,26-20.95,31.69-.52.24-1,.47-1.58.68-.79.32-1.6.62-2.42.88s-1.65.52-2.51.73c-.56.14-1.14.27-1.71.39-.27.07-.54.11-.81.16l-.81.14-.39.06-.82.12-.67.08q-.9.09-1.8.15h-.06l-.95,0-.93,0v2.93a105.68,105.68,0,0,1-59.08,94.9l-2.07,1-2.1.95-1.88.81h0l-.21.09h0c-2.13.88-4.3,1.68-6.5,2.43l-2.36.77c-1.43.45-2.87.86-4.32,1.25-.75.2-1.51.4-2.28.56s-1.52.36-2.29.53l-1.07.23-1,.21h-.1l-.3.05c-.7.13-1.39.27-2.08.38h.2v25.06h1.33c1.32,0,2.65,0,4,.06l1.32.05.83.49h.82l1.37,0,1.63.06,1.25.06,2.06.13c.85,0,1.69.1,2.53.17s1.45.12,2.17.19c1.3.11,2.59.24,3.88.4,2.63.31,5.25.68,7.84,1.12q2.88.48,5.71,1.07c1.38.27,2.74.58,4.11.9,1.15.27,2.3.54,3.45.85.7.18,1.41.36,2.12.56,1.06.28,2.12.59,3.18.91l2.18.66c.61.18,1.22.38,1.83.58l1.78.59c.6.2,1.21.41,1.81.63h.05c1.19.42,2.38.85,3.55,1.3q2.69,1,5.32,2.14c1.33.55,2.63,1.13,3.93,1.71,1,.44,2,.9,2.91,1.36,1.93.92,3.84,1.89,5.72,2.89.95.49,1.88,1,2.82,1.52l0,0c1.23.68,2.45,1.38,3.67,2.1l1.7,1a162.2,162.2,0,0,1,45.17,41Z"/><path class="cls-5" d="M498.84,322.79l0,.12c-1.81,5.6-3.84,11.12-6.05,16.53-.24.63-.51,1.25-.77,1.88s-.55,1.33-.84,2l-.83,1.93q-2.38,5.49-5,10.82L484,358.6a248.81,248.81,0,0,1-19.31,31.83,251.73,251.73,0,0,1-57.54,57.94l0,0a162.2,162.2,0,0,0-45.17-41l-1.7-1c-1.22-.72-2.44-1.42-3.67-2.1l0,0c-.94-.52-1.87-1-2.82-1.52-1.88-1-3.79-2-5.72-2.89-1-.46-1.93-.92-2.91-1.36-1.3-.58-2.6-1.16-3.93-1.71q-2.64-1.12-5.32-2.14c-1.17-.45-2.36-.88-3.55-1.3h-.05c-.6-.22-1.21-.43-1.81-.63l-1.78-.59c-.61-.2-1.22-.4-1.83-.58l-2.18-.66c-1.06-.32-2.12-.63-3.18-.91-.71-.2-1.42-.38-2.12-.56-1.15-.31-2.3-.58-3.45-.85-1.37-.32-2.73-.63-4.11-.9q-2.83-.58-5.71-1.07c-2.59-.44-5.21-.81-7.84-1.12-1.29-.16-2.58-.29-3.88-.4-.72-.07-1.44-.14-2.17-.19s-1.68-.13-2.53-.17l-2.06-.13-1.25-.06-1.63-.06-1.37,0h-.82l-.83-.49-1.32-.05c-1.31,0-2.64-.06-4-.06h-1.33V358.78h-.2c.69-.11,1.38-.25,2.08-.38l.3-.05h.1l1-.21,1.07-.23c.77-.17,1.53-.34,2.29-.53s1.53-.36,2.28-.56c1.45-.39,2.89-.8,4.32-1.25l2.36-.77c2.2-.75,4.37-1.55,6.5-2.43h0l.21-.09h0l1.88-.81,2.1-.95,2.07-1a105.68,105.68,0,0,0,59.06-92.86c0-.68,0-1.36,0-2v-2.93l.93,0,.95,0h.06q.9-.06,1.8-.15l.67-.08.82-.12.39-.06L369,251c.27,0,.54-.09.81-.16.57-.12,1.15-.25,1.71-.39.86-.21,1.69-.46,2.51-.73s1.63-.56,2.42-.88c.54-.21,1.06-.44,1.58-.68,12.4-5.68,20.95-17.73,20.95-31.69,0-16.86-12.49-30.94-29.17-34.39L369,182l-.81-.14-.39-.07-.82-.11-.67-.08-1.8-.15s0,0-.06,0c-.31,0-.63,0-.95-.06l-.93,0V107.77a16.29,16.29,0,0,0-.15-2.33c-1.12,10.67-6.3,19.3-14.69,22.47-11,4.18-24-2.25-32.64-14.83-.92,12.82-7.93,24-19.2,28.23-16.44,6.26-35.79-4.42-43.18-23.85-.3-.76-.57-1.56-.81-2.34-4.91,13.53-16.41,23-29.82,23-14.72,0-27.12-11.4-31-27-6,15.83-18.75,25.94-31,23.43-5.9-1.2-10.76-5.14-14.14-10.77l-.05-.08v57.63l-1.41,0-1.4.11-.86.09-.61.07-.52.07-1.42.24-.1,0h0l-.11,0a7.88,7.88,0,0,0-.87.19c-.29.05-.58.11-.86.18-.9.21-1.78.45-2.66.73h0a5.36,5.36,0,0,0-.77.26l-.85.29-.82.32a35.76,35.76,0,0,0-4.76,2.25,34.24,34.24,0,0,0-.75,60.11c.49.3,1,.58,1.52.86l.78.4c.26.14.52.26.78.39q.79.39,1.62.72c.26.12.53.22.81.33l.93.34c.25.1.5.19.74.26s.53.19.79.27h.05c.29.1.58.18.87.26l.86.23c.57.16,1.15.29,1.74.41l.91.19.24,0c.38.07.77.14,1.16.19l.78.11.54.07.86.09,1.4.1,1.41,0v9a99.64,99.64,0,0,0,84.25,98.44h0V383.9c-1.48,0-3,.1-4.41.21-.11,0-.24,0-.35,0l-.73.05-1.11.1-.16,0-.49.05h-.06l-.13.08h-.75c-.81,0-1.62,0-2.44.08l-1.09,0c-.29,0-.57,0-.84,0s-.62,0-.93.06l-1.76.11h-.06c-1.19.08-2.37.17-3.54.28A159.25,159.25,0,0,0,103.8,441.14,251.75,251.75,0,0,1,25.15,332.86c-.17-.47-.34-.94-.52-1.41q-2-5.49-3.77-11.08c15.63-12.92,36.39-32.73,53.49-58.61a222.73,222.73,0,0,0,21.17-40.51,192.2,192.2,0,0,0,10.65-36.59,194.61,194.61,0,0,0,3.08-31.43c.06-1.19.15-2.69.31-4.41,1.53-16.72,7.29-36.53,17.14-56,22.27-44,65.39-86,127.58-86,55,0,97,32.88,121.22,71.24,15,23.65,23.16,49.41,23.49,70.77,0,1.5,0,2.85,0,4a263.86,263.86,0,0,0,21.7,66.95,234.79,234.79,0,0,0,12,21.69C439.9,253.08,444,257.36,498.84,322.79Z"/><path id="cabelo_branco" data-name="cabelo branco" class="cls-7" d="M223,104.82c2,2.14,3.84,4.39,5.64,6.68.89,1.15,1.78,2.3,2.61,3.49a40.47,40.47,0,0,1,2.34,3.7l-.56.43a40.74,40.74,0,0,1-2.95-3.23c-.94-1.12-1.81-2.28-2.69-3.44-1.73-2.34-3.42-4.7-5-7.19Z"/><path id="cabelo_branco-2" data-name="cabelo branco" class="cls-7" d="M216.24,104.71a40.91,40.91,0,0,1,3,3.19c.93,1.11,1.84,2.23,2.71,3.39s1.71,2.33,2.46,3.57a21.38,21.38,0,0,1,1.91,4l-.58.41a20.81,20.81,0,0,1-3.13-3.09c-.93-1.11-1.76-2.3-2.57-3.49s-1.59-2.43-2.33-3.67a43.17,43.17,0,0,1-2.05-3.87Z"/><path id="cabelo_branco-3" data-name="cabelo branco" class="cls-7" d="M270.83,104.82c2,2.14,3.84,4.39,5.63,6.68.89,1.15,1.78,2.3,2.61,3.49a42.85,42.85,0,0,1,2.35,3.7l-.57.43a42.75,42.75,0,0,1-3-3.23c-.93-1.12-1.81-2.28-2.68-3.44-1.74-2.34-3.43-4.7-5-7.19Z"/><path id="cabelo_branco-4" data-name="cabelo branco" class="cls-7" d="M264,104.71a40.91,40.91,0,0,1,3,3.19c.94,1.11,1.85,2.23,2.71,3.39s1.72,2.33,2.46,3.57a20.19,20.19,0,0,1,1.91,4l-.58.41a21.29,21.29,0,0,1-3.13-3.09c-.93-1.11-1.76-2.3-2.57-3.49s-1.59-2.43-2.33-3.67a40.67,40.67,0,0,1-2-3.87Z"/><path id="cabelo_branco-5" data-name="cabelo branco" class="cls-7" d="M76.42,281.69c-4.32,4.6-8.28,9.46-12.15,14.4-1.93,2.47-3.85,5-5.64,7.54a87.38,87.38,0,0,0-5.05,8l1.21.92a87.35,87.35,0,0,0,6.37-7c2-2.4,3.9-4.9,5.79-7.41,3.74-5,7.39-10.15,10.69-15.52Z"/><path id="cabelo_branco-6" data-name="cabelo branco" class="cls-7" d="M91.09,281.44a89,89,0,0,0-6.46,6.88c-2,2.39-4,4.82-5.85,7.32s-3.7,5-5.31,7.7a44.49,44.49,0,0,0-4.12,8.56l1.25.89a44.45,44.45,0,0,0,6.75-6.68,90.75,90.75,0,0,0,5.56-7.53c1.76-2.57,3.41-5.22,5-7.9a90.82,90.82,0,0,0,4.41-8.35Z"/><path id="sobra" class="cls-5" d="M183.64,169a46.22,46.22,0,0,0,12.73,5.91,39.72,39.72,0,0,0,13.93,1.56,34.59,34.59,0,0,0,13.48-3.94,43.75,43.75,0,0,0,11-8.65.75.75,0,0,0,0-1.07.76.76,0,0,0-.86-.12l-.24.13a98.82,98.82,0,0,1-12.13,5.51c-1,.29-1.94.66-2.94.86s-1.93.52-2.9.72-1.95.33-2.92.42-1.95.22-2.92.3a76.39,76.39,0,0,1-12-.76c-4.18-.49-8.46-1.39-13.27-2.14l-.4-.06a.73.73,0,0,0-.83.61A.71.71,0,0,0,183.64,169Z"/><path id="sobra-2" data-name="sobra" class="cls-5" d="M267.16,165.38A46,46,0,0,0,279,173a39.61,39.61,0,0,0,13.58,3.47,34.61,34.61,0,0,0,13.9-2,44.12,44.12,0,0,0,12.12-7,.76.76,0,0,0-.73-1.31l-.26.09A97.07,97.07,0,0,1,304.79,170a29.16,29.16,0,0,1-3,.45c-1,.15-2,.25-3,.31s-2,.06-2.95,0-2,0-2.93-.11a77.15,77.15,0,0,1-11.81-2.41c-4.07-1.07-8.18-2.56-12.85-4l-.38-.12a.73.73,0,0,0-.7,1.25Z"/><path id="cabelo_branco-7" data-name="cabelo branco" class="cls-8" d="M287.57,219.09c5-.54,10.13-.84,15.36-1.08,2.61-.12,5.24-.22,7.93-.25s5.42,0,8.28.15l.71.81c-2.41.35-5,.56-7.51.73s-5.2.27-7.84.35c-5.3.16-10.65.25-16.21.11Z"/><path id="cabelo_branco-8" data-name="cabelo branco" class="cls-8" d="M285.3,225.5c2.38-.37,4.89-.6,7.42-.8s5.13-.33,7.77-.4,5.27-.15,8-.06a73.78,73.78,0,0,1,8.69.73l.67.82a45.07,45.07,0,0,1-7.27,1c-2.55.18-5.23.21-7.92.21s-5.43,0-8.2-.13-5.6-.25-8.53-.54Z"/><path id="cabelo_branco-9" data-name="cabelo branco" class="cls-8" d="M189.67,219.09c5-.54,10.12-.84,15.35-1.08,2.61-.12,5.24-.22,7.93-.25s5.42,0,8.28.15l.71.81c-2.41.35-4.95.56-7.51.73s-5.2.27-7.84.35c-5.3.16-10.65.25-16.21.11Z"/><path id="cabelo_branco-10" data-name="cabelo branco" class="cls-8" d="M187.39,225.5c2.38-.37,4.89-.6,7.43-.8s5.12-.33,7.76-.4,5.27-.15,8-.06a73.78,73.78,0,0,1,8.69.73l.67.82a45.07,45.07,0,0,1-7.27,1c-2.55.18-5.23.21-7.92.21s-5.43,0-8.2-.13-5.6-.25-8.53-.54Z"/><path class="cls-9" d="M307.54,304l-13.92,12.94c11.91-10.41,11.65-5.32,11.65-5.32-2.61,16.81-13.29,29-25.78,40.58-13.5,12.53-27.83,20.16-42.73,27.59-11.18,5.58-23.2,11.38-29.71,22-12.72-6.31-35.89-12-51.12-13a113.4,113.4,0,0,1,11.82-58.17A114.63,114.63,0,0,1,217,281.11c5.35-1.23,8.78-.93,10.25.93q4.86,6.07-18,34.28c8.35-1.55,15.27-7.18,21.82-12.61q22.35-18.54,44.69-37.13c2.58-2.16,5.3-4.38,8.57-5.14s7.26.37,8.62,3.46c1.3,2.92-.13,6-2.18,8.67,4.25-5.15,12.53-11.75,18.33-9.37,4.89,2,6.34,8.63,4.41,13.52a14.49,14.49,0,0,1-.87,1.82c1.41-.05,4.37-.22,5,1C321.53,288.81,314.23,297.78,307.54,304Z"/><path class="cls-10" d="M123.62,452.08a47.23,47.23,0,0,1,1.82-8.7l-2.39,1c21.1,6.23,41.85,13.72,63.3,18.68,5.92,1.38,11.88,2.53,17.89,3.4l-.94-.78c-.69,7.24-1.38,14.48-2.11,21.71-.13,1.33,2.88.83,3-.31.73-7.24,1.42-14.48,2.11-21.72.05-.56-.5-.71-.94-.78-21.59-3.11-42.44-10.07-63.17-16.62-5.77-1.82-11.54-3.63-17.35-5.35a2.06,2.06,0,0,0-2.38,1.05,46.89,46.89,0,0,0-1.82,8.7c-.13,1.33,2.88.82,3-.32Z"/><path class="cls-11" d="M294.64,315.89l-32.51,30.2"/><path class="cls-10" d="M124.77,440.94c.23-1.16.42-2.34.61-3.51l0,.12,0-.09a.11.11,0,0,0,0-.17.25.25,0,0,0-.22-.1,2.49,2.49,0,0,0-.94.06,4.91,4.91,0,0,0-1.13.34l-.29.15a.88.88,0,0,0-.33.28c-.14.61-.21,1.24-.32,1.86s-.22,1.24-.34,1.86c0,.16.51.17.52.17a4.42,4.42,0,0,0,1.08-.17,4.09,4.09,0,0,0,1-.4c.17-.1.32-.19.36-.4Z"/><path class="cls-3" d="M212,408.8c-.26,18.25-5.07,40.55-7.55,58.61a1.41,1.41,0,0,1-.27-.05c-26.55-3.79-55.14-14.44-80.85-22l0,0c.24-1.16.45-2.32.66-3.49,0,0,0-.06,0-.09,3-17.26,2.71-35.51,11.76-50.14.53-.87,1.1-1.73,1.71-2.57,1.56-2.18,7.07-2.79,14.44-2.31,15.23,1,38.4,6.67,51.12,13C209.09,402.73,212.79,405.93,212,408.8Z"/><path class="cls-10" d="M210.46,409.2c-.24,15.47-3.18,30.8-5.65,46-.67,4.12-1.33,8.25-1.9,12.38l2.41-1c-21.8-3.36-42.75-10.08-63.72-16.71L133,447.21c-2.8-.87-5.81-1.5-8.53-2.59l.3.5c2-9.8,2.63-19.79,4.28-29.64a84.63,84.63,0,0,1,3.55-14.36,49.89,49.89,0,0,1,2.95-6.8c.55-1.05,1.15-2.08,1.78-3.08a11.49,11.49,0,0,1,1.76-2.52c1-.86,2.6-1,3.82-1.15a42.81,42.81,0,0,1,7-.12,111.31,111.31,0,0,1,12.48,1.4,175.67,175.67,0,0,1,26.91,6.55,98,98,0,0,1,12.26,4.86,28.84,28.84,0,0,1,7,4.4c1.19,1.1,2.46,2.61,2,4.34-.25,1,2.73.58,3-.39.95-3.73-3.82-6.55-6.44-8.08a71.19,71.19,0,0,0-11.93-5.33,173.6,173.6,0,0,0-27.91-7.39,133,133,0,0,0-13.46-1.8c-4.49-.36-9.38-.65-13.74.66a7.69,7.69,0,0,0-3.85,2.22,33.93,33.93,0,0,0-3.94,6.54,62.94,62.94,0,0,0-5,14.67c-2.6,11.68-3,23.7-5.4,35.42a.43.43,0,0,0,.29.5c2.38,1,5,1.5,7.46,2.26s5.18,1.6,7.76,2.42c5.35,1.68,10.69,3.39,16,5.05,10.69,3.33,21.44,6.52,32.36,9.05,5.9,1.37,11.83,2.46,17.82,3.38.62.1,2.29-.13,2.4-1,2.14-15.47,5.32-30.79,6.82-46.34.4-4.14.67-8.3.74-12.46C213.45,407.57,210.48,408.09,210.46,409.2Z"/><path id="cabelo_branco-11" data-name="cabelo branco" class="cls-7" d="M441.25,291.71a89,89,0,0,1,6.46,6.88c2,2.39,4,4.82,5.85,7.32s3.71,5,5.32,7.7a44.46,44.46,0,0,1,4.11,8.56l-1.25.89a44.45,44.45,0,0,1-6.75-6.68,93,93,0,0,1-5.55-7.53c-1.76-2.57-3.42-5.22-5-7.9a90.75,90.75,0,0,1-4.4-8.35Z"/><path class="cls-11" d="M248,317.26c8.68-8,29.22-29.3,41.52-42.13.54-.55,1.09-1.16,1.6-1.78"/><path class="cls-11" d="M259.36,324.26q22.44-17.92,44.82-35.87c3.59-2.87,7.32-5.91,9.47-9.88"/></g></svg>