<svg xmlns="http://www.w3.org/2000/svg" viewBox="0 0 500 500"><defs><style>.cls-1,.cls-7{fill:#3d5174;}.cls-1{stroke:#3d5174;stroke-miterlimit:10;stroke-width:15.44px;}.cls-2{fill:none;stroke:#1c3047;stroke-linecap:round;stroke-linejoin:bevel;stroke-width:0.87px;}.cls-3{fill:#d10d41;}.cls-4{fill:#fff;}.cls-5{fill:#9ccbe5;opacity:0.3;}.cls-6{opacity:0.6;}.cls-8{fill:#a0bad4;}</style></defs><g id="FEBRE"><path class="cls-1" d="M358.82,135.68c2.88-23.54-14.82-36.77-26.54-42.87h0l-35-12.55c-12.63-2.73-34.68-3.84-45,17.53-14.33,29.62-31.72,191.33-33.16,204.89-38.42-1.39-72.29,20.45-79.75,53.94-8.6,38.62,21.15,78.11,66.46,88.2s89-13,97.61-51.64c5.71-25.6-5.44-51.58-26.81-69.12l.06,0S354.57,170.42,358.82,135.68Zm-60.12,254c-7.82,36.41-47.65,58.23-89,48.73s-68.49-46.66-60.67-83.06c6.77-31.56,37.65-52.16,72.68-50.89.83-8.17,7.57-73.45,15.73-126.75h0c4.59-30,9.64-56.28,14.34-66.33,9.42-20.14,29.52-19.11,41.05-16.55l31.9,11.8c9.92,5.32,24.52,16.42,24.52,35.68A40.12,40.12,0,0,1,349,147c-1.3,11.05-10.25,34.89-21.53,61.63-22.12,52.43-53.22,116-53.22,116l-.06,0C293.7,341.08,303.89,365.56,298.7,389.68Z"/><path class="cls-2" d="M349.29,142.3A40.12,40.12,0,0,1,349,147c-1.3,11.05-10.25,34.89-21.53,61.63-22.12,52.43-53.22,116-53.22,116l-.06,0c19.5,16.51,29.69,41,24.5,65.11-7.82,36.41-47.65,58.23-89,48.73s-68.49-46.66-60.67-83.06c6.77-31.56,37.65-52.16,72.68-50.89.83-8.17,7.57-73.45,15.73-126.75h0c4.59-30,9.64-56.28,14.34-66.33,9.42-20.14,29.52-19.11,41.05-16.55l31.9,11.8C334.69,111.94,349.29,123,349.29,142.3Z"/><path class="cls-3" d="M298.48,390.05c-7.81,36.4-47.65,58.22-89,48.73S141,392.11,148.85,355.72c6.77-31.56,37.65-52.17,72.68-50.89.83-8.17,7.57-73.46,15.73-126.76h0c1-.59,61.84-36.69,90,30.94C305.15,261.42,274,325,274,325l-.06,0C293.48,341.45,303.67,365.92,298.48,390.05Z"/><path class="cls-4" d="M349.07,142.67a40.08,40.08,0,0,1-.28,4.69c-1.29,11.06-10.25,34.9-21.53,61.64-28.15-67.63-89-31.53-90-30.94,4.59-30,9.64-56.27,14.34-66.33,9.41-20.13,29.51-19.11,41-16.55q15.94,5.92,31.9,11.81C334.47,112.31,349.07,123.41,349.07,142.67Z"/><path class="cls-5" d="M349.29,142.3A40.12,40.12,0,0,1,349,147c-1.3,11.05-10.25,34.89-21.53,61.63-22.12,52.43-53.22,116-53.22,116l-.06,0c19.5,16.51,29.69,41,24.5,65.11-7.82,36.41-47.65,58.23-89,48.73s-68.49-46.66-60.67-83.06c6.77-31.56,37.65-52.16,72.68-50.89.83-8.17,7.57-73.45,15.73-126.75h0c4.59-30,9.64-56.28,14.34-66.33,9.42-20.14,29.52-19.11,41.05-16.55l31.9,11.8C334.69,111.94,349.29,123,349.29,142.3Z"/><g class="cls-6"><path class="cls-4" d="M268.22,344.75c-3.41,1.05-4.53,5.56-3.47,9s3.6,6.11,5.48,9.14a26.42,26.42,0,0,1-.35,27.68c-1.54,2.35-3.5,4.53-4.17,7.26s.65,6.23,3.43,6.63a6.45,6.45,0,0,0,4.39-1.47c10.73-7.39,14.59-21.86,13.09-34.8-.94-8.07-4-16.43-10.66-21.1-2.71-1.9-6.3-3.08-9.34-1.76"/></g><g class="cls-6"><path class="cls-4" d="M312.38,125.26c-2.23.78-2.72,4.44-1.83,6.64s2.92,3.69,5,4.9,4.22,2.27,5.79,4c3.85,4.35,2.64,11.06.87,16.59a144.38,144.38,0,0,1-5.7,14.91c-1.48,3.3-2.93,7.58-.41,10.16,2.14,2.18,6,1.5,8.23-.6s3.16-5.18,4-8.1l5.25-17.69a37.35,37.35,0,0,0,1.87-8.84c.39-8.36-5.09-16.28-12.38-20.4-3.24-1.83-7.22-3-10.67-1.61"/></g><g class="cls-6"><path class="cls-4" d="M304.18,219.58c-2-.82-3.75,2.17-4.71,4.68l-12.05,31.52a17.1,17.1,0,0,0-1.5,6.23c0,2.18,1.14,4.47,2.81,4.65s3.11-1.73,4.18-3.52A116.87,116.87,0,0,0,306.49,228c.42-2,.77-4.16,0-5.91s-2.44-4.05-3.1-2.2"/></g><path class="cls-7" d="M241.1,246.38a1.6,1.6,0,0,1-.3,0l-12.59-1.73a2.16,2.16,0,0,1-1.85-2.45,2.12,2.12,0,0,1,2.45-1.86L241.4,242a2.18,2.18,0,0,1-.3,4.34Z"/><path class="cls-7" d="M244.75,223.55l-.3,0-12.59-1.73a2.18,2.18,0,0,1-1.86-2.45,2.14,2.14,0,0,1,2.46-1.86L245,219.22a2.18,2.18,0,0,1-.29,4.33Z"/><path class="cls-7" d="M250,184.34l-.31,0-12.58-1.73a2.18,2.18,0,1,1,.59-4.31L250.27,180a2.18,2.18,0,0,1-.29,4.34Z"/><path class="cls-7" d="M252.53,163.66a1.53,1.53,0,0,1-.3,0l-12.59-1.73a2.17,2.17,0,0,1-1.85-2.45,2.19,2.19,0,0,1,2.45-1.86l12.58,1.73a2.18,2.18,0,0,1-.29,4.34Z"/><path class="cls-7" d="M256.27,144.93l-.3,0-12.59-1.73a2.19,2.19,0,0,1-1.86-2.46,2.17,2.17,0,0,1,2.46-1.86l12.58,1.74a2.18,2.18,0,0,1-.29,4.33Z"/><path class="cls-7" d="M259.75,127.69a1.53,1.53,0,0,1-.3,0l-12.59-1.73a2.18,2.18,0,0,1-1.86-2.45,2.14,2.14,0,0,1,2.46-1.86l12.59,1.73a2.18,2.18,0,0,1-.3,4.34Z"/><path class="cls-7" d="M237.39,271l-.3,0L224.5,269.2a2.18,2.18,0,0,1-1.86-2.45,2.15,2.15,0,0,1,2.46-1.86l12.58,1.73a2.18,2.18,0,0,1-.29,4.34Z"/><path class="cls-7" d="M234.81,293.89l-.3,0-12.59-1.73a2.18,2.18,0,0,1-1.86-2.45,2.21,2.21,0,0,1,2.45-1.86l12.59,1.73a2.18,2.18,0,0,1-.29,4.34Z"/><path class="cls-7" d="M256.6,204.92a2.64,2.64,0,0,1-.55-.06,128.89,128.89,0,0,0-21.46-2.78,2.55,2.55,0,0,1-2.44-2.67,2.45,2.45,0,0,1,2.67-2.44,133,133,0,0,1,22.32,2.89,2.56,2.56,0,0,1-.54,5.06Z"/><path class="cls-8" d="M164,120.32a11.21,11.21,0,0,0-9.88,19.77c2.65,1.95,6,2.64,9.23,3.27l32.43,6.33C186.13,135,182.38,126.58,164,120.32"/><path class="cls-8" d="M206.39,97.08a7.82,7.82,0,0,0-13.51,7.43,15.91,15.91,0,0,0,4,5.54L213,126.54c.28-12.28,1.46-18.59-6.61-29.46"/><path class="cls-8" d="M180,173.28a3.41,3.41,0,0,0,2.32,6.32,6.83,6.83,0,0,0,2.66-1.37l8.18-5.87c-5.28-.93-7.93-1.85-13.16.92"/><path class="cls-8" d="M407,248.3a11.21,11.21,0,0,1-14.4,16.77c-2.82-1.69-4.75-4.51-6.58-7.25L367.6,230.38c17.31,3.21,26.51,3.41,39.39,17.92"/><path class="cls-8" d="M412,200.22a7.83,7.83,0,0,1-1.62,15.34c-2.29.15-4.52-.71-6.65-1.55l-21.45-8.47c11.21-5,16.57-8.54,29.72-5.32"/><path class="cls-8" d="M352,254.12a3.42,3.42,0,0,1-6.73.31,6.87,6.87,0,0,1,.23-3l2.24-9.82c2.91,4.51,4.79,6.6,4.26,12.49"/></g></svg>