<svg xmlns="http://www.w3.org/2000/svg" viewBox="0 0 500 500"><defs><style>.cls-1{fill:#3d5174;}.cls-2{fill:#d10d41;}.cls-3{fill:#9ccbe5;opacity:0.3;}.cls-4{fill:#f5f5f5;opacity:0.5;}</style></defs><g id="lingua"><path class="cls-1" d="M410.46,94a2.73,2.73,0,0,1-.37.46c-8,10.53-15.76,21.16-23.55,31.79-7.6,10.35-15.11,20.79-22.72,31.24a7.26,7.26,0,0,1-9.89,1.83.09.09,0,0,0-.09-.09c4.3-7.42,7.69-15.48,13-22.17,5-6.51,10.26-12.83,15.48-19.24,10.17-12.37,20.43-24.65,30.42-37.2,2-2.56,2.74-7.51,1.74-10.53-.55-1.65-6.14-2.66-9.26-2.39-10.07.83-20.06,2.39-30.14,3.49-9.8,1.09-19.6,2.1-29.32,2.93a1195.35,1195.35,0,0,1-223.18-1.65C110,71.24,97.22,69.77,84.48,68.12a15,15,0,0,0-2-.09c-6.51.28-10.91,7.42-7.79,13.1.27.37.46.73.73,1.1,5.59,7,11.18,13.83,16.86,20.71,9.53,11.36,19.06,22.72,28.22,34.35,5,6.32,8.43,13.84,12.55,20.8H133A8.43,8.43,0,0,1,121.49,156C110.41,140.13,99.32,124.37,88,108.71c-4.58-6.6-9.34-13.19-14.11-19.7a4.48,4.48,0,0,0-.55-.73c-4.21-5-12.55-.19-9.8,5.68l.55.82c5.86,7.88,11.82,15.58,17.77,23.36,15.49,20.25,31.34,40.32,46.82,60.66,4.67,6.13,9.53,13,11.36,20.33,9.53,38.21,17.77,76.69,26.94,115,8.33,35.09,38,57.91,75.21,58.36,38.48.46,68.81-21.43,77.6-57.26,9.44-38.29,17.5-76.86,26.94-115.07,1.83-7.42,6.23-14.66,11-20.79,10.91-14.11,22.08-28.13,33.35-42.15,9.53-12.09,19.06-24.19,28.31-36.46l.09-.09C423.65,95,414.85,88.37,410.46,94Zm-57.72,36.37c-11.82,56.8-17.69,85.2-43.52,180.39-1.56,5.59-4.31,15.49-12.19,25.47-12.27,15.4-31.42,24.56-53.59,24.74-21.63.18-41.05-9-53.23-24.74A66.23,66.23,0,0,1,178.66,312c-27.11-97.39-31.33-114.89-39.85-149.8-5.5-22.81-8.34-33-2.93-44.52,11.63-25.11,48.74-28.59,53.14-29,7.69-.73,28.21-2.65,40.31,10,5,5.31,7.69,11.27,7.69,14.66.64,51.58.37,103.25.37,154.92,0,3-.64,6.23.18,9a14,14,0,0,0,.64,1.65c1.93,4.4,8.43,4.58,10.45.28a5.53,5.53,0,0,0,.46-2c.46-28.31.27-56.62.27-85,0-26.84-.27-53.69.37-80.44a13.12,13.12,0,0,1,.73-4.49A20.17,20.17,0,0,1,256.26,99c13.2-11.46,44.25-8.07,44.25-8.07,17.69,1.93,43.71,4.68,51.22,21.44C354.93,119.61,353.47,126.85,352.74,130.33Z"/><path class="cls-1" d="M170.14,40.75c14.54-3.28,15.66-5.43,23.3-4.85,14.38,1.08,18.82,9.33,39,13.17,5.57,1.06,11.44,2.12,18.92,1,12.06-1.73,19.15-7.71,24.33-10.78,17.68-10.51,26.42,4.84,76,5.91,17.9.39,35.32,7.31,53.23,7.23a8.46,8.46,0,0,1,2.67.89c4.82,2.45,3.56,10.1-1.84,10.5a7,7,0,0,1-1.12,0c-22.15-2.37-44.49-4.17-66.27-8.52a150.45,150.45,0,0,0-78.93,5.32,46.18,46.18,0,0,1-34.72-1.08C200,49,175,49.77,149,55.25c-22.63,4.77-46,6.28-69.07,8.6a4.83,4.83,0,0,1-2.81-.79c-3.59-2.06-3.76-7.46-.16-9.51a5.28,5.28,0,0,1,1.83-.66C83.66,52.56,140.88,47.35,170.14,40.75Z"/><path class="cls-1" d="M153.11,459.09a13.13,13.13,0,0,1-10.94-20.35l25.1-38a13.12,13.12,0,0,1,21.9,14.44l-25.1,38.05A13.11,13.11,0,0,1,153.11,459.09Z"/><path class="cls-1" d="M244.78,464.32a15,15,0,0,1-15-15V412.8a15,15,0,1,1,30.06,0v36.49A15,15,0,0,1,244.78,464.32Z"/><path class="cls-1" d="M334.66,460.77a14.78,14.78,0,0,1-12.12-6.29l-23.3-33.17a14.8,14.8,0,0,1,24.22-17l23.3,33.17a14.8,14.8,0,0,1-12.1,23.31Z"/><path class="cls-2" d="M352.74,130.33c-11.82,56.8-17.69,85.2-43.52,180.39-1.56,5.59-4.31,15.49-12.19,25.47-12.27,15.4-31.42,24.56-53.59,24.74-21.63.18-41.05-9-53.23-24.74A66.23,66.23,0,0,1,178.66,312c-27.11-97.39-31.33-114.89-39.85-149.8-5.5-22.81-8.34-33-2.93-44.52,11.63-25.11,48.74-28.59,53.14-29,7.69-.73,28.21-2.65,40.31,10,5,5.31,7.69,11.27,7.69,14.66.64,51.58.37,103.25.37,154.92,0,3-.64,6.23.18,9a14,14,0,0,0,.64,1.65c1.93,4.4,8.43,4.58,10.45.28a5.53,5.53,0,0,0,.46-2c.46-28.31.27-56.62.27-85,0-26.84-.27-53.69.37-80.44a13.12,13.12,0,0,1,.73-4.49A20.17,20.17,0,0,1,256.26,99c13.2-11.46,44.25-8.07,44.25-8.07,17.69,1.93,43.71,4.68,51.22,21.44C354.93,119.61,353.47,126.85,352.74,130.33Z"/><path class="cls-3" d="M352.86,130.33c-11.82,56.8-17.68,85.2-43.51,180.39-1.56,5.59-4.31,15.49-12.19,25.47-12.28,15.4-31.42,24.56-53.6,24.74-21.62.18-41-9-53.23-24.74-7.33-9.43-10-18.59-11.54-24.18-27.12-97.39-31.33-114.89-39.85-149.8-5.5-22.81-8.34-33-2.93-44.52,11.63-25.11,48.74-28.59,53.13-29,7.7-.73,28.22-2.65,40.32,10,5,5.31,7.69,11.27,7.69,14.66.64,51.58.37,103.25.37,154.92,0,3-.64,6.23.18,9a12.46,12.46,0,0,0,.64,1.65c1.93,4.4,8.43,4.58,10.45.28a5.51,5.51,0,0,0,.45-2c.46-28.31.28-56.62.28-85,0-26.84-.28-53.69.37-80.44a13.12,13.12,0,0,1,.73-4.49A20.05,20.05,0,0,1,256.39,99c13.19-11.46,44.25-8.07,44.25-8.07,17.68,1.93,43.7,4.68,51.22,21.44C355.06,119.61,353.6,126.85,352.86,130.33Z"/><rect class="cls-4" x="306.14" y="146.56" width="19.79" height="78.4" rx="9.9" transform="translate(37.19 -52.21) rotate(10.03)"/><rect class="cls-4" x="292.87" y="235.56" width="19.79" height="29.95" rx="6.33" transform="translate(48.27 -48.91) rotate(10.03)"/><path class="cls-4" d="M192.34,307.08c2.11-2.67,24.48,23.36,56,20.8,26.26-2.14,41.44-22.72,44-20,3,3.22-13.62,37-41.6,40.8C216.73,353.26,189.82,310.26,192.34,307.08Z"/></g></svg>