<svg xmlns="http://www.w3.org/2000/svg" viewBox="0 0 500 500"><defs><style>.cls-1{fill:#ead0ce;}.cls-2{fill:#ffc759;}.cls-3{fill:none;stroke:#dd6876;stroke-linecap:round;stroke-miterlimit:10;stroke-width:2.77px;}.cls-4{fill:#1c3047;}.cls-5,.cls-6{fill:#dd6876;}.cls-6{opacity:0.5;}.cls-7{fill:#57738d;}.cls-8{fill:#8ba5c2;}</style></defs><g id="DOR_CABE" data-name="DOR CABE"><path id="face" class="cls-1" d="M391.26,232.67c0,20.09-17,36.4-38,36.75v3A110.49,110.49,0,0,1,242.73,383H230.79A104.1,104.1,0,0,1,126.68,278.84v-9.42c-21-.43-37.89-16.7-37.89-36.75s16.87-36.32,37.89-36.75V119a20.44,20.44,0,0,1,20.43-20.44H332.78A20.44,20.44,0,0,1,353.22,119v76.89C374.3,196.27,391.26,212.57,391.26,232.67Z"/><path class="cls-2" d="M373.47,447.26a165.81,165.81,0,0,0-25-17.44c-2-1.16-4.12-2.29-6.22-3.37-.93-.48-1.88-1-2.82-1.42-1.89-.93-3.79-1.82-5.72-2.67-1-.43-1.93-.85-2.9-1.26q-3.64-1.55-7.39-2.91h0c-1.26-.46-2.52-.9-3.79-1.33-.84-.29-1.69-.56-2.54-.84l-2-.62-2.28-.68c-1.53-.45-3.07-.87-4.62-1.27l-2.05-.52c-2-.48-4-.93-5.95-1.35l-2-.4q-3-.59-6.05-1.05-.87-.15-1.77-.27l-.43-.06-1.87-.25c-.61-.09-1.22-.16-1.84-.23a4.35,4.35,0,0,0-.52-.06c-1.26-.15-2.53-.28-3.8-.4q-4.12-.37-8.32-.55c-1.31-.06-2.62-.1-3.94-.13h0c-1,0-2.05,0-3.08,0H210q-1.53,0-3.06,0h-.72c-.57,0-1.15,0-1.73.05l-.94,0c-1.62.06-3.23.15-4.83.26h-.06l-1.85.13-1.8.16-2,.19c-1,.11-2.08.22-3.12.35q-3,.36-6,.84-4.47.71-8.86,1.66a166,166,0,0,0-70.57,34.23l2.33,1.53,0,0a244.61,244.61,0,0,0,261.42,3l0,0c1.75-1.08,3.49-2.19,5.21-3.31Z"/><path id="nariz-2" data-name="nariz" class="cls-3" d="M235.32,217.51v38.06s-16.12,7.17-12.71,15.84S235.32,282,235.32,282"/><g id="boca"><path class="cls-4" d="M221.11,331.82A25.58,25.58,0,0,1,225,316.13a20.61,20.61,0,0,1,6.13-6.25l1-.61c.34-.18.7-.34,1.05-.51a14.32,14.32,0,0,1,2.18-.86,15.85,15.85,0,0,1,2.31-.54c.78-.13,1.59-.14,2.38-.2s1.6.08,2.39.2a14.92,14.92,0,0,1,2.31.54,14.32,14.32,0,0,1,2.18.86l1,.51,1,.61a20.61,20.61,0,0,1,6.13,6.25,25.5,25.5,0,0,1,3.89,15.69,45.53,45.53,0,0,0-7.87-12.63c-3.19-3.41-7.13-5.63-11-5.64s-7.87,2.22-11.05,5.63A45.33,45.33,0,0,0,221.11,331.82Z"/></g><path class="cls-4" d="M302.45,210.65a25.93,25.93,0,0,1,1,10.15,22.12,22.12,0,0,1-4,10.9H279.45a23.85,23.85,0,0,1-3.95-17.16c.9-6.82,4.69-12.73,8.86-14.38a14.16,14.16,0,0,1,5-.76,27.6,27.6,0,0,1,4.26.34s22.22,1.72,24.1-3.83a8.54,8.54,0,0,1,.36-1C317.88,195.67,312.51,210.12,302.45,210.65Z"/><path class="cls-4" d="M197.67,232.7H180.24A21.44,21.44,0,0,1,175,220.29a25.74,25.74,0,0,1,1-10.15c-10.07-.54-15.44-15-15.6-15.7,0,.08.16.38.36,1,1.88,5.54,24.1,3.83,24.1,3.83a27.87,27.87,0,0,1,4.28-.34,14,14,0,0,1,4.94.75c4.17,1.66,8,7.57,8.86,14.39C203.87,221.59,201.6,228.53,197.67,232.7Z"/><path id="orelha" class="cls-5" d="M117.07,232.7c0,8.2,4.08,15.16,9.69,17.51v.88c-10.71,0-19.39-8.22-19.39-18.39s8.68-18.38,19.39-18.38v.88C121.15,217.55,117.07,224.5,117.07,232.7Z"/><path id="orelha-2" data-name="orelha" class="cls-5" d="M363,232.7c0,8.2-4.07,15.16-9.68,17.51v.88c10.71,0,19.39-8.22,19.39-18.39S364,214.32,353.3,214.32v.88C358.91,217.55,363,224.5,363,232.7Z"/><path id="pescoço" class="cls-1" d="M261.77,381.35v26.19h1.39c1.84,0,3.69,0,5.52.11,10.6,6,17.36,15,17.36,25.11,0,18-21.41,32.55-47.8,32.55s-47.84-14.59-47.84-32.55c0-9.88,6.46-18.72,16.65-24.68q3.78-.39,7.62-.48V381.72Z"/><path class="cls-6" d="M360.47,194.88a902,902,0,0,1-90.73,7.41c-28.45.89-50.58.24-61.16-.16a863.07,863.07,0,0,1-93.26-8.67l-.56-81.54H356.3Z"/><path class="cls-4" d="M464.79,338.36l-.81,1.89q-2.33,5.34-4.9,10.53c-.41.83-.82,1.65-1.24,2.48a242.64,242.64,0,0,1-18.81,31,245.77,245.77,0,0,1-65.56,63l0,0a167.49,167.49,0,0,0-21.7-15.53c-1.09-.65-2.19-1.3-3.31-1.93-2-1.16-4.12-2.29-6.22-3.37-.93-.48-1.88-1-2.82-1.42-1.89-.93-3.79-1.82-5.72-2.67-1-.43-1.93-.85-2.9-1.26q-3.66-1.53-7.39-2.91h0c-1.26-.46-2.52-.9-3.79-1.33-.84-.29-1.69-.56-2.54-.84l-2-.62-2.28-.68c-1.53-.45-3.07-.87-4.62-1.27l-2.05-.52c-2-.48-4-.93-5.95-1.35l-2-.4q-3-.59-6.05-1.05-.87-.15-1.77-.27l-.43-.06c-.62-.09-1.24-.18-1.87-.25s-1.22-.16-1.84-.23a4.35,4.35,0,0,0-.52-.06c-1.26-.15-2.53-.28-3.8-.4-2.77-.26-5.55-.44-8.37-.56-1-.06-2.07-.09-3.13-.11-.26,0-.52,0-.78,0h-.08l-.86-.51c-1.83-.08-3.68-.11-5.52-.11h-1.39V381.35h-.23c2.43-.41,4.83-.91,7.2-1.48,1.19-.29,2.37-.59,3.55-.91l1.32-.37,1.31-.39c.87-.27,1.76-.54,2.62-.83l1.72-.59c1.14-.4,2.28-.82,3.4-1.25l1.93-.77c1-.39,1.91-.8,2.85-1.21s1.88-.85,2.81-1.29c1.56-.74,3.09-1.52,4.6-2.32l2.25-1.24c.75-.42,1.49-.86,2.22-1.3l1.75-1.07,1.46-.92,1.44-.95,1.44-1c.95-.65,1.88-1.32,2.81-2a110.32,110.32,0,0,0,45-89v-3.05c21.08-.34,38-16.64,38-36.75s-17-36.41-38-36.74V119a17.92,17.92,0,0,0-.16-2.43c-1.17,11.15-6.59,20.18-15.35,23.49-11.46,4.36-25.13-2.35-34.12-15.51-1,13.4-8.28,25-20.06,29.52-17.19,6.53-37.4-4.62-45.13-24.93-.31-.8-.59-1.63-.85-2.44-5.13,14.13-17.14,24.06-31.16,24.06-15.38,0-28.34-11.91-32.43-28.23-6.28,16.54-19.61,27.11-32.45,24.48-6.16-1.25-11.23-5.37-14.77-11.24l-.06-.1v60.23h0l-.77,0-.76,0H125l-.3,0-1.51.13c-.5.05-1,.11-1.48.18l-.22,0-.62.1c-.32,0-.63.1-.94.16h-.06q-.44.07-.87.18c-.31.06-.62.13-.92.21s-.62.14-.92.22c-.61.16-1.21.33-1.8.52-.37.11-.72.23-1.07.35l-.7.25-.87.32c-.28.11-.57.22-.85.35q-.86.34-1.68.75c-.47.22-.95.46-1.41.71l-.25.13-.77.42-.79.46c-.26.15-.52.3-.77.47a35.73,35.73,0,0,0,.77,61.89c.26.16.52.31.79.45s.53.3.8.44l.81.42c.27.15.54.28.82.41s.55.27.83.39.56.25.85.36.44.19.66.27.7.28,1.06.41l.84.3.93.29c.29.1.6.19.9.27l.9.25,1.17.29.65.15c.32.06.63.13,1,.18l.81.15c.48.08,1,.15,1.45.21s1,.12,1.48.17c1,.08,1.94.14,2.93.16h0v9.41a104.13,104.13,0,0,0,88,102.88h-.06V407.6h0c-1.06,0-2.11.07-3.16.13l-1.44.09-1.13.08c-.61,0-1.22.1-1.83.17H207a.37.37,0,0,1-.15.08l-.66,0c-.57,0-1.15,0-1.73.05l-.94,0-2,.08c-.94.05-1.86.11-2.8.18h-.06l-1.85.13c-.62,0-1.23.1-1.85.15s-1.3.12-1.95.2c-1,.11-2.08.22-3.12.35q-3,.36-6,.84c-3,.47-5.94,1-8.86,1.66-2.48.53-4.93,1.11-7.36,1.76a165.88,165.88,0,0,0-63.24,32.44A245.36,245.36,0,0,1,10.83,328.19,273.49,273.49,0,0,0,51.93,280c24.67-37.31,31.47-70.75,33.25-80.57a202.26,202.26,0,0,0,3.23-32.85c.07-1.24.16-2.81.32-4.61C93.94,105,146.24,13.56,240,13.52c93,0,150.32,89.87,151.23,148.41,0,1.58,0,3,0,4.23,8.08,43,23,73.07,35.22,92.62,6.41,10.27,10.46,15,46.45,57.9-.19.6-.38,1.21-.58,1.81-1.77,5.45-3.74,10.83-5.89,16.1Z"/><path class="cls-7" d="M464.79,338.36c-1.43-1.8-2.81-3.63-4.19-5.47-3.91-5.26-7.72-10.6-11.17-16.22l1.27-1c4.52,4.81,8.66,9.89,12.7,15.05l3,3.84Z"/><path id="cabelo_branco" data-name="cabelo branco" class="cls-7" d="M431.37,314.44a95.13,95.13,0,0,1,6.75,7.19c2.11,2.5,4.16,5,6.11,7.65s3.87,5.25,5.56,8.05a47,47,0,0,1,4.3,8.94l-1.31.93a47,47,0,0,1-7-7,96.7,96.7,0,0,1-5.81-7.87c-1.84-2.69-3.57-5.46-5.25-8.27a95.08,95.08,0,0,1-4.6-8.72Z"/><path id="cabelo_branco-2" data-name="cabelo branco" class="cls-7" d="M209.81,72.32c2.3,2.45,4.41,5,6.47,7.66,1,1.32,2,2.64,3,4A49.12,49.12,0,0,1,222,88.24l-.64.49A45.56,45.56,0,0,1,217.93,85c-1.07-1.28-2.08-2.61-3.08-4-2-2.68-3.93-5.39-5.69-8.25Z"/><path id="cabelo_branco-3" data-name="cabelo branco" class="cls-7" d="M202,72.19a49.21,49.21,0,0,1,3.43,3.66c1.08,1.27,2.12,2.56,3.11,3.89a45.93,45.93,0,0,1,2.83,4.1,23.58,23.58,0,0,1,2.19,4.55l-.66.47a23.21,23.21,0,0,1-3.6-3.54c-1.07-1.28-2-2.64-2.95-4s-1.82-2.78-2.67-4.21a48,48,0,0,1-2.35-4.44Z"/><path id="cabelo_branco-4" data-name="cabelo branco" class="cls-7" d="M264.65,72.32c2.29,2.45,4.4,5,6.46,7.66,1,1.32,2.05,2.64,3,4a49.12,49.12,0,0,1,2.69,4.25l-.65.49A47.32,47.32,0,0,1,272.77,85c-1.08-1.28-2.08-2.61-3.08-4-2-2.68-3.94-5.39-5.69-8.25Z"/><path id="cabelo_branco-5" data-name="cabelo branco" class="cls-7" d="M256.84,72.19a47.33,47.33,0,0,1,3.44,3.66c1.07,1.27,2.12,2.56,3.11,3.89s2,2.67,2.83,4.1a24.18,24.18,0,0,1,2.19,4.55l-.67.47a23.14,23.14,0,0,1-3.59-3.54,49.76,49.76,0,0,1-2.95-4c-.94-1.37-1.82-2.78-2.68-4.21a48,48,0,0,1-2.34-4.44Z"/><path id="cabelo_branco-6" data-name="cabelo branco" class="cls-7" d="M54.1,305c-4.52,4.81-8.66,9.89-12.71,15-2,2.59-4,5.18-5.88,7.88a91.68,91.68,0,0,0-5.29,8.33l1.27,1a93.22,93.22,0,0,0,6.65-7.29c2.11-2.51,4.09-5.13,6-7.75,3.92-5.26,7.73-10.6,11.18-16.22Z"/><path id="cabelo_branco-7" data-name="cabelo branco" class="cls-7" d="M69.43,304.71a95.27,95.27,0,0,0-6.76,7.19c-2.1,2.5-4.16,5-6.1,7.65A95.07,95.07,0,0,0,51,327.6a45.81,45.81,0,0,0-4.3,8.94l1.3.93a46.58,46.58,0,0,0,7.06-7,96.74,96.74,0,0,0,5.8-7.88c1.84-2.69,3.58-5.45,5.25-8.26a92.76,92.76,0,0,0,4.61-8.72Z"/><path id="sobra" class="cls-4" d="M166.15,183a48,48,0,0,0,13.3,6.17A41.39,41.39,0,0,0,194,190.78a36.23,36.23,0,0,0,14.09-4.11,45.84,45.84,0,0,0,11.53-9,.8.8,0,0,0,0-1.12.81.81,0,0,0-.9-.13l-.26.14a100.77,100.77,0,0,1-12.67,5.75c-1,.32-2,.7-3.07.91s-2,.54-3,.75-2,.34-3.05.44-2,.23-3,.31a79.78,79.78,0,0,1-12.57-.79c-4.37-.52-8.84-1.46-13.87-2.24l-.42-.06a.77.77,0,0,0-.87.64A.76.76,0,0,0,166.15,183Z"/><path id="sobra-2" data-name="sobra" class="cls-4" d="M253.43,179.24a48.28,48.28,0,0,0,12.32,7.95,41.27,41.27,0,0,0,14.2,3.63,36.25,36.25,0,0,0,14.52-2.13,45.53,45.53,0,0,0,12.66-7.35.8.8,0,0,0,.12-1.12.81.81,0,0,0-.87-.25l-.28.1a102.07,102.07,0,0,1-13.34,4c-1.07.16-2.11.41-3.17.47s-2.07.26-3.11.32-2.06.06-3.09,0-2-.05-3.06-.12A79.54,79.54,0,0,1,268,182.19c-4.25-1.12-8.55-2.67-13.42-4.13l-.41-.12a.75.75,0,0,0-.95.51A.77.77,0,0,0,253.43,179.24Z"/><path id="cabelo_branco-8" data-name="cabelo branco" class="cls-6" d="M274.77,235.37c5.18-.56,10.58-.88,16-1.13,2.74-.12,5.48-.23,8.3-.26s5.66,0,8.64.15l.75.85c-2.52.37-5.17.59-7.85.77s-5.44.28-8.2.36c-5.53.17-11.13.26-16.94.11Z"/><path id="cabelo_branco-9" data-name="cabelo branco" class="cls-6" d="M272.39,242.07c2.49-.39,5.12-.63,7.76-.84s5.36-.34,8.11-.42,5.51-.15,8.41-.06a78.63,78.63,0,0,1,9.08.76l.7.86a46.76,46.76,0,0,1-7.6,1c-2.66.18-5.46.21-8.27.22s-5.68,0-8.57-.14-5.85-.26-8.92-.56Z"/><path id="cabelo_branco-10" data-name="cabelo branco" class="cls-6" d="M172.44,235.37c5.19-.56,10.59-.88,16.05-1.13,2.73-.12,5.47-.23,8.29-.26s5.67,0,8.65.15l.74.85c-2.51.37-5.16.59-7.84.77s-5.44.28-8.2.36c-5.54.17-11.13.26-16.94.11Z"/><path id="cabelo_branco-11" data-name="cabelo branco" class="cls-6" d="M170.06,242.07c2.5-.39,5.12-.63,7.77-.84s5.36-.34,8.11-.42,5.51-.15,8.4-.06a78.61,78.61,0,0,1,9.09.76l.7.86a46.91,46.91,0,0,1-7.6,1c-2.67.18-5.46.21-8.27.22s-5.68,0-8.58-.14-5.85-.26-8.91-.56Z"/><ellipse class="cls-6" cx="236.73" cy="269.14" rx="19.94" ry="14.4"/><path class="cls-8" d="M401.07,95.75l8.23,2.17,2.89.74a2.7,2.7,0,0,1,2.12,2.23,2.78,2.78,0,0,1-1.22,3q-9.76,6.76-19.53,13.53-6.84,4.75-13.67,9.54a2.62,2.62,0,0,1-3.42.1,3.07,3.07,0,0,1-.9-3.75c1.81-3.63,3.62-7.26,5.47-10.87.95-1.85,2-3.67,3-5.64l-5.37-1.28-2.56-.59a3.05,3.05,0,0,1-2.37-2.37,2.59,2.59,0,0,1,1.08-2.78l26.87-23a3.38,3.38,0,0,1,4.19-.06,2.72,2.72,0,0,1,.75,3c-.94,2.58-1.89,5.15-2.79,7.74S402,92.91,401.07,95.75ZM385.8,115.49l.27.2,18.74-13c-.4-.11-.62-.19-.84-.24-2.39-.64-4.79-1.24-7.17-1.91a2.8,2.8,0,0,1-2-4c.64-1.86,1.25-3.72,1.88-5.58.33-1,.67-1.94,1-2.91l-.18-.09c-4.87,4.18-9.75,8.35-14.74,12.62l2.89.7,2.73.63c2.13.51,3.15,2.43,2.24,4.27s-1.94,3.89-2.94,5.82C387.07,113.18,386.42,114.33,385.8,115.49Z"/><path class="cls-8" d="M414.51,163.9c.81,1.95,1.56,3.79,2.33,5.63.66,1.59,1.32,3.18,2,4.75a2.92,2.92,0,0,1-.47,3.37,2.78,2.78,0,0,1-3.17.7l-22.39-7.13-16-5.1a2.63,2.63,0,0,1-2.14-2.75,3,3,0,0,1,2.46-2.86q8.53-1.68,17.07-3.33l1-.23c-.16-.44-.29-.83-.45-1.2-.9-2-1.8-4-2.71-6a3.16,3.16,0,0,1,.51-3.47,2.2,2.2,0,0,1,2.28-.82q8.87,1.88,17.75,3.75,8.66,1.83,17.31,3.63a3.34,3.34,0,0,1,2.59,2.73,2.6,2.6,0,0,1-1.82,2.94q-5.45,1.74-10.87,3.54C418.07,162.65,416.36,163.26,414.51,163.9Zm-3.25,7.2c-.17-.49-.27-.8-.39-1.09-.93-2.23-1.85-4.47-2.8-6.69a2.86,2.86,0,0,1,1.74-3.87c1.6-.41,3.15-1,4.72-1.59l4-1.38,0-.18-19.07-4,2.36,5.11c1.11,2.4.21,4.15-2.41,4.65-2.22.43-4.45.83-6.67,1.26-1.07.2-2.13.43-3.2.65v.17Z"/><path class="cls-8" d="M330.59,98c-1.57,2.19-3.07,4.27-4.53,6.38a3.22,3.22,0,0,1-2.51,1.42,2.28,2.28,0,0,1-2.56-1.55c-1.23-3.54-2.41-7.09-3.61-10.65Q313.5,82,309.6,70.45a3.51,3.51,0,0,1,.37-3.21,2.66,2.66,0,0,1,4.38-.25c1.15,1.22,2.49,2.28,3.76,3.39,2.85,2.48,5.71,5,8.67,7.51l2.84-3.79c1.37-1.84,2.73-3.69,4.12-5.52a2.78,2.78,0,0,1,2.75-1.06,2.5,2.5,0,0,1,2.22,1.88c.61,2.44,1.16,4.89,1.72,7.34l6.75,29.75c.21.91.43,1.82.64,2.73a2.68,2.68,0,0,1-1.32,3.25,2.87,2.87,0,0,1-3.69-.65q-4.69-5.29-9.36-10.62Zm8.92,1.42.18-.07C338,92,336.36,84.6,334.64,77l-.8,1c-1.41,1.89-2.8,3.8-4.25,5.66a2.83,2.83,0,0,1-3.92.75c-1.57-1.33-3.09-2.7-4.65-4-.87-.74-1.77-1.46-2.65-2.19l-.14.12c2,6.06,4.06,12.12,6.17,18.39,1-1.44,2-2.62,2.79-3.93,1.64-2.82,4-3.17,6.24-.35C335.33,94.84,337.47,97.07,339.51,99.38Z"/><path class="cls-8" d="M80.26,93.73c.8-2.78,1.58-5.47,2.35-8.17q.42-1.44.81-2.88a2.69,2.69,0,0,1,2.28-2.07,2.77,2.77,0,0,1,3,1.29q6.54,9.91,13.09,19.83,4.6,6.94,9.23,13.89a2.63,2.63,0,0,1,0,3.42,3.11,3.11,0,0,1-3.78.81c-3.58-1.89-7.17-3.79-10.74-5.72-1.83-1-3.62-2.06-5.57-3.17-.51,2-1,3.65-1.4,5.34-.22.85-.44,1.69-.65,2.54a3.05,3.05,0,0,1-2.42,2.32A2.6,2.6,0,0,1,83.7,120L61.35,92.63a3.38,3.38,0,0,1,0-4.19,2.72,2.72,0,0,1,3-.68c2.55,1,5.11,2,7.68,3S77.44,92.7,80.26,93.73Zm19.38,15.72.21-.27-12.57-19c-.12.39-.2.61-.26.84-.69,2.37-1.34,4.76-2.07,7.12a2.81,2.81,0,0,1-4,1.93c-1.84-.68-3.69-1.33-5.53-2L72.49,97l-.09.18,12.29,15c.29-1.11.53-2,.76-2.86l.69-2.72c.56-2.12,2.5-3.09,4.31-2.15s3.85,2,5.76,3.08C97.37,108.13,98.5,108.8,99.64,109.45Z"/><path class="cls-8" d="M148.69,81.84c2-.77,3.83-1.48,5.68-2.21,1.6-.62,3.21-1.24,4.8-1.91a2.91,2.91,0,0,1,3.36.55,2.78,2.78,0,0,1,.63,3.18q-3.81,11.11-7.64,22.23l-5.46,15.87a2.61,2.61,0,0,1-2.8,2.08,3,3,0,0,1-2.8-2.52Q143,110.55,141.52,102c-.06-.29-.13-.58-.22-1-.44.16-.83.27-1.2.43l-6,2.57a3.15,3.15,0,0,1-3.46-.59,2.18,2.18,0,0,1-.76-2.29c1.37-5.89,2.77-11.77,4.15-17.66q2-8.61,4-17.23a3.35,3.35,0,0,1,2.79-2.53,2.61,2.61,0,0,1,2.9,1.89q1.62,5.49,3.29,10.94C147.53,78.25,148.1,80,148.69,81.84Zm7.12,3.4-1.09.37L148,88.26a2.86,2.86,0,0,1-3.82-1.82c-.38-1.62-1-3.18-1.48-4.76-.43-1.34-.87-2.66-1.3-4h-.17l-4.44,19,5.17-2.25c2.42-1.05,4.15-.11,4.59,2.52.38,2.23.73,4.46,1.11,6.7.18,1.07.38,2.14.58,3.21h.16C150.83,99.71,153.29,92.56,155.81,85.24Z"/><path class="cls-8" d="M80.88,164.25c2.15,1.61,4.19,3.16,6.27,4.67a3.2,3.2,0,0,1,1.36,2.54,2.27,2.27,0,0,1-1.6,2.52c-3.57,1.15-7.15,2.26-10.73,3.37Q64.54,181,52.89,184.61a3.48,3.48,0,0,1-3.19-.45,2.66,2.66,0,0,1-.16-4.38A50.71,50.71,0,0,0,53,176.09c2.54-2.79,5.07-5.59,7.7-8.49L57,164.68c-1.81-1.42-3.63-2.82-5.43-4.25a2.79,2.79,0,0,1-1-2.77,2.51,2.51,0,0,1,1.93-2.18c2.45-.56,4.92-1,7.38-1.55l29.89-6.08c.92-.18,1.84-.39,2.75-.57a2.67,2.67,0,0,1,3.22,1.38,2.87,2.87,0,0,1-.74,3.68q-5.4,4.57-10.82,9.11Zm1.62-8.89-.07-.18L60,159.72l1,.82c1.86,1.46,3.73,2.9,5.57,4.38a2.84,2.84,0,0,1,.66,3.94c-1.37,1.53-2.78,3-4.15,4.56-.77.85-1.5,1.73-2.25,2.6l.11.14,18.53-5.75c-1.42-1.07-2.58-2.09-3.88-2.89-2.78-1.7-3.07-4.09-.2-6.24C77.87,159.44,80.14,157.35,82.5,155.36Z"/></g></svg>