<svg xmlns="http://www.w3.org/2000/svg" viewBox="0 0 500 500"><defs><style>.cls-1{fill:#ead0ce;}.cls-2{fill:none;stroke:#dd6876;stroke-linecap:round;stroke-miterlimit:10;stroke-width:3.06px;}.cls-3{fill:#1c3047;}.cls-4{fill:#dd6876;}.cls-5{fill:#57738d;}.cls-6{fill:#b4cce4;}</style></defs><g id="FADIGA"><path id="face" class="cls-1" d="M414.33,258c0,22.22-18.76,40.25-42.07,40.64V302A122.16,122.16,0,0,1,250.1,424.11H236.9A115.1,115.1,0,0,1,121.79,309V298.59C98.55,298.11,79.9,280.12,79.9,258s18.65-40.16,41.89-40.63v-85a22.6,22.6,0,0,1,22.59-22.61H349.67a22.6,22.6,0,0,1,22.59,22.61v85C395.57,217.7,414.33,235.73,414.33,258Z"/><path id="nariz-2" data-name="nariz" class="cls-2" d="M241.91,241.2v42.07s-17.82,7.93-14,17.52,14,11.72,14,11.72"/><g id="boca"><path class="cls-3" d="M226.2,367.58a28.21,28.21,0,0,1,4.3-17.35,22.76,22.76,0,0,1,6.78-6.91c.36-.23.71-.46,1.07-.67s.77-.38,1.16-.57.76-.38,1.17-.52l1.24-.43a16.86,16.86,0,0,1,2.55-.59c.87-.15,1.76-.16,2.64-.23s1.77.09,2.64.22l1.29.26a6.79,6.79,0,0,1,1.27.34,16.76,16.76,0,0,1,2.41.95l1.15.56,1.07.68a22.8,22.8,0,0,1,6.79,6.91,28.24,28.24,0,0,1,4.3,17.35c-2.43-5.35-5.15-10.19-8.71-14s-7.88-6.22-12.21-6.23-8.7,2.45-12.22,6.22S228.61,362.22,226.2,367.58Z"/></g><path class="cls-3" d="M316.13,253.56c1,.64,1.46,1.37,1.06,2.13s-2.07,1.69-4.45,2.29h-22c-3.47-.89-5.34-2.19-4.36-3.6s5.18-2.68,9.79-3c1.64-.12,3.67-.16,5.49-.16,2.56,0,4.7.07,4.7.07s24.57.36,26.65-.8a3.29,3.29,0,0,1,.4-.21C333.19,250.4,327.25,253.45,316.13,253.56Z"/><path class="cls-3" d="M200.28,258H181c-3.11-.63-5.28-1.56-5.83-2.61-.39-.76,0-1.49,1.07-2.13-11.12-.11-17.06-3.15-17.24-3.3a2.65,2.65,0,0,1,.4.2c2.08,1.16,26.65.8,26.65.8s2.15-.07,4.72-.07c1.82,0,3.84,0,5.46.16,4.62.35,8.81,1.59,9.8,3C207.14,255.65,204.63,257.11,200.28,258Z"/><path id="orelha" class="cls-4" d="M111.17,258c0,9.07,4.5,16.75,10.71,19.35v1c-11.84,0-21.44-9.09-21.44-20.33s9.6-20.33,21.44-20.33v1C115.67,241.23,111.17,248.92,111.17,258Z"/><path id="orelha-2" data-name="orelha" class="cls-4" d="M383.06,258c0,9.07-4.51,16.75-10.71,19.35v1c11.84,0,21.44-9.09,21.44-20.33s-9.6-20.33-21.44-20.33v1C378.55,241.23,383.06,248.92,383.06,258Z"/><path class="cls-1" d="M296,469.27a237.76,237.76,0,0,1-101.27-.95c3-6.45,8.59-12.1,15.93-16.42h0c.56-.06,1.13-.11,1.69-.15l.56-.05.41,0,1.38-.1.26,0h.14c.42,0,.84,0,1.27-.06h0l.92,0h.15l1.57-.06h.07V422.74l51.74-.4h.33v29h1.54c1,0,2,0,3,0l1.52,0,1.59.05,1,.57C287.4,456.5,293.11,462.46,296,469.27Z"/><path class="cls-3" d="M471.74,311.65A236.45,236.45,0,0,1,329.2,459.72a183.06,183.06,0,0,0-45.1-7.59c-1.15-.07-2.3-.1-3.47-.12-.28,0-.57,0-.85,0h-.11c-.31-.2-.63-.39-.95-.56-.5,0-1-.05-1.52-.06l-1.52,0-3.05,0h-1.54V422.35h-.26A122.17,122.17,0,0,0,372.2,302v-3.37c23.31-.37,42.06-18.4,42.06-40.62s-18.75-40.26-42.06-40.64v-85a18.38,18.38,0,0,0-.19-2.68c-1.28,12.32-7.28,22.3-17,26-12.68,4.83-27.79-2.6-37.72-17.14-1.06,14.81-9.16,27.68-22.19,32.62-19,7.24-41.34-5.1-49.89-27.55-.34-.89-.66-1.81-.94-2.7-5.68,15.62-18.95,26.6-34.45,26.6-17,0-31.34-13.17-35.87-31.22-6.93,18.3-21.67,30-35.86,27.08-6.86-1.4-12.5-6-16.41-12.55v66.6c-23.24.46-41.89,18.48-41.89,40.64s18.65,40.14,41.89,40.62V309a115.13,115.13,0,0,0,97.36,113.74H219v28.62l-1.57.05h-.15l-.92,0h0c-.43,0-.85,0-1.27.06h-.14l-.26,0-1.38.1-.41,0-.56.05-1.7.16h0a.51.51,0,0,1-.16.09c-1.24,0-2.45.06-3.69.1l-2.23.09-3.16.19-4.11.32a182.63,182.63,0,0,0-33.58,6.23l-3.29-1.28-2.45-1c-.88-.36-1.75-.71-2.61-1.09q-4.38-1.86-8.67-3.89c-.88-.42-1.75-.83-2.62-1.27q-4.24-2.07-8.38-4.3c-.89-.47-1.76-1-2.64-1.45s-1.66-.93-2.48-1.4l-1.78-1-1.25-.74c-.81-.48-1.62-1-2.42-1.45l-2.59-1.61c-.87-.54-1.73-1.08-2.58-1.64s-1.71-1.1-2.56-1.67-1.69-1.13-2.53-1.7c-.56-.37-1.12-.76-1.67-1.15-.36-.24-.71-.49-1.06-.74l-2.26-1.6c-.79-.57-1.58-1.14-2.36-1.72l-.23-.18c-1.59-1.17-3.17-2.37-4.72-3.59a1.11,1.11,0,0,1-.16-.12c-.75-.59-1.49-1.17-2.22-1.76-1.59-1.27-3.15-2.56-4.71-3.87q-2-1.73-4-3.49c-1-.87-1.95-1.73-2.92-2.62-.71-.65-1.43-1.31-2.13-2s-1.3-1.23-2-1.85c-.17-.15-.33-.31-.49-.47-.65-.63-1.3-1.25-1.94-1.89q-2.16-2.13-4.28-4.33c-.68-.7-1.35-1.41-2-2.12a236.34,236.34,0,0,1-17.17-20.45l-1.23-1.66q-3-4-5.77-8.23l-1.34-2c-.44-.68-.89-1.36-1.32-2s-.87-1.36-1.29-2.05-.87-1.37-1.29-2.06c-.57-.92-1.13-1.85-1.68-2.78s-1.1-1.87-1.64-2.8c-.69-1.21-1.38-2.44-2.06-3.66s-1.32-2.42-2-3.63a.42.42,0,0,0,0-.1c-.66-1.23-1.3-2.46-1.92-3.7-.55-1.08-1.08-2.16-1.61-3.24-.14-.29-.29-.59-.42-.89-.56-1.15-1.1-2.3-1.63-3.46s-1.17-2.55-1.74-3.85-1.13-2.58-1.67-3.88-1.08-2.61-1.6-3.92q5.59-7.31,10.89-15.27C66.42,269,74,232,75.91,221.16a224.88,224.88,0,0,0,3.57-36.33c.07-1.37.18-3.11.35-5.09,5.76-63,63.59-164,167.22-164.08,102.8,0,166.21,99.36,167.21,164.08,0,1.74,0,3.3,0,4.68,8.93,47.56,25.44,80.79,38.95,102.4C457.48,293.73,460.83,298.39,471.74,311.65Z"/><path id="cabelo_branco" data-name="cabelo branco" class="cls-5" d="M211,128.91c2.31,2.46,4.44,5.06,6.51,7.71,1,1.33,2.06,2.66,3,4a48.07,48.07,0,0,1,2.7,4.27l-.65.5a48.12,48.12,0,0,1-3.41-3.74c-1.08-1.29-2.09-2.63-3.1-4-2-2.7-4-5.44-5.72-8.32Z"/><path id="cabelo_branco-2" data-name="cabelo branco" class="cls-5" d="M203.1,128.77a50,50,0,0,1,3.46,3.69c1.08,1.28,2.13,2.58,3.13,3.92s2,2.69,2.85,4.12a23.69,23.69,0,0,1,2.2,4.59l-.66.47a23.09,23.09,0,0,1-3.62-3.57c-1.08-1.28-2-2.65-3-4s-1.83-2.8-2.69-4.24a50,50,0,0,1-2.36-4.47Z"/><path id="cabelo_branco-3" data-name="cabelo branco" class="cls-5" d="M266.17,128.91c2.31,2.46,4.44,5.06,6.51,7.71,1,1.33,2.06,2.66,3,4a48.16,48.16,0,0,1,2.71,4.27l-.65.5a46.2,46.2,0,0,1-3.41-3.74c-1.08-1.29-2.1-2.63-3.1-4-2-2.7-4-5.44-5.73-8.32Z"/><path id="cabelo_branco-4" data-name="cabelo branco" class="cls-5" d="M258.31,128.77a48,48,0,0,1,3.46,3.69c1.08,1.28,2.14,2.58,3.13,3.92s2,2.69,2.85,4.12a23.72,23.72,0,0,1,2.21,4.59l-.67.47a23.53,23.53,0,0,1-3.62-3.57,48.59,48.59,0,0,1-3-4c-.95-1.38-1.83-2.8-2.69-4.24a45.29,45.29,0,0,1-2.36-4.47Z"/><path id="sobra" class="cls-3" d="M164,231.42a53.13,53.13,0,0,0,14.7,6.82,45.63,45.63,0,0,0,16.11,1.8,40,40,0,0,0,15.57-4.55,50.46,50.46,0,0,0,12.74-10,.87.87,0,0,0,0-1.23.89.89,0,0,0-1-.15l-.28.15a113.41,113.41,0,0,1-14,6.37,34.62,34.62,0,0,1-3.4,1c-1.11.33-2.23.61-3.35.83s-2.25.38-3.38.49-2.25.26-3.37.35a89.5,89.5,0,0,1-13.89-.87c-4.83-.58-9.78-1.62-15.34-2.48l-.46-.07a.86.86,0,0,0-1,.71A.85.85,0,0,0,164,231.42Z"/><path id="sobra-2" data-name="sobra" class="cls-3" d="M260.5,227.28a53.27,53.27,0,0,0,13.62,8.79,45.58,45.58,0,0,0,15.7,4,39.84,39.84,0,0,0,16.05-2.35,50.38,50.38,0,0,0,14-8.13.87.87,0,0,0,.13-1.23.85.85,0,0,0-1-.28l-.31.11A111.48,111.48,0,0,1,304,232.56a32.85,32.85,0,0,1-3.5.52c-1.15.17-2.3.29-3.44.36s-2.28.06-3.41,0-2.26-.06-3.39-.13a88.31,88.31,0,0,1-13.64-2.78c-4.7-1.24-9.46-3-14.85-4.58l-.44-.13a.85.85,0,0,0-.81,1.44Z"/><path class="cls-6" d="M313.85,273.64c-2.61,1-4.76,1.07-8.1,1.17a29.36,29.36,0,0,1-7.52-.43c-1.73-.36-5.62-1.18-8.35-3.53C284,265.79,286,255.76,286.12,255a39,39,0,0,0,13.18,3c.37,0,1.93.1,4,0a48.47,48.47,0,0,0,14-2.76c3.76,5.21,4.77,11.08,2.34,14.57C318.13,272,315.37,273.05,313.85,273.64Z"/><path class="cls-6" d="M179,274c2.62.95,4.77,1,8.11,1a29.47,29.47,0,0,0,7.51-.55c1.73-.4,5.6-1.28,8.29-3.68,5.77-5.16,3.66-15.15,3.49-15.94a39.4,39.4,0,0,1-13.13,3.24c-.37,0-1.92.12-4,.07a49,49,0,0,1-14-2.52c-3.67,5.27-4.59,11.15-2.09,14.6C174.73,272.37,177.5,273.39,179,274Z"/></g></svg>