<svg xmlns="http://www.w3.org/2000/svg" viewBox="0 0 500 500"><defs><style>.cls-1{fill:#1f3142;}.cls-2{fill:#c7d6fe;}.cls-3{fill:#fff;}.cls-4{fill:#8fa8e2;}</style></defs><g id="Camada_16" data-name="Camada 16"><path class="cls-1" d="M398.48,84.65c0-.2,0-.41,0-.61a10.29,10.29,0,0,0-.14-1.23c-.08-.41-.16-.82-.27-1.23,0-.19-.1-.38-.15-.58s-.13-.42-.19-.64c-.47-1.53-1.07-3.06-1.56-4.59-.09-.31-.19-.61-.27-.92h-290c-.35,1.32-.82,2.65-1.27,4-.18.55-.37,1.1-.54,1.66l-.24.82h0a.85.85,0,0,0,0,.17,15.12,15.12,0,0,0-.62,4q-.11,85.8-.1,171.61v0q0,85.82.1,171.62a14.62,14.62,0,0,0,.31,2.71c.09.41.18.81.29,1.22s.19.7.3,1c.17.56.36,1.11.54,1.66.45,1.32.92,2.64,1.27,4h290c.08-.33.18-.66.27-1,.49-1.66,1.09-3.33,1.56-5l.18-.67c.06-.22.11-.44.16-.66.11-.45.19-.89.27-1.34a11.75,11.75,0,0,0,.14-1.33c0-.22,0-.44,0-.66Q398.69,256.65,398.48,84.65Zm-283,2.11h54.14v54H115.47ZM387,427.33H115.53V153.22H387Zm0-286.72H181.44V86.76H387.05Z"/><path class="cls-2" d="M115.53,153.22V427.33H387V153.22ZM250.79,395.94c-61.3-.08-109.43-49-109.32-111.16.11-59.79,49.79-108.12,111-107.95,60,.17,108.19,49.65,108.09,110.88C360.43,347.44,311.19,396,250.79,395.94Z"/><path class="cls-3" d="M103.21,428.71a21.27,21.27,0,0,0,1.43,6.62,21.35,21.35,0,0,1-1.44-6.63q-.11-85.81-.1-171.62Q103.1,342.91,103.21,428.71Z"/><path class="cls-3" d="M103.21,85.44q-.1,85.8-.11,171.61,0-85.8.1-171.61a21.35,21.35,0,0,1,1.44-6.62A21.27,21.27,0,0,0,103.21,85.44Z"/><path class="cls-3" d="M395.87,439.3c.08-.33.17-.66.28-1-.09.33-.19.66-.27,1Z"/><path class="cls-3" d="M395.88,74.85c.08.31.18.61.27.92-.1-.31-.2-.61-.28-.92Z"/><path class="cls-3" d="M396.15,438.31c.48-1.67,1.08-3.33,1.56-5C397.24,435,396.64,436.65,396.15,438.31Z"/><path class="cls-3" d="M396.15,75.77c.49,1.53,1.09,3.06,1.56,4.59C397.23,78.83,396.63,77.3,396.15,75.77Z"/><path d="M252.44,176.83c-61.18-.17-110.86,48.16-111,107.95-.11,62.15,48,111.08,109.32,111.16,60.4.07,109.64-48.5,109.74-108.23C360.63,226.48,312.4,177,252.44,176.83Zm-1.78,207.45c-54.6,0-97.71-43.91-97.67-99.39,0-52.51,44.95-96.56,98.39-96.48,54.3.09,97.62,44.36,97.52,99.66C348.8,341,304.58,384.32,250.66,384.28Z"/><path class="cls-1" d="M243.57,113.89a13.11,13.11,0,0,1-12.71,12.93,12.6,12.6,0,0,1-13.29-12.91A12.94,12.94,0,0,1,230,100.79C237,100.55,243.54,106.84,243.57,113.89Z"/><path class="cls-1" d="M320.06,113.86a12.56,12.56,0,0,1-12.54,13,13,13,0,0,1-13.23-12.53,13.36,13.36,0,0,1,13.17-13.52A12.86,12.86,0,0,1,320.06,113.86Z"/><path class="cls-1" d="M268.77,100.79a13,13,0,0,1,12.68,13,12.83,12.83,0,1,1-25.66-.26A13,13,0,0,1,268.77,100.79Z"/><path class="cls-4" d="M251.38,188.41c-53.44-.08-98.36,44-98.39,96.48,0,55.48,43.07,99.34,97.67,99.39,53.92,0,98.14-43.25,98.24-96.21C349,232.77,305.68,188.5,251.38,188.41Zm3.05,177.88c-43.87,2.6-80.76-32.1-83.06-77.21-2.21-43.21,32-79.74,77.07-82.19,43.09-2.35,81,32.57,82.37,77.89C332.11,326.83,300.43,363.58,254.43,366.29Z"/><path d="M330.81,284.78c-1.4-45.32-39.28-80.24-82.37-77.89-45,2.45-79.28,39-77.07,82.19,2.3,45.11,39.19,79.81,83.06,77.21C300.43,363.58,332.11,326.83,330.81,284.78Zm-93-65.2c33.69-7.23,68.53,14.27,78.75,47.81,2.62,8.59.19,14.46-7.12,16.83-10.55,3.41-21.74,6.73-32.64,6.68-16-.09-32.08-3.13-48.09-5.13-1.68-.21-4.07-1.58-4.61-3-2.77-7.23-7.6-11.44-15.38-10-8.21,1.55-11.07,7.77-10.7,16l-13.72,4.57C179.46,259.12,202.89,227.06,237.79,219.58Zm19.93,134.83c-30.51,4.34-63.84-18-71.19-48.39,17.54-9.41,35.68-9.89,54.48-6.79,19.7,3.26,39.54,6,59.36.87,5.9-1.54,11.53-4.13,17.28-6.23C319.16,321.41,291.21,349.64,257.72,354.41Z"/><path class="cls-3" d="M316.54,267.39c-10.22-33.54-45.06-55-78.75-47.81-34.9,7.48-58.33,39.54-53.51,73.85L198,288.86c-.37-8.27,2.49-14.49,10.7-16,7.78-1.48,12.61,2.73,15.38,10,.54,1.41,2.93,2.78,4.61,3,16,2,32.05,5,48.09,5.13,10.9.05,22.09-3.27,32.64-6.68C316.73,281.85,319.16,276,316.54,267.39ZM224.3,259c-2.4-3.55-5-5.73-4.65-7.32.39-1.92,3.23-3.34,5-5,1.49,1.62,4.13,3.21,4.16,4.86C228.87,253.42,226.62,255.38,224.3,259Zm22,12.11c-.43,3.48-4.38,6.51-6.74,9.74l-3.85-.07c-2.2-3.34-6.3-6.85-6-10,.26-2.93,4.8-7,8.11-7.77C243,261.77,246.91,266.22,246.31,271.06Z"/><path class="cls-3" d="M257.72,354.41c-30.51,4.34-63.84-18-71.19-48.39,17.54-9.41,35.68-9.89,54.48-6.79,19.7,3.26,39.54,6.06,59.36.87,5.9-1.54,11.53-4.12,17.28-6.23C319.16,321.41,291.21,349.65,257.72,354.41Z"/><path d="M246.31,271.06c-.43,3.48-4.38,6.52-6.74,9.74l-3.85-.07c-2.2-3.34-6.3-6.85-6-10,.26-2.92,4.8-7,8.11-7.77C243,261.77,246.91,266.22,246.31,271.06Z"/><path d="M228.82,251.52c.05,1.9-2.2,3.86-4.52,7.44-2.4-3.56-5-5.74-4.65-7.32.39-1.93,3.23-3.35,5-5C226.15,248.27,228.79,249.87,228.82,251.52Z"/></g></svg>